<svg xmlns="http://www.w3.org/2000/svg" width="5920.06" height="10379.086" viewBox="0 0 5920.06 10379.086">
  <g id="Component_1_1" data-name="Component 1 – 1" transform="translate(15.023 0.127)">
    <path id="Path_1" data-name="Path 1" d="M870.458-106,858.15,1342.521s-5.137,151.795,55.991,210,222.433,49.12,222.433,49.12L2348,1586.912H4429.555s199.7-5.907,302.171,68.308,107.73,228.552,107.73,228.552l10,471.96s.786,179.4-78.543,262.979-281.925,89.092-281.925,89.092l-1321.946,3.113s-261.207-5.714-381.572,96.849-99.889,323.405-99.889,323.405l3.953,406.4s-13.009,164.363,91.708,211.251,270.544,45.091,270.544,45.091,1846-22.17,2002.68-19.267-40.892,337.748-380.37,668.522-450.666,313-516.756,317.433c-52.475,3.52-931.585,6.317-1291.811,7.321-93.132.259-141.388-4.473-146.294,23.5s-6.535,97.847-6.535,97.847l-6.764,654.6s-13.875,153.142,71.984,225.015,219.58,62.134,219.58,62.134L4594.021,5814.5s141.942-8.37,189.487,36.533,54.373,53.494,64.716,212.633-2.618,252.682-23.341,423.923-21.7,200.65-83.771,264.043-294.489,65.712-294.489,65.712l-1325.339-1.079s-175.8,3.033-259.305,13.354-76.344,55.467-76.344,55.467l-8.755,641.928s-3.22,158.16,85.1,236.9,268.173,78.05,268.173,78.05H6193.544s251.424-13.755,390.058,89.151,164.479,322.472,164.479,322.472v565.673H5104.635s-225.621-12.418-296.024,77.285-66.085,219.393-66.085,219.393v1157.028" transform="translate(-858.044 106)" fill="none" stroke="#ff007a" stroke-width="30"/>
  </g>
</svg>
