<?xml version="1.0" standalone="no"?>
<!DOCTYPE svg PUBLIC "-//W3C//DTD SVG 1.1//EN" "http://www.w3.org/Graphics/SVG/1.1/DTD/svg11.dtd" >
<svg xmlns="http://www.w3.org/2000/svg" xmlns:xlink="http://www.w3.org/1999/xlink" version="1.1">
<metadata>
Created by FontForge 20170731 at Mon Jun 27 14:14:41 2016
 By Aleksey,,,
Copyright (c) 2016 by MA^ns Grebck. All rights reserved.
</metadata>
<defs>
<font id="BunyaPERSONAL-Bold" horiz-adv-x="552" >
  <font-face 
    font-family="Bunya PERSONAL"
    font-weight="700"
    font-stretch="normal"
    units-per-em="1000"
    panose-1="0 0 0 0 0 0 0 0 0 0"
    ascent="800"
    descent="-200"
    x-height="490"
    cap-height="670"
    bbox="-83 -323 1215.45 952"
    underline-thickness="50"
    underline-position="-150"
    unicode-range="U+000D-FB02"
  />
<missing-glyph horiz-adv-x="207" 
 />
    <glyph glyph-name="f_f" unicode="ff" horiz-adv-x="408" 
d="M0 492h32v2q0 34 9 65.5t29.5 54.5t54.5 34t84 5v-93q-25 2 -39 -11.5t-14 -37.5v-19h80v2q0 34 9 65.5t29.5 54.5t54.5 34t84 5v-93q-25 2 -39 -11.5t-14 -37.5v-19h56v-103h-56v-389h-124v389h-80v-389h-124v389h-32v103z" />
    <glyph glyph-name="fi" unicode="fi" horiz-adv-x="351" 
d="M-4 492h32v2q0 83 42.5 124.5t129.5 36.5q10 18 27.5 28.5t37.5 10.5q32 0 53.5 -22t21.5 -54q0 -30 -21.5 -52t-53.5 -22q-28 0 -49 18q-29 4 -46.5 -12.5t-17.5 -38.5v-19h53v-1h122v-491h-124v389h-51v-389h-124v389h-32v103z" />
    <glyph glyph-name="fl" unicode="fl" horiz-adv-x="373" 
d="M-5 492h32v2q0 34 9 65.5t29.5 54.5t54.5 34t84 5v-93q-25 2 -39 -11.5t-14 -37.5v-19h56v-103h-56v-389h-124v389h-32v103zM361 629v-629h-124v629h124z" />
    <glyph glyph-name="f_t" unicode="ft" horiz-adv-x="416" 
d="M204 560q-25 2 -39 -11.5t-14 -37.5v-19h82v137h126v-137h53v-103h-53v-229q0 -52 53 -52v-110q-93 0 -136 39t-43 123v229h-82v-389h-124v389h-32v103h32v22q0 33 9 61.5t29.5 48t54.5 27.5t84 2v-93z" />
    <glyph glyph-name="t_f" unicode="tf" horiz-adv-x="420" 
d="M0 492h31v137h125v-137h92v2q0 34 9 65.5t29.5 54.5t54.5 34t84 5v-93q-25 2 -39 -11.5t-14 -37.5v-19h56v-103h-56v-389h-124v389h-92v-229q0 -52 54 -52v-110q-94 0 -136.5 39t-42.5 123v229h-31v103z" />
    <glyph glyph-name="t_t" unicode="tt" horiz-adv-x="433" 
d="M426 -2q-93 0 -136 39t-43 123v229h-91v-229q0 -52 54 -52v-110q-94 0 -136.5 39t-42.5 123v229h-31v103h31v137h125v-137h91v137h126v-137h67v-103h-67v-229q0 -52 53 -52v-110z" />
    <glyph glyph-name=".notdef" horiz-adv-x="207" 
 />
    <glyph glyph-name=".null" horiz-adv-x="0" 
 />
    <glyph glyph-name="nonmarkingreturn" unicode="&#xd;" horiz-adv-x="207" 
 />
    <glyph glyph-name="NULL" horiz-adv-x="0" 
 />
    <glyph glyph-name="NULL" horiz-adv-x="0" 
 />
    <glyph glyph-name="space" unicode=" " horiz-adv-x="207" 
 />
    <glyph glyph-name="exclam" unicode="!" horiz-adv-x="207" 
d="M39 195v475h130v-475h-130zM32 74q0 15 6 29t16.5 24t23.5 16t28 6q32 0 54 -22t22 -53q0 -30 -22 -52t-54 -22q-15 0 -28 6t-23.5 16t-16.5 23.5t-6 28.5z" />
    <glyph glyph-name="quotedbl" unicode="&#x22;" horiz-adv-x="300" 
d="M131 637v-229h-108v229h108zM281 637v-229h-109v229h109z" />
    <glyph glyph-name="numbersign" unicode="#" horiz-adv-x="340" 
d="M-4 397h37v34h102v-34h68v34h102v-34h40v-107h-40v-63h40v-107h-40v-39h-102v39h-68v-39h-102v39h-37v107h37v63h-37v107zM135 227h68v63h-68v-63z" />
    <glyph glyph-name="dollar" unicode="$" horiz-adv-x="544" 
d="M176 348q-17 -16 -26.5 -38t-9.5 -47q0 -28 10.5 -52t28.5 -42t42.5 -28t52.5 -10q27 0 51.5 10t42.5 28t28.5 42t10.5 52q0 29 -11.5 49t-30.5 33.5t-43 21t-48 11.5q-75 11 -114.5 53.5t-37.5 102.5q0 41 22 74t60 49v65h129v-64q35 -14 54 -40t28 -57l-94 -38
q-3 17 -16 26.5t-28 9.5q-18 0 -29 -10.5t-10 -25.5q3 -31 62 -39q49 -6 92.5 -22t75.5 -44t51 -67t19 -91q0 -48 -15.5 -90t-43 -75t-65 -56t-81.5 -33v-61h-129v64q-42 11 -78 35t-61.5 57t-40 74.5t-14.5 87.5q0 53 21.5 98.5t56.5 75.5z" />
    <glyph glyph-name="percent" unicode="%" horiz-adv-x="542" 
d="M-8 58l203 270q-15 -3 -30 -3q-32 0 -60 12t-49 33t-33 49t-12 61t12 61t33 49t49 33t60 12q31 0 58 -11t47.5 -29.5t33.5 -44.5t16 -56l117 155l94 -94l-191 -255q8 2 16 3t17 1q33 0 61.5 -11.5t49 -32t32.5 -48.5t12 -61t-12 -61t-32.5 -49t-49 -32.5t-61.5 -11.5
q-31 0 -58.5 11t-48 30t-33 45t-14.5 57l-133 -177zM123 480q0 -20 14 -29.5t28 -9.5q18 0 33 9.5t15 29.5q0 17 -15 28.5t-33 11.5q-14 0 -28 -11.5t-14 -28.5zM323 149q0 -20 14.5 -29.5t28.5 -9.5q17 0 32.5 9.5t15.5 29.5q0 17 -15.5 28t-32.5 11q-14 0 -28.5 -11
t-14.5 -28z" />
    <glyph glyph-name="ampersand" unicode="&#x26;" horiz-adv-x="568" 
d="M251 129q27 0 50.5 10.5t41.5 28.5t28.5 42.5t10.5 53.5v132h-123q-30 0 -56 -10t-45 -27.5t-30 -42t-11 -52.5q0 -29 10.5 -53.5t28.5 -42.5t42.5 -28.5t52.5 -10.5zM581 488v-92h-69v-132q0 -56 -20 -104.5t-55.5 -84.5t-83 -56.5t-102.5 -20.5t-103 20.5t-84 56.5
t-56.5 84.5t-20.5 104.5q0 34 10.5 67.5t31 63t51 53t70.5 36.5q-27 7 -38.5 37t1.5 65q14 40 54 62t102 22q45 0 74.5 -14t44.5 -36.5t16.5 -49.5t-8.5 -54h-96q5 20 -6.5 34.5t-30.5 14.5q-18 0 -29.5 -11t-11.5 -26q0 -19 13.5 -29.5t27.5 -10.5h318z" />
    <glyph glyph-name="quotesingle" unicode="'" horiz-adv-x="180" 
d="M155 637v-229h-130v229h130z" />
    <glyph glyph-name="parenleft" unicode="(" horiz-adv-x="305" 
d="M280 540q-26 0 -48.5 -1.5t-39.5 -7.5t-27 -18t-10 -33v-452q0 -21 10 -33t27 -18.5t39.5 -8t48.5 -1.5v-131q-61 0 -108.5 9t-80 31.5t-49.5 59t-17 92.5v452q0 55 17 92t49.5 59t80 31.5t108.5 9.5v-132z" />
    <glyph glyph-name="parenright" unicode=")" horiz-adv-x="303" 
d="M25 672q61 0 108.5 -9.5t80 -31.5t49.5 -59t17 -92v-452q0 -56 -17 -92.5t-49.5 -59t-80 -31.5t-108.5 -9v131q25 0 48 1.5t40 8t27 18.5t10 33v452q0 21 -10 33t-27 18t-40 7.5t-48 1.5v132z" />
    <glyph glyph-name="asterisk" unicode="*" horiz-adv-x="398" 
d="M82 592l68 -43v77h101v-76l67 42l41 -94l-65 -41l65 -40l-41 -93l-67 42v-77h-101v78l-68 -43l-43 93l65 40l-65 41z" />
    <glyph glyph-name="plus" unicode="+" horiz-adv-x="340" 
d="M25 337h77v79h132v-79h81v-132h-81v-79h-132v79h-77v132z" />
    <glyph glyph-name="comma" unicode="," horiz-adv-x="180" 
d="M155 142v-230h-130v230h130z" />
    <glyph glyph-name="hyphen" unicode="-" horiz-adv-x="340" 
d="M25 337h290v-132h-290v132z" />
    <glyph glyph-name="period" unicode="." horiz-adv-x="180" 
d="M12 74q0 31 22 53t52 22q32 0 54 -22t22 -53q0 -30 -22 -52t-54 -22q-30 0 -52 22t-22 52z" />
    <glyph glyph-name="slash" unicode="/" horiz-adv-x="458" 
d="M-40 58l445 591l94 -94l-445 -592z" />
    <glyph glyph-name="zero" unicode="0" horiz-adv-x="1272" 
d="M358 203h42q5 -51 8.5 -101.5t5.5 -101.5q3 38 5.5 77t7.5 77l6 49h39q5 -42 9 -83t7 -83l3 -37q3 41 4.5 80.5t5.5 78.5q2 11 2.5 22t1.5 22h30l-20 -244h-46q-5 48 -9.5 96.5t-6.5 97.5q-2 -36 -5 -72.5t-7 -72.5l-4 -49h-47l-11 137l-12 -137h-45q-5 48 -10 96.5
t-7 97.5q-2 -36 -4.5 -72.5t-6.5 -72.5l-5 -49h-46l-12 140l-11 -140h-46q-5 48 -9.5 96t-6.5 97q-1 -37 -4 -72.5t-7 -71.5l-6 -49h-45l-21 244h30q5 -51 8.5 -101.5t5.5 -101.5q3 38 5.5 77t7.5 77l6 49h39q5 -42 9 -83t7 -83l3 -37q3 41 4.5 80.5t5.5 78.5l5 44h41
q5 -51 8.5 -101.5t6.5 -101.5q3 38 5.5 77t6.5 77q2 12 3 24t3 25h40q5 -42 8.5 -83t7.5 -83l2 -37q3 41 5 80.5t6 78.5zM1204 731h-1130v22h1130v-22zM1204 -197h-1130v22h1130v-22zM740 -41h-35v244h36q11 0 22 0.5t21 -4.5q17 -8 22 -27.5t5 -36.5v-19t-2.5 -22t-7.5 -20
t-14 -12l30 -103h-39l-21 97h-17v-97zM983 13v-54h-33v244h32q12 -43 24.5 -85t22.5 -86q-4 43 -4.5 85.5t-0.5 85.5h32v-244h-33q-12 42 -24.5 83.5t-21.5 83.5q2 -29 3 -56.5t3 -56.5zM606 -41h-33l29 244h57l30 -244h-35l-7 58h-33zM1153 112q1 11 0 23.5t-5 23.5
q-3 8 -10.5 13t-14.5 -5q-6 -8 -7 -20.5t-2 -23.5q-1 -12 -1 -23.5v-22.5v-23t2 -23q0 -9 2 -22t11 -18q10 -6 16 1.5t8 20t2.5 25t0.5 17.5h-25v28h58v-123h-26l-1 33q-2 -11 -7.5 -22t-16.5 -14t-22 2t-18 13q-14 17 -16 42t-2 45q-2 26 -1 52.5t8 50.5q2 11 7 21t15 15
q10 6 22 7t23 -3q12 -5 19 -15t10 -22.5t4 -25.5t1 -24zM224 327q5 8 12 14t16 8q8 2 16 -1.5t17 -0.5l-18 -34q-2 -3 -5.5 -10t0.5 -9q5 -4 11 2t11 13q2 5 5 10l6 10l8 18q8 0 15 4l-19 -38q-2 -3 -5 -9.5t1 -9.5q4 -4 10 1.5t10 12.5q4 9 9.5 19t9.5 19q5 9 9 18t9 18
q8 -2 14 3l-27 -55q-2 -5 -4.5 -10t-4.5 -10t-4 -12.5t6 -3.5q5 2 9.5 7t8.5 11q3 8 8 15q5 8 12 14t16 8t17 -1.5t17 -0.5q-5 -8 -9 -16.5t-9 -17.5q-2 -3 -5 -10t0 -9q3 -3 6.5 -1t7 5.5t6.5 8l5 7.5l1 2l32 66q8 0 13 3q-5 -12 -10 -23.5t-13 -22.5q7 7 16.5 11.5
t16.5 -6.5q6 -10 0.5 -23t-12.5 -21q6 -1 11 2t10 7q4 9 9 18.5t10 18.5l18 36q7 -2 13 3q-7 -14 -13 -27.5t-14 -27.5q-2 -5 -4.5 -10t-5.5 -10q-1 -2 -2 -5.5t-1 -6.5t1 -4.5t6 0.5t10.5 8t8.5 12q3 13 12 22q3 3 9.5 7.5t14 6.5t13.5 0.5t8 -10.5q1 -8 -3.5 -15
t-12 -11.5t-16.5 -7t-15 -2.5q-1 -6 3 -9.5t10 -3.5q13 0 24 7t17 18l4 -2q-8 -14 -23 -22.5t-31 -5.5t-16 18q-4 -5 -8 -9.5t-9 -6.5q-7 -4 -14.5 -1.5t-5.5 12.5v2q-2 -2 -4 -2q-4 -3 -12 -3h-7q-2 0 -3 -2t-3 -2q-10 -6 -21.5 -5t-17.5 11q-7 -9 -17 -12q-9 -2 -12.5 3
t-0.5 13q-5 -7 -13.5 -13.5t-17.5 -0.5q-7 4 -7 14q-6 -9 -14 -14q-8 -4 -15 -1.5t-6 10.5q-7 -7 -11 -9q-8 -4 -15.5 -1.5t-5.5 11.5q-4 -4 -8 -7t-9 -5q-9 -2 -12.5 3t0.5 13h-1q-5 -7 -13.5 -13.5t-17.5 -0.5q-5 2 -6 6.5t0 9.5q-5 -5 -10 -6q-4 -2 -13 -2q-5 0 -6 -1
t-4 -3q-5 -3 -11.5 -5t-11.5 -1t-8 5.5t-1 12.5q2 11 8 22t11 21q5 0 13 4q-3 -8 -6 -15t-7 -14q-1 -3 -4 -7.5t-5 -9.5t-2 -9t4 -5q9 -2 17 8t11 15q5 8 8 17.5t3 18.5q9 2 10 -5t-1 -13q-4 -16 -18 -31q8 -2 15 3t11 12zM943 446q-11 0 -17.5 5t-9.5 13t-4.5 17.5
t-1.5 17.5q-2 19 -2 39.5t6 39.5q3 8 8.5 14.5t14.5 7.5q20 5 31 -13q9 -17 9 -37.5v-38.5q0 -9 -0.5 -20.5t-4 -21t-10.5 -16.5t-19 -7zM389 446q-11 0 -17.5 5t-10 13t-4.5 17.5t-2 17.5q-1 19 -1 39.5t6 39.5q3 8 8 14.5t15 7.5q21 5 31 -13q8 -17 8.5 -37.5t0.5 -38.5
q0 -9 -1 -20.5t-4.5 -21t-10 -16.5t-18.5 -7zM867 -41h-35v244h35v-244zM225 447h-21v152h23h14t13 -2q10 -5 13 -16.5t3 -20.5q1 -11 -1 -27.5t-14 -21.5l18 -64h-24l-13 61q-3 0 -5.5 0.5t-5.5 0.5v-62zM1006 481v-34h-20v152h19q8 -26 16 -52.5t14 -53.5q-2 26 -2.5 53
t-0.5 53h20v-152h-21q-8 26 -15.5 52t-13.5 53q2 -18 2.5 -35.5t1.5 -35.5zM88 447h-22v152h34q26 0 32 -26q4 -14 3.5 -32t-8.5 -32q-7 -10 -17.5 -11t-21.5 -1v-50zM452 481v-34h-20v152h19q8 -26 15.5 -52.5t13.5 -53.5q-2 26 -2.5 53t-0.5 53h20v-152h-21
q-7 26 -14.5 52t-13.5 53q2 -18 2 -35.5t2 -35.5zM524 447h-21l18 152h35l19 -152h-21l-5 37h-21zM701 446q-15 0 -22.5 8.5t-10 21t-2 26.5t0.5 26v71h22v-106q0 -5 -0.5 -10t1.5 -10t7 -7.5t10 2.5t5.5 13.5t0.5 14.5q1 12 0.5 24t-0.5 24v55h22v-71q0 -12 0.5 -26
t-2 -26.5t-9.5 -21t-23 -8.5zM1090 348q5 -1 13 3q-3 -6 -5.5 -10.5t-6.5 -9.5v-1q6 7 14.5 13.5t17.5 7.5q12 0 11.5 -9t-3.5 -17q-3 -4 -10 -14.5t-4 -15.5q2 -3 5.5 -2t7 5l7 8t5.5 7l19 38h-8l3 6h8l8 17q8 0 14 3l-10 -20h15l-4 -6h-14l-18 -37l-5 -10t-1 -10
q3 -3 7 -0.5t8.5 7t7.5 9t4 6.5l4 -2q-5 -8 -12 -17t-18 -11q-9 -2 -12 2t-1 10q-3 -3 -6 -5.5t-6 -4.5q-7 -4 -14.5 -2t-6.5 12q1 8 6.5 15.5t8.5 14.5q1 3 3.5 9.5t-4.5 5.5q-11 -2 -20 -14t-14 -20q-4 -5 -6.5 -11.5t-5.5 -12.5h-12l7 16l-1 -1q-4 -2 -10 -4h-9
q-5 -6 -10.5 -8t-8.5 -2q-10 -4 -18 3t-6.5 18t5.5 20q5 9 14 16.5t21 7.5q10 0 14.5 -6t4.5 -14t-3.5 -16.5t-7.5 -14.5q13 0 20 11zM304 518q-23 15 -26 39q-2 11 2 22.5t15 17.5q9 5 21.5 4t20.5 -9q9 -9 9 -19.5v-21.5q-6 0 -11.5 0.5t-10.5 0.5q0 6 0.5 12.5t-4.5 11.5
q-9 8 -14.5 1t-6.5 -15q0 -11 7.5 -18t15.5 -13t14 -13.5t8 -16.5q2 -11 0.5 -21.5t-7 -18.5t-14 -12.5t-20.5 -2.5q-20 4 -22.5 19.5t-1.5 31.5h20q0 -5 -0.5 -10t0.5 -10q2 -6 7.5 -10t11.5 1q5 4 6 12.5t-1 14.5q-2 8 -7 13.5t-12 9.5zM771 518q-23 13 -27 39
q-1 11 2.5 22.5t14.5 17.5q10 5 22 4t20 -9q9 -9 8.5 -19.5t-0.5 -21.5q-5 0 -10 0.5t-10 0.5q0 6 0.5 12.5t-4.5 11.5q-9 8 -14.5 1t-6.5 -15q0 -11 7 -18t15 -13q17 -12 23 -30q2 -11 0.5 -21.5t-7 -18.5t-14.5 -12.5t-21 -2.5q-20 4 -22.5 19.5t-2.5 31.5h22q0 -5 -1 -10
t1 -10q2 -6 7 -10t11 1q6 4 7 12.5t-1 14.5q-2 8 -7 13.5t-12 9.5zM198 447h-55v152h55v-20h-33v-43h27v-22h-27v-46h33v-21zM875 447h-54v152h54v-20h-32v-43h27v-22h-27v-46h32v-21zM128 319l-42 -2q-5 -8 -9 -17t-5 -19q-8 -2 -9.5 2.5t0 11.5t4.5 13.5t5 8.5l-14 -1
l-5 8h23q11 17 26 34t35 27q6 4 16 5t12 -10q2 -5 -0.5 -10.5t-4.5 -10.5q-5 -10 -9.5 -19.5t-9.5 -18.5q-3 -7 -9 -17.5t-3 -18.5q-8 -2 -10 2t-0.5 10t4.5 12.5t5 9.5zM1163 599h21q-5 -21 -10 -42.5t-10 -42.5q-5 -16 -3.5 -33t1.5 -34h-23q0 17 0.5 34t-3.5 33
q-5 21 -10 42.5t-10 42.5h21q4 -19 7.5 -38.5t5.5 -39.5q1 20 5 39t8 39zM800 287q-7 4 -5.5 11.5t4.5 13.5l17 35q6 0 14 4l-13 -27q-2 -4 -8 -14.5t-2 -14.5q6 -5 14.5 2.5t11.5 11.5t5 7.5t5 8.5l12 24q4 0 12 2q-4 -9 -8.5 -18.5t-9.5 -18.5l-5 -10t0 -10q4 -5 10 1
t11 13q4 9 9.5 19t10.5 19l8 18t9 18q7 -2 14 3l-27 -55l-10 -20q-2 -5 -3.5 -12.5t6.5 -3.5q8 3 15 13q4 10 9.5 20t10.5 19l8 18t9 18q7 -2 14 3l-27 -55l-10 -20q-1 -2 -2 -5.5t-1.5 -6.5t0.5 -4.5t6 0.5q7 2 12 9t8 13l4 -2q-5 -8 -10 -15t-13 -11q-7 -4 -14 -1.5
t-6 10.5q-6 -6 -12 -9q-7 -4 -14 -1.5t-6 11.5q-5 -5 -9.5 -9t-10.5 -4q-9 0 -10 6t2 12q-6 -7 -16.5 -14t-18.5 -2zM1114 447h-54v152h22v-133h32v-19zM634 447h-54v152h22v-133h32v-19zM740 81q6 0 12.5 -0.5t11.5 3.5q9 8 11 20t2 22q0 11 -2 24t-10 21q-5 5 -12 4.5
t-13 -0.5v-94zM675 348q6 -1 14 3q-3 -6 -5.5 -10.5t-6.5 -9.5v-1q6 7 14.5 13.5t17.5 7.5q12 0 11.5 -9t-4.5 -17q-2 -4 -9.5 -14.5t-4.5 -15.5q2 -4 6.5 -1.5t8.5 7t7.5 9t4.5 6.5l4 -2l-10 -14t-13 -12q-7 -4 -14 -2t-6 12q1 8 6.5 15.5t8.5 14.5q1 1 2 4t1.5 5.5
t-0.5 4.5t-5 1q-11 -2 -19.5 -14t-13.5 -20l-12 -24h-12l4 9q-2 -2 -4 -3.5t-4 -2.5q-8 -4 -15 -1.5t-5 12.5q0 8 4.5 15t7.5 15q6 9 9 18q10 0 15 4l-19 -38q-2 -3 -5 -9.5t0 -9.5t7 -0.5t8 7t7 9t4 6.5zM943 582q-6 0 -9 -7.5t-4 -17.5t-0.5 -20t0.5 -14t-0.5 -13.5
t0.5 -19.5t4 -17.5t9 -7.5t9 7.5t4 17.5t0.5 19.5t-0.5 13.5t0.5 14t-0.5 20t-4 17.5t-9 7.5zM389 582q-6 0 -9 -7.5t-4 -17.5t-0.5 -20t0.5 -14t-0.5 -13.5t0.5 -19.5t4 -17.5t9 -7.5t8.5 7.5t3.5 17.5t0.5 19.5t-0.5 13.5t0.5 14t-0.5 20t-3.5 17.5t-8.5 7.5zM1190 599h22
q0 -28 -1 -56t-3 -57h-14q-2 29 -3 56.5t-1 56.5zM152 384q-8 2 -18.5 -7t-15.5 -14q-16 -18 -29 -39h42l13 27q1 3 4 8t5 10.5t2.5 9.5t-3.5 5zM1039 371q-5 -3 -6.5 0.5t-0.5 7.5q-11 4 -16.5 -5.5t-7.5 -16.5h14l-3 -6h-14l-44 -90q-4 0 -14 -2l46 92h-15l3 6h15
q3 8 8 16t15 10q6 2 15 -1q2 -1 5.5 -4.5t-0.5 -6.5zM835 371q-5 -3 -7 0.5t-1 7.5q-11 4 -16.5 -5.5t-7.5 -16.5h14l-3 -6h-14l-44 -90q-5 0 -13 -2l45 92h-15l4 6h14q3 8 8 16t15 10q6 2 15 -1q2 -1 5.5 -4.5t0.5 -6.5zM622 91q-2 -10 -3 -20t-3 -20h29q-3 29 -8 58.5
t-7 59.5q-1 -20 -3.5 -39t-4.5 -39zM88 515q5 0 9.5 -0.5t7.5 3.5q5 5 5.5 14t0.5 16t-0.5 16t-5.5 14q-3 5 -7.5 4.5t-9.5 -0.5v-67zM1045 346q-8 0 -15 -9t-11 -19.5t-4 -19t8 -8.5q6 0 13 9t11.5 19.5t4.5 19t-7 8.5zM928 -21q0 -10 -6 -15t-13.5 -5t-13.5 5t-6 15t6 15
t13.5 5t13.5 -5t6 -15zM562 -21q0 -10 -6 -15t-13.5 -5t-13.5 5t-6 15t6 15t13.5 5t13.5 -5t6 -15zM462 343q-7 0 -12.5 -5t-10 -12.5t-8 -16t-6.5 -13.5q11 -8 21 0t15 16q1 2 4 7t4 10.5t0 9.5t-7 4zM231 292q7 0 13 6t10.5 14t8 16.5t6.5 14.5q-10 5 -20 -3t-15 -16
q-1 -2 -4 -7t-4.5 -10.5t-1 -10t6.5 -4.5zM225 524q4 0 8 -0.5t7 1.5q6 5 7 13t1 15q0 6 -1 14.5t-7 12.5q-3 2 -6.5 2h-8.5v-58zM366 292q7 0 13 6t10.5 14t8 16.5t6.5 14.5q-11 5 -20.5 -3t-14.5 -16q-1 -2 -4 -7t-4.5 -10.5t-1 -10t6.5 -4.5zM539 322q-3 -5 -4 -8l-2 -6
q11 0 24.5 9.5t13.5 21.5q0 8 -5.5 7t-10.5 -4q-5 -4 -9 -9.5t-7 -10.5zM533 529l-3 -24h17q-2 18 -4.5 36t-3.5 36q-1 -11 -2.5 -23t-3.5 -25zM1213 460q0 -6 -4 -9.5t-8.5 -3.5t-8 3.5t-3.5 9.5t3.5 9.5t8 3.5t8.5 -3.5t4 -9.5zM667 368q-4 -7 -11.5 -5t-5.5 10q1 4 5 5.5
t7.5 0.5t5 -4t-0.5 -7zM327 368q-3 -7 -10.5 -5t-5.5 10q1 4 4.5 5.5t7 0.5t5.5 -4t-1 -7zM1194 291q-4 -8 -11.5 -4.5t-3.5 10.5q4 8 11.5 4.5t3.5 -10.5zM1214 337q-2 -4 -5 -5t-6 0.5t-4 4t1 6.5q4 7 11 4t3 -10z" />
    <glyph glyph-name="one" unicode="1" horiz-adv-x="1272" 
d="M358 203h42q5 -51 8.5 -101.5t5.5 -101.5q3 38 5.5 77t7.5 77l6 49h39q5 -42 9 -83t7 -83l3 -37q3 41 4.5 80.5t5.5 78.5q2 11 2.5 22t1.5 22h30l-20 -244h-46q-5 48 -9.5 96.5t-6.5 97.5q-2 -36 -5 -72.5t-7 -72.5l-4 -49h-47l-11 137l-12 -137h-45q-5 48 -10 96.5
t-7 97.5q-2 -36 -4.5 -72.5t-6.5 -72.5l-5 -49h-46l-12 140l-11 -140h-46q-5 48 -9.5 96t-6.5 97q-1 -37 -4 -72.5t-7 -71.5l-6 -49h-45l-21 244h30q5 -51 8.5 -101.5t5.5 -101.5q3 38 5.5 77t7.5 77l6 49h39q5 -42 9 -83t7 -83l3 -37q3 41 4.5 80.5t5.5 78.5l5 44h41
q5 -51 8.5 -101.5t6.5 -101.5q3 38 5.5 77t6.5 77q2 12 3 24t3 25h40q5 -42 8.5 -83t7.5 -83l2 -37q3 41 5 80.5t6 78.5zM1204 731h-1130v22h1130v-22zM1204 -197h-1130v22h1130v-22zM740 -41h-35v244h36q11 0 22 0.5t21 -4.5q17 -8 22 -27.5t5 -36.5v-19t-2.5 -22t-7.5 -20
t-14 -12l30 -103h-39l-21 97h-17v-97zM983 13v-54h-33v244h32q12 -43 24.5 -85t22.5 -86q-4 43 -4.5 85.5t-0.5 85.5h32v-244h-33q-12 42 -24.5 83.5t-21.5 83.5q2 -29 3 -56.5t3 -56.5zM606 -41h-33l29 244h57l30 -244h-35l-7 58h-33zM1153 112q1 11 0 23.5t-5 23.5
q-3 8 -10.5 13t-14.5 -5q-6 -8 -7 -20.5t-2 -23.5q-1 -12 -1 -23.5v-22.5v-23t2 -23q0 -9 2 -22t11 -18q10 -6 16 1.5t8 20t2.5 25t0.5 17.5h-25v28h58v-123h-26l-1 33q-2 -11 -7.5 -22t-16.5 -14t-22 2t-18 13q-14 17 -16 42t-2 45q-2 26 -1 52.5t8 50.5q2 11 7 21t15 15
q10 6 22 7t23 -3q12 -5 19 -15t10 -22.5t4 -25.5t1 -24zM224 327q5 8 12 14t16 8q8 2 16 -1.5t17 -0.5l-18 -34q-2 -3 -5.5 -10t0.5 -9q5 -4 11 2t11 13q2 5 5 10l6 10l8 18q8 0 15 4l-19 -38q-2 -3 -5 -9.5t1 -9.5q4 -4 10 1.5t10 12.5q4 9 9.5 19t9.5 19q5 9 9 18t9 18
q8 -2 14 3l-27 -55q-2 -5 -4.5 -10t-4.5 -10t-4 -12.5t6 -3.5q5 2 9.5 7t8.5 11q3 8 8 15q5 8 12 14t16 8t17 -1.5t17 -0.5q-5 -8 -9 -16.5t-9 -17.5q-2 -3 -5 -10t0 -9q3 -3 6.5 -1t7 5.5t6.5 8l5 7.5l1 2l32 66q8 0 13 3q-5 -12 -10 -23.5t-13 -22.5q7 7 16.5 11.5
t16.5 -6.5q6 -10 0.5 -23t-12.5 -21q6 -1 11 2t10 7q4 9 9 18.5t10 18.5l18 36q7 -2 13 3q-7 -14 -13 -27.5t-14 -27.5q-2 -5 -4.5 -10t-5.5 -10q-1 -2 -2 -5.5t-1 -6.5t1 -4.5t6 0.5t10.5 8t8.5 12q3 13 12 22q3 3 9.5 7.5t14 6.5t13.5 0.5t8 -10.5q1 -8 -3.5 -15
t-12 -11.5t-16.5 -7t-15 -2.5q-1 -6 3 -9.5t10 -3.5q13 0 24 7t17 18l4 -2q-8 -14 -23 -22.5t-31 -5.5t-16 18q-4 -5 -8 -9.5t-9 -6.5q-7 -4 -14.5 -1.5t-5.5 12.5v2q-2 -2 -4 -2q-4 -3 -12 -3h-7q-2 0 -3 -2t-3 -2q-10 -6 -21.5 -5t-17.5 11q-7 -9 -17 -12q-9 -2 -12.5 3
t-0.5 13q-5 -7 -13.5 -13.5t-17.5 -0.5q-7 4 -7 14q-6 -9 -14 -14q-8 -4 -15 -1.5t-6 10.5q-7 -7 -11 -9q-8 -4 -15.5 -1.5t-5.5 11.5q-4 -4 -8 -7t-9 -5q-9 -2 -12.5 3t0.5 13h-1q-5 -7 -13.5 -13.5t-17.5 -0.5q-5 2 -6 6.5t0 9.5q-5 -5 -10 -6q-4 -2 -13 -2q-5 0 -6 -1
t-4 -3q-5 -3 -11.5 -5t-11.5 -1t-8 5.5t-1 12.5q2 11 8 22t11 21q5 0 13 4q-3 -8 -6 -15t-7 -14q-1 -3 -4 -7.5t-5 -9.5t-2 -9t4 -5q9 -2 17 8t11 15q5 8 8 17.5t3 18.5q9 2 10 -5t-1 -13q-4 -16 -18 -31q8 -2 15 3t11 12zM943 446q-11 0 -17.5 5t-9.5 13t-4.5 17.5
t-1.5 17.5q-2 19 -2 39.5t6 39.5q3 8 8.5 14.5t14.5 7.5q20 5 31 -13q9 -17 9 -37.5v-38.5q0 -9 -0.5 -20.5t-4 -21t-10.5 -16.5t-19 -7zM389 446q-11 0 -17.5 5t-10 13t-4.5 17.5t-2 17.5q-1 19 -1 39.5t6 39.5q3 8 8 14.5t15 7.5q21 5 31 -13q8 -17 8.5 -37.5t0.5 -38.5
q0 -9 -1 -20.5t-4.5 -21t-10 -16.5t-18.5 -7zM867 -41h-35v244h35v-244zM225 447h-21v152h23h14t13 -2q10 -5 13 -16.5t3 -20.5q1 -11 -1 -27.5t-14 -21.5l18 -64h-24l-13 61q-3 0 -5.5 0.5t-5.5 0.5v-62zM1006 481v-34h-20v152h19q8 -26 16 -52.5t14 -53.5q-2 26 -2.5 53
t-0.5 53h20v-152h-21q-8 26 -15.5 52t-13.5 53q2 -18 2.5 -35.5t1.5 -35.5zM88 447h-22v152h34q26 0 32 -26q4 -14 3.5 -32t-8.5 -32q-7 -10 -17.5 -11t-21.5 -1v-50zM452 481v-34h-20v152h19q8 -26 15.5 -52.5t13.5 -53.5q-2 26 -2.5 53t-0.5 53h20v-152h-21
q-7 26 -14.5 52t-13.5 53q2 -18 2 -35.5t2 -35.5zM524 447h-21l18 152h35l19 -152h-21l-5 37h-21zM701 446q-15 0 -22.5 8.5t-10 21t-2 26.5t0.5 26v71h22v-106q0 -5 -0.5 -10t1.5 -10t7 -7.5t10 2.5t5.5 13.5t0.5 14.5q1 12 0.5 24t-0.5 24v55h22v-71q0 -12 0.5 -26
t-2 -26.5t-9.5 -21t-23 -8.5zM1090 348q5 -1 13 3q-3 -6 -5.5 -10.5t-6.5 -9.5v-1q6 7 14.5 13.5t17.5 7.5q12 0 11.5 -9t-3.5 -17q-3 -4 -10 -14.5t-4 -15.5q2 -3 5.5 -2t7 5l7 8t5.5 7l19 38h-8l3 6h8l8 17q8 0 14 3l-10 -20h15l-4 -6h-14l-18 -37l-5 -10t-1 -10
q3 -3 7 -0.5t8.5 7t7.5 9t4 6.5l4 -2q-5 -8 -12 -17t-18 -11q-9 -2 -12 2t-1 10q-3 -3 -6 -5.5t-6 -4.5q-7 -4 -14.5 -2t-6.5 12q1 8 6.5 15.5t8.5 14.5q1 3 3.5 9.5t-4.5 5.5q-11 -2 -20 -14t-14 -20q-4 -5 -6.5 -11.5t-5.5 -12.5h-12l7 16l-1 -1q-4 -2 -10 -4h-9
q-5 -6 -10.5 -8t-8.5 -2q-10 -4 -18 3t-6.5 18t5.5 20q5 9 14 16.5t21 7.5q10 0 14.5 -6t4.5 -14t-3.5 -16.5t-7.5 -14.5q13 0 20 11zM304 518q-23 15 -26 39q-2 11 2 22.5t15 17.5q9 5 21.5 4t20.5 -9q9 -9 9 -19.5v-21.5q-6 0 -11.5 0.5t-10.5 0.5q0 6 0.5 12.5t-4.5 11.5
q-9 8 -14.5 1t-6.5 -15q0 -11 7.5 -18t15.5 -13t14 -13.5t8 -16.5q2 -11 0.5 -21.5t-7 -18.5t-14 -12.5t-20.5 -2.5q-20 4 -22.5 19.5t-1.5 31.5h20q0 -5 -0.5 -10t0.5 -10q2 -6 7.5 -10t11.5 1q5 4 6 12.5t-1 14.5q-2 8 -7 13.5t-12 9.5zM771 518q-23 13 -27 39
q-1 11 2.5 22.5t14.5 17.5q10 5 22 4t20 -9q9 -9 8.5 -19.5t-0.5 -21.5q-5 0 -10 0.5t-10 0.5q0 6 0.5 12.5t-4.5 11.5q-9 8 -14.5 1t-6.5 -15q0 -11 7 -18t15 -13q17 -12 23 -30q2 -11 0.5 -21.5t-7 -18.5t-14.5 -12.5t-21 -2.5q-20 4 -22.5 19.5t-2.5 31.5h22q0 -5 -1 -10
t1 -10q2 -6 7 -10t11 1q6 4 7 12.5t-1 14.5q-2 8 -7 13.5t-12 9.5zM198 447h-55v152h55v-20h-33v-43h27v-22h-27v-46h33v-21zM875 447h-54v152h54v-20h-32v-43h27v-22h-27v-46h32v-21zM128 319l-42 -2q-5 -8 -9 -17t-5 -19q-8 -2 -9.5 2.5t0 11.5t4.5 13.5t5 8.5l-14 -1
l-5 8h23q11 17 26 34t35 27q6 4 16 5t12 -10q2 -5 -0.5 -10.5t-4.5 -10.5q-5 -10 -9.5 -19.5t-9.5 -18.5q-3 -7 -9 -17.5t-3 -18.5q-8 -2 -10 2t-0.5 10t4.5 12.5t5 9.5zM1163 599h21q-5 -21 -10 -42.5t-10 -42.5q-5 -16 -3.5 -33t1.5 -34h-23q0 17 0.5 34t-3.5 33
q-5 21 -10 42.5t-10 42.5h21q4 -19 7.5 -38.5t5.5 -39.5q1 20 5 39t8 39zM800 287q-7 4 -5.5 11.5t4.5 13.5l17 35q6 0 14 4l-13 -27q-2 -4 -8 -14.5t-2 -14.5q6 -5 14.5 2.5t11.5 11.5t5 7.5t5 8.5l12 24q4 0 12 2q-4 -9 -8.5 -18.5t-9.5 -18.5l-5 -10t0 -10q4 -5 10 1
t11 13q4 9 9.5 19t10.5 19l8 18t9 18q7 -2 14 3l-27 -55l-10 -20q-2 -5 -3.5 -12.5t6.5 -3.5q8 3 15 13q4 10 9.5 20t10.5 19l8 18t9 18q7 -2 14 3l-27 -55l-10 -20q-1 -2 -2 -5.5t-1.5 -6.5t0.5 -4.5t6 0.5q7 2 12 9t8 13l4 -2q-5 -8 -10 -15t-13 -11q-7 -4 -14 -1.5
t-6 10.5q-6 -6 -12 -9q-7 -4 -14 -1.5t-6 11.5q-5 -5 -9.5 -9t-10.5 -4q-9 0 -10 6t2 12q-6 -7 -16.5 -14t-18.5 -2zM1114 447h-54v152h22v-133h32v-19zM634 447h-54v152h22v-133h32v-19zM740 81q6 0 12.5 -0.5t11.5 3.5q9 8 11 20t2 22q0 11 -2 24t-10 21q-5 5 -12 4.5
t-13 -0.5v-94zM675 348q6 -1 14 3q-3 -6 -5.5 -10.5t-6.5 -9.5v-1q6 7 14.5 13.5t17.5 7.5q12 0 11.5 -9t-4.5 -17q-2 -4 -9.5 -14.5t-4.5 -15.5q2 -4 6.5 -1.5t8.5 7t7.5 9t4.5 6.5l4 -2l-10 -14t-13 -12q-7 -4 -14 -2t-6 12q1 8 6.5 15.5t8.5 14.5q1 1 2 4t1.5 5.5
t-0.5 4.5t-5 1q-11 -2 -19.5 -14t-13.5 -20l-12 -24h-12l4 9q-2 -2 -4 -3.5t-4 -2.5q-8 -4 -15 -1.5t-5 12.5q0 8 4.5 15t7.5 15q6 9 9 18q10 0 15 4l-19 -38q-2 -3 -5 -9.5t0 -9.5t7 -0.5t8 7t7 9t4 6.5zM943 582q-6 0 -9 -7.5t-4 -17.5t-0.5 -20t0.5 -14t-0.5 -13.5
t0.5 -19.5t4 -17.5t9 -7.5t9 7.5t4 17.5t0.5 19.5t-0.5 13.5t0.5 14t-0.5 20t-4 17.5t-9 7.5zM389 582q-6 0 -9 -7.5t-4 -17.5t-0.5 -20t0.5 -14t-0.5 -13.5t0.5 -19.5t4 -17.5t9 -7.5t8.5 7.5t3.5 17.5t0.5 19.5t-0.5 13.5t0.5 14t-0.5 20t-3.5 17.5t-8.5 7.5zM1190 599h22
q0 -28 -1 -56t-3 -57h-14q-2 29 -3 56.5t-1 56.5zM152 384q-8 2 -18.5 -7t-15.5 -14q-16 -18 -29 -39h42l13 27q1 3 4 8t5 10.5t2.5 9.5t-3.5 5zM1039 371q-5 -3 -6.5 0.5t-0.5 7.5q-11 4 -16.5 -5.5t-7.5 -16.5h14l-3 -6h-14l-44 -90q-4 0 -14 -2l46 92h-15l3 6h15
q3 8 8 16t15 10q6 2 15 -1q2 -1 5.5 -4.5t-0.5 -6.5zM835 371q-5 -3 -7 0.5t-1 7.5q-11 4 -16.5 -5.5t-7.5 -16.5h14l-3 -6h-14l-44 -90q-5 0 -13 -2l45 92h-15l4 6h14q3 8 8 16t15 10q6 2 15 -1q2 -1 5.5 -4.5t0.5 -6.5zM622 91q-2 -10 -3 -20t-3 -20h29q-3 29 -8 58.5
t-7 59.5q-1 -20 -3.5 -39t-4.5 -39zM88 515q5 0 9.5 -0.5t7.5 3.5q5 5 5.5 14t0.5 16t-0.5 16t-5.5 14q-3 5 -7.5 4.5t-9.5 -0.5v-67zM1045 346q-8 0 -15 -9t-11 -19.5t-4 -19t8 -8.5q6 0 13 9t11.5 19.5t4.5 19t-7 8.5zM928 -21q0 -10 -6 -15t-13.5 -5t-13.5 5t-6 15t6 15
t13.5 5t13.5 -5t6 -15zM562 -21q0 -10 -6 -15t-13.5 -5t-13.5 5t-6 15t6 15t13.5 5t13.5 -5t6 -15zM462 343q-7 0 -12.5 -5t-10 -12.5t-8 -16t-6.5 -13.5q11 -8 21 0t15 16q1 2 4 7t4 10.5t0 9.5t-7 4zM231 292q7 0 13 6t10.5 14t8 16.5t6.5 14.5q-10 5 -20 -3t-15 -16
q-1 -2 -4 -7t-4.5 -10.5t-1 -10t6.5 -4.5zM225 524q4 0 8 -0.5t7 1.5q6 5 7 13t1 15q0 6 -1 14.5t-7 12.5q-3 2 -6.5 2h-8.5v-58zM366 292q7 0 13 6t10.5 14t8 16.5t6.5 14.5q-11 5 -20.5 -3t-14.5 -16q-1 -2 -4 -7t-4.5 -10.5t-1 -10t6.5 -4.5zM539 322q-3 -5 -4 -8l-2 -6
q11 0 24.5 9.5t13.5 21.5q0 8 -5.5 7t-10.5 -4q-5 -4 -9 -9.5t-7 -10.5zM533 529l-3 -24h17q-2 18 -4.5 36t-3.5 36q-1 -11 -2.5 -23t-3.5 -25zM1213 460q0 -6 -4 -9.5t-8.5 -3.5t-8 3.5t-3.5 9.5t3.5 9.5t8 3.5t8.5 -3.5t4 -9.5zM667 368q-4 -7 -11.5 -5t-5.5 10q1 4 5 5.5
t7.5 0.5t5 -4t-0.5 -7zM327 368q-3 -7 -10.5 -5t-5.5 10q1 4 4.5 5.5t7 0.5t5.5 -4t-1 -7zM1194 291q-4 -8 -11.5 -4.5t-3.5 10.5q4 8 11.5 4.5t3.5 -10.5zM1214 337q-2 -4 -5 -5t-6 0.5t-4 4t1 6.5q4 7 11 4t3 -10z" />
    <glyph glyph-name="two" unicode="2" horiz-adv-x="1272" 
d="M358 203h42q5 -51 8.5 -101.5t5.5 -101.5q3 38 5.5 77t7.5 77l6 49h39q5 -42 9 -83t7 -83l3 -37q3 41 4.5 80.5t5.5 78.5q2 11 2.5 22t1.5 22h30l-20 -244h-46q-5 48 -9.5 96.5t-6.5 97.5q-2 -36 -5 -72.5t-7 -72.5l-4 -49h-47l-11 137l-12 -137h-45q-5 48 -10 96.5
t-7 97.5q-2 -36 -4.5 -72.5t-6.5 -72.5l-5 -49h-46l-12 140l-11 -140h-46q-5 48 -9.5 96t-6.5 97q-1 -37 -4 -72.5t-7 -71.5l-6 -49h-45l-21 244h30q5 -51 8.5 -101.5t5.5 -101.5q3 38 5.5 77t7.5 77l6 49h39q5 -42 9 -83t7 -83l3 -37q3 41 4.5 80.5t5.5 78.5l5 44h41
q5 -51 8.5 -101.5t6.5 -101.5q3 38 5.5 77t6.5 77q2 12 3 24t3 25h40q5 -42 8.5 -83t7.5 -83l2 -37q3 41 5 80.5t6 78.5zM1204 731h-1130v22h1130v-22zM1204 -197h-1130v22h1130v-22zM740 -41h-35v244h36q11 0 22 0.5t21 -4.5q17 -8 22 -27.5t5 -36.5v-19t-2.5 -22t-7.5 -20
t-14 -12l30 -103h-39l-21 97h-17v-97zM983 13v-54h-33v244h32q12 -43 24.5 -85t22.5 -86q-4 43 -4.5 85.5t-0.5 85.5h32v-244h-33q-12 42 -24.5 83.5t-21.5 83.5q2 -29 3 -56.5t3 -56.5zM606 -41h-33l29 244h57l30 -244h-35l-7 58h-33zM1153 112q1 11 0 23.5t-5 23.5
q-3 8 -10.5 13t-14.5 -5q-6 -8 -7 -20.5t-2 -23.5q-1 -12 -1 -23.5v-22.5v-23t2 -23q0 -9 2 -22t11 -18q10 -6 16 1.5t8 20t2.5 25t0.5 17.5h-25v28h58v-123h-26l-1 33q-2 -11 -7.5 -22t-16.5 -14t-22 2t-18 13q-14 17 -16 42t-2 45q-2 26 -1 52.5t8 50.5q2 11 7 21t15 15
q10 6 22 7t23 -3q12 -5 19 -15t10 -22.5t4 -25.5t1 -24zM224 327q5 8 12 14t16 8q8 2 16 -1.5t17 -0.5l-18 -34q-2 -3 -5.5 -10t0.5 -9q5 -4 11 2t11 13q2 5 5 10l6 10l8 18q8 0 15 4l-19 -38q-2 -3 -5 -9.5t1 -9.5q4 -4 10 1.5t10 12.5q4 9 9.5 19t9.5 19q5 9 9 18t9 18
q8 -2 14 3l-27 -55q-2 -5 -4.5 -10t-4.5 -10t-4 -12.5t6 -3.5q5 2 9.5 7t8.5 11q3 8 8 15q5 8 12 14t16 8t17 -1.5t17 -0.5q-5 -8 -9 -16.5t-9 -17.5q-2 -3 -5 -10t0 -9q3 -3 6.5 -1t7 5.5t6.5 8l5 7.5l1 2l32 66q8 0 13 3q-5 -12 -10 -23.5t-13 -22.5q7 7 16.5 11.5
t16.5 -6.5q6 -10 0.5 -23t-12.5 -21q6 -1 11 2t10 7q4 9 9 18.5t10 18.5l18 36q7 -2 13 3q-7 -14 -13 -27.5t-14 -27.5q-2 -5 -4.5 -10t-5.5 -10q-1 -2 -2 -5.5t-1 -6.5t1 -4.5t6 0.5t10.5 8t8.5 12q3 13 12 22q3 3 9.5 7.5t14 6.5t13.5 0.5t8 -10.5q1 -8 -3.5 -15
t-12 -11.5t-16.5 -7t-15 -2.5q-1 -6 3 -9.5t10 -3.5q13 0 24 7t17 18l4 -2q-8 -14 -23 -22.5t-31 -5.5t-16 18q-4 -5 -8 -9.5t-9 -6.5q-7 -4 -14.5 -1.5t-5.5 12.5v2q-2 -2 -4 -2q-4 -3 -12 -3h-7q-2 0 -3 -2t-3 -2q-10 -6 -21.5 -5t-17.5 11q-7 -9 -17 -12q-9 -2 -12.5 3
t-0.5 13q-5 -7 -13.5 -13.5t-17.5 -0.5q-7 4 -7 14q-6 -9 -14 -14q-8 -4 -15 -1.5t-6 10.5q-7 -7 -11 -9q-8 -4 -15.5 -1.5t-5.5 11.5q-4 -4 -8 -7t-9 -5q-9 -2 -12.5 3t0.5 13h-1q-5 -7 -13.5 -13.5t-17.5 -0.5q-5 2 -6 6.5t0 9.5q-5 -5 -10 -6q-4 -2 -13 -2q-5 0 -6 -1
t-4 -3q-5 -3 -11.5 -5t-11.5 -1t-8 5.5t-1 12.5q2 11 8 22t11 21q5 0 13 4q-3 -8 -6 -15t-7 -14q-1 -3 -4 -7.5t-5 -9.5t-2 -9t4 -5q9 -2 17 8t11 15q5 8 8 17.5t3 18.5q9 2 10 -5t-1 -13q-4 -16 -18 -31q8 -2 15 3t11 12zM943 446q-11 0 -17.5 5t-9.5 13t-4.5 17.5
t-1.5 17.5q-2 19 -2 39.5t6 39.5q3 8 8.5 14.5t14.5 7.5q20 5 31 -13q9 -17 9 -37.5v-38.5q0 -9 -0.5 -20.5t-4 -21t-10.5 -16.5t-19 -7zM389 446q-11 0 -17.5 5t-10 13t-4.5 17.5t-2 17.5q-1 19 -1 39.5t6 39.5q3 8 8 14.5t15 7.5q21 5 31 -13q8 -17 8.5 -37.5t0.5 -38.5
q0 -9 -1 -20.5t-4.5 -21t-10 -16.5t-18.5 -7zM867 -41h-35v244h35v-244zM225 447h-21v152h23h14t13 -2q10 -5 13 -16.5t3 -20.5q1 -11 -1 -27.5t-14 -21.5l18 -64h-24l-13 61q-3 0 -5.5 0.5t-5.5 0.5v-62zM1006 481v-34h-20v152h19q8 -26 16 -52.5t14 -53.5q-2 26 -2.5 53
t-0.5 53h20v-152h-21q-8 26 -15.5 52t-13.5 53q2 -18 2.5 -35.5t1.5 -35.5zM88 447h-22v152h34q26 0 32 -26q4 -14 3.5 -32t-8.5 -32q-7 -10 -17.5 -11t-21.5 -1v-50zM452 481v-34h-20v152h19q8 -26 15.5 -52.5t13.5 -53.5q-2 26 -2.5 53t-0.5 53h20v-152h-21
q-7 26 -14.5 52t-13.5 53q2 -18 2 -35.5t2 -35.5zM524 447h-21l18 152h35l19 -152h-21l-5 37h-21zM701 446q-15 0 -22.5 8.5t-10 21t-2 26.5t0.5 26v71h22v-106q0 -5 -0.5 -10t1.5 -10t7 -7.5t10 2.5t5.5 13.5t0.5 14.5q1 12 0.5 24t-0.5 24v55h22v-71q0 -12 0.5 -26
t-2 -26.5t-9.5 -21t-23 -8.5zM1090 348q5 -1 13 3q-3 -6 -5.5 -10.5t-6.5 -9.5v-1q6 7 14.5 13.5t17.5 7.5q12 0 11.5 -9t-3.5 -17q-3 -4 -10 -14.5t-4 -15.5q2 -3 5.5 -2t7 5l7 8t5.5 7l19 38h-8l3 6h8l8 17q8 0 14 3l-10 -20h15l-4 -6h-14l-18 -37l-5 -10t-1 -10
q3 -3 7 -0.5t8.5 7t7.5 9t4 6.5l4 -2q-5 -8 -12 -17t-18 -11q-9 -2 -12 2t-1 10q-3 -3 -6 -5.5t-6 -4.5q-7 -4 -14.5 -2t-6.5 12q1 8 6.5 15.5t8.5 14.5q1 3 3.5 9.5t-4.5 5.5q-11 -2 -20 -14t-14 -20q-4 -5 -6.5 -11.5t-5.5 -12.5h-12l7 16l-1 -1q-4 -2 -10 -4h-9
q-5 -6 -10.5 -8t-8.5 -2q-10 -4 -18 3t-6.5 18t5.5 20q5 9 14 16.5t21 7.5q10 0 14.5 -6t4.5 -14t-3.5 -16.5t-7.5 -14.5q13 0 20 11zM304 518q-23 15 -26 39q-2 11 2 22.5t15 17.5q9 5 21.5 4t20.5 -9q9 -9 9 -19.5v-21.5q-6 0 -11.5 0.5t-10.5 0.5q0 6 0.5 12.5t-4.5 11.5
q-9 8 -14.5 1t-6.5 -15q0 -11 7.5 -18t15.5 -13t14 -13.5t8 -16.5q2 -11 0.5 -21.5t-7 -18.5t-14 -12.5t-20.5 -2.5q-20 4 -22.5 19.5t-1.5 31.5h20q0 -5 -0.5 -10t0.5 -10q2 -6 7.5 -10t11.5 1q5 4 6 12.5t-1 14.5q-2 8 -7 13.5t-12 9.5zM771 518q-23 13 -27 39
q-1 11 2.5 22.5t14.5 17.5q10 5 22 4t20 -9q9 -9 8.5 -19.5t-0.5 -21.5q-5 0 -10 0.5t-10 0.5q0 6 0.5 12.5t-4.5 11.5q-9 8 -14.5 1t-6.5 -15q0 -11 7 -18t15 -13q17 -12 23 -30q2 -11 0.5 -21.5t-7 -18.5t-14.5 -12.5t-21 -2.5q-20 4 -22.5 19.5t-2.5 31.5h22q0 -5 -1 -10
t1 -10q2 -6 7 -10t11 1q6 4 7 12.5t-1 14.5q-2 8 -7 13.5t-12 9.5zM198 447h-55v152h55v-20h-33v-43h27v-22h-27v-46h33v-21zM875 447h-54v152h54v-20h-32v-43h27v-22h-27v-46h32v-21zM128 319l-42 -2q-5 -8 -9 -17t-5 -19q-8 -2 -9.5 2.5t0 11.5t4.5 13.5t5 8.5l-14 -1
l-5 8h23q11 17 26 34t35 27q6 4 16 5t12 -10q2 -5 -0.5 -10.5t-4.5 -10.5q-5 -10 -9.5 -19.5t-9.5 -18.5q-3 -7 -9 -17.5t-3 -18.5q-8 -2 -10 2t-0.5 10t4.5 12.5t5 9.5zM1163 599h21q-5 -21 -10 -42.5t-10 -42.5q-5 -16 -3.5 -33t1.5 -34h-23q0 17 0.5 34t-3.5 33
q-5 21 -10 42.5t-10 42.5h21q4 -19 7.5 -38.5t5.5 -39.5q1 20 5 39t8 39zM800 287q-7 4 -5.5 11.5t4.5 13.5l17 35q6 0 14 4l-13 -27q-2 -4 -8 -14.5t-2 -14.5q6 -5 14.5 2.5t11.5 11.5t5 7.5t5 8.5l12 24q4 0 12 2q-4 -9 -8.5 -18.5t-9.5 -18.5l-5 -10t0 -10q4 -5 10 1
t11 13q4 9 9.5 19t10.5 19l8 18t9 18q7 -2 14 3l-27 -55l-10 -20q-2 -5 -3.5 -12.5t6.5 -3.5q8 3 15 13q4 10 9.5 20t10.5 19l8 18t9 18q7 -2 14 3l-27 -55l-10 -20q-1 -2 -2 -5.5t-1.5 -6.5t0.5 -4.5t6 0.5q7 2 12 9t8 13l4 -2q-5 -8 -10 -15t-13 -11q-7 -4 -14 -1.5
t-6 10.5q-6 -6 -12 -9q-7 -4 -14 -1.5t-6 11.5q-5 -5 -9.5 -9t-10.5 -4q-9 0 -10 6t2 12q-6 -7 -16.5 -14t-18.5 -2zM1114 447h-54v152h22v-133h32v-19zM634 447h-54v152h22v-133h32v-19zM740 81q6 0 12.5 -0.5t11.5 3.5q9 8 11 20t2 22q0 11 -2 24t-10 21q-5 5 -12 4.5
t-13 -0.5v-94zM675 348q6 -1 14 3q-3 -6 -5.5 -10.5t-6.5 -9.5v-1q6 7 14.5 13.5t17.5 7.5q12 0 11.5 -9t-4.5 -17q-2 -4 -9.5 -14.5t-4.5 -15.5q2 -4 6.5 -1.5t8.5 7t7.5 9t4.5 6.5l4 -2l-10 -14t-13 -12q-7 -4 -14 -2t-6 12q1 8 6.5 15.5t8.5 14.5q1 1 2 4t1.5 5.5
t-0.5 4.5t-5 1q-11 -2 -19.5 -14t-13.5 -20l-12 -24h-12l4 9q-2 -2 -4 -3.5t-4 -2.5q-8 -4 -15 -1.5t-5 12.5q0 8 4.5 15t7.5 15q6 9 9 18q10 0 15 4l-19 -38q-2 -3 -5 -9.5t0 -9.5t7 -0.5t8 7t7 9t4 6.5zM943 582q-6 0 -9 -7.5t-4 -17.5t-0.5 -20t0.5 -14t-0.5 -13.5
t0.5 -19.5t4 -17.5t9 -7.5t9 7.5t4 17.5t0.5 19.5t-0.5 13.5t0.5 14t-0.5 20t-4 17.5t-9 7.5zM389 582q-6 0 -9 -7.5t-4 -17.5t-0.5 -20t0.5 -14t-0.5 -13.5t0.5 -19.5t4 -17.5t9 -7.5t8.5 7.5t3.5 17.5t0.5 19.5t-0.5 13.5t0.5 14t-0.5 20t-3.5 17.5t-8.5 7.5zM1190 599h22
q0 -28 -1 -56t-3 -57h-14q-2 29 -3 56.5t-1 56.5zM152 384q-8 2 -18.5 -7t-15.5 -14q-16 -18 -29 -39h42l13 27q1 3 4 8t5 10.5t2.5 9.5t-3.5 5zM1039 371q-5 -3 -6.5 0.5t-0.5 7.5q-11 4 -16.5 -5.5t-7.5 -16.5h14l-3 -6h-14l-44 -90q-4 0 -14 -2l46 92h-15l3 6h15
q3 8 8 16t15 10q6 2 15 -1q2 -1 5.5 -4.5t-0.5 -6.5zM835 371q-5 -3 -7 0.5t-1 7.5q-11 4 -16.5 -5.5t-7.5 -16.5h14l-3 -6h-14l-44 -90q-5 0 -13 -2l45 92h-15l4 6h14q3 8 8 16t15 10q6 2 15 -1q2 -1 5.5 -4.5t0.5 -6.5zM622 91q-2 -10 -3 -20t-3 -20h29q-3 29 -8 58.5
t-7 59.5q-1 -20 -3.5 -39t-4.5 -39zM88 515q5 0 9.5 -0.5t7.5 3.5q5 5 5.5 14t0.5 16t-0.5 16t-5.5 14q-3 5 -7.5 4.5t-9.5 -0.5v-67zM1045 346q-8 0 -15 -9t-11 -19.5t-4 -19t8 -8.5q6 0 13 9t11.5 19.5t4.5 19t-7 8.5zM928 -21q0 -10 -6 -15t-13.5 -5t-13.5 5t-6 15t6 15
t13.5 5t13.5 -5t6 -15zM562 -21q0 -10 -6 -15t-13.5 -5t-13.5 5t-6 15t6 15t13.5 5t13.5 -5t6 -15zM462 343q-7 0 -12.5 -5t-10 -12.5t-8 -16t-6.5 -13.5q11 -8 21 0t15 16q1 2 4 7t4 10.5t0 9.5t-7 4zM231 292q7 0 13 6t10.5 14t8 16.5t6.5 14.5q-10 5 -20 -3t-15 -16
q-1 -2 -4 -7t-4.5 -10.5t-1 -10t6.5 -4.5zM225 524q4 0 8 -0.5t7 1.5q6 5 7 13t1 15q0 6 -1 14.5t-7 12.5q-3 2 -6.5 2h-8.5v-58zM366 292q7 0 13 6t10.5 14t8 16.5t6.5 14.5q-11 5 -20.5 -3t-14.5 -16q-1 -2 -4 -7t-4.5 -10.5t-1 -10t6.5 -4.5zM539 322q-3 -5 -4 -8l-2 -6
q11 0 24.5 9.5t13.5 21.5q0 8 -5.5 7t-10.5 -4q-5 -4 -9 -9.5t-7 -10.5zM533 529l-3 -24h17q-2 18 -4.5 36t-3.5 36q-1 -11 -2.5 -23t-3.5 -25zM1213 460q0 -6 -4 -9.5t-8.5 -3.5t-8 3.5t-3.5 9.5t3.5 9.5t8 3.5t8.5 -3.5t4 -9.5zM667 368q-4 -7 -11.5 -5t-5.5 10q1 4 5 5.5
t7.5 0.5t5 -4t-0.5 -7zM327 368q-3 -7 -10.5 -5t-5.5 10q1 4 4.5 5.5t7 0.5t5.5 -4t-1 -7zM1194 291q-4 -8 -11.5 -4.5t-3.5 10.5q4 8 11.5 4.5t3.5 -10.5zM1214 337q-2 -4 -5 -5t-6 0.5t-4 4t1 6.5q4 7 11 4t3 -10z" />
    <glyph glyph-name="three" unicode="3" horiz-adv-x="1272" 
d="M358 203h42q5 -51 8.5 -101.5t5.5 -101.5q3 38 5.5 77t7.5 77l6 49h39q5 -42 9 -83t7 -83l3 -37q3 41 4.5 80.5t5.5 78.5q2 11 2.5 22t1.5 22h30l-20 -244h-46q-5 48 -9.5 96.5t-6.5 97.5q-2 -36 -5 -72.5t-7 -72.5l-4 -49h-47l-11 137l-12 -137h-45q-5 48 -10 96.5
t-7 97.5q-2 -36 -4.5 -72.5t-6.5 -72.5l-5 -49h-46l-12 140l-11 -140h-46q-5 48 -9.5 96t-6.5 97q-1 -37 -4 -72.5t-7 -71.5l-6 -49h-45l-21 244h30q5 -51 8.5 -101.5t5.5 -101.5q3 38 5.5 77t7.5 77l6 49h39q5 -42 9 -83t7 -83l3 -37q3 41 4.5 80.5t5.5 78.5l5 44h41
q5 -51 8.5 -101.5t6.5 -101.5q3 38 5.5 77t6.5 77q2 12 3 24t3 25h40q5 -42 8.5 -83t7.5 -83l2 -37q3 41 5 80.5t6 78.5zM1204 731h-1130v22h1130v-22zM1204 -197h-1130v22h1130v-22zM740 -41h-35v244h36q11 0 22 0.5t21 -4.5q17 -8 22 -27.5t5 -36.5v-19t-2.5 -22t-7.5 -20
t-14 -12l30 -103h-39l-21 97h-17v-97zM983 13v-54h-33v244h32q12 -43 24.5 -85t22.5 -86q-4 43 -4.5 85.5t-0.5 85.5h32v-244h-33q-12 42 -24.5 83.5t-21.5 83.5q2 -29 3 -56.5t3 -56.5zM606 -41h-33l29 244h57l30 -244h-35l-7 58h-33zM1153 112q1 11 0 23.5t-5 23.5
q-3 8 -10.5 13t-14.5 -5q-6 -8 -7 -20.5t-2 -23.5q-1 -12 -1 -23.5v-22.5v-23t2 -23q0 -9 2 -22t11 -18q10 -6 16 1.5t8 20t2.5 25t0.5 17.5h-25v28h58v-123h-26l-1 33q-2 -11 -7.5 -22t-16.5 -14t-22 2t-18 13q-14 17 -16 42t-2 45q-2 26 -1 52.5t8 50.5q2 11 7 21t15 15
q10 6 22 7t23 -3q12 -5 19 -15t10 -22.5t4 -25.5t1 -24zM224 327q5 8 12 14t16 8q8 2 16 -1.5t17 -0.5l-18 -34q-2 -3 -5.5 -10t0.5 -9q5 -4 11 2t11 13q2 5 5 10l6 10l8 18q8 0 15 4l-19 -38q-2 -3 -5 -9.5t1 -9.5q4 -4 10 1.5t10 12.5q4 9 9.5 19t9.5 19q5 9 9 18t9 18
q8 -2 14 3l-27 -55q-2 -5 -4.5 -10t-4.5 -10t-4 -12.5t6 -3.5q5 2 9.5 7t8.5 11q3 8 8 15q5 8 12 14t16 8t17 -1.5t17 -0.5q-5 -8 -9 -16.5t-9 -17.5q-2 -3 -5 -10t0 -9q3 -3 6.5 -1t7 5.5t6.5 8l5 7.5l1 2l32 66q8 0 13 3q-5 -12 -10 -23.5t-13 -22.5q7 7 16.5 11.5
t16.5 -6.5q6 -10 0.5 -23t-12.5 -21q6 -1 11 2t10 7q4 9 9 18.5t10 18.5l18 36q7 -2 13 3q-7 -14 -13 -27.5t-14 -27.5q-2 -5 -4.5 -10t-5.5 -10q-1 -2 -2 -5.5t-1 -6.5t1 -4.5t6 0.5t10.5 8t8.5 12q3 13 12 22q3 3 9.5 7.5t14 6.5t13.5 0.5t8 -10.5q1 -8 -3.5 -15
t-12 -11.5t-16.5 -7t-15 -2.5q-1 -6 3 -9.5t10 -3.5q13 0 24 7t17 18l4 -2q-8 -14 -23 -22.5t-31 -5.5t-16 18q-4 -5 -8 -9.5t-9 -6.5q-7 -4 -14.5 -1.5t-5.5 12.5v2q-2 -2 -4 -2q-4 -3 -12 -3h-7q-2 0 -3 -2t-3 -2q-10 -6 -21.5 -5t-17.5 11q-7 -9 -17 -12q-9 -2 -12.5 3
t-0.5 13q-5 -7 -13.5 -13.5t-17.5 -0.5q-7 4 -7 14q-6 -9 -14 -14q-8 -4 -15 -1.5t-6 10.5q-7 -7 -11 -9q-8 -4 -15.5 -1.5t-5.5 11.5q-4 -4 -8 -7t-9 -5q-9 -2 -12.5 3t0.5 13h-1q-5 -7 -13.5 -13.5t-17.5 -0.5q-5 2 -6 6.5t0 9.5q-5 -5 -10 -6q-4 -2 -13 -2q-5 0 -6 -1
t-4 -3q-5 -3 -11.5 -5t-11.5 -1t-8 5.5t-1 12.5q2 11 8 22t11 21q5 0 13 4q-3 -8 -6 -15t-7 -14q-1 -3 -4 -7.5t-5 -9.5t-2 -9t4 -5q9 -2 17 8t11 15q5 8 8 17.5t3 18.5q9 2 10 -5t-1 -13q-4 -16 -18 -31q8 -2 15 3t11 12zM943 446q-11 0 -17.5 5t-9.5 13t-4.5 17.5
t-1.5 17.5q-2 19 -2 39.5t6 39.5q3 8 8.5 14.5t14.5 7.5q20 5 31 -13q9 -17 9 -37.5v-38.5q0 -9 -0.5 -20.5t-4 -21t-10.5 -16.5t-19 -7zM389 446q-11 0 -17.5 5t-10 13t-4.5 17.5t-2 17.5q-1 19 -1 39.5t6 39.5q3 8 8 14.5t15 7.5q21 5 31 -13q8 -17 8.5 -37.5t0.5 -38.5
q0 -9 -1 -20.5t-4.5 -21t-10 -16.5t-18.5 -7zM867 -41h-35v244h35v-244zM225 447h-21v152h23h14t13 -2q10 -5 13 -16.5t3 -20.5q1 -11 -1 -27.5t-14 -21.5l18 -64h-24l-13 61q-3 0 -5.5 0.5t-5.5 0.5v-62zM1006 481v-34h-20v152h19q8 -26 16 -52.5t14 -53.5q-2 26 -2.5 53
t-0.5 53h20v-152h-21q-8 26 -15.5 52t-13.5 53q2 -18 2.5 -35.5t1.5 -35.5zM88 447h-22v152h34q26 0 32 -26q4 -14 3.5 -32t-8.5 -32q-7 -10 -17.5 -11t-21.5 -1v-50zM452 481v-34h-20v152h19q8 -26 15.5 -52.5t13.5 -53.5q-2 26 -2.5 53t-0.5 53h20v-152h-21
q-7 26 -14.5 52t-13.5 53q2 -18 2 -35.5t2 -35.5zM524 447h-21l18 152h35l19 -152h-21l-5 37h-21zM701 446q-15 0 -22.5 8.5t-10 21t-2 26.5t0.5 26v71h22v-106q0 -5 -0.5 -10t1.5 -10t7 -7.5t10 2.5t5.5 13.5t0.5 14.5q1 12 0.5 24t-0.5 24v55h22v-71q0 -12 0.5 -26
t-2 -26.5t-9.5 -21t-23 -8.5zM1090 348q5 -1 13 3q-3 -6 -5.5 -10.5t-6.5 -9.5v-1q6 7 14.5 13.5t17.5 7.5q12 0 11.5 -9t-3.5 -17q-3 -4 -10 -14.5t-4 -15.5q2 -3 5.5 -2t7 5l7 8t5.5 7l19 38h-8l3 6h8l8 17q8 0 14 3l-10 -20h15l-4 -6h-14l-18 -37l-5 -10t-1 -10
q3 -3 7 -0.5t8.5 7t7.5 9t4 6.5l4 -2q-5 -8 -12 -17t-18 -11q-9 -2 -12 2t-1 10q-3 -3 -6 -5.5t-6 -4.5q-7 -4 -14.5 -2t-6.5 12q1 8 6.5 15.5t8.5 14.5q1 3 3.5 9.5t-4.5 5.5q-11 -2 -20 -14t-14 -20q-4 -5 -6.5 -11.5t-5.5 -12.5h-12l7 16l-1 -1q-4 -2 -10 -4h-9
q-5 -6 -10.5 -8t-8.5 -2q-10 -4 -18 3t-6.5 18t5.5 20q5 9 14 16.5t21 7.5q10 0 14.5 -6t4.5 -14t-3.5 -16.5t-7.5 -14.5q13 0 20 11zM304 518q-23 15 -26 39q-2 11 2 22.5t15 17.5q9 5 21.5 4t20.5 -9q9 -9 9 -19.5v-21.5q-6 0 -11.5 0.5t-10.5 0.5q0 6 0.5 12.5t-4.5 11.5
q-9 8 -14.5 1t-6.5 -15q0 -11 7.5 -18t15.5 -13t14 -13.5t8 -16.5q2 -11 0.5 -21.5t-7 -18.5t-14 -12.5t-20.5 -2.5q-20 4 -22.5 19.5t-1.5 31.5h20q0 -5 -0.5 -10t0.5 -10q2 -6 7.5 -10t11.5 1q5 4 6 12.5t-1 14.5q-2 8 -7 13.5t-12 9.5zM771 518q-23 13 -27 39
q-1 11 2.5 22.5t14.5 17.5q10 5 22 4t20 -9q9 -9 8.5 -19.5t-0.5 -21.5q-5 0 -10 0.5t-10 0.5q0 6 0.5 12.5t-4.5 11.5q-9 8 -14.5 1t-6.5 -15q0 -11 7 -18t15 -13q17 -12 23 -30q2 -11 0.5 -21.5t-7 -18.5t-14.5 -12.5t-21 -2.5q-20 4 -22.5 19.5t-2.5 31.5h22q0 -5 -1 -10
t1 -10q2 -6 7 -10t11 1q6 4 7 12.5t-1 14.5q-2 8 -7 13.5t-12 9.5zM198 447h-55v152h55v-20h-33v-43h27v-22h-27v-46h33v-21zM875 447h-54v152h54v-20h-32v-43h27v-22h-27v-46h32v-21zM128 319l-42 -2q-5 -8 -9 -17t-5 -19q-8 -2 -9.5 2.5t0 11.5t4.5 13.5t5 8.5l-14 -1
l-5 8h23q11 17 26 34t35 27q6 4 16 5t12 -10q2 -5 -0.5 -10.5t-4.5 -10.5q-5 -10 -9.5 -19.5t-9.5 -18.5q-3 -7 -9 -17.5t-3 -18.5q-8 -2 -10 2t-0.5 10t4.5 12.5t5 9.5zM1163 599h21q-5 -21 -10 -42.5t-10 -42.5q-5 -16 -3.5 -33t1.5 -34h-23q0 17 0.5 34t-3.5 33
q-5 21 -10 42.5t-10 42.5h21q4 -19 7.5 -38.5t5.5 -39.5q1 20 5 39t8 39zM800 287q-7 4 -5.5 11.5t4.5 13.5l17 35q6 0 14 4l-13 -27q-2 -4 -8 -14.5t-2 -14.5q6 -5 14.5 2.5t11.5 11.5t5 7.5t5 8.5l12 24q4 0 12 2q-4 -9 -8.5 -18.5t-9.5 -18.5l-5 -10t0 -10q4 -5 10 1
t11 13q4 9 9.5 19t10.5 19l8 18t9 18q7 -2 14 3l-27 -55l-10 -20q-2 -5 -3.5 -12.5t6.5 -3.5q8 3 15 13q4 10 9.5 20t10.5 19l8 18t9 18q7 -2 14 3l-27 -55l-10 -20q-1 -2 -2 -5.5t-1.5 -6.5t0.5 -4.5t6 0.5q7 2 12 9t8 13l4 -2q-5 -8 -10 -15t-13 -11q-7 -4 -14 -1.5
t-6 10.5q-6 -6 -12 -9q-7 -4 -14 -1.5t-6 11.5q-5 -5 -9.5 -9t-10.5 -4q-9 0 -10 6t2 12q-6 -7 -16.5 -14t-18.5 -2zM1114 447h-54v152h22v-133h32v-19zM634 447h-54v152h22v-133h32v-19zM740 81q6 0 12.5 -0.5t11.5 3.5q9 8 11 20t2 22q0 11 -2 24t-10 21q-5 5 -12 4.5
t-13 -0.5v-94zM675 348q6 -1 14 3q-3 -6 -5.5 -10.5t-6.5 -9.5v-1q6 7 14.5 13.5t17.5 7.5q12 0 11.5 -9t-4.5 -17q-2 -4 -9.5 -14.5t-4.5 -15.5q2 -4 6.5 -1.5t8.5 7t7.5 9t4.5 6.5l4 -2l-10 -14t-13 -12q-7 -4 -14 -2t-6 12q1 8 6.5 15.5t8.5 14.5q1 1 2 4t1.5 5.5
t-0.5 4.5t-5 1q-11 -2 -19.5 -14t-13.5 -20l-12 -24h-12l4 9q-2 -2 -4 -3.5t-4 -2.5q-8 -4 -15 -1.5t-5 12.5q0 8 4.5 15t7.5 15q6 9 9 18q10 0 15 4l-19 -38q-2 -3 -5 -9.5t0 -9.5t7 -0.5t8 7t7 9t4 6.5zM943 582q-6 0 -9 -7.5t-4 -17.5t-0.5 -20t0.5 -14t-0.5 -13.5
t0.5 -19.5t4 -17.5t9 -7.5t9 7.5t4 17.5t0.5 19.5t-0.5 13.5t0.5 14t-0.5 20t-4 17.5t-9 7.5zM389 582q-6 0 -9 -7.5t-4 -17.5t-0.5 -20t0.5 -14t-0.5 -13.5t0.5 -19.5t4 -17.5t9 -7.5t8.5 7.5t3.5 17.5t0.5 19.5t-0.5 13.5t0.5 14t-0.5 20t-3.5 17.5t-8.5 7.5zM1190 599h22
q0 -28 -1 -56t-3 -57h-14q-2 29 -3 56.5t-1 56.5zM152 384q-8 2 -18.5 -7t-15.5 -14q-16 -18 -29 -39h42l13 27q1 3 4 8t5 10.5t2.5 9.5t-3.5 5zM1039 371q-5 -3 -6.5 0.5t-0.5 7.5q-11 4 -16.5 -5.5t-7.5 -16.5h14l-3 -6h-14l-44 -90q-4 0 -14 -2l46 92h-15l3 6h15
q3 8 8 16t15 10q6 2 15 -1q2 -1 5.5 -4.5t-0.5 -6.5zM835 371q-5 -3 -7 0.5t-1 7.5q-11 4 -16.5 -5.5t-7.5 -16.5h14l-3 -6h-14l-44 -90q-5 0 -13 -2l45 92h-15l4 6h14q3 8 8 16t15 10q6 2 15 -1q2 -1 5.5 -4.5t0.5 -6.5zM622 91q-2 -10 -3 -20t-3 -20h29q-3 29 -8 58.5
t-7 59.5q-1 -20 -3.5 -39t-4.5 -39zM88 515q5 0 9.5 -0.5t7.5 3.5q5 5 5.5 14t0.5 16t-0.5 16t-5.5 14q-3 5 -7.5 4.5t-9.5 -0.5v-67zM1045 346q-8 0 -15 -9t-11 -19.5t-4 -19t8 -8.5q6 0 13 9t11.5 19.5t4.5 19t-7 8.5zM928 -21q0 -10 -6 -15t-13.5 -5t-13.5 5t-6 15t6 15
t13.5 5t13.5 -5t6 -15zM562 -21q0 -10 -6 -15t-13.5 -5t-13.5 5t-6 15t6 15t13.5 5t13.5 -5t6 -15zM462 343q-7 0 -12.5 -5t-10 -12.5t-8 -16t-6.5 -13.5q11 -8 21 0t15 16q1 2 4 7t4 10.5t0 9.5t-7 4zM231 292q7 0 13 6t10.5 14t8 16.5t6.5 14.5q-10 5 -20 -3t-15 -16
q-1 -2 -4 -7t-4.5 -10.5t-1 -10t6.5 -4.5zM225 524q4 0 8 -0.5t7 1.5q6 5 7 13t1 15q0 6 -1 14.5t-7 12.5q-3 2 -6.5 2h-8.5v-58zM366 292q7 0 13 6t10.5 14t8 16.5t6.5 14.5q-11 5 -20.5 -3t-14.5 -16q-1 -2 -4 -7t-4.5 -10.5t-1 -10t6.5 -4.5zM539 322q-3 -5 -4 -8l-2 -6
q11 0 24.5 9.5t13.5 21.5q0 8 -5.5 7t-10.5 -4q-5 -4 -9 -9.5t-7 -10.5zM533 529l-3 -24h17q-2 18 -4.5 36t-3.5 36q-1 -11 -2.5 -23t-3.5 -25zM1213 460q0 -6 -4 -9.5t-8.5 -3.5t-8 3.5t-3.5 9.5t3.5 9.5t8 3.5t8.5 -3.5t4 -9.5zM667 368q-4 -7 -11.5 -5t-5.5 10q1 4 5 5.5
t7.5 0.5t5 -4t-0.5 -7zM327 368q-3 -7 -10.5 -5t-5.5 10q1 4 4.5 5.5t7 0.5t5.5 -4t-1 -7zM1194 291q-4 -8 -11.5 -4.5t-3.5 10.5q4 8 11.5 4.5t3.5 -10.5zM1214 337q-2 -4 -5 -5t-6 0.5t-4 4t1 6.5q4 7 11 4t3 -10z" />
    <glyph glyph-name="four" unicode="4" horiz-adv-x="1272" 
d="M358 203h42q5 -51 8.5 -101.5t5.5 -101.5q3 38 5.5 77t7.5 77l6 49h39q5 -42 9 -83t7 -83l3 -37q3 41 4.5 80.5t5.5 78.5q2 11 2.5 22t1.5 22h30l-20 -244h-46q-5 48 -9.5 96.5t-6.5 97.5q-2 -36 -5 -72.5t-7 -72.5l-4 -49h-47l-11 137l-12 -137h-45q-5 48 -10 96.5
t-7 97.5q-2 -36 -4.5 -72.5t-6.5 -72.5l-5 -49h-46l-12 140l-11 -140h-46q-5 48 -9.5 96t-6.5 97q-1 -37 -4 -72.5t-7 -71.5l-6 -49h-45l-21 244h30q5 -51 8.5 -101.5t5.5 -101.5q3 38 5.5 77t7.5 77l6 49h39q5 -42 9 -83t7 -83l3 -37q3 41 4.5 80.5t5.5 78.5l5 44h41
q5 -51 8.5 -101.5t6.5 -101.5q3 38 5.5 77t6.5 77q2 12 3 24t3 25h40q5 -42 8.5 -83t7.5 -83l2 -37q3 41 5 80.5t6 78.5zM1204 731h-1130v22h1130v-22zM1204 -197h-1130v22h1130v-22zM740 -41h-35v244h36q11 0 22 0.5t21 -4.5q17 -8 22 -27.5t5 -36.5v-19t-2.5 -22t-7.5 -20
t-14 -12l30 -103h-39l-21 97h-17v-97zM983 13v-54h-33v244h32q12 -43 24.5 -85t22.5 -86q-4 43 -4.5 85.5t-0.5 85.5h32v-244h-33q-12 42 -24.5 83.5t-21.5 83.5q2 -29 3 -56.5t3 -56.5zM606 -41h-33l29 244h57l30 -244h-35l-7 58h-33zM1153 112q1 11 0 23.5t-5 23.5
q-3 8 -10.5 13t-14.5 -5q-6 -8 -7 -20.5t-2 -23.5q-1 -12 -1 -23.5v-22.5v-23t2 -23q0 -9 2 -22t11 -18q10 -6 16 1.5t8 20t2.5 25t0.5 17.5h-25v28h58v-123h-26l-1 33q-2 -11 -7.5 -22t-16.5 -14t-22 2t-18 13q-14 17 -16 42t-2 45q-2 26 -1 52.5t8 50.5q2 11 7 21t15 15
q10 6 22 7t23 -3q12 -5 19 -15t10 -22.5t4 -25.5t1 -24zM224 327q5 8 12 14t16 8q8 2 16 -1.5t17 -0.5l-18 -34q-2 -3 -5.5 -10t0.5 -9q5 -4 11 2t11 13q2 5 5 10l6 10l8 18q8 0 15 4l-19 -38q-2 -3 -5 -9.5t1 -9.5q4 -4 10 1.5t10 12.5q4 9 9.5 19t9.5 19q5 9 9 18t9 18
q8 -2 14 3l-27 -55q-2 -5 -4.5 -10t-4.5 -10t-4 -12.5t6 -3.5q5 2 9.5 7t8.5 11q3 8 8 15q5 8 12 14t16 8t17 -1.5t17 -0.5q-5 -8 -9 -16.5t-9 -17.5q-2 -3 -5 -10t0 -9q3 -3 6.5 -1t7 5.5t6.5 8l5 7.5l1 2l32 66q8 0 13 3q-5 -12 -10 -23.5t-13 -22.5q7 7 16.5 11.5
t16.5 -6.5q6 -10 0.5 -23t-12.5 -21q6 -1 11 2t10 7q4 9 9 18.5t10 18.5l18 36q7 -2 13 3q-7 -14 -13 -27.5t-14 -27.5q-2 -5 -4.5 -10t-5.5 -10q-1 -2 -2 -5.5t-1 -6.5t1 -4.5t6 0.5t10.5 8t8.5 12q3 13 12 22q3 3 9.5 7.5t14 6.5t13.5 0.5t8 -10.5q1 -8 -3.5 -15
t-12 -11.5t-16.5 -7t-15 -2.5q-1 -6 3 -9.5t10 -3.5q13 0 24 7t17 18l4 -2q-8 -14 -23 -22.5t-31 -5.5t-16 18q-4 -5 -8 -9.5t-9 -6.5q-7 -4 -14.5 -1.5t-5.5 12.5v2q-2 -2 -4 -2q-4 -3 -12 -3h-7q-2 0 -3 -2t-3 -2q-10 -6 -21.5 -5t-17.5 11q-7 -9 -17 -12q-9 -2 -12.5 3
t-0.5 13q-5 -7 -13.5 -13.5t-17.5 -0.5q-7 4 -7 14q-6 -9 -14 -14q-8 -4 -15 -1.5t-6 10.5q-7 -7 -11 -9q-8 -4 -15.5 -1.5t-5.5 11.5q-4 -4 -8 -7t-9 -5q-9 -2 -12.5 3t0.5 13h-1q-5 -7 -13.5 -13.5t-17.5 -0.5q-5 2 -6 6.5t0 9.5q-5 -5 -10 -6q-4 -2 -13 -2q-5 0 -6 -1
t-4 -3q-5 -3 -11.5 -5t-11.5 -1t-8 5.5t-1 12.5q2 11 8 22t11 21q5 0 13 4q-3 -8 -6 -15t-7 -14q-1 -3 -4 -7.5t-5 -9.5t-2 -9t4 -5q9 -2 17 8t11 15q5 8 8 17.5t3 18.5q9 2 10 -5t-1 -13q-4 -16 -18 -31q8 -2 15 3t11 12zM943 446q-11 0 -17.5 5t-9.5 13t-4.5 17.5
t-1.5 17.5q-2 19 -2 39.5t6 39.5q3 8 8.5 14.5t14.5 7.5q20 5 31 -13q9 -17 9 -37.5v-38.5q0 -9 -0.5 -20.5t-4 -21t-10.5 -16.5t-19 -7zM389 446q-11 0 -17.5 5t-10 13t-4.5 17.5t-2 17.5q-1 19 -1 39.5t6 39.5q3 8 8 14.5t15 7.5q21 5 31 -13q8 -17 8.5 -37.5t0.5 -38.5
q0 -9 -1 -20.5t-4.5 -21t-10 -16.5t-18.5 -7zM867 -41h-35v244h35v-244zM225 447h-21v152h23h14t13 -2q10 -5 13 -16.5t3 -20.5q1 -11 -1 -27.5t-14 -21.5l18 -64h-24l-13 61q-3 0 -5.5 0.5t-5.5 0.5v-62zM1006 481v-34h-20v152h19q8 -26 16 -52.5t14 -53.5q-2 26 -2.5 53
t-0.5 53h20v-152h-21q-8 26 -15.5 52t-13.5 53q2 -18 2.5 -35.5t1.5 -35.5zM88 447h-22v152h34q26 0 32 -26q4 -14 3.5 -32t-8.5 -32q-7 -10 -17.5 -11t-21.5 -1v-50zM452 481v-34h-20v152h19q8 -26 15.5 -52.5t13.5 -53.5q-2 26 -2.5 53t-0.5 53h20v-152h-21
q-7 26 -14.5 52t-13.5 53q2 -18 2 -35.5t2 -35.5zM524 447h-21l18 152h35l19 -152h-21l-5 37h-21zM701 446q-15 0 -22.5 8.5t-10 21t-2 26.5t0.5 26v71h22v-106q0 -5 -0.5 -10t1.5 -10t7 -7.5t10 2.5t5.5 13.5t0.5 14.5q1 12 0.5 24t-0.5 24v55h22v-71q0 -12 0.5 -26
t-2 -26.5t-9.5 -21t-23 -8.5zM1090 348q5 -1 13 3q-3 -6 -5.5 -10.5t-6.5 -9.5v-1q6 7 14.5 13.5t17.5 7.5q12 0 11.5 -9t-3.5 -17q-3 -4 -10 -14.5t-4 -15.5q2 -3 5.5 -2t7 5l7 8t5.5 7l19 38h-8l3 6h8l8 17q8 0 14 3l-10 -20h15l-4 -6h-14l-18 -37l-5 -10t-1 -10
q3 -3 7 -0.5t8.5 7t7.5 9t4 6.5l4 -2q-5 -8 -12 -17t-18 -11q-9 -2 -12 2t-1 10q-3 -3 -6 -5.5t-6 -4.5q-7 -4 -14.5 -2t-6.5 12q1 8 6.5 15.5t8.5 14.5q1 3 3.5 9.5t-4.5 5.5q-11 -2 -20 -14t-14 -20q-4 -5 -6.5 -11.5t-5.5 -12.5h-12l7 16l-1 -1q-4 -2 -10 -4h-9
q-5 -6 -10.5 -8t-8.5 -2q-10 -4 -18 3t-6.5 18t5.5 20q5 9 14 16.5t21 7.5q10 0 14.5 -6t4.5 -14t-3.5 -16.5t-7.5 -14.5q13 0 20 11zM304 518q-23 15 -26 39q-2 11 2 22.5t15 17.5q9 5 21.5 4t20.5 -9q9 -9 9 -19.5v-21.5q-6 0 -11.5 0.5t-10.5 0.5q0 6 0.5 12.5t-4.5 11.5
q-9 8 -14.5 1t-6.5 -15q0 -11 7.5 -18t15.5 -13t14 -13.5t8 -16.5q2 -11 0.5 -21.5t-7 -18.5t-14 -12.5t-20.5 -2.5q-20 4 -22.5 19.5t-1.5 31.5h20q0 -5 -0.5 -10t0.5 -10q2 -6 7.5 -10t11.5 1q5 4 6 12.5t-1 14.5q-2 8 -7 13.5t-12 9.5zM771 518q-23 13 -27 39
q-1 11 2.5 22.5t14.5 17.5q10 5 22 4t20 -9q9 -9 8.5 -19.5t-0.5 -21.5q-5 0 -10 0.5t-10 0.5q0 6 0.5 12.5t-4.5 11.5q-9 8 -14.5 1t-6.5 -15q0 -11 7 -18t15 -13q17 -12 23 -30q2 -11 0.5 -21.5t-7 -18.5t-14.5 -12.5t-21 -2.5q-20 4 -22.5 19.5t-2.5 31.5h22q0 -5 -1 -10
t1 -10q2 -6 7 -10t11 1q6 4 7 12.5t-1 14.5q-2 8 -7 13.5t-12 9.5zM198 447h-55v152h55v-20h-33v-43h27v-22h-27v-46h33v-21zM875 447h-54v152h54v-20h-32v-43h27v-22h-27v-46h32v-21zM128 319l-42 -2q-5 -8 -9 -17t-5 -19q-8 -2 -9.5 2.5t0 11.5t4.5 13.5t5 8.5l-14 -1
l-5 8h23q11 17 26 34t35 27q6 4 16 5t12 -10q2 -5 -0.5 -10.5t-4.5 -10.5q-5 -10 -9.5 -19.5t-9.5 -18.5q-3 -7 -9 -17.5t-3 -18.5q-8 -2 -10 2t-0.5 10t4.5 12.5t5 9.5zM1163 599h21q-5 -21 -10 -42.5t-10 -42.5q-5 -16 -3.5 -33t1.5 -34h-23q0 17 0.5 34t-3.5 33
q-5 21 -10 42.5t-10 42.5h21q4 -19 7.5 -38.5t5.5 -39.5q1 20 5 39t8 39zM800 287q-7 4 -5.5 11.5t4.5 13.5l17 35q6 0 14 4l-13 -27q-2 -4 -8 -14.5t-2 -14.5q6 -5 14.5 2.5t11.5 11.5t5 7.5t5 8.5l12 24q4 0 12 2q-4 -9 -8.5 -18.5t-9.5 -18.5l-5 -10t0 -10q4 -5 10 1
t11 13q4 9 9.5 19t10.5 19l8 18t9 18q7 -2 14 3l-27 -55l-10 -20q-2 -5 -3.5 -12.5t6.5 -3.5q8 3 15 13q4 10 9.5 20t10.5 19l8 18t9 18q7 -2 14 3l-27 -55l-10 -20q-1 -2 -2 -5.5t-1.5 -6.5t0.5 -4.5t6 0.5q7 2 12 9t8 13l4 -2q-5 -8 -10 -15t-13 -11q-7 -4 -14 -1.5
t-6 10.5q-6 -6 -12 -9q-7 -4 -14 -1.5t-6 11.5q-5 -5 -9.5 -9t-10.5 -4q-9 0 -10 6t2 12q-6 -7 -16.5 -14t-18.5 -2zM1114 447h-54v152h22v-133h32v-19zM634 447h-54v152h22v-133h32v-19zM740 81q6 0 12.5 -0.5t11.5 3.5q9 8 11 20t2 22q0 11 -2 24t-10 21q-5 5 -12 4.5
t-13 -0.5v-94zM675 348q6 -1 14 3q-3 -6 -5.5 -10.5t-6.5 -9.5v-1q6 7 14.5 13.5t17.5 7.5q12 0 11.5 -9t-4.5 -17q-2 -4 -9.5 -14.5t-4.5 -15.5q2 -4 6.5 -1.5t8.5 7t7.5 9t4.5 6.5l4 -2l-10 -14t-13 -12q-7 -4 -14 -2t-6 12q1 8 6.5 15.5t8.5 14.5q1 1 2 4t1.5 5.5
t-0.5 4.5t-5 1q-11 -2 -19.5 -14t-13.5 -20l-12 -24h-12l4 9q-2 -2 -4 -3.5t-4 -2.5q-8 -4 -15 -1.5t-5 12.5q0 8 4.5 15t7.5 15q6 9 9 18q10 0 15 4l-19 -38q-2 -3 -5 -9.5t0 -9.5t7 -0.5t8 7t7 9t4 6.5zM943 582q-6 0 -9 -7.5t-4 -17.5t-0.5 -20t0.5 -14t-0.5 -13.5
t0.5 -19.5t4 -17.5t9 -7.5t9 7.5t4 17.5t0.5 19.5t-0.5 13.5t0.5 14t-0.5 20t-4 17.5t-9 7.5zM389 582q-6 0 -9 -7.5t-4 -17.5t-0.5 -20t0.5 -14t-0.5 -13.5t0.5 -19.5t4 -17.5t9 -7.5t8.5 7.5t3.5 17.5t0.5 19.5t-0.5 13.5t0.5 14t-0.5 20t-3.5 17.5t-8.5 7.5zM1190 599h22
q0 -28 -1 -56t-3 -57h-14q-2 29 -3 56.5t-1 56.5zM152 384q-8 2 -18.5 -7t-15.5 -14q-16 -18 -29 -39h42l13 27q1 3 4 8t5 10.5t2.5 9.5t-3.5 5zM1039 371q-5 -3 -6.5 0.5t-0.5 7.5q-11 4 -16.5 -5.5t-7.5 -16.5h14l-3 -6h-14l-44 -90q-4 0 -14 -2l46 92h-15l3 6h15
q3 8 8 16t15 10q6 2 15 -1q2 -1 5.5 -4.5t-0.5 -6.5zM835 371q-5 -3 -7 0.5t-1 7.5q-11 4 -16.5 -5.5t-7.5 -16.5h14l-3 -6h-14l-44 -90q-5 0 -13 -2l45 92h-15l4 6h14q3 8 8 16t15 10q6 2 15 -1q2 -1 5.5 -4.5t0.5 -6.5zM622 91q-2 -10 -3 -20t-3 -20h29q-3 29 -8 58.5
t-7 59.5q-1 -20 -3.5 -39t-4.5 -39zM88 515q5 0 9.5 -0.5t7.5 3.5q5 5 5.5 14t0.5 16t-0.5 16t-5.5 14q-3 5 -7.5 4.5t-9.5 -0.5v-67zM1045 346q-8 0 -15 -9t-11 -19.5t-4 -19t8 -8.5q6 0 13 9t11.5 19.5t4.5 19t-7 8.5zM928 -21q0 -10 -6 -15t-13.5 -5t-13.5 5t-6 15t6 15
t13.5 5t13.5 -5t6 -15zM562 -21q0 -10 -6 -15t-13.5 -5t-13.5 5t-6 15t6 15t13.5 5t13.5 -5t6 -15zM462 343q-7 0 -12.5 -5t-10 -12.5t-8 -16t-6.5 -13.5q11 -8 21 0t15 16q1 2 4 7t4 10.5t0 9.5t-7 4zM231 292q7 0 13 6t10.5 14t8 16.5t6.5 14.5q-10 5 -20 -3t-15 -16
q-1 -2 -4 -7t-4.5 -10.5t-1 -10t6.5 -4.5zM225 524q4 0 8 -0.5t7 1.5q6 5 7 13t1 15q0 6 -1 14.5t-7 12.5q-3 2 -6.5 2h-8.5v-58zM366 292q7 0 13 6t10.5 14t8 16.5t6.5 14.5q-11 5 -20.5 -3t-14.5 -16q-1 -2 -4 -7t-4.5 -10.5t-1 -10t6.5 -4.5zM539 322q-3 -5 -4 -8l-2 -6
q11 0 24.5 9.5t13.5 21.5q0 8 -5.5 7t-10.5 -4q-5 -4 -9 -9.5t-7 -10.5zM533 529l-3 -24h17q-2 18 -4.5 36t-3.5 36q-1 -11 -2.5 -23t-3.5 -25zM1213 460q0 -6 -4 -9.5t-8.5 -3.5t-8 3.5t-3.5 9.5t3.5 9.5t8 3.5t8.5 -3.5t4 -9.5zM667 368q-4 -7 -11.5 -5t-5.5 10q1 4 5 5.5
t7.5 0.5t5 -4t-0.5 -7zM327 368q-3 -7 -10.5 -5t-5.5 10q1 4 4.5 5.5t7 0.5t5.5 -4t-1 -7zM1194 291q-4 -8 -11.5 -4.5t-3.5 10.5q4 8 11.5 4.5t3.5 -10.5zM1214 337q-2 -4 -5 -5t-6 0.5t-4 4t1 6.5q4 7 11 4t3 -10z" />
    <glyph glyph-name="five" unicode="5" horiz-adv-x="1272" 
d="M358 203h42q5 -51 8.5 -101.5t5.5 -101.5q3 38 5.5 77t7.5 77l6 49h39q5 -42 9 -83t7 -83l3 -37q3 41 4.5 80.5t5.5 78.5q2 11 2.5 22t1.5 22h30l-20 -244h-46q-5 48 -9.5 96.5t-6.5 97.5q-2 -36 -5 -72.5t-7 -72.5l-4 -49h-47l-11 137l-12 -137h-45q-5 48 -10 96.5
t-7 97.5q-2 -36 -4.5 -72.5t-6.5 -72.5l-5 -49h-46l-12 140l-11 -140h-46q-5 48 -9.5 96t-6.5 97q-1 -37 -4 -72.5t-7 -71.5l-6 -49h-45l-21 244h30q5 -51 8.5 -101.5t5.5 -101.5q3 38 5.5 77t7.5 77l6 49h39q5 -42 9 -83t7 -83l3 -37q3 41 4.5 80.5t5.5 78.5l5 44h41
q5 -51 8.5 -101.5t6.5 -101.5q3 38 5.5 77t6.5 77q2 12 3 24t3 25h40q5 -42 8.5 -83t7.5 -83l2 -37q3 41 5 80.5t6 78.5zM1204 731h-1130v22h1130v-22zM1204 -197h-1130v22h1130v-22zM740 -41h-35v244h36q11 0 22 0.5t21 -4.5q17 -8 22 -27.5t5 -36.5v-19t-2.5 -22t-7.5 -20
t-14 -12l30 -103h-39l-21 97h-17v-97zM983 13v-54h-33v244h32q12 -43 24.5 -85t22.5 -86q-4 43 -4.5 85.5t-0.5 85.5h32v-244h-33q-12 42 -24.5 83.5t-21.5 83.5q2 -29 3 -56.5t3 -56.5zM606 -41h-33l29 244h57l30 -244h-35l-7 58h-33zM1153 112q1 11 0 23.5t-5 23.5
q-3 8 -10.5 13t-14.5 -5q-6 -8 -7 -20.5t-2 -23.5q-1 -12 -1 -23.5v-22.5v-23t2 -23q0 -9 2 -22t11 -18q10 -6 16 1.5t8 20t2.5 25t0.5 17.5h-25v28h58v-123h-26l-1 33q-2 -11 -7.5 -22t-16.5 -14t-22 2t-18 13q-14 17 -16 42t-2 45q-2 26 -1 52.5t8 50.5q2 11 7 21t15 15
q10 6 22 7t23 -3q12 -5 19 -15t10 -22.5t4 -25.5t1 -24zM224 327q5 8 12 14t16 8q8 2 16 -1.5t17 -0.5l-18 -34q-2 -3 -5.5 -10t0.5 -9q5 -4 11 2t11 13q2 5 5 10l6 10l8 18q8 0 15 4l-19 -38q-2 -3 -5 -9.5t1 -9.5q4 -4 10 1.5t10 12.5q4 9 9.5 19t9.5 19q5 9 9 18t9 18
q8 -2 14 3l-27 -55q-2 -5 -4.5 -10t-4.5 -10t-4 -12.5t6 -3.5q5 2 9.5 7t8.5 11q3 8 8 15q5 8 12 14t16 8t17 -1.5t17 -0.5q-5 -8 -9 -16.5t-9 -17.5q-2 -3 -5 -10t0 -9q3 -3 6.5 -1t7 5.5t6.5 8l5 7.5l1 2l32 66q8 0 13 3q-5 -12 -10 -23.5t-13 -22.5q7 7 16.5 11.5
t16.5 -6.5q6 -10 0.5 -23t-12.5 -21q6 -1 11 2t10 7q4 9 9 18.5t10 18.5l18 36q7 -2 13 3q-7 -14 -13 -27.5t-14 -27.5q-2 -5 -4.5 -10t-5.5 -10q-1 -2 -2 -5.5t-1 -6.5t1 -4.5t6 0.5t10.5 8t8.5 12q3 13 12 22q3 3 9.5 7.5t14 6.5t13.5 0.5t8 -10.5q1 -8 -3.5 -15
t-12 -11.5t-16.5 -7t-15 -2.5q-1 -6 3 -9.5t10 -3.5q13 0 24 7t17 18l4 -2q-8 -14 -23 -22.5t-31 -5.5t-16 18q-4 -5 -8 -9.5t-9 -6.5q-7 -4 -14.5 -1.5t-5.5 12.5v2q-2 -2 -4 -2q-4 -3 -12 -3h-7q-2 0 -3 -2t-3 -2q-10 -6 -21.5 -5t-17.5 11q-7 -9 -17 -12q-9 -2 -12.5 3
t-0.5 13q-5 -7 -13.5 -13.5t-17.5 -0.5q-7 4 -7 14q-6 -9 -14 -14q-8 -4 -15 -1.5t-6 10.5q-7 -7 -11 -9q-8 -4 -15.5 -1.5t-5.5 11.5q-4 -4 -8 -7t-9 -5q-9 -2 -12.5 3t0.5 13h-1q-5 -7 -13.5 -13.5t-17.5 -0.5q-5 2 -6 6.5t0 9.5q-5 -5 -10 -6q-4 -2 -13 -2q-5 0 -6 -1
t-4 -3q-5 -3 -11.5 -5t-11.5 -1t-8 5.5t-1 12.5q2 11 8 22t11 21q5 0 13 4q-3 -8 -6 -15t-7 -14q-1 -3 -4 -7.5t-5 -9.5t-2 -9t4 -5q9 -2 17 8t11 15q5 8 8 17.5t3 18.5q9 2 10 -5t-1 -13q-4 -16 -18 -31q8 -2 15 3t11 12zM943 446q-11 0 -17.5 5t-9.5 13t-4.5 17.5
t-1.5 17.5q-2 19 -2 39.5t6 39.5q3 8 8.5 14.5t14.5 7.5q20 5 31 -13q9 -17 9 -37.5v-38.5q0 -9 -0.5 -20.5t-4 -21t-10.5 -16.5t-19 -7zM389 446q-11 0 -17.5 5t-10 13t-4.5 17.5t-2 17.5q-1 19 -1 39.5t6 39.5q3 8 8 14.5t15 7.5q21 5 31 -13q8 -17 8.5 -37.5t0.5 -38.5
q0 -9 -1 -20.5t-4.5 -21t-10 -16.5t-18.5 -7zM867 -41h-35v244h35v-244zM225 447h-21v152h23h14t13 -2q10 -5 13 -16.5t3 -20.5q1 -11 -1 -27.5t-14 -21.5l18 -64h-24l-13 61q-3 0 -5.5 0.5t-5.5 0.5v-62zM1006 481v-34h-20v152h19q8 -26 16 -52.5t14 -53.5q-2 26 -2.5 53
t-0.5 53h20v-152h-21q-8 26 -15.5 52t-13.5 53q2 -18 2.5 -35.5t1.5 -35.5zM88 447h-22v152h34q26 0 32 -26q4 -14 3.5 -32t-8.5 -32q-7 -10 -17.5 -11t-21.5 -1v-50zM452 481v-34h-20v152h19q8 -26 15.5 -52.5t13.5 -53.5q-2 26 -2.5 53t-0.5 53h20v-152h-21
q-7 26 -14.5 52t-13.5 53q2 -18 2 -35.5t2 -35.5zM524 447h-21l18 152h35l19 -152h-21l-5 37h-21zM701 446q-15 0 -22.5 8.5t-10 21t-2 26.5t0.5 26v71h22v-106q0 -5 -0.5 -10t1.5 -10t7 -7.5t10 2.5t5.5 13.5t0.5 14.5q1 12 0.5 24t-0.5 24v55h22v-71q0 -12 0.5 -26
t-2 -26.5t-9.5 -21t-23 -8.5zM1090 348q5 -1 13 3q-3 -6 -5.5 -10.5t-6.5 -9.5v-1q6 7 14.5 13.5t17.5 7.5q12 0 11.5 -9t-3.5 -17q-3 -4 -10 -14.5t-4 -15.5q2 -3 5.5 -2t7 5l7 8t5.5 7l19 38h-8l3 6h8l8 17q8 0 14 3l-10 -20h15l-4 -6h-14l-18 -37l-5 -10t-1 -10
q3 -3 7 -0.5t8.5 7t7.5 9t4 6.5l4 -2q-5 -8 -12 -17t-18 -11q-9 -2 -12 2t-1 10q-3 -3 -6 -5.5t-6 -4.5q-7 -4 -14.5 -2t-6.5 12q1 8 6.5 15.5t8.5 14.5q1 3 3.5 9.5t-4.5 5.5q-11 -2 -20 -14t-14 -20q-4 -5 -6.5 -11.5t-5.5 -12.5h-12l7 16l-1 -1q-4 -2 -10 -4h-9
q-5 -6 -10.5 -8t-8.5 -2q-10 -4 -18 3t-6.5 18t5.5 20q5 9 14 16.5t21 7.5q10 0 14.5 -6t4.5 -14t-3.5 -16.5t-7.5 -14.5q13 0 20 11zM304 518q-23 15 -26 39q-2 11 2 22.5t15 17.5q9 5 21.5 4t20.5 -9q9 -9 9 -19.5v-21.5q-6 0 -11.5 0.5t-10.5 0.5q0 6 0.5 12.5t-4.5 11.5
q-9 8 -14.5 1t-6.5 -15q0 -11 7.5 -18t15.5 -13t14 -13.5t8 -16.5q2 -11 0.5 -21.5t-7 -18.5t-14 -12.5t-20.5 -2.5q-20 4 -22.5 19.5t-1.5 31.5h20q0 -5 -0.5 -10t0.5 -10q2 -6 7.5 -10t11.5 1q5 4 6 12.5t-1 14.5q-2 8 -7 13.5t-12 9.5zM771 518q-23 13 -27 39
q-1 11 2.5 22.5t14.5 17.5q10 5 22 4t20 -9q9 -9 8.5 -19.5t-0.5 -21.5q-5 0 -10 0.5t-10 0.5q0 6 0.5 12.5t-4.5 11.5q-9 8 -14.5 1t-6.5 -15q0 -11 7 -18t15 -13q17 -12 23 -30q2 -11 0.5 -21.5t-7 -18.5t-14.5 -12.5t-21 -2.5q-20 4 -22.5 19.5t-2.5 31.5h22q0 -5 -1 -10
t1 -10q2 -6 7 -10t11 1q6 4 7 12.5t-1 14.5q-2 8 -7 13.5t-12 9.5zM198 447h-55v152h55v-20h-33v-43h27v-22h-27v-46h33v-21zM875 447h-54v152h54v-20h-32v-43h27v-22h-27v-46h32v-21zM128 319l-42 -2q-5 -8 -9 -17t-5 -19q-8 -2 -9.5 2.5t0 11.5t4.5 13.5t5 8.5l-14 -1
l-5 8h23q11 17 26 34t35 27q6 4 16 5t12 -10q2 -5 -0.5 -10.5t-4.5 -10.5q-5 -10 -9.5 -19.5t-9.5 -18.5q-3 -7 -9 -17.5t-3 -18.5q-8 -2 -10 2t-0.5 10t4.5 12.5t5 9.5zM1163 599h21q-5 -21 -10 -42.5t-10 -42.5q-5 -16 -3.5 -33t1.5 -34h-23q0 17 0.5 34t-3.5 33
q-5 21 -10 42.5t-10 42.5h21q4 -19 7.5 -38.5t5.5 -39.5q1 20 5 39t8 39zM800 287q-7 4 -5.5 11.5t4.5 13.5l17 35q6 0 14 4l-13 -27q-2 -4 -8 -14.5t-2 -14.5q6 -5 14.5 2.5t11.5 11.5t5 7.5t5 8.5l12 24q4 0 12 2q-4 -9 -8.5 -18.5t-9.5 -18.5l-5 -10t0 -10q4 -5 10 1
t11 13q4 9 9.5 19t10.5 19l8 18t9 18q7 -2 14 3l-27 -55l-10 -20q-2 -5 -3.5 -12.5t6.5 -3.5q8 3 15 13q4 10 9.5 20t10.5 19l8 18t9 18q7 -2 14 3l-27 -55l-10 -20q-1 -2 -2 -5.5t-1.5 -6.5t0.5 -4.5t6 0.5q7 2 12 9t8 13l4 -2q-5 -8 -10 -15t-13 -11q-7 -4 -14 -1.5
t-6 10.5q-6 -6 -12 -9q-7 -4 -14 -1.5t-6 11.5q-5 -5 -9.5 -9t-10.5 -4q-9 0 -10 6t2 12q-6 -7 -16.5 -14t-18.5 -2zM1114 447h-54v152h22v-133h32v-19zM634 447h-54v152h22v-133h32v-19zM740 81q6 0 12.5 -0.5t11.5 3.5q9 8 11 20t2 22q0 11 -2 24t-10 21q-5 5 -12 4.5
t-13 -0.5v-94zM675 348q6 -1 14 3q-3 -6 -5.5 -10.5t-6.5 -9.5v-1q6 7 14.5 13.5t17.5 7.5q12 0 11.5 -9t-4.5 -17q-2 -4 -9.5 -14.5t-4.5 -15.5q2 -4 6.5 -1.5t8.5 7t7.5 9t4.5 6.5l4 -2l-10 -14t-13 -12q-7 -4 -14 -2t-6 12q1 8 6.5 15.5t8.5 14.5q1 1 2 4t1.5 5.5
t-0.5 4.5t-5 1q-11 -2 -19.5 -14t-13.5 -20l-12 -24h-12l4 9q-2 -2 -4 -3.5t-4 -2.5q-8 -4 -15 -1.5t-5 12.5q0 8 4.5 15t7.5 15q6 9 9 18q10 0 15 4l-19 -38q-2 -3 -5 -9.5t0 -9.5t7 -0.5t8 7t7 9t4 6.5zM943 582q-6 0 -9 -7.5t-4 -17.5t-0.5 -20t0.5 -14t-0.5 -13.5
t0.5 -19.5t4 -17.5t9 -7.5t9 7.5t4 17.5t0.5 19.5t-0.5 13.5t0.5 14t-0.5 20t-4 17.5t-9 7.5zM389 582q-6 0 -9 -7.5t-4 -17.5t-0.5 -20t0.5 -14t-0.5 -13.5t0.5 -19.5t4 -17.5t9 -7.5t8.5 7.5t3.5 17.5t0.5 19.5t-0.5 13.5t0.5 14t-0.5 20t-3.5 17.5t-8.5 7.5zM1190 599h22
q0 -28 -1 -56t-3 -57h-14q-2 29 -3 56.5t-1 56.5zM152 384q-8 2 -18.5 -7t-15.5 -14q-16 -18 -29 -39h42l13 27q1 3 4 8t5 10.5t2.5 9.5t-3.5 5zM1039 371q-5 -3 -6.5 0.5t-0.5 7.5q-11 4 -16.5 -5.5t-7.5 -16.5h14l-3 -6h-14l-44 -90q-4 0 -14 -2l46 92h-15l3 6h15
q3 8 8 16t15 10q6 2 15 -1q2 -1 5.5 -4.5t-0.5 -6.5zM835 371q-5 -3 -7 0.5t-1 7.5q-11 4 -16.5 -5.5t-7.5 -16.5h14l-3 -6h-14l-44 -90q-5 0 -13 -2l45 92h-15l4 6h14q3 8 8 16t15 10q6 2 15 -1q2 -1 5.5 -4.5t0.5 -6.5zM622 91q-2 -10 -3 -20t-3 -20h29q-3 29 -8 58.5
t-7 59.5q-1 -20 -3.5 -39t-4.5 -39zM88 515q5 0 9.5 -0.5t7.5 3.5q5 5 5.5 14t0.5 16t-0.5 16t-5.5 14q-3 5 -7.5 4.5t-9.5 -0.5v-67zM1045 346q-8 0 -15 -9t-11 -19.5t-4 -19t8 -8.5q6 0 13 9t11.5 19.5t4.5 19t-7 8.5zM928 -21q0 -10 -6 -15t-13.5 -5t-13.5 5t-6 15t6 15
t13.5 5t13.5 -5t6 -15zM562 -21q0 -10 -6 -15t-13.5 -5t-13.5 5t-6 15t6 15t13.5 5t13.5 -5t6 -15zM462 343q-7 0 -12.5 -5t-10 -12.5t-8 -16t-6.5 -13.5q11 -8 21 0t15 16q1 2 4 7t4 10.5t0 9.5t-7 4zM231 292q7 0 13 6t10.5 14t8 16.5t6.5 14.5q-10 5 -20 -3t-15 -16
q-1 -2 -4 -7t-4.5 -10.5t-1 -10t6.5 -4.5zM225 524q4 0 8 -0.5t7 1.5q6 5 7 13t1 15q0 6 -1 14.5t-7 12.5q-3 2 -6.5 2h-8.5v-58zM366 292q7 0 13 6t10.5 14t8 16.5t6.5 14.5q-11 5 -20.5 -3t-14.5 -16q-1 -2 -4 -7t-4.5 -10.5t-1 -10t6.5 -4.5zM539 322q-3 -5 -4 -8l-2 -6
q11 0 24.5 9.5t13.5 21.5q0 8 -5.5 7t-10.5 -4q-5 -4 -9 -9.5t-7 -10.5zM533 529l-3 -24h17q-2 18 -4.5 36t-3.5 36q-1 -11 -2.5 -23t-3.5 -25zM1213 460q0 -6 -4 -9.5t-8.5 -3.5t-8 3.5t-3.5 9.5t3.5 9.5t8 3.5t8.5 -3.5t4 -9.5zM667 368q-4 -7 -11.5 -5t-5.5 10q1 4 5 5.5
t7.5 0.5t5 -4t-0.5 -7zM327 368q-3 -7 -10.5 -5t-5.5 10q1 4 4.5 5.5t7 0.5t5.5 -4t-1 -7zM1194 291q-4 -8 -11.5 -4.5t-3.5 10.5q4 8 11.5 4.5t3.5 -10.5zM1214 337q-2 -4 -5 -5t-6 0.5t-4 4t1 6.5q4 7 11 4t3 -10z" />
    <glyph glyph-name="six" unicode="6" horiz-adv-x="1272" 
d="M358 203h42q5 -51 8.5 -101.5t5.5 -101.5q3 38 5.5 77t7.5 77l6 49h39q5 -42 9 -83t7 -83l3 -37q3 41 4.5 80.5t5.5 78.5q2 11 2.5 22t1.5 22h30l-20 -244h-46q-5 48 -9.5 96.5t-6.5 97.5q-2 -36 -5 -72.5t-7 -72.5l-4 -49h-47l-11 137l-12 -137h-45q-5 48 -10 96.5
t-7 97.5q-2 -36 -4.5 -72.5t-6.5 -72.5l-5 -49h-46l-12 140l-11 -140h-46q-5 48 -9.5 96t-6.5 97q-1 -37 -4 -72.5t-7 -71.5l-6 -49h-45l-21 244h30q5 -51 8.5 -101.5t5.5 -101.5q3 38 5.5 77t7.5 77l6 49h39q5 -42 9 -83t7 -83l3 -37q3 41 4.5 80.5t5.5 78.5l5 44h41
q5 -51 8.5 -101.5t6.5 -101.5q3 38 5.5 77t6.5 77q2 12 3 24t3 25h40q5 -42 8.5 -83t7.5 -83l2 -37q3 41 5 80.5t6 78.5zM1204 731h-1130v22h1130v-22zM1204 -197h-1130v22h1130v-22zM740 -41h-35v244h36q11 0 22 0.5t21 -4.5q17 -8 22 -27.5t5 -36.5v-19t-2.5 -22t-7.5 -20
t-14 -12l30 -103h-39l-21 97h-17v-97zM983 13v-54h-33v244h32q12 -43 24.5 -85t22.5 -86q-4 43 -4.5 85.5t-0.5 85.5h32v-244h-33q-12 42 -24.5 83.5t-21.5 83.5q2 -29 3 -56.5t3 -56.5zM606 -41h-33l29 244h57l30 -244h-35l-7 58h-33zM1153 112q1 11 0 23.5t-5 23.5
q-3 8 -10.5 13t-14.5 -5q-6 -8 -7 -20.5t-2 -23.5q-1 -12 -1 -23.5v-22.5v-23t2 -23q0 -9 2 -22t11 -18q10 -6 16 1.5t8 20t2.5 25t0.5 17.5h-25v28h58v-123h-26l-1 33q-2 -11 -7.5 -22t-16.5 -14t-22 2t-18 13q-14 17 -16 42t-2 45q-2 26 -1 52.5t8 50.5q2 11 7 21t15 15
q10 6 22 7t23 -3q12 -5 19 -15t10 -22.5t4 -25.5t1 -24zM224 327q5 8 12 14t16 8q8 2 16 -1.5t17 -0.5l-18 -34q-2 -3 -5.5 -10t0.5 -9q5 -4 11 2t11 13q2 5 5 10l6 10l8 18q8 0 15 4l-19 -38q-2 -3 -5 -9.5t1 -9.5q4 -4 10 1.5t10 12.5q4 9 9.5 19t9.5 19q5 9 9 18t9 18
q8 -2 14 3l-27 -55q-2 -5 -4.5 -10t-4.5 -10t-4 -12.5t6 -3.5q5 2 9.5 7t8.5 11q3 8 8 15q5 8 12 14t16 8t17 -1.5t17 -0.5q-5 -8 -9 -16.5t-9 -17.5q-2 -3 -5 -10t0 -9q3 -3 6.5 -1t7 5.5t6.5 8l5 7.5l1 2l32 66q8 0 13 3q-5 -12 -10 -23.5t-13 -22.5q7 7 16.5 11.5
t16.5 -6.5q6 -10 0.5 -23t-12.5 -21q6 -1 11 2t10 7q4 9 9 18.5t10 18.5l18 36q7 -2 13 3q-7 -14 -13 -27.5t-14 -27.5q-2 -5 -4.5 -10t-5.5 -10q-1 -2 -2 -5.5t-1 -6.5t1 -4.5t6 0.5t10.5 8t8.5 12q3 13 12 22q3 3 9.5 7.5t14 6.5t13.5 0.5t8 -10.5q1 -8 -3.5 -15
t-12 -11.5t-16.5 -7t-15 -2.5q-1 -6 3 -9.5t10 -3.5q13 0 24 7t17 18l4 -2q-8 -14 -23 -22.5t-31 -5.5t-16 18q-4 -5 -8 -9.5t-9 -6.5q-7 -4 -14.5 -1.5t-5.5 12.5v2q-2 -2 -4 -2q-4 -3 -12 -3h-7q-2 0 -3 -2t-3 -2q-10 -6 -21.5 -5t-17.5 11q-7 -9 -17 -12q-9 -2 -12.5 3
t-0.5 13q-5 -7 -13.5 -13.5t-17.5 -0.5q-7 4 -7 14q-6 -9 -14 -14q-8 -4 -15 -1.5t-6 10.5q-7 -7 -11 -9q-8 -4 -15.5 -1.5t-5.5 11.5q-4 -4 -8 -7t-9 -5q-9 -2 -12.5 3t0.5 13h-1q-5 -7 -13.5 -13.5t-17.5 -0.5q-5 2 -6 6.5t0 9.5q-5 -5 -10 -6q-4 -2 -13 -2q-5 0 -6 -1
t-4 -3q-5 -3 -11.5 -5t-11.5 -1t-8 5.5t-1 12.5q2 11 8 22t11 21q5 0 13 4q-3 -8 -6 -15t-7 -14q-1 -3 -4 -7.5t-5 -9.5t-2 -9t4 -5q9 -2 17 8t11 15q5 8 8 17.5t3 18.5q9 2 10 -5t-1 -13q-4 -16 -18 -31q8 -2 15 3t11 12zM943 446q-11 0 -17.5 5t-9.5 13t-4.5 17.5
t-1.5 17.5q-2 19 -2 39.5t6 39.5q3 8 8.5 14.5t14.5 7.5q20 5 31 -13q9 -17 9 -37.5v-38.5q0 -9 -0.5 -20.5t-4 -21t-10.5 -16.5t-19 -7zM389 446q-11 0 -17.5 5t-10 13t-4.5 17.5t-2 17.5q-1 19 -1 39.5t6 39.5q3 8 8 14.5t15 7.5q21 5 31 -13q8 -17 8.5 -37.5t0.5 -38.5
q0 -9 -1 -20.5t-4.5 -21t-10 -16.5t-18.5 -7zM867 -41h-35v244h35v-244zM225 447h-21v152h23h14t13 -2q10 -5 13 -16.5t3 -20.5q1 -11 -1 -27.5t-14 -21.5l18 -64h-24l-13 61q-3 0 -5.5 0.5t-5.5 0.5v-62zM1006 481v-34h-20v152h19q8 -26 16 -52.5t14 -53.5q-2 26 -2.5 53
t-0.5 53h20v-152h-21q-8 26 -15.5 52t-13.5 53q2 -18 2.5 -35.5t1.5 -35.5zM88 447h-22v152h34q26 0 32 -26q4 -14 3.5 -32t-8.5 -32q-7 -10 -17.5 -11t-21.5 -1v-50zM452 481v-34h-20v152h19q8 -26 15.5 -52.5t13.5 -53.5q-2 26 -2.5 53t-0.5 53h20v-152h-21
q-7 26 -14.5 52t-13.5 53q2 -18 2 -35.5t2 -35.5zM524 447h-21l18 152h35l19 -152h-21l-5 37h-21zM701 446q-15 0 -22.5 8.5t-10 21t-2 26.5t0.5 26v71h22v-106q0 -5 -0.5 -10t1.5 -10t7 -7.5t10 2.5t5.5 13.5t0.5 14.5q1 12 0.5 24t-0.5 24v55h22v-71q0 -12 0.5 -26
t-2 -26.5t-9.5 -21t-23 -8.5zM1090 348q5 -1 13 3q-3 -6 -5.5 -10.5t-6.5 -9.5v-1q6 7 14.5 13.5t17.5 7.5q12 0 11.5 -9t-3.5 -17q-3 -4 -10 -14.5t-4 -15.5q2 -3 5.5 -2t7 5l7 8t5.5 7l19 38h-8l3 6h8l8 17q8 0 14 3l-10 -20h15l-4 -6h-14l-18 -37l-5 -10t-1 -10
q3 -3 7 -0.5t8.5 7t7.5 9t4 6.5l4 -2q-5 -8 -12 -17t-18 -11q-9 -2 -12 2t-1 10q-3 -3 -6 -5.5t-6 -4.5q-7 -4 -14.5 -2t-6.5 12q1 8 6.5 15.5t8.5 14.5q1 3 3.5 9.5t-4.5 5.5q-11 -2 -20 -14t-14 -20q-4 -5 -6.5 -11.5t-5.5 -12.5h-12l7 16l-1 -1q-4 -2 -10 -4h-9
q-5 -6 -10.5 -8t-8.5 -2q-10 -4 -18 3t-6.5 18t5.5 20q5 9 14 16.5t21 7.5q10 0 14.5 -6t4.5 -14t-3.5 -16.5t-7.5 -14.5q13 0 20 11zM304 518q-23 15 -26 39q-2 11 2 22.5t15 17.5q9 5 21.5 4t20.5 -9q9 -9 9 -19.5v-21.5q-6 0 -11.5 0.5t-10.5 0.5q0 6 0.5 12.5t-4.5 11.5
q-9 8 -14.5 1t-6.5 -15q0 -11 7.5 -18t15.5 -13t14 -13.5t8 -16.5q2 -11 0.5 -21.5t-7 -18.5t-14 -12.5t-20.5 -2.5q-20 4 -22.5 19.5t-1.5 31.5h20q0 -5 -0.5 -10t0.5 -10q2 -6 7.5 -10t11.5 1q5 4 6 12.5t-1 14.5q-2 8 -7 13.5t-12 9.5zM771 518q-23 13 -27 39
q-1 11 2.5 22.5t14.5 17.5q10 5 22 4t20 -9q9 -9 8.5 -19.5t-0.5 -21.5q-5 0 -10 0.5t-10 0.5q0 6 0.5 12.5t-4.5 11.5q-9 8 -14.5 1t-6.5 -15q0 -11 7 -18t15 -13q17 -12 23 -30q2 -11 0.5 -21.5t-7 -18.5t-14.5 -12.5t-21 -2.5q-20 4 -22.5 19.5t-2.5 31.5h22q0 -5 -1 -10
t1 -10q2 -6 7 -10t11 1q6 4 7 12.5t-1 14.5q-2 8 -7 13.5t-12 9.5zM198 447h-55v152h55v-20h-33v-43h27v-22h-27v-46h33v-21zM875 447h-54v152h54v-20h-32v-43h27v-22h-27v-46h32v-21zM128 319l-42 -2q-5 -8 -9 -17t-5 -19q-8 -2 -9.5 2.5t0 11.5t4.5 13.5t5 8.5l-14 -1
l-5 8h23q11 17 26 34t35 27q6 4 16 5t12 -10q2 -5 -0.5 -10.5t-4.5 -10.5q-5 -10 -9.5 -19.5t-9.5 -18.5q-3 -7 -9 -17.5t-3 -18.5q-8 -2 -10 2t-0.5 10t4.5 12.5t5 9.5zM1163 599h21q-5 -21 -10 -42.5t-10 -42.5q-5 -16 -3.5 -33t1.5 -34h-23q0 17 0.5 34t-3.5 33
q-5 21 -10 42.5t-10 42.5h21q4 -19 7.5 -38.5t5.5 -39.5q1 20 5 39t8 39zM800 287q-7 4 -5.5 11.5t4.5 13.5l17 35q6 0 14 4l-13 -27q-2 -4 -8 -14.5t-2 -14.5q6 -5 14.5 2.5t11.5 11.5t5 7.5t5 8.5l12 24q4 0 12 2q-4 -9 -8.5 -18.5t-9.5 -18.5l-5 -10t0 -10q4 -5 10 1
t11 13q4 9 9.5 19t10.5 19l8 18t9 18q7 -2 14 3l-27 -55l-10 -20q-2 -5 -3.5 -12.5t6.5 -3.5q8 3 15 13q4 10 9.5 20t10.5 19l8 18t9 18q7 -2 14 3l-27 -55l-10 -20q-1 -2 -2 -5.5t-1.5 -6.5t0.5 -4.5t6 0.5q7 2 12 9t8 13l4 -2q-5 -8 -10 -15t-13 -11q-7 -4 -14 -1.5
t-6 10.5q-6 -6 -12 -9q-7 -4 -14 -1.5t-6 11.5q-5 -5 -9.5 -9t-10.5 -4q-9 0 -10 6t2 12q-6 -7 -16.5 -14t-18.5 -2zM1114 447h-54v152h22v-133h32v-19zM634 447h-54v152h22v-133h32v-19zM740 81q6 0 12.5 -0.5t11.5 3.5q9 8 11 20t2 22q0 11 -2 24t-10 21q-5 5 -12 4.5
t-13 -0.5v-94zM675 348q6 -1 14 3q-3 -6 -5.5 -10.5t-6.5 -9.5v-1q6 7 14.5 13.5t17.5 7.5q12 0 11.5 -9t-4.5 -17q-2 -4 -9.5 -14.5t-4.5 -15.5q2 -4 6.5 -1.5t8.5 7t7.5 9t4.5 6.5l4 -2l-10 -14t-13 -12q-7 -4 -14 -2t-6 12q1 8 6.5 15.5t8.5 14.5q1 1 2 4t1.5 5.5
t-0.5 4.5t-5 1q-11 -2 -19.5 -14t-13.5 -20l-12 -24h-12l4 9q-2 -2 -4 -3.5t-4 -2.5q-8 -4 -15 -1.5t-5 12.5q0 8 4.5 15t7.5 15q6 9 9 18q10 0 15 4l-19 -38q-2 -3 -5 -9.5t0 -9.5t7 -0.5t8 7t7 9t4 6.5zM943 582q-6 0 -9 -7.5t-4 -17.5t-0.5 -20t0.5 -14t-0.5 -13.5
t0.5 -19.5t4 -17.5t9 -7.5t9 7.5t4 17.5t0.5 19.5t-0.5 13.5t0.5 14t-0.5 20t-4 17.5t-9 7.5zM389 582q-6 0 -9 -7.5t-4 -17.5t-0.5 -20t0.5 -14t-0.5 -13.5t0.5 -19.5t4 -17.5t9 -7.5t8.5 7.5t3.5 17.5t0.5 19.5t-0.5 13.5t0.5 14t-0.5 20t-3.5 17.5t-8.5 7.5zM1190 599h22
q0 -28 -1 -56t-3 -57h-14q-2 29 -3 56.5t-1 56.5zM152 384q-8 2 -18.5 -7t-15.5 -14q-16 -18 -29 -39h42l13 27q1 3 4 8t5 10.5t2.5 9.5t-3.5 5zM1039 371q-5 -3 -6.5 0.5t-0.5 7.5q-11 4 -16.5 -5.5t-7.5 -16.5h14l-3 -6h-14l-44 -90q-4 0 -14 -2l46 92h-15l3 6h15
q3 8 8 16t15 10q6 2 15 -1q2 -1 5.5 -4.5t-0.5 -6.5zM835 371q-5 -3 -7 0.5t-1 7.5q-11 4 -16.5 -5.5t-7.5 -16.5h14l-3 -6h-14l-44 -90q-5 0 -13 -2l45 92h-15l4 6h14q3 8 8 16t15 10q6 2 15 -1q2 -1 5.5 -4.5t0.5 -6.5zM622 91q-2 -10 -3 -20t-3 -20h29q-3 29 -8 58.5
t-7 59.5q-1 -20 -3.5 -39t-4.5 -39zM88 515q5 0 9.5 -0.5t7.5 3.5q5 5 5.5 14t0.5 16t-0.5 16t-5.5 14q-3 5 -7.5 4.5t-9.5 -0.5v-67zM1045 346q-8 0 -15 -9t-11 -19.5t-4 -19t8 -8.5q6 0 13 9t11.5 19.5t4.5 19t-7 8.5zM928 -21q0 -10 -6 -15t-13.5 -5t-13.5 5t-6 15t6 15
t13.5 5t13.5 -5t6 -15zM562 -21q0 -10 -6 -15t-13.5 -5t-13.5 5t-6 15t6 15t13.5 5t13.5 -5t6 -15zM462 343q-7 0 -12.5 -5t-10 -12.5t-8 -16t-6.5 -13.5q11 -8 21 0t15 16q1 2 4 7t4 10.5t0 9.5t-7 4zM231 292q7 0 13 6t10.5 14t8 16.5t6.5 14.5q-10 5 -20 -3t-15 -16
q-1 -2 -4 -7t-4.5 -10.5t-1 -10t6.5 -4.5zM225 524q4 0 8 -0.5t7 1.5q6 5 7 13t1 15q0 6 -1 14.5t-7 12.5q-3 2 -6.5 2h-8.5v-58zM366 292q7 0 13 6t10.5 14t8 16.5t6.5 14.5q-11 5 -20.5 -3t-14.5 -16q-1 -2 -4 -7t-4.5 -10.5t-1 -10t6.5 -4.5zM539 322q-3 -5 -4 -8l-2 -6
q11 0 24.5 9.5t13.5 21.5q0 8 -5.5 7t-10.5 -4q-5 -4 -9 -9.5t-7 -10.5zM533 529l-3 -24h17q-2 18 -4.5 36t-3.5 36q-1 -11 -2.5 -23t-3.5 -25zM1213 460q0 -6 -4 -9.5t-8.5 -3.5t-8 3.5t-3.5 9.5t3.5 9.5t8 3.5t8.5 -3.5t4 -9.5zM667 368q-4 -7 -11.5 -5t-5.5 10q1 4 5 5.5
t7.5 0.5t5 -4t-0.5 -7zM327 368q-3 -7 -10.5 -5t-5.5 10q1 4 4.5 5.5t7 0.5t5.5 -4t-1 -7zM1194 291q-4 -8 -11.5 -4.5t-3.5 10.5q4 8 11.5 4.5t3.5 -10.5zM1214 337q-2 -4 -5 -5t-6 0.5t-4 4t1 6.5q4 7 11 4t3 -10z" />
    <glyph glyph-name="seven" unicode="7" horiz-adv-x="1272" 
d="M358 203h42q5 -51 8.5 -101.5t5.5 -101.5q3 38 5.5 77t7.5 77l6 49h39q5 -42 9 -83t7 -83l3 -37q3 41 4.5 80.5t5.5 78.5q2 11 2.5 22t1.5 22h30l-20 -244h-46q-5 48 -9.5 96.5t-6.5 97.5q-2 -36 -5 -72.5t-7 -72.5l-4 -49h-47l-11 137l-12 -137h-45q-5 48 -10 96.5
t-7 97.5q-2 -36 -4.5 -72.5t-6.5 -72.5l-5 -49h-46l-12 140l-11 -140h-46q-5 48 -9.5 96t-6.5 97q-1 -37 -4 -72.5t-7 -71.5l-6 -49h-45l-21 244h30q5 -51 8.5 -101.5t5.5 -101.5q3 38 5.5 77t7.5 77l6 49h39q5 -42 9 -83t7 -83l3 -37q3 41 4.5 80.5t5.5 78.5l5 44h41
q5 -51 8.5 -101.5t6.5 -101.5q3 38 5.5 77t6.5 77q2 12 3 24t3 25h40q5 -42 8.5 -83t7.5 -83l2 -37q3 41 5 80.5t6 78.5zM1204 731h-1130v22h1130v-22zM1204 -197h-1130v22h1130v-22zM740 -41h-35v244h36q11 0 22 0.5t21 -4.5q17 -8 22 -27.5t5 -36.5v-19t-2.5 -22t-7.5 -20
t-14 -12l30 -103h-39l-21 97h-17v-97zM983 13v-54h-33v244h32q12 -43 24.5 -85t22.5 -86q-4 43 -4.5 85.5t-0.5 85.5h32v-244h-33q-12 42 -24.5 83.5t-21.5 83.5q2 -29 3 -56.5t3 -56.5zM606 -41h-33l29 244h57l30 -244h-35l-7 58h-33zM1153 112q1 11 0 23.5t-5 23.5
q-3 8 -10.5 13t-14.5 -5q-6 -8 -7 -20.5t-2 -23.5q-1 -12 -1 -23.5v-22.5v-23t2 -23q0 -9 2 -22t11 -18q10 -6 16 1.5t8 20t2.5 25t0.5 17.5h-25v28h58v-123h-26l-1 33q-2 -11 -7.5 -22t-16.5 -14t-22 2t-18 13q-14 17 -16 42t-2 45q-2 26 -1 52.5t8 50.5q2 11 7 21t15 15
q10 6 22 7t23 -3q12 -5 19 -15t10 -22.5t4 -25.5t1 -24zM224 327q5 8 12 14t16 8q8 2 16 -1.5t17 -0.5l-18 -34q-2 -3 -5.5 -10t0.5 -9q5 -4 11 2t11 13q2 5 5 10l6 10l8 18q8 0 15 4l-19 -38q-2 -3 -5 -9.5t1 -9.5q4 -4 10 1.5t10 12.5q4 9 9.5 19t9.5 19q5 9 9 18t9 18
q8 -2 14 3l-27 -55q-2 -5 -4.5 -10t-4.5 -10t-4 -12.5t6 -3.5q5 2 9.5 7t8.5 11q3 8 8 15q5 8 12 14t16 8t17 -1.5t17 -0.5q-5 -8 -9 -16.5t-9 -17.5q-2 -3 -5 -10t0 -9q3 -3 6.5 -1t7 5.5t6.5 8l5 7.5l1 2l32 66q8 0 13 3q-5 -12 -10 -23.5t-13 -22.5q7 7 16.5 11.5
t16.5 -6.5q6 -10 0.5 -23t-12.5 -21q6 -1 11 2t10 7q4 9 9 18.5t10 18.5l18 36q7 -2 13 3q-7 -14 -13 -27.5t-14 -27.5q-2 -5 -4.5 -10t-5.5 -10q-1 -2 -2 -5.5t-1 -6.5t1 -4.5t6 0.5t10.5 8t8.5 12q3 13 12 22q3 3 9.5 7.5t14 6.5t13.5 0.5t8 -10.5q1 -8 -3.5 -15
t-12 -11.5t-16.5 -7t-15 -2.5q-1 -6 3 -9.5t10 -3.5q13 0 24 7t17 18l4 -2q-8 -14 -23 -22.5t-31 -5.5t-16 18q-4 -5 -8 -9.5t-9 -6.5q-7 -4 -14.5 -1.5t-5.5 12.5v2q-2 -2 -4 -2q-4 -3 -12 -3h-7q-2 0 -3 -2t-3 -2q-10 -6 -21.5 -5t-17.5 11q-7 -9 -17 -12q-9 -2 -12.5 3
t-0.5 13q-5 -7 -13.5 -13.5t-17.5 -0.5q-7 4 -7 14q-6 -9 -14 -14q-8 -4 -15 -1.5t-6 10.5q-7 -7 -11 -9q-8 -4 -15.5 -1.5t-5.5 11.5q-4 -4 -8 -7t-9 -5q-9 -2 -12.5 3t0.5 13h-1q-5 -7 -13.5 -13.5t-17.5 -0.5q-5 2 -6 6.5t0 9.5q-5 -5 -10 -6q-4 -2 -13 -2q-5 0 -6 -1
t-4 -3q-5 -3 -11.5 -5t-11.5 -1t-8 5.5t-1 12.5q2 11 8 22t11 21q5 0 13 4q-3 -8 -6 -15t-7 -14q-1 -3 -4 -7.5t-5 -9.5t-2 -9t4 -5q9 -2 17 8t11 15q5 8 8 17.5t3 18.5q9 2 10 -5t-1 -13q-4 -16 -18 -31q8 -2 15 3t11 12zM943 446q-11 0 -17.5 5t-9.5 13t-4.5 17.5
t-1.5 17.5q-2 19 -2 39.5t6 39.5q3 8 8.5 14.5t14.5 7.5q20 5 31 -13q9 -17 9 -37.5v-38.5q0 -9 -0.5 -20.5t-4 -21t-10.5 -16.5t-19 -7zM389 446q-11 0 -17.5 5t-10 13t-4.5 17.5t-2 17.5q-1 19 -1 39.5t6 39.5q3 8 8 14.5t15 7.5q21 5 31 -13q8 -17 8.5 -37.5t0.5 -38.5
q0 -9 -1 -20.5t-4.5 -21t-10 -16.5t-18.5 -7zM867 -41h-35v244h35v-244zM225 447h-21v152h23h14t13 -2q10 -5 13 -16.5t3 -20.5q1 -11 -1 -27.5t-14 -21.5l18 -64h-24l-13 61q-3 0 -5.5 0.5t-5.5 0.5v-62zM1006 481v-34h-20v152h19q8 -26 16 -52.5t14 -53.5q-2 26 -2.5 53
t-0.5 53h20v-152h-21q-8 26 -15.5 52t-13.5 53q2 -18 2.5 -35.5t1.5 -35.5zM88 447h-22v152h34q26 0 32 -26q4 -14 3.5 -32t-8.5 -32q-7 -10 -17.5 -11t-21.5 -1v-50zM452 481v-34h-20v152h19q8 -26 15.5 -52.5t13.5 -53.5q-2 26 -2.5 53t-0.5 53h20v-152h-21
q-7 26 -14.5 52t-13.5 53q2 -18 2 -35.5t2 -35.5zM524 447h-21l18 152h35l19 -152h-21l-5 37h-21zM701 446q-15 0 -22.5 8.5t-10 21t-2 26.5t0.5 26v71h22v-106q0 -5 -0.5 -10t1.5 -10t7 -7.5t10 2.5t5.5 13.5t0.5 14.5q1 12 0.5 24t-0.5 24v55h22v-71q0 -12 0.5 -26
t-2 -26.5t-9.5 -21t-23 -8.5zM1090 348q5 -1 13 3q-3 -6 -5.5 -10.5t-6.5 -9.5v-1q6 7 14.5 13.5t17.5 7.5q12 0 11.5 -9t-3.5 -17q-3 -4 -10 -14.5t-4 -15.5q2 -3 5.5 -2t7 5l7 8t5.5 7l19 38h-8l3 6h8l8 17q8 0 14 3l-10 -20h15l-4 -6h-14l-18 -37l-5 -10t-1 -10
q3 -3 7 -0.5t8.5 7t7.5 9t4 6.5l4 -2q-5 -8 -12 -17t-18 -11q-9 -2 -12 2t-1 10q-3 -3 -6 -5.5t-6 -4.5q-7 -4 -14.5 -2t-6.5 12q1 8 6.5 15.5t8.5 14.5q1 3 3.5 9.5t-4.5 5.5q-11 -2 -20 -14t-14 -20q-4 -5 -6.5 -11.5t-5.5 -12.5h-12l7 16l-1 -1q-4 -2 -10 -4h-9
q-5 -6 -10.5 -8t-8.5 -2q-10 -4 -18 3t-6.5 18t5.5 20q5 9 14 16.5t21 7.5q10 0 14.5 -6t4.5 -14t-3.5 -16.5t-7.5 -14.5q13 0 20 11zM304 518q-23 15 -26 39q-2 11 2 22.5t15 17.5q9 5 21.5 4t20.5 -9q9 -9 9 -19.5v-21.5q-6 0 -11.5 0.5t-10.5 0.5q0 6 0.5 12.5t-4.5 11.5
q-9 8 -14.5 1t-6.5 -15q0 -11 7.5 -18t15.5 -13t14 -13.5t8 -16.5q2 -11 0.5 -21.5t-7 -18.5t-14 -12.5t-20.5 -2.5q-20 4 -22.5 19.5t-1.5 31.5h20q0 -5 -0.5 -10t0.5 -10q2 -6 7.5 -10t11.5 1q5 4 6 12.5t-1 14.5q-2 8 -7 13.5t-12 9.5zM771 518q-23 13 -27 39
q-1 11 2.5 22.5t14.5 17.5q10 5 22 4t20 -9q9 -9 8.5 -19.5t-0.5 -21.5q-5 0 -10 0.5t-10 0.5q0 6 0.5 12.5t-4.5 11.5q-9 8 -14.5 1t-6.5 -15q0 -11 7 -18t15 -13q17 -12 23 -30q2 -11 0.5 -21.5t-7 -18.5t-14.5 -12.5t-21 -2.5q-20 4 -22.5 19.5t-2.5 31.5h22q0 -5 -1 -10
t1 -10q2 -6 7 -10t11 1q6 4 7 12.5t-1 14.5q-2 8 -7 13.5t-12 9.5zM198 447h-55v152h55v-20h-33v-43h27v-22h-27v-46h33v-21zM875 447h-54v152h54v-20h-32v-43h27v-22h-27v-46h32v-21zM128 319l-42 -2q-5 -8 -9 -17t-5 -19q-8 -2 -9.5 2.5t0 11.5t4.5 13.5t5 8.5l-14 -1
l-5 8h23q11 17 26 34t35 27q6 4 16 5t12 -10q2 -5 -0.5 -10.5t-4.5 -10.5q-5 -10 -9.5 -19.5t-9.5 -18.5q-3 -7 -9 -17.5t-3 -18.5q-8 -2 -10 2t-0.5 10t4.5 12.5t5 9.5zM1163 599h21q-5 -21 -10 -42.5t-10 -42.5q-5 -16 -3.5 -33t1.5 -34h-23q0 17 0.5 34t-3.5 33
q-5 21 -10 42.5t-10 42.5h21q4 -19 7.5 -38.5t5.5 -39.5q1 20 5 39t8 39zM800 287q-7 4 -5.5 11.5t4.5 13.5l17 35q6 0 14 4l-13 -27q-2 -4 -8 -14.5t-2 -14.5q6 -5 14.5 2.5t11.5 11.5t5 7.5t5 8.5l12 24q4 0 12 2q-4 -9 -8.5 -18.5t-9.5 -18.5l-5 -10t0 -10q4 -5 10 1
t11 13q4 9 9.5 19t10.5 19l8 18t9 18q7 -2 14 3l-27 -55l-10 -20q-2 -5 -3.5 -12.5t6.5 -3.5q8 3 15 13q4 10 9.5 20t10.5 19l8 18t9 18q7 -2 14 3l-27 -55l-10 -20q-1 -2 -2 -5.5t-1.5 -6.5t0.5 -4.5t6 0.5q7 2 12 9t8 13l4 -2q-5 -8 -10 -15t-13 -11q-7 -4 -14 -1.5
t-6 10.5q-6 -6 -12 -9q-7 -4 -14 -1.5t-6 11.5q-5 -5 -9.5 -9t-10.5 -4q-9 0 -10 6t2 12q-6 -7 -16.5 -14t-18.5 -2zM1114 447h-54v152h22v-133h32v-19zM634 447h-54v152h22v-133h32v-19zM740 81q6 0 12.5 -0.5t11.5 3.5q9 8 11 20t2 22q0 11 -2 24t-10 21q-5 5 -12 4.5
t-13 -0.5v-94zM675 348q6 -1 14 3q-3 -6 -5.5 -10.5t-6.5 -9.5v-1q6 7 14.5 13.5t17.5 7.5q12 0 11.5 -9t-4.5 -17q-2 -4 -9.5 -14.5t-4.5 -15.5q2 -4 6.5 -1.5t8.5 7t7.5 9t4.5 6.5l4 -2l-10 -14t-13 -12q-7 -4 -14 -2t-6 12q1 8 6.5 15.5t8.5 14.5q1 1 2 4t1.5 5.5
t-0.5 4.5t-5 1q-11 -2 -19.5 -14t-13.5 -20l-12 -24h-12l4 9q-2 -2 -4 -3.5t-4 -2.5q-8 -4 -15 -1.5t-5 12.5q0 8 4.5 15t7.5 15q6 9 9 18q10 0 15 4l-19 -38q-2 -3 -5 -9.5t0 -9.5t7 -0.5t8 7t7 9t4 6.5zM943 582q-6 0 -9 -7.5t-4 -17.5t-0.5 -20t0.5 -14t-0.5 -13.5
t0.5 -19.5t4 -17.5t9 -7.5t9 7.5t4 17.5t0.5 19.5t-0.5 13.5t0.5 14t-0.5 20t-4 17.5t-9 7.5zM389 582q-6 0 -9 -7.5t-4 -17.5t-0.5 -20t0.5 -14t-0.5 -13.5t0.5 -19.5t4 -17.5t9 -7.5t8.5 7.5t3.5 17.5t0.5 19.5t-0.5 13.5t0.5 14t-0.5 20t-3.5 17.5t-8.5 7.5zM1190 599h22
q0 -28 -1 -56t-3 -57h-14q-2 29 -3 56.5t-1 56.5zM152 384q-8 2 -18.5 -7t-15.5 -14q-16 -18 -29 -39h42l13 27q1 3 4 8t5 10.5t2.5 9.5t-3.5 5zM1039 371q-5 -3 -6.5 0.5t-0.5 7.5q-11 4 -16.5 -5.5t-7.5 -16.5h14l-3 -6h-14l-44 -90q-4 0 -14 -2l46 92h-15l3 6h15
q3 8 8 16t15 10q6 2 15 -1q2 -1 5.5 -4.5t-0.5 -6.5zM835 371q-5 -3 -7 0.5t-1 7.5q-11 4 -16.5 -5.5t-7.5 -16.5h14l-3 -6h-14l-44 -90q-5 0 -13 -2l45 92h-15l4 6h14q3 8 8 16t15 10q6 2 15 -1q2 -1 5.5 -4.5t0.5 -6.5zM622 91q-2 -10 -3 -20t-3 -20h29q-3 29 -8 58.5
t-7 59.5q-1 -20 -3.5 -39t-4.5 -39zM88 515q5 0 9.5 -0.5t7.5 3.5q5 5 5.5 14t0.5 16t-0.5 16t-5.5 14q-3 5 -7.5 4.5t-9.5 -0.5v-67zM1045 346q-8 0 -15 -9t-11 -19.5t-4 -19t8 -8.5q6 0 13 9t11.5 19.5t4.5 19t-7 8.5zM928 -21q0 -10 -6 -15t-13.5 -5t-13.5 5t-6 15t6 15
t13.5 5t13.5 -5t6 -15zM562 -21q0 -10 -6 -15t-13.5 -5t-13.5 5t-6 15t6 15t13.5 5t13.5 -5t6 -15zM462 343q-7 0 -12.5 -5t-10 -12.5t-8 -16t-6.5 -13.5q11 -8 21 0t15 16q1 2 4 7t4 10.5t0 9.5t-7 4zM231 292q7 0 13 6t10.5 14t8 16.5t6.5 14.5q-10 5 -20 -3t-15 -16
q-1 -2 -4 -7t-4.5 -10.5t-1 -10t6.5 -4.5zM225 524q4 0 8 -0.5t7 1.5q6 5 7 13t1 15q0 6 -1 14.5t-7 12.5q-3 2 -6.5 2h-8.5v-58zM366 292q7 0 13 6t10.5 14t8 16.5t6.5 14.5q-11 5 -20.5 -3t-14.5 -16q-1 -2 -4 -7t-4.5 -10.5t-1 -10t6.5 -4.5zM539 322q-3 -5 -4 -8l-2 -6
q11 0 24.5 9.5t13.5 21.5q0 8 -5.5 7t-10.5 -4q-5 -4 -9 -9.5t-7 -10.5zM533 529l-3 -24h17q-2 18 -4.5 36t-3.5 36q-1 -11 -2.5 -23t-3.5 -25zM1213 460q0 -6 -4 -9.5t-8.5 -3.5t-8 3.5t-3.5 9.5t3.5 9.5t8 3.5t8.5 -3.5t4 -9.5zM667 368q-4 -7 -11.5 -5t-5.5 10q1 4 5 5.5
t7.5 0.5t5 -4t-0.5 -7zM327 368q-3 -7 -10.5 -5t-5.5 10q1 4 4.5 5.5t7 0.5t5.5 -4t-1 -7zM1194 291q-4 -8 -11.5 -4.5t-3.5 10.5q4 8 11.5 4.5t3.5 -10.5zM1214 337q-2 -4 -5 -5t-6 0.5t-4 4t1 6.5q4 7 11 4t3 -10z" />
    <glyph glyph-name="eight" unicode="8" horiz-adv-x="1272" 
d="M358 203h42q5 -51 8.5 -101.5t5.5 -101.5q3 38 5.5 77t7.5 77l6 49h39q5 -42 9 -83t7 -83l3 -37q3 41 4.5 80.5t5.5 78.5q2 11 2.5 22t1.5 22h30l-20 -244h-46q-5 48 -9.5 96.5t-6.5 97.5q-2 -36 -5 -72.5t-7 -72.5l-4 -49h-47l-11 137l-12 -137h-45q-5 48 -10 96.5
t-7 97.5q-2 -36 -4.5 -72.5t-6.5 -72.5l-5 -49h-46l-12 140l-11 -140h-46q-5 48 -9.5 96t-6.5 97q-1 -37 -4 -72.5t-7 -71.5l-6 -49h-45l-21 244h30q5 -51 8.5 -101.5t5.5 -101.5q3 38 5.5 77t7.5 77l6 49h39q5 -42 9 -83t7 -83l3 -37q3 41 4.5 80.5t5.5 78.5l5 44h41
q5 -51 8.5 -101.5t6.5 -101.5q3 38 5.5 77t6.5 77q2 12 3 24t3 25h40q5 -42 8.5 -83t7.5 -83l2 -37q3 41 5 80.5t6 78.5zM1204 731h-1130v22h1130v-22zM1204 -197h-1130v22h1130v-22zM740 -41h-35v244h36q11 0 22 0.5t21 -4.5q17 -8 22 -27.5t5 -36.5v-19t-2.5 -22t-7.5 -20
t-14 -12l30 -103h-39l-21 97h-17v-97zM983 13v-54h-33v244h32q12 -43 24.5 -85t22.5 -86q-4 43 -4.5 85.5t-0.5 85.5h32v-244h-33q-12 42 -24.5 83.5t-21.5 83.5q2 -29 3 -56.5t3 -56.5zM606 -41h-33l29 244h57l30 -244h-35l-7 58h-33zM1153 112q1 11 0 23.5t-5 23.5
q-3 8 -10.5 13t-14.5 -5q-6 -8 -7 -20.5t-2 -23.5q-1 -12 -1 -23.5v-22.5v-23t2 -23q0 -9 2 -22t11 -18q10 -6 16 1.5t8 20t2.5 25t0.5 17.5h-25v28h58v-123h-26l-1 33q-2 -11 -7.5 -22t-16.5 -14t-22 2t-18 13q-14 17 -16 42t-2 45q-2 26 -1 52.5t8 50.5q2 11 7 21t15 15
q10 6 22 7t23 -3q12 -5 19 -15t10 -22.5t4 -25.5t1 -24zM224 327q5 8 12 14t16 8q8 2 16 -1.5t17 -0.5l-18 -34q-2 -3 -5.5 -10t0.5 -9q5 -4 11 2t11 13q2 5 5 10l6 10l8 18q8 0 15 4l-19 -38q-2 -3 -5 -9.5t1 -9.5q4 -4 10 1.5t10 12.5q4 9 9.5 19t9.5 19q5 9 9 18t9 18
q8 -2 14 3l-27 -55q-2 -5 -4.5 -10t-4.5 -10t-4 -12.5t6 -3.5q5 2 9.5 7t8.5 11q3 8 8 15q5 8 12 14t16 8t17 -1.5t17 -0.5q-5 -8 -9 -16.5t-9 -17.5q-2 -3 -5 -10t0 -9q3 -3 6.5 -1t7 5.5t6.5 8l5 7.5l1 2l32 66q8 0 13 3q-5 -12 -10 -23.5t-13 -22.5q7 7 16.5 11.5
t16.5 -6.5q6 -10 0.5 -23t-12.5 -21q6 -1 11 2t10 7q4 9 9 18.5t10 18.5l18 36q7 -2 13 3q-7 -14 -13 -27.5t-14 -27.5q-2 -5 -4.5 -10t-5.5 -10q-1 -2 -2 -5.5t-1 -6.5t1 -4.5t6 0.5t10.5 8t8.5 12q3 13 12 22q3 3 9.5 7.5t14 6.5t13.5 0.5t8 -10.5q1 -8 -3.5 -15
t-12 -11.5t-16.5 -7t-15 -2.5q-1 -6 3 -9.5t10 -3.5q13 0 24 7t17 18l4 -2q-8 -14 -23 -22.5t-31 -5.5t-16 18q-4 -5 -8 -9.5t-9 -6.5q-7 -4 -14.5 -1.5t-5.5 12.5v2q-2 -2 -4 -2q-4 -3 -12 -3h-7q-2 0 -3 -2t-3 -2q-10 -6 -21.5 -5t-17.5 11q-7 -9 -17 -12q-9 -2 -12.5 3
t-0.5 13q-5 -7 -13.5 -13.5t-17.5 -0.5q-7 4 -7 14q-6 -9 -14 -14q-8 -4 -15 -1.5t-6 10.5q-7 -7 -11 -9q-8 -4 -15.5 -1.5t-5.5 11.5q-4 -4 -8 -7t-9 -5q-9 -2 -12.5 3t0.5 13h-1q-5 -7 -13.5 -13.5t-17.5 -0.5q-5 2 -6 6.5t0 9.5q-5 -5 -10 -6q-4 -2 -13 -2q-5 0 -6 -1
t-4 -3q-5 -3 -11.5 -5t-11.5 -1t-8 5.5t-1 12.5q2 11 8 22t11 21q5 0 13 4q-3 -8 -6 -15t-7 -14q-1 -3 -4 -7.5t-5 -9.5t-2 -9t4 -5q9 -2 17 8t11 15q5 8 8 17.5t3 18.5q9 2 10 -5t-1 -13q-4 -16 -18 -31q8 -2 15 3t11 12zM943 446q-11 0 -17.5 5t-9.5 13t-4.5 17.5
t-1.5 17.5q-2 19 -2 39.5t6 39.5q3 8 8.5 14.5t14.5 7.5q20 5 31 -13q9 -17 9 -37.5v-38.5q0 -9 -0.5 -20.5t-4 -21t-10.5 -16.5t-19 -7zM389 446q-11 0 -17.5 5t-10 13t-4.5 17.5t-2 17.5q-1 19 -1 39.5t6 39.5q3 8 8 14.5t15 7.5q21 5 31 -13q8 -17 8.5 -37.5t0.5 -38.5
q0 -9 -1 -20.5t-4.5 -21t-10 -16.5t-18.5 -7zM867 -41h-35v244h35v-244zM225 447h-21v152h23h14t13 -2q10 -5 13 -16.5t3 -20.5q1 -11 -1 -27.5t-14 -21.5l18 -64h-24l-13 61q-3 0 -5.5 0.5t-5.5 0.5v-62zM1006 481v-34h-20v152h19q8 -26 16 -52.5t14 -53.5q-2 26 -2.5 53
t-0.5 53h20v-152h-21q-8 26 -15.5 52t-13.5 53q2 -18 2.5 -35.5t1.5 -35.5zM88 447h-22v152h34q26 0 32 -26q4 -14 3.5 -32t-8.5 -32q-7 -10 -17.5 -11t-21.5 -1v-50zM452 481v-34h-20v152h19q8 -26 15.5 -52.5t13.5 -53.5q-2 26 -2.5 53t-0.5 53h20v-152h-21
q-7 26 -14.5 52t-13.5 53q2 -18 2 -35.5t2 -35.5zM524 447h-21l18 152h35l19 -152h-21l-5 37h-21zM701 446q-15 0 -22.5 8.5t-10 21t-2 26.5t0.5 26v71h22v-106q0 -5 -0.5 -10t1.5 -10t7 -7.5t10 2.5t5.5 13.5t0.5 14.5q1 12 0.5 24t-0.5 24v55h22v-71q0 -12 0.5 -26
t-2 -26.5t-9.5 -21t-23 -8.5zM1090 348q5 -1 13 3q-3 -6 -5.5 -10.5t-6.5 -9.5v-1q6 7 14.5 13.5t17.5 7.5q12 0 11.5 -9t-3.5 -17q-3 -4 -10 -14.5t-4 -15.5q2 -3 5.5 -2t7 5l7 8t5.5 7l19 38h-8l3 6h8l8 17q8 0 14 3l-10 -20h15l-4 -6h-14l-18 -37l-5 -10t-1 -10
q3 -3 7 -0.5t8.5 7t7.5 9t4 6.5l4 -2q-5 -8 -12 -17t-18 -11q-9 -2 -12 2t-1 10q-3 -3 -6 -5.5t-6 -4.5q-7 -4 -14.5 -2t-6.5 12q1 8 6.5 15.5t8.5 14.5q1 3 3.5 9.5t-4.5 5.5q-11 -2 -20 -14t-14 -20q-4 -5 -6.5 -11.5t-5.5 -12.5h-12l7 16l-1 -1q-4 -2 -10 -4h-9
q-5 -6 -10.5 -8t-8.5 -2q-10 -4 -18 3t-6.5 18t5.5 20q5 9 14 16.5t21 7.5q10 0 14.5 -6t4.5 -14t-3.5 -16.5t-7.5 -14.5q13 0 20 11zM304 518q-23 15 -26 39q-2 11 2 22.5t15 17.5q9 5 21.5 4t20.5 -9q9 -9 9 -19.5v-21.5q-6 0 -11.5 0.5t-10.5 0.5q0 6 0.5 12.5t-4.5 11.5
q-9 8 -14.5 1t-6.5 -15q0 -11 7.5 -18t15.5 -13t14 -13.5t8 -16.5q2 -11 0.5 -21.5t-7 -18.5t-14 -12.5t-20.5 -2.5q-20 4 -22.5 19.5t-1.5 31.5h20q0 -5 -0.5 -10t0.5 -10q2 -6 7.5 -10t11.5 1q5 4 6 12.5t-1 14.5q-2 8 -7 13.5t-12 9.5zM771 518q-23 13 -27 39
q-1 11 2.5 22.5t14.5 17.5q10 5 22 4t20 -9q9 -9 8.5 -19.5t-0.5 -21.5q-5 0 -10 0.5t-10 0.5q0 6 0.5 12.5t-4.5 11.5q-9 8 -14.5 1t-6.5 -15q0 -11 7 -18t15 -13q17 -12 23 -30q2 -11 0.5 -21.5t-7 -18.5t-14.5 -12.5t-21 -2.5q-20 4 -22.5 19.5t-2.5 31.5h22q0 -5 -1 -10
t1 -10q2 -6 7 -10t11 1q6 4 7 12.5t-1 14.5q-2 8 -7 13.5t-12 9.5zM198 447h-55v152h55v-20h-33v-43h27v-22h-27v-46h33v-21zM875 447h-54v152h54v-20h-32v-43h27v-22h-27v-46h32v-21zM128 319l-42 -2q-5 -8 -9 -17t-5 -19q-8 -2 -9.5 2.5t0 11.5t4.5 13.5t5 8.5l-14 -1
l-5 8h23q11 17 26 34t35 27q6 4 16 5t12 -10q2 -5 -0.5 -10.5t-4.5 -10.5q-5 -10 -9.5 -19.5t-9.5 -18.5q-3 -7 -9 -17.5t-3 -18.5q-8 -2 -10 2t-0.5 10t4.5 12.5t5 9.5zM1163 599h21q-5 -21 -10 -42.5t-10 -42.5q-5 -16 -3.5 -33t1.5 -34h-23q0 17 0.5 34t-3.5 33
q-5 21 -10 42.5t-10 42.5h21q4 -19 7.5 -38.5t5.5 -39.5q1 20 5 39t8 39zM800 287q-7 4 -5.5 11.5t4.5 13.5l17 35q6 0 14 4l-13 -27q-2 -4 -8 -14.5t-2 -14.5q6 -5 14.5 2.5t11.5 11.5t5 7.5t5 8.5l12 24q4 0 12 2q-4 -9 -8.5 -18.5t-9.5 -18.5l-5 -10t0 -10q4 -5 10 1
t11 13q4 9 9.5 19t10.5 19l8 18t9 18q7 -2 14 3l-27 -55l-10 -20q-2 -5 -3.5 -12.5t6.5 -3.5q8 3 15 13q4 10 9.5 20t10.5 19l8 18t9 18q7 -2 14 3l-27 -55l-10 -20q-1 -2 -2 -5.5t-1.5 -6.5t0.5 -4.5t6 0.5q7 2 12 9t8 13l4 -2q-5 -8 -10 -15t-13 -11q-7 -4 -14 -1.5
t-6 10.5q-6 -6 -12 -9q-7 -4 -14 -1.5t-6 11.5q-5 -5 -9.5 -9t-10.5 -4q-9 0 -10 6t2 12q-6 -7 -16.5 -14t-18.5 -2zM1114 447h-54v152h22v-133h32v-19zM634 447h-54v152h22v-133h32v-19zM740 81q6 0 12.5 -0.5t11.5 3.5q9 8 11 20t2 22q0 11 -2 24t-10 21q-5 5 -12 4.5
t-13 -0.5v-94zM675 348q6 -1 14 3q-3 -6 -5.5 -10.5t-6.5 -9.5v-1q6 7 14.5 13.5t17.5 7.5q12 0 11.5 -9t-4.5 -17q-2 -4 -9.5 -14.5t-4.5 -15.5q2 -4 6.5 -1.5t8.5 7t7.5 9t4.5 6.5l4 -2l-10 -14t-13 -12q-7 -4 -14 -2t-6 12q1 8 6.5 15.5t8.5 14.5q1 1 2 4t1.5 5.5
t-0.5 4.5t-5 1q-11 -2 -19.5 -14t-13.5 -20l-12 -24h-12l4 9q-2 -2 -4 -3.5t-4 -2.5q-8 -4 -15 -1.5t-5 12.5q0 8 4.5 15t7.5 15q6 9 9 18q10 0 15 4l-19 -38q-2 -3 -5 -9.5t0 -9.5t7 -0.5t8 7t7 9t4 6.5zM943 582q-6 0 -9 -7.5t-4 -17.5t-0.5 -20t0.5 -14t-0.5 -13.5
t0.5 -19.5t4 -17.5t9 -7.5t9 7.5t4 17.5t0.5 19.5t-0.5 13.5t0.5 14t-0.5 20t-4 17.5t-9 7.5zM389 582q-6 0 -9 -7.5t-4 -17.5t-0.5 -20t0.5 -14t-0.5 -13.5t0.5 -19.5t4 -17.5t9 -7.5t8.5 7.5t3.5 17.5t0.5 19.5t-0.5 13.5t0.5 14t-0.5 20t-3.5 17.5t-8.5 7.5zM1190 599h22
q0 -28 -1 -56t-3 -57h-14q-2 29 -3 56.5t-1 56.5zM152 384q-8 2 -18.5 -7t-15.5 -14q-16 -18 -29 -39h42l13 27q1 3 4 8t5 10.5t2.5 9.5t-3.5 5zM1039 371q-5 -3 -6.5 0.5t-0.5 7.5q-11 4 -16.5 -5.5t-7.5 -16.5h14l-3 -6h-14l-44 -90q-4 0 -14 -2l46 92h-15l3 6h15
q3 8 8 16t15 10q6 2 15 -1q2 -1 5.5 -4.5t-0.5 -6.5zM835 371q-5 -3 -7 0.5t-1 7.5q-11 4 -16.5 -5.5t-7.5 -16.5h14l-3 -6h-14l-44 -90q-5 0 -13 -2l45 92h-15l4 6h14q3 8 8 16t15 10q6 2 15 -1q2 -1 5.5 -4.5t0.5 -6.5zM622 91q-2 -10 -3 -20t-3 -20h29q-3 29 -8 58.5
t-7 59.5q-1 -20 -3.5 -39t-4.5 -39zM88 515q5 0 9.5 -0.5t7.5 3.5q5 5 5.5 14t0.5 16t-0.5 16t-5.5 14q-3 5 -7.5 4.5t-9.5 -0.5v-67zM1045 346q-8 0 -15 -9t-11 -19.5t-4 -19t8 -8.5q6 0 13 9t11.5 19.5t4.5 19t-7 8.5zM928 -21q0 -10 -6 -15t-13.5 -5t-13.5 5t-6 15t6 15
t13.5 5t13.5 -5t6 -15zM562 -21q0 -10 -6 -15t-13.5 -5t-13.5 5t-6 15t6 15t13.5 5t13.5 -5t6 -15zM462 343q-7 0 -12.5 -5t-10 -12.5t-8 -16t-6.5 -13.5q11 -8 21 0t15 16q1 2 4 7t4 10.5t0 9.5t-7 4zM231 292q7 0 13 6t10.5 14t8 16.5t6.5 14.5q-10 5 -20 -3t-15 -16
q-1 -2 -4 -7t-4.5 -10.5t-1 -10t6.5 -4.5zM225 524q4 0 8 -0.5t7 1.5q6 5 7 13t1 15q0 6 -1 14.5t-7 12.5q-3 2 -6.5 2h-8.5v-58zM366 292q7 0 13 6t10.5 14t8 16.5t6.5 14.5q-11 5 -20.5 -3t-14.5 -16q-1 -2 -4 -7t-4.5 -10.5t-1 -10t6.5 -4.5zM539 322q-3 -5 -4 -8l-2 -6
q11 0 24.5 9.5t13.5 21.5q0 8 -5.5 7t-10.5 -4q-5 -4 -9 -9.5t-7 -10.5zM533 529l-3 -24h17q-2 18 -4.5 36t-3.5 36q-1 -11 -2.5 -23t-3.5 -25zM1213 460q0 -6 -4 -9.5t-8.5 -3.5t-8 3.5t-3.5 9.5t3.5 9.5t8 3.5t8.5 -3.5t4 -9.5zM667 368q-4 -7 -11.5 -5t-5.5 10q1 4 5 5.5
t7.5 0.5t5 -4t-0.5 -7zM327 368q-3 -7 -10.5 -5t-5.5 10q1 4 4.5 5.5t7 0.5t5.5 -4t-1 -7zM1194 291q-4 -8 -11.5 -4.5t-3.5 10.5q4 8 11.5 4.5t3.5 -10.5zM1214 337q-2 -4 -5 -5t-6 0.5t-4 4t1 6.5q4 7 11 4t3 -10z" />
    <glyph glyph-name="nine" unicode="9" horiz-adv-x="1272" 
d="M358 203h42q5 -51 8.5 -101.5t5.5 -101.5q3 38 5.5 77t7.5 77l6 49h39q5 -42 9 -83t7 -83l3 -37q3 41 4.5 80.5t5.5 78.5q2 11 2.5 22t1.5 22h30l-20 -244h-46q-5 48 -9.5 96.5t-6.5 97.5q-2 -36 -5 -72.5t-7 -72.5l-4 -49h-47l-11 137l-12 -137h-45q-5 48 -10 96.5
t-7 97.5q-2 -36 -4.5 -72.5t-6.5 -72.5l-5 -49h-46l-12 140l-11 -140h-46q-5 48 -9.5 96t-6.5 97q-1 -37 -4 -72.5t-7 -71.5l-6 -49h-45l-21 244h30q5 -51 8.5 -101.5t5.5 -101.5q3 38 5.5 77t7.5 77l6 49h39q5 -42 9 -83t7 -83l3 -37q3 41 4.5 80.5t5.5 78.5l5 44h41
q5 -51 8.5 -101.5t6.5 -101.5q3 38 5.5 77t6.5 77q2 12 3 24t3 25h40q5 -42 8.5 -83t7.5 -83l2 -37q3 41 5 80.5t6 78.5zM1204 731h-1130v22h1130v-22zM1204 -197h-1130v22h1130v-22zM740 -41h-35v244h36q11 0 22 0.5t21 -4.5q17 -8 22 -27.5t5 -36.5v-19t-2.5 -22t-7.5 -20
t-14 -12l30 -103h-39l-21 97h-17v-97zM983 13v-54h-33v244h32q12 -43 24.5 -85t22.5 -86q-4 43 -4.5 85.5t-0.5 85.5h32v-244h-33q-12 42 -24.5 83.5t-21.5 83.5q2 -29 3 -56.5t3 -56.5zM606 -41h-33l29 244h57l30 -244h-35l-7 58h-33zM1153 112q1 11 0 23.5t-5 23.5
q-3 8 -10.5 13t-14.5 -5q-6 -8 -7 -20.5t-2 -23.5q-1 -12 -1 -23.5v-22.5v-23t2 -23q0 -9 2 -22t11 -18q10 -6 16 1.5t8 20t2.5 25t0.5 17.5h-25v28h58v-123h-26l-1 33q-2 -11 -7.5 -22t-16.5 -14t-22 2t-18 13q-14 17 -16 42t-2 45q-2 26 -1 52.5t8 50.5q2 11 7 21t15 15
q10 6 22 7t23 -3q12 -5 19 -15t10 -22.5t4 -25.5t1 -24zM224 327q5 8 12 14t16 8q8 2 16 -1.5t17 -0.5l-18 -34q-2 -3 -5.5 -10t0.5 -9q5 -4 11 2t11 13q2 5 5 10l6 10l8 18q8 0 15 4l-19 -38q-2 -3 -5 -9.5t1 -9.5q4 -4 10 1.5t10 12.5q4 9 9.5 19t9.5 19q5 9 9 18t9 18
q8 -2 14 3l-27 -55q-2 -5 -4.5 -10t-4.5 -10t-4 -12.5t6 -3.5q5 2 9.5 7t8.5 11q3 8 8 15q5 8 12 14t16 8t17 -1.5t17 -0.5q-5 -8 -9 -16.5t-9 -17.5q-2 -3 -5 -10t0 -9q3 -3 6.5 -1t7 5.5t6.5 8l5 7.5l1 2l32 66q8 0 13 3q-5 -12 -10 -23.5t-13 -22.5q7 7 16.5 11.5
t16.5 -6.5q6 -10 0.5 -23t-12.5 -21q6 -1 11 2t10 7q4 9 9 18.5t10 18.5l18 36q7 -2 13 3q-7 -14 -13 -27.5t-14 -27.5q-2 -5 -4.5 -10t-5.5 -10q-1 -2 -2 -5.5t-1 -6.5t1 -4.5t6 0.5t10.5 8t8.5 12q3 13 12 22q3 3 9.5 7.5t14 6.5t13.5 0.5t8 -10.5q1 -8 -3.5 -15
t-12 -11.5t-16.5 -7t-15 -2.5q-1 -6 3 -9.5t10 -3.5q13 0 24 7t17 18l4 -2q-8 -14 -23 -22.5t-31 -5.5t-16 18q-4 -5 -8 -9.5t-9 -6.5q-7 -4 -14.5 -1.5t-5.5 12.5v2q-2 -2 -4 -2q-4 -3 -12 -3h-7q-2 0 -3 -2t-3 -2q-10 -6 -21.5 -5t-17.5 11q-7 -9 -17 -12q-9 -2 -12.5 3
t-0.5 13q-5 -7 -13.5 -13.5t-17.5 -0.5q-7 4 -7 14q-6 -9 -14 -14q-8 -4 -15 -1.5t-6 10.5q-7 -7 -11 -9q-8 -4 -15.5 -1.5t-5.5 11.5q-4 -4 -8 -7t-9 -5q-9 -2 -12.5 3t0.5 13h-1q-5 -7 -13.5 -13.5t-17.5 -0.5q-5 2 -6 6.5t0 9.5q-5 -5 -10 -6q-4 -2 -13 -2q-5 0 -6 -1
t-4 -3q-5 -3 -11.5 -5t-11.5 -1t-8 5.5t-1 12.5q2 11 8 22t11 21q5 0 13 4q-3 -8 -6 -15t-7 -14q-1 -3 -4 -7.5t-5 -9.5t-2 -9t4 -5q9 -2 17 8t11 15q5 8 8 17.5t3 18.5q9 2 10 -5t-1 -13q-4 -16 -18 -31q8 -2 15 3t11 12zM943 446q-11 0 -17.5 5t-9.5 13t-4.5 17.5
t-1.5 17.5q-2 19 -2 39.5t6 39.5q3 8 8.5 14.5t14.5 7.5q20 5 31 -13q9 -17 9 -37.5v-38.5q0 -9 -0.5 -20.5t-4 -21t-10.5 -16.5t-19 -7zM389 446q-11 0 -17.5 5t-10 13t-4.5 17.5t-2 17.5q-1 19 -1 39.5t6 39.5q3 8 8 14.5t15 7.5q21 5 31 -13q8 -17 8.5 -37.5t0.5 -38.5
q0 -9 -1 -20.5t-4.5 -21t-10 -16.5t-18.5 -7zM867 -41h-35v244h35v-244zM225 447h-21v152h23h14t13 -2q10 -5 13 -16.5t3 -20.5q1 -11 -1 -27.5t-14 -21.5l18 -64h-24l-13 61q-3 0 -5.5 0.5t-5.5 0.5v-62zM1006 481v-34h-20v152h19q8 -26 16 -52.5t14 -53.5q-2 26 -2.5 53
t-0.5 53h20v-152h-21q-8 26 -15.5 52t-13.5 53q2 -18 2.5 -35.5t1.5 -35.5zM88 447h-22v152h34q26 0 32 -26q4 -14 3.5 -32t-8.5 -32q-7 -10 -17.5 -11t-21.5 -1v-50zM452 481v-34h-20v152h19q8 -26 15.5 -52.5t13.5 -53.5q-2 26 -2.5 53t-0.5 53h20v-152h-21
q-7 26 -14.5 52t-13.5 53q2 -18 2 -35.5t2 -35.5zM524 447h-21l18 152h35l19 -152h-21l-5 37h-21zM701 446q-15 0 -22.5 8.5t-10 21t-2 26.5t0.5 26v71h22v-106q0 -5 -0.5 -10t1.5 -10t7 -7.5t10 2.5t5.5 13.5t0.5 14.5q1 12 0.5 24t-0.5 24v55h22v-71q0 -12 0.5 -26
t-2 -26.5t-9.5 -21t-23 -8.5zM1090 348q5 -1 13 3q-3 -6 -5.5 -10.5t-6.5 -9.5v-1q6 7 14.5 13.5t17.5 7.5q12 0 11.5 -9t-3.5 -17q-3 -4 -10 -14.5t-4 -15.5q2 -3 5.5 -2t7 5l7 8t5.5 7l19 38h-8l3 6h8l8 17q8 0 14 3l-10 -20h15l-4 -6h-14l-18 -37l-5 -10t-1 -10
q3 -3 7 -0.5t8.5 7t7.5 9t4 6.5l4 -2q-5 -8 -12 -17t-18 -11q-9 -2 -12 2t-1 10q-3 -3 -6 -5.5t-6 -4.5q-7 -4 -14.5 -2t-6.5 12q1 8 6.5 15.5t8.5 14.5q1 3 3.5 9.5t-4.5 5.5q-11 -2 -20 -14t-14 -20q-4 -5 -6.5 -11.5t-5.5 -12.5h-12l7 16l-1 -1q-4 -2 -10 -4h-9
q-5 -6 -10.5 -8t-8.5 -2q-10 -4 -18 3t-6.5 18t5.5 20q5 9 14 16.5t21 7.5q10 0 14.5 -6t4.5 -14t-3.5 -16.5t-7.5 -14.5q13 0 20 11zM304 518q-23 15 -26 39q-2 11 2 22.5t15 17.5q9 5 21.5 4t20.5 -9q9 -9 9 -19.5v-21.5q-6 0 -11.5 0.5t-10.5 0.5q0 6 0.5 12.5t-4.5 11.5
q-9 8 -14.5 1t-6.5 -15q0 -11 7.5 -18t15.5 -13t14 -13.5t8 -16.5q2 -11 0.5 -21.5t-7 -18.5t-14 -12.5t-20.5 -2.5q-20 4 -22.5 19.5t-1.5 31.5h20q0 -5 -0.5 -10t0.5 -10q2 -6 7.5 -10t11.5 1q5 4 6 12.5t-1 14.5q-2 8 -7 13.5t-12 9.5zM771 518q-23 13 -27 39
q-1 11 2.5 22.5t14.5 17.5q10 5 22 4t20 -9q9 -9 8.5 -19.5t-0.5 -21.5q-5 0 -10 0.5t-10 0.5q0 6 0.5 12.5t-4.5 11.5q-9 8 -14.5 1t-6.5 -15q0 -11 7 -18t15 -13q17 -12 23 -30q2 -11 0.5 -21.5t-7 -18.5t-14.5 -12.5t-21 -2.5q-20 4 -22.5 19.5t-2.5 31.5h22q0 -5 -1 -10
t1 -10q2 -6 7 -10t11 1q6 4 7 12.5t-1 14.5q-2 8 -7 13.5t-12 9.5zM198 447h-55v152h55v-20h-33v-43h27v-22h-27v-46h33v-21zM875 447h-54v152h54v-20h-32v-43h27v-22h-27v-46h32v-21zM128 319l-42 -2q-5 -8 -9 -17t-5 -19q-8 -2 -9.5 2.5t0 11.5t4.5 13.5t5 8.5l-14 -1
l-5 8h23q11 17 26 34t35 27q6 4 16 5t12 -10q2 -5 -0.5 -10.5t-4.5 -10.5q-5 -10 -9.5 -19.5t-9.5 -18.5q-3 -7 -9 -17.5t-3 -18.5q-8 -2 -10 2t-0.5 10t4.5 12.5t5 9.5zM1163 599h21q-5 -21 -10 -42.5t-10 -42.5q-5 -16 -3.5 -33t1.5 -34h-23q0 17 0.5 34t-3.5 33
q-5 21 -10 42.5t-10 42.5h21q4 -19 7.5 -38.5t5.5 -39.5q1 20 5 39t8 39zM800 287q-7 4 -5.5 11.5t4.5 13.5l17 35q6 0 14 4l-13 -27q-2 -4 -8 -14.5t-2 -14.5q6 -5 14.5 2.5t11.5 11.5t5 7.5t5 8.5l12 24q4 0 12 2q-4 -9 -8.5 -18.5t-9.5 -18.5l-5 -10t0 -10q4 -5 10 1
t11 13q4 9 9.5 19t10.5 19l8 18t9 18q7 -2 14 3l-27 -55l-10 -20q-2 -5 -3.5 -12.5t6.5 -3.5q8 3 15 13q4 10 9.5 20t10.5 19l8 18t9 18q7 -2 14 3l-27 -55l-10 -20q-1 -2 -2 -5.5t-1.5 -6.5t0.5 -4.5t6 0.5q7 2 12 9t8 13l4 -2q-5 -8 -10 -15t-13 -11q-7 -4 -14 -1.5
t-6 10.5q-6 -6 -12 -9q-7 -4 -14 -1.5t-6 11.5q-5 -5 -9.5 -9t-10.5 -4q-9 0 -10 6t2 12q-6 -7 -16.5 -14t-18.5 -2zM1114 447h-54v152h22v-133h32v-19zM634 447h-54v152h22v-133h32v-19zM740 81q6 0 12.5 -0.5t11.5 3.5q9 8 11 20t2 22q0 11 -2 24t-10 21q-5 5 -12 4.5
t-13 -0.5v-94zM675 348q6 -1 14 3q-3 -6 -5.5 -10.5t-6.5 -9.5v-1q6 7 14.5 13.5t17.5 7.5q12 0 11.5 -9t-4.5 -17q-2 -4 -9.5 -14.5t-4.5 -15.5q2 -4 6.5 -1.5t8.5 7t7.5 9t4.5 6.5l4 -2l-10 -14t-13 -12q-7 -4 -14 -2t-6 12q1 8 6.5 15.5t8.5 14.5q1 1 2 4t1.5 5.5
t-0.5 4.5t-5 1q-11 -2 -19.5 -14t-13.5 -20l-12 -24h-12l4 9q-2 -2 -4 -3.5t-4 -2.5q-8 -4 -15 -1.5t-5 12.5q0 8 4.5 15t7.5 15q6 9 9 18q10 0 15 4l-19 -38q-2 -3 -5 -9.5t0 -9.5t7 -0.5t8 7t7 9t4 6.5zM943 582q-6 0 -9 -7.5t-4 -17.5t-0.5 -20t0.5 -14t-0.5 -13.5
t0.5 -19.5t4 -17.5t9 -7.5t9 7.5t4 17.5t0.5 19.5t-0.5 13.5t0.5 14t-0.5 20t-4 17.5t-9 7.5zM389 582q-6 0 -9 -7.5t-4 -17.5t-0.5 -20t0.5 -14t-0.5 -13.5t0.5 -19.5t4 -17.5t9 -7.5t8.5 7.5t3.5 17.5t0.5 19.5t-0.5 13.5t0.5 14t-0.5 20t-3.5 17.5t-8.5 7.5zM1190 599h22
q0 -28 -1 -56t-3 -57h-14q-2 29 -3 56.5t-1 56.5zM152 384q-8 2 -18.5 -7t-15.5 -14q-16 -18 -29 -39h42l13 27q1 3 4 8t5 10.5t2.5 9.5t-3.5 5zM1039 371q-5 -3 -6.5 0.5t-0.5 7.5q-11 4 -16.5 -5.5t-7.5 -16.5h14l-3 -6h-14l-44 -90q-4 0 -14 -2l46 92h-15l3 6h15
q3 8 8 16t15 10q6 2 15 -1q2 -1 5.5 -4.5t-0.5 -6.5zM835 371q-5 -3 -7 0.5t-1 7.5q-11 4 -16.5 -5.5t-7.5 -16.5h14l-3 -6h-14l-44 -90q-5 0 -13 -2l45 92h-15l4 6h14q3 8 8 16t15 10q6 2 15 -1q2 -1 5.5 -4.5t0.5 -6.5zM622 91q-2 -10 -3 -20t-3 -20h29q-3 29 -8 58.5
t-7 59.5q-1 -20 -3.5 -39t-4.5 -39zM88 515q5 0 9.5 -0.5t7.5 3.5q5 5 5.5 14t0.5 16t-0.5 16t-5.5 14q-3 5 -7.5 4.5t-9.5 -0.5v-67zM1045 346q-8 0 -15 -9t-11 -19.5t-4 -19t8 -8.5q6 0 13 9t11.5 19.5t4.5 19t-7 8.5zM928 -21q0 -10 -6 -15t-13.5 -5t-13.5 5t-6 15t6 15
t13.5 5t13.5 -5t6 -15zM562 -21q0 -10 -6 -15t-13.5 -5t-13.5 5t-6 15t6 15t13.5 5t13.5 -5t6 -15zM462 343q-7 0 -12.5 -5t-10 -12.5t-8 -16t-6.5 -13.5q11 -8 21 0t15 16q1 2 4 7t4 10.5t0 9.5t-7 4zM231 292q7 0 13 6t10.5 14t8 16.5t6.5 14.5q-10 5 -20 -3t-15 -16
q-1 -2 -4 -7t-4.5 -10.5t-1 -10t6.5 -4.5zM225 524q4 0 8 -0.5t7 1.5q6 5 7 13t1 15q0 6 -1 14.5t-7 12.5q-3 2 -6.5 2h-8.5v-58zM366 292q7 0 13 6t10.5 14t8 16.5t6.5 14.5q-11 5 -20.5 -3t-14.5 -16q-1 -2 -4 -7t-4.5 -10.5t-1 -10t6.5 -4.5zM539 322q-3 -5 -4 -8l-2 -6
q11 0 24.5 9.5t13.5 21.5q0 8 -5.5 7t-10.5 -4q-5 -4 -9 -9.5t-7 -10.5zM533 529l-3 -24h17q-2 18 -4.5 36t-3.5 36q-1 -11 -2.5 -23t-3.5 -25zM1213 460q0 -6 -4 -9.5t-8.5 -3.5t-8 3.5t-3.5 9.5t3.5 9.5t8 3.5t8.5 -3.5t4 -9.5zM667 368q-4 -7 -11.5 -5t-5.5 10q1 4 5 5.5
t7.5 0.5t5 -4t-0.5 -7zM327 368q-3 -7 -10.5 -5t-5.5 10q1 4 4.5 5.5t7 0.5t5.5 -4t-1 -7zM1194 291q-4 -8 -11.5 -4.5t-3.5 10.5q4 8 11.5 4.5t3.5 -10.5zM1214 337q-2 -4 -5 -5t-6 0.5t-4 4t1 6.5q4 7 11 4t3 -10z" />
    <glyph glyph-name="colon" unicode=":" horiz-adv-x="180" 
d="M12 74q0 31 22 53t52 22q32 0 54 -22t22 -53q0 -30 -22 -52t-54 -22q-30 0 -52 22t-22 52zM12 376q0 32 22 54t52 22q32 0 54 -22t22 -54q0 -30 -22 -52t-54 -22q-30 0 -52 22t-22 52z" />
    <glyph glyph-name="semicolon" unicode=";" horiz-adv-x="180" 
d="M155 142v-230h-130v230h130zM12 376q0 32 22 54t52 22q32 0 54 -22t22 -54q0 -30 -22 -52t-54 -22q-30 0 -52 22t-22 52z" />
    <glyph glyph-name="less" unicode="&#x3c;" horiz-adv-x="351" 
d="M232 59l-207 211l209 210l92 -91l-117 -119l117 -117z" />
    <glyph glyph-name="equal" unicode="=" horiz-adv-x="414" 
d="M25 425h364v-130h-364v130zM25 246h364v-130h-364v130z" />
    <glyph glyph-name="greater" unicode="&#x3e;" horiz-adv-x="355" 
d="M117 480l213 -208l-213 -211l-92 92l120 117l-120 119z" />
    <glyph glyph-name="question" unicode="?" horiz-adv-x="468" 
d="M14 433q-2 51 15 94.5t47.5 76t73 50.5t90.5 18t89.5 -15.5t71.5 -44t47 -68.5t17 -89q0 -40 -13 -73t-36 -58.5t-54 -42.5t-66 -25v-63h-121v134q81 14 120.5 40.5t39.5 78.5q0 42 -26.5 68t-68.5 26t-67.5 -28t-25.5 -79h-133zM161 74q0 31 22 53t52 22q32 0 54 -22
t22 -53q0 -30 -22 -52t-54 -22q-30 0 -52 22t-22 52z" />
    <glyph glyph-name="at" unicode="@" horiz-adv-x="792" 
d="M593 444q-38 39 -89 62t-108 23q-56 0 -104.5 -21t-84.5 -57t-57 -84t-21 -102q0 -56 21 -105t57 -86t84.5 -58.5t104.5 -21.5q40 0 72 14.5t54 37.5l66 -52q-12 -25 -33 -44.5t-47 -33t-55 -20.5t-57 -7q-77 0 -145 29t-118 80t-79 119.5t-29 146.5q0 77 29 144.5
t79 118t118 79.5t145 29t144.5 -29t118 -79.5t79.5 -118t29 -144.5q0 -101 -36.5 -160t-101.5 -59q-14 0 -33.5 9.5t-37.5 23t-30.5 29t-12.5 27.5v50q-4 -41 -23.5 -66.5t-47 -38t-58.5 -12.5t-58 10q-29 10 -52.5 28.5t-41 43t-27 53.5t-9.5 62q0 62 34.5 110.5t88.5 70.5
q29 13 59.5 13.5t57 -8t47 -25.5t29.5 -39l3 58h76zM667 265q0 51 -19.5 96.5t-53.5 81.5v-257q0 -14 8.5 -24.5t21.5 -10.5q15 0 29 32t14 82zM396 195q28 0 48.5 19t20.5 50q0 27 -19 46.5t-50 19.5q-28 0 -47.5 -19.5t-19.5 -46.5q0 -29 19.5 -49t47.5 -20z" />
    <glyph glyph-name="A" unicode="A" horiz-adv-x="515" 
d="M-13 0l198 670h135l207 -670h-134l-31 111h-211l-29 -111h-135zM180 218h152l-77 280z" />
    <glyph glyph-name="B" unicode="B" horiz-adv-x="518" 
d="M371 546q0 -29 -13 -49t-36 -31q46 -8 79 -29.5t54 -50.5t31 -61.5t10 -62.5q0 -55 -20.5 -103t-56 -83t-83.5 -55.5t-103 -20.5h-216v670h216q29 0 54.5 -9t44 -25t29 -39t10.5 -51zM147 396v-265h86q27 0 51 10t42 27.5t28.5 41.5t10.5 52q0 27 -8.5 51.5t-26.5 43
t-44.5 29t-62.5 10.5h-76zM265 528q0 15 -9.5 25.5t-26.5 10.5h-81v-71h83q16 0 25 10.5t9 24.5z" />
    <glyph glyph-name="C" unicode="C" horiz-adv-x="640" 
d="M628 140q-51 -67 -118.5 -103.5t-148.5 -36.5q-70 0 -131 26t-106.5 71t-72 106t-26.5 131t26.5 131.5t72 107t106.5 71.5t131 26q88 0 156.5 -39t113.5 -107l-87 -88q-35 52 -81 77t-102 25q-43 0 -80.5 -16t-65 -43.5t-43.5 -64.5t-16 -80t16 -80t43.5 -64.5t65 -43
t80.5 -15.5q51 0 94.5 22.5t85.5 72.5z" />
    <glyph glyph-name="D" unicode="D" horiz-adv-x="561" 
d="M161 538v-407h45q42 0 79.5 15.5t65.5 43t44 64.5t16 80t-16 80t-44 64.5t-65.5 43.5t-79.5 16h-45zM206 670q70 0 131 -26t106.5 -71.5t72 -107t26.5 -131.5t-26.5 -131t-72 -106t-106.5 -71t-131 -26h-176v670h176z" />
    <glyph glyph-name="E" unicode="E" horiz-adv-x="460" 
d="M435 0h-410v670h410v-132h-279v-175h229v-129h-229v-103h279v-131z" />
    <glyph glyph-name="F" unicode="F" horiz-adv-x="389" 
d="M25 0v670h459v-132h-328v-213h202v-128h-202v-197h-131z" />
    <glyph glyph-name="G" unicode="G" horiz-adv-x="667" 
d="M547 432q-36 47 -80.5 76.5t-105.5 29.5q-43 0 -80.5 -16t-65 -43.5t-43.5 -64.5t-16 -80t16 -80t43.5 -64.5t65 -43t80.5 -15.5q61 0 104 21t64 50v40h-256v115h377v-201q-52 -72 -126.5 -114t-162.5 -42q-70 0 -131 26t-106.5 71t-72 106t-26.5 131t26.5 131.5t72 107
t106.5 71.5t131 26q77 0 152 -36.5t129 -113.5z" />
    <glyph glyph-name="H" unicode="H" horiz-adv-x="542" 
d="M385 0v197h-230v-197h-130v670h130v-345h230v345h132v-670h-132z" />
    <glyph glyph-name="I" unicode="I" horiz-adv-x="216" 
d="M44 0v670h130v-670h-130z" />
    <glyph glyph-name="J" unicode="J" horiz-adv-x="483" 
d="M146 245q-4 -54 23.5 -84t71.5 -30q19 0 36.5 7.5t30.5 20.5t20.5 30t7.5 36v445h130v-445q0 -47 -17.5 -88t-48 -71.5t-71.5 -48t-88 -17.5q-55 0 -99 17.5t-74 49.5t-43.5 77t-7.5 101h129z" />
    <glyph glyph-name="K" unicode="K" horiz-adv-x="485" 
d="M144 670v-289h60l158 289h147l-200 -347l200 -323h-147l-158 258h-60v-258h-125v670h125z" />
    <glyph glyph-name="L" unicode="L" horiz-adv-x="365" 
d="M365 0h-340v670h131v-539h209v-131z" />
    <glyph glyph-name="M" unicode="M" horiz-adv-x="670" 
d="M269 0l-129 423v-423h-115v670h143l164 -499l172 499h141v-670h-121v422l-125 -422h-130z" />
    <glyph glyph-name="N" unicode="N" horiz-adv-x="542" 
d="M517 670v-670h-101l-269 423v-423h-122v670h114l261 -425v425h117z" />
    <glyph glyph-name="O" unicode="O" horiz-adv-x="724" 
d="M567 334q0 43 -16.5 80t-44.5 64.5t-65.5 43.5t-79.5 16q-43 0 -80.5 -16t-65.5 -43.5t-44 -64.5t-16 -80t16 -80t44 -64.5t65.5 -43t80.5 -15.5q42 0 79.5 15.5t65.5 43t44.5 64.5t16.5 80zM697 334q0 -70 -26 -131t-71.5 -106t-107 -71t-131.5 -26q-71 0 -132 26
t-106.5 71t-71.5 106t-26 131t26 131.5t71.5 107t106.5 71.5t132 26q70 0 131.5 -26t107 -71.5t71.5 -107t26 -131.5z" />
    <glyph glyph-name="P" unicode="P" horiz-adv-x="501" 
d="M17 0v670h216q55 0 103 -20.5t84 -56.5t56.5 -84.5t20.5 -103.5q0 -54 -20.5 -101.5t-56.5 -83t-84 -56t-103 -20.5h-86v-144h-130zM147 274h86q27 0 51.5 10.5t42.5 28.5t28.5 41.5t10.5 50.5q0 28 -10.5 52.5t-28.5 42.5t-42.5 28t-51.5 10h-86v-264z" />
    <glyph glyph-name="Q" unicode="Q" horiz-adv-x="722" 
d="M565 334q0 43 -16 80t-44 64.5t-65 43.5t-79 16q-43 0 -80.5 -16t-65.5 -43.5t-44 -64.5t-16 -80t16 -80t44 -64.5t65.5 -43t80.5 -15.5q42 0 79 15.5t65 43t44 64.5t16 80zM695 334q0 -70 -26 -131t-71 -106t-106 -71t-131 -26q-71 0 -132 26t-106.5 71t-71.5 106
t-26 131t26 131.5t71.5 107t106.5 71.5t132 26q70 0 131 -26t106 -71.5t71 -107t26 -131.5zM183 -40h354v-130h-354v130z" />
    <glyph glyph-name="R" unicode="R" horiz-adv-x="526" 
d="M32 0v670h216q55 0 103 -20.5t83.5 -56.5t56 -84.5t20.5 -103.5q0 -69 -31.5 -125.5t-85.5 -91.5l122 -188h-148l-96 145q-6 -1 -12 -1h-12h-86v-144h-130zM162 274h86q27 0 51 10.5t42 28.5t28.5 41.5t10.5 50.5q0 28 -10.5 52.5t-28.5 42.5t-42 28t-51 10h-86v-264z
" />
    <glyph glyph-name="S" unicode="S" horiz-adv-x="544" 
d="M176 348q-17 -16 -26.5 -38t-9.5 -47q0 -28 10.5 -52t28.5 -42t42.5 -28t52.5 -10q27 0 51.5 10t42.5 28t28.5 42t10.5 52q0 29 -11.5 49t-30.5 33.5t-43 21t-48 11.5q-75 11 -114.5 53.5t-37.5 102.5q0 28 11 53t30 43.5t45.5 29t59.5 10.5t58 -9t43 -24t29 -35t17 -41
l-94 -38q-3 17 -16 26.5t-28 9.5q-18 0 -29 -10.5t-10 -25.5q3 -31 62 -39q49 -6 92.5 -22t75.5 -44t51 -67t19 -91q0 -55 -20.5 -102.5t-56.5 -82.5t-84 -55t-103 -20t-103 20.5t-84 56t-56.5 83.5t-20.5 103q0 53 21.5 98.5t56.5 75.5z" />
    <glyph glyph-name="T" unicode="T" horiz-adv-x="401" 
d="M138 0v538h-154v132h438v-132h-154v-538h-130z" />
    <glyph glyph-name="U" unicode="U" horiz-adv-x="565" 
d="M150 670v-408q0 -27 10.5 -51.5t28.5 -42.5t42 -28.5t51 -10.5q35 0 60.5 14t41.5 38t23.5 55t7.5 65v369h131v-408q0 -55 -20.5 -103t-56.5 -84t-84 -56.5t-103 -20.5t-103 20.5t-83 56.5t-55.5 84t-20.5 103v408h130z" />
    <glyph glyph-name="V" unicode="V" horiz-adv-x="465" 
d="M95 670l134 -467l138 467h133l-207 -670h-134l-198 670h134z" />
    <glyph glyph-name="W" unicode="W" horiz-adv-x="698" 
d="M304 670l45 -161l46 161h104l-102 -331l56 -198l152 529h134l-206 -670h-135l-52 174l-53 -174h-135l-197 670h133l152 -521l53 186l-98 335h103z" />
    <glyph glyph-name="X" unicode="X" horiz-adv-x="471" 
d="M123 670l110 -246l110 246h153l-168 -340l168 -330h-153l-115 231l-105 -231h-149l163 320l-163 350h149z" />
    <glyph glyph-name="Y" unicode="Y" horiz-adv-x="486" 
d="M123 670l118 -335l118 335h146l-197 -474v-196h-132v196l-197 474h144z" />
    <glyph glyph-name="Z" unicode="Z" horiz-adv-x="502" 
d="M23 670h461l-266 -539h264v-131h-461l252 538h-250v132z" />
    <glyph glyph-name="bracketleft" unicode="[" horiz-adv-x="275" 
d="M250 540h-95v-573h95v-131h-225v836h225v-132z" />
    <glyph glyph-name="backslash" unicode="\" horiz-adv-x="587" 
d="M468 -37l-443 592l95 94l442 -591z" />
    <glyph glyph-name="bracketright" unicode="]" horiz-adv-x="275" 
d="M25 -33h95v573h-95v132h225v-836h-225v131z" />
    <glyph glyph-name="asciicircum" unicode="^" horiz-adv-x="384" 
d="M25 492l166 168l168 -168l-94 -94l-74 77l-74 -75z" />
    <glyph glyph-name="underscore" unicode="_" horiz-adv-x="414" 
d="M25 93h364v-130h-364v130z" />
    <glyph glyph-name="grave" unicode="`" horiz-adv-x="297" 
d="M278 533l-255 82v135l255 -126v-91z" />
    <glyph glyph-name="a" unicode="a" horiz-adv-x="549" 
d="M21 244q0 52 17 97t46.5 78.5t69.5 53t86 19.5q45 0 83 -19t66 -51v68h125v-490h-125v68q-28 -33 -66 -51.5t-83 -18.5q-46 0 -86 19.5t-69.5 52.5t-46.5 78t-17 96zM146 244q0 -25 9 -47t25.5 -38.5t38 -26t47.5 -9.5q25 0 47 9.5t38.5 26t26 38.5t9.5 47t-9.5 47.5
t-26 39t-38.5 26t-47 9.5q-26 0 -47.5 -9.5t-38 -26t-25.5 -39t-9 -47.5z" />
    <glyph glyph-name="b" unicode="b" horiz-adv-x="547" 
d="M149 629v-206q28 32 65.5 50.5t82.5 18.5q46 0 86 -19.5t69.5 -53t46.5 -78.5t17 -97q0 -51 -17 -96t-46.5 -78t-69.5 -52.5t-86 -19.5q-45 0 -82.5 18t-65.5 50v-66h-124v629h124zM392 244q0 25 -9.5 47.5t-26 39t-38.5 26t-47 9.5t-47 -9.5t-38.5 -25t-26 -37
t-10.5 -45.5v-5q0 -25 9.5 -47t26 -38.5t38.5 -26t48 -9.5q25 0 47 9.5t38.5 26t26 38.5t9.5 47z" />
    <glyph glyph-name="c" unicode="c" horiz-adv-x="478" 
d="M390 284q-24 38 -52 59.5t-73 21.5q-25 0 -47 -9.5t-39 -26t-27 -38.5t-10 -47t10 -47t26.5 -38.5t39 -26t47.5 -9.5q38 0 70 21.5t55 60.5l90 -85q-37 -63 -94.5 -92.5t-120.5 -29.5q-52 0 -97 19.5t-78 52.5t-52 78t-19 96q0 52 19 97t52 78t78 52t97 19
q63 0 119 -27.5t96 -90.5z" />
    <glyph glyph-name="d" unicode="d" horiz-adv-x="547" 
d="M21 244q0 52 17 97t46.5 78.5t69.5 53t86 19.5q45 0 82 -18t65 -50v205h125v-629h-125v65q-28 -32 -65 -49.5t-82 -17.5q-46 0 -86 19.5t-69.5 52.5t-46.5 78t-17 96zM146 244q0 -25 9 -47t25.5 -38.5t38 -26t47.5 -9.5q23 0 44 8t37 22.5t26.5 33.5t13.5 42v30
q-3 22 -13.5 42t-26.5 34t-37 22.5t-44 8.5q-26 0 -47.5 -9.5t-38 -26t-25.5 -39t-9 -47.5z" />
    <glyph glyph-name="e" unicode="e" horiz-adv-x="504" 
d="M488 119q-45 -66 -101.5 -93.5t-121.5 -27.5q-51 0 -96 19.5t-78 52.5t-52.5 78t-19.5 96q0 52 19.5 97t52.5 78.5t78 53t96 19.5q65 0 124.5 -29.5t104.5 -100.5l-265 -235q10 -5 29 -7t38 3q31 8 59 27.5t49 49.5zM138 263q-5 -26 0.5 -47.5t16.5 -32.5l176 166
q-13 11 -34.5 18.5t-48.5 4.5q-44 -6 -73 -34t-37 -75z" />
    <glyph glyph-name="f" unicode="f" horiz-adv-x="204" 
d="M0 492h32v2q0 34 9 65.5t29.5 54.5t54.5 34t84 5v-93q-25 2 -39 -11.5t-14 -37.5v-19h56v-103h-56v-389h-124v389h-32v103z" />
    <glyph glyph-name="g" unicode="g" horiz-adv-x="542" 
d="M265 -2q-52 0 -96.5 19.5t-77.5 52.5t-52 78t-19 96q0 52 19 97t52 78.5t78 53t97 19.5h244v-114l-78 3q42 -24 61.5 -59.5t21.5 -73.5q2 -29 -5.5 -60t-24 -60.5t-41 -53.5t-57.5 -38q17 -9 29 -24.5t18.5 -35t8 -40.5t-3.5 -39q-14 -49 -58 -81t-115 -32q-36 0 -68 8.5
t-56.5 28t-39 52t-14.5 80.5h126q0 -22 16.5 -35t35.5 -13q23 0 37 14.5t14 33.5q0 20 -13.5 32.5t-38.5 12.5zM387 244q0 25 -9.5 47.5t-26 39t-38.5 26t-47 9.5t-46.5 -9.5t-38 -26t-26 -39t-9.5 -47.5t9.5 -47t26 -38.5t38 -26t46.5 -9.5t47 9.5t38.5 26t26 38.5t9.5 47z
" />
    <glyph glyph-name="h" unicode="h" 
d="M392 0v255q0 25 -9.5 46t-26 36.5t-38 24.5t-44.5 9q-46 0 -81.5 -30.5t-43.5 -90.5v-250h-124v629h124v-209q31 32 69.5 49t80.5 19q50 3 90.5 -14t68.5 -48.5t43 -73.5t15 -89v-263h-124z" />
    <glyph glyph-name="i" unicode="i" horiz-adv-x="196" 
d="M160 490v-490h-124v490h124zM24 618q0 32 22 54t52 22q32 0 53.5 -22t21.5 -54q0 -30 -21.5 -52t-53.5 -22q-30 0 -52 22t-22 52z" />
    <glyph glyph-name="j" unicode="j" horiz-adv-x="195" 
d="M160 490v-623h-124v623h124zM24 618q0 32 22 54t52 22q32 0 53.5 -22t21.5 -54q0 -30 -21.5 -52t-53.5 -22q-30 0 -52 22t-22 52z" />
    <glyph glyph-name="k" unicode="k" horiz-adv-x="447" 
d="M144 629v-324h46l134 185h156l-188 -242l188 -248h-156l-127 182h-53v-182h-125v629h125z" />
    <glyph glyph-name="l" unicode="l" horiz-adv-x="197" 
d="M160 629v-629h-124v629h124z" />
    <glyph glyph-name="m" unicode="m" horiz-adv-x="680" 
d="M158 490v-44q40 46 101 46q42 0 71 -18t47 -49q20 32 50 49.5t72 17.5q35 0 63 -14t48 -38.5t30.5 -57t10.5 -69.5v-313h-125v313q0 18 -7.5 31t-19 20.5t-25 9t-26.5 -3.5q-17 -5 -29.5 -22t-14.5 -58v-290h-125v313q0 17 -7 30.5t-18.5 21t-25 9.5t-25.5 -4
q-17 -5 -30.5 -21.5t-14.5 -57.5v-291h-125v490h125z" />
    <glyph glyph-name="n" unicode="n" 
d="M392 0v244q0 25 -9.5 47.5t-26 40t-38.5 27.5t-47 10q-51 0 -85.5 -36t-36.5 -99v-234h-124v490h124v-73q29 37 69 56t87 19q44 0 82.5 -17t67 -47.5t45 -73t16.5 -94.5v-260h-124z" />
    <glyph glyph-name="o" unicode="o" horiz-adv-x="531" 
d="M383 244q0 25 -9.5 47.5t-26 39t-38 26t-46.5 9.5t-47 -9.5t-38.5 -26t-26 -39t-9.5 -47.5t9.5 -47t26 -38.5t38.5 -26t47 -9.5t46.5 9.5t38 26t26 38.5t9.5 47zM509 244q0 -51 -19.5 -96t-52.5 -78t-78 -52.5t-96 -19.5q-52 0 -97 19.5t-78 52.5t-52 78t-19 96
q0 52 19 97t52 78.5t78 53t97 19.5q51 0 96 -19.5t78 -53t52.5 -78.5t19.5 -97z" />
    <glyph glyph-name="p" unicode="p" horiz-adv-x="547" 
d="M516 244q0 -51 -17 -96t-46.5 -78t-69.5 -52.5t-86 -19.5q-45 0 -82.5 18t-65.5 50v-199h-124v623h124v-67q28 32 65.5 50.5t82.5 18.5q46 0 86 -19.5t69.5 -53t46.5 -78.5t17 -97zM392 244q0 25 -9.5 47.5t-26 39t-38.5 26t-47 9.5t-47 -9.5t-38.5 -25t-26 -37
t-10.5 -45.5v-5q0 -25 9.5 -47t26 -38.5t38.5 -26t48 -9.5q25 0 47 9.5t38.5 26t26 38.5t9.5 47z" />
    <glyph glyph-name="q" unicode="q" horiz-adv-x="547" 
d="M20 244q0 52 17 97t46 78.5t69 53t86 19.5q45 0 82.5 -19t66.5 -51v68h125v-623h-125v200q-29 -32 -66.5 -50.5t-82.5 -18.5q-46 0 -86 19.5t-69 52.5t-46 78t-17 96zM144 244q0 -25 9.5 -47t25.5 -38.5t38 -26t48 -9.5q25 0 47 9.5t38.5 26t26.5 38.5t10 47t-10 47.5
t-26.5 39t-38.5 26t-47 9.5q-26 0 -48 -9.5t-38 -26t-25.5 -39t-9.5 -47.5z" />
    <glyph glyph-name="r" unicode="r" horiz-adv-x="294" 
d="M162 490v-69q21 30 53.5 50.5t75.5 20.5v-126q-23 0 -45.5 -8.5t-40.5 -23.5t-30 -35t-13 -42v-257h-124v490h124z" />
    <glyph glyph-name="s" unicode="s" horiz-adv-x="367" 
d="M223 341q0 21 -10.5 35.5t-26.5 14.5t-26 -13.5t-10 -33.5q0 -22 21 -33t59 -22q53 -13 79.5 -45.5t26.5 -91.5q0 -32 -11.5 -60t-32.5 -49t-49 -33t-61 -12q-31 0 -59 10.5t-49 30t-33 47.5t-12 62h124q0 -21 11.5 -33t26.5 -12q14 0 25 12.5t11 31.5q0 13 -6.5 21.5
t-18.5 14.5t-28 9.5t-34 8.5q-48 12 -79.5 47t-31.5 92q0 33 11 61t31.5 48t48.5 31.5t62 11.5q72 0 113 -39.5t41 -111.5h-113z" />
    <glyph glyph-name="t" unicode="t" horiz-adv-x="216" 
d="M0 492h31v137h125v-137h68v-103h-68v-229q0 -52 54 -52v-110q-94 0 -136.5 39t-42.5 123v229h-31v103z" />
    <glyph glyph-name="u" unicode="u" 
d="M149 490v-239q0 -67 32 -105t90 -38q25 0 47 11t38.5 32t26 51t9.5 68v220h124v-490h-124v87q-26 -42 -65 -65t-91 -23q-45 0 -84 16t-67 45t-44 70.5t-16 92.5v267h124z" />
    <glyph glyph-name="v" unicode="v" horiz-adv-x="440" 
d="M115 490l104 -314l108 314h133l-177 -492h-134l-168 492h134z" />
    <glyph glyph-name="w" unicode="w" horiz-adv-x="680" 
d="M460 490l-66 -182l49 -155l126 337h133l-177 -492h-134l-53 154l-55 -154h-134l-168 492h134l104 -314l56 162l-52 152h237z" />
    <glyph glyph-name="x" unicode="x" horiz-adv-x="498" 
d="M138 490l108 -164l113 164h150l-171 -247l171 -243h-153l-113 165l-108 -165h-149l170 248l-170 242h152z" />
    <glyph glyph-name="y" unicode="y" horiz-adv-x="461" 
d="M125 490l110 -321l102 321h133l-222 -627h-125l47 134l-179 493h134z" />
    <glyph glyph-name="z" unicode="z" horiz-adv-x="450" 
d="M-1 492h447l-226 -369h226v-125h-443l221 368h-225v126z" />
    <glyph glyph-name="braceleft" unicode="{" horiz-adv-x="426" 
d="M401 540q-38 12 -61.5 9.5t-37.5 -13t-19 -26t-5 -30.5v-99q0 -31 -6 -51t-17.5 -34t-29 -23.5t-40.5 -18.5q22 -9 39.5 -20t29.5 -25t18 -33.5t6 -45.5v-98q0 -15 5.5 -30t19.5 -25t37.5 -12.5t60.5 7.5v-132q-75 -10 -123.5 -1t-77.5 31.5t-40.5 57t-11.5 75.5v105
q0 48 -29 66t-94 17v131q72 0 97.5 27t25.5 83v105q0 37 15 67.5t46 49.5t78.5 25t113.5 -7v-132z" />
    <glyph glyph-name="bar" unicode="|" horiz-adv-x="180" 
d="M25 -169v900h130v-900h-130z" />
    <glyph glyph-name="braceright" unicode="}" horiz-adv-x="426" 
d="M25 672q66 13 113.5 7t78.5 -25t46 -49.5t15 -67.5v-105q0 -56 25.5 -83t97.5 -27v-131q-65 1 -94 -17t-29 -66v-105q0 -41 -11.5 -75.5t-40.5 -57t-77.5 -31.5t-123.5 1v132q37 -10 60.5 -7.5t37.5 12.5t19.5 25t5.5 30v98q0 26 6 45.5t18 33.5t29.5 25t39.5 20
q-23 9 -40.5 18.5t-29 23.5t-17.5 34t-6 51v99q0 15 -5 30.5t-19 26t-38 13t-61 -9.5v132z" />
    <glyph glyph-name="asciitilde" unicode="~" horiz-adv-x="334" 
d="M30 175q-13 41 -13.5 75t8.5 58t26 37t39 13q21 0 38 -9.5t31 -20.5t27.5 -20.5t28.5 -9.5q12 0 16 15t-16 44h86q18 -50 18 -84.5t-11 -56t-29.5 -31.5t-37.5 -10q-20 0 -35.5 8t-29.5 17.5t-27 17.5t-27 8q-12 0 -17.5 -14t4.5 -37h-79z" />
    <glyph glyph-name="uni00A0" unicode="&#xa0;" horiz-adv-x="207" 
 />
    <glyph glyph-name="exclamdown" unicode="&#xa1;" horiz-adv-x="207" 
d="M175 475v-475h-130v475h130zM182 596q0 -15 -6 -29t-16.5 -24t-23.5 -16t-28 -6q-32 0 -54 22t-22 53q0 30 22 52t54 22q15 0 28 -6t23.5 -16t16.5 -23.5t6 -28.5z" />
    <glyph glyph-name="cent" unicode="&#xa2;" horiz-adv-x="559" 
d="M221 -73v79q-43 11 -79 35t-62 57.5t-40.5 75t-14.5 88.5q0 46 14.5 87t40.5 74.5t62 57.5t79 35v67h130v-66q48 -10 89.5 -38t79.5 -80l-95 -95q-20 28 -38.5 45t-35.5 28v-232q17 11 35.5 28t38.5 46l93 -93q-36 -54 -78 -82.5t-89 -39.5v-77h-130zM155 262
q0 -38 18 -68.5t48 -47.5v230q-30 -17 -48 -47.5t-18 -66.5z" />
    <glyph glyph-name="sterling" unicode="&#xa3;" horiz-adv-x="629" 
d="M107 382h78v61q0 48 16 90t47.5 72.5t77.5 48.5t106 18v-132q-33 0 -55 -8t-36 -21t-20 -31t-6 -37v-61h156v-131h-156v-24q0 -48 -30.5 -72t-75.5 -24v-2h395v-131h-579v131q33 0 62 7.5t50.5 20.5t34.5 31t13 39v24h-78v131z" />
    <glyph glyph-name="currency" unicode="&#xa4;" horiz-adv-x="524" 
d="M437 264q0 -35 -13 -69l75 -74l-93 -93l-75 73q-34 -13 -68 -13q-40 0 -70 13l-73 -72l-95 92l75 74q-13 30 -13 69q0 34 13 68l-70 72l92 92l71 -71q34 13 70 13t69 -14l75 74l92 -92l-75 -76q13 -34 13 -66zM307 264q0 17 -13 30.5t-31 13.5q-19 0 -32 -13.5t-13 -30.5
q0 -19 13 -32.5t32 -13.5q18 0 31 13.5t13 32.5z" />
    <glyph glyph-name="yen" unicode="&#xa5;" horiz-adv-x="490" 
d="M123 670l118 -335l118 335h146l-150 -359h66v-100h-107l-6 -15v-34h113v-100h-113v-62h-132v62h-119v100h119v34l-6 15h-113v100h71l-149 359h144z" />
    <glyph glyph-name="brokenbar" unicode="&#xa6;" horiz-adv-x="180" 
d="M155 241v-463h-130v463h130zM155 783v-462h-130v462h130z" />
    <glyph glyph-name="section" unicode="&#xa7;" horiz-adv-x="377" 
d="M25 356q0 27 10.5 45.5t24.5 31.5q-16 15 -25.5 38t-9.5 52q0 35 13 61t35.5 43.5t52 26.5t62.5 9q35 0 65 -8.5t52 -28.5t34.5 -53t12.5 -81h-121q0 65 -40 65q-19 0 -31.5 -14.5t-12.5 -37.5q0 -18 15 -27.5t38 -15.5t49.5 -12.5t49.5 -20t38 -36t15 -61.5
q0 -24 -12 -49.5t-32 -34.5q14 -10 23 -23t13.5 -26.5t6 -26.5t1.5 -23q0 -33 -12.5 -59.5t-34 -45t-51.5 -28.5t-66 -10q-33 0 -62.5 11t-52 34t-35.5 57.5t-13 81.5h121q0 -8 1 -18t5 -19.5t11.5 -16t20.5 -6.5q21 0 31 12.5t10 32.5q0 23 -14 35t-46 21q-24 6 -49 12
t-45 18.5t-33 34.5t-13 60zM236 287q17 17 11 36q-2 13 -12 23t-24 17.5t-31.5 15t-34.5 16.5q-6 -8 -9 -18.5t2 -21.5q2 -12 12 -21t23.5 -16.5t30 -14.5t32.5 -16z" />
    <glyph glyph-name="dieresis" unicode="&#xa8;" horiz-adv-x="364" 
d="M12 611q0 32 22 53.5t52 21.5q32 0 54 -21.5t22 -53.5q0 -30 -22 -52t-54 -22q-30 0 -52 22t-22 52zM197 611q0 32 22 53.5t52 21.5q31 0 53 -21.5t22 -53.5q0 -30 -22 -52t-53 -22q-30 0 -52 22t-22 52z" />
    <glyph glyph-name="copyright" unicode="&#xa9;" horiz-adv-x="794" 
d="M537 336q-15 27 -33 44.5t-37 27.5t-37 14t-34 4q-27 0 -50 -10t-40.5 -27t-27.5 -39.5t-10 -48.5q0 -27 10 -51t27.5 -41t40.5 -27t50 -10q16 0 34 4t36.5 13.5t36 26t31.5 41.5l88 -59q-17 -39 -42.5 -67t-55.5 -46t-63 -27t-65 -9q-53 0 -98.5 19.5t-79.5 53.5
t-53.5 80t-19.5 99q0 52 19.5 97t53.5 78.5t79.5 53t98.5 19.5q32 0 68 -11t67.5 -31.5t55.5 -49t33 -63.5zM691 302q0 59 -23.5 112t-63.5 93t-94 63.5t-114 23.5q-61 0 -115 -23.5t-94 -63.5t-63 -93t-23 -112q0 -62 23 -116.5t63 -95t94 -64.5t115 -24q60 0 114 24
t94 64.5t63.5 95t23.5 116.5zM769 301q0 -78 -29 -146t-79.5 -118.5t-118.5 -79.5t-146 -29q-77 0 -145 29t-118 79.5t-79 118.5t-29 146q0 77 29 144.5t79 118t118 79.5t145 29q78 0 146 -29t118.5 -79.5t79.5 -118t29 -144.5z" />
    <glyph glyph-name="ordfeminine" unicode="&#xaa;" horiz-adv-x="544" 
d="M25 444q0 52 17 97t46.5 78.5t69.5 53t86 19.5q45 0 83 -19t66 -51v68h125v-490h-125v68q-28 -33 -66 -51.5t-83 -18.5q-46 0 -86 19.5t-69.5 52.5t-46.5 78t-17 96zM150 444q0 -25 9 -47t25.5 -38.5t38 -26t47.5 -9.5q25 0 47 9.5t38.5 26t26 38.5t9.5 47t-9.5 47.5
t-26 39t-38.5 26t-47 9.5q-26 0 -47.5 -9.5t-38 -26t-25.5 -39t-9 -47.5z" />
    <glyph glyph-name="guillemotleft" unicode="&#xab;" horiz-adv-x="579" 
d="M231 59l-206 211l207 210l94 -91l-118 -119l118 -117zM458 59l-206 211l208 210l94 -91l-119 -119l119 -117z" />
    <glyph glyph-name="logicalnot" unicode="&#xac;" horiz-adv-x="414" 
d="M25 337h364v-216h-130v84h-234v132z" />
    <glyph glyph-name="uni00AD" unicode="&#xad;" horiz-adv-x="340" 
d="M25 337h290v-132h-290v132z" />
    <glyph glyph-name="registered" unicode="&#xae;" horiz-adv-x="792" 
d="M690 302q0 60 -23 113.5t-63 93.5t-93.5 63.5t-114.5 23.5q-62 0 -116 -23.5t-94 -63.5t-63 -93.5t-23 -113.5q0 -62 23 -116.5t63 -95.5t94 -65t116 -24q61 0 114.5 24t93.5 65t63 95.5t23 116.5zM767 301q0 -78 -29 -146t-79.5 -118.5t-118 -79.5t-144.5 -29
q-78 0 -145.5 29t-118 79.5t-79 118.5t-28.5 146q0 77 28.5 144.5t79 118t118 79.5t145.5 29q77 0 144.5 -29t118 -79.5t79.5 -118t29 -144.5zM231 75v456h169q42 0 78.5 -7.5t64 -25.5t43 -47t15.5 -72q0 -46 -27.5 -87.5t-90.5 -58.5q34 -6 53.5 -24t29.5 -40.5t12 -47.5
t2 -46h-130q-2 51 -13 74.5t-29 23.5h-46v-98h-131zM362 296h38q29 0 50 20.5t21 49.5q0 31 -21 52.5t-50 21.5h-38v-144z" />
    <glyph glyph-name="macron" unicode="&#xaf;" horiz-adv-x="414" 
d="M25 688h364v-130h-364v130z" />
    <glyph glyph-name="degree" unicode="&#xb0;" horiz-adv-x="303" 
d="M111 544q0 -17 12 -29t28 -12q17 0 29 12t12 29t-12 29t-29 12q-16 0 -28 -12t-12 -29zM278 544q0 -28 -9.5 -51.5t-27 -40.5t-40.5 -26.5t-50 -9.5t-50 9.5t-40 26.5t-26.5 40.5t-9.5 51.5q0 27 9.5 50t26.5 40.5t40 27.5t50 10t50 -10t40.5 -27.5t27 -40.5t9.5 -50z
" />
    <glyph glyph-name="plusminus" unicode="&#xb1;" horiz-adv-x="340" 
d="M25 337h77v79h132v-79h81v-132h-81v-79h-132v79h-77v132zM25 78h290v-131h-290v131z" />
    <glyph glyph-name="twosuperior" unicode="&#xb2;" horiz-adv-x="529" 
d="M27 323q68 11 130.5 37t110.5 64t77 87t29 107q0 25 -8.5 47.5t-23.5 39t-35 26t-43 9.5q-31 0 -55 -15t-39 -40t-19 -56t5 -64h-131q-9 55 1 110t40 98.5t79.5 71t118.5 27.5q51 0 94.5 -19.5t76 -52.5t51 -77.5t18.5 -93.5q0 -40 -18 -84.5t-49.5 -86t-74.5 -76
t-93 -53.5h235v-131h-477v125z" />
    <glyph glyph-name="threesuperior" unicode="&#xb3;" horiz-adv-x="576" 
d="M150 713q-7 31 0 60t26 51t48.5 35t68.5 13q30 0 55.5 -9t44 -25.5t29.5 -39.5t11 -50q0 -55 -50 -85q80 -15 124 -69.5t44 -129.5q0 -56 -20.5 -104.5t-56.5 -84.5t-84 -56.5t-103 -20.5q-59 0 -110 21t-87.5 59.5t-54.5 93.5t-10 123h130q-4 -40 5 -71t27 -52t44 -32
t56 -11q28 0 52 10.5t42 28.5t28 42.5t10 53.5q0 27 -11 52.5t-34.5 44.5t-60.5 29t-89 6v84q31 2 51.5 5.5t31.5 9.5t15.5 13.5t4.5 16.5q0 17 -11.5 25.5t-28.5 8.5q-20 0 -31 -12.5t-7 -33.5h-99z" />
    <glyph glyph-name="acute" unicode="&#xb4;" horiz-adv-x="372" 
d="M25 621l254 121v-135l-254 -69v83z" />
    <glyph glyph-name="mu" unicode="&#xb5;" 
d="M149 490v-239q0 -67 32 -105t90 -38q24 0 45.5 10.5t38 30.5t26.5 48.5t11 64.5v228h124v-490h-124v87q-26 -42 -65 -65t-91 -23q-47 0 -87 17v-185h-124v659h124z" />
    <glyph glyph-name="paragraph" unicode="&#xb6;" horiz-adv-x="414" 
d="M241 -169v608h-51v-608h-107v608h-58v130h364v-130h-42v-608h-106z" />
    <glyph glyph-name="periodcentered" unicode="&#xb7;" horiz-adv-x="180" 
d="M9 255q0 16 5.5 31t16 26.5t25 18t30.5 6.5q33 0 56.5 -23.5t23.5 -54.5q0 -16 -6.5 -29.5t-17.5 -24t-25 -16.5t-29 -6q-32 1 -55.5 20.5t-23.5 51.5z" />
    <glyph glyph-name="cedilla" unicode="&#xb8;" horiz-adv-x="331" 
d="M114 -96q0 -12 5.5 -21t13.5 -14.5t17.5 -8t17.5 -2.5q14 0 28.5 10.5t14.5 26.5q0 9 -4.5 17.5t-16.5 14.5t-33.5 9t-55.5 0v147h130v-90q16 -7 29.5 -16.5t24 -23.5t16.5 -33t6 -46q0 -31 -13.5 -55t-34 -40.5t-45.5 -25t-48 -8.5q-25 0 -51 11t-46 31t-32 49.5
t-9 67.5h86z" />
    <glyph glyph-name="onesuperior" unicode="&#xb9;" horiz-adv-x="180" 
d="M25 162v670h130v-670h-130z" />
    <glyph glyph-name="ordmasculine" unicode="&#xba;" horiz-adv-x="531" 
d="M506 402q0 -51 -19 -95t-51.5 -76.5t-76.5 -51.5t-95 -19q-49 0 -92.5 19t-76 51.5t-51.5 76.5t-19 95v190q0 50 19 94t51.5 77t76 52t92.5 19q51 0 95 -19t76.5 -52t51.5 -77t19 -94v-190zM376 592q0 23 -9 43t-24 35t-35.5 23.5t-43.5 8.5q-22 0 -41.5 -8.5
t-34.5 -23.5t-23.5 -35t-8.5 -43v-190q0 -23 8.5 -43.5t23.5 -35.5t34.5 -24t41.5 -9q23 0 43.5 9t35.5 24t24 35.5t9 43.5v190z" />
    <glyph glyph-name="guillemotright" unicode="&#xbb;" horiz-adv-x="581" 
d="M117 480l211 -208l-211 -211l-92 92l117 117l-117 119zM343 480l213 -208l-213 -211l-91 92l118 117l-118 119z" />
    <glyph glyph-name="onequarter" unicode="&#xbc;" horiz-adv-x="687" 
d="M618 467v-667h-129v144h-273l290 523h112zM10 58l445 591l94 -94l-445 -592zM13 872h90v-670h-130v587zM492 23l18 289l-40 -99l-80 -190h102z" />
    <glyph glyph-name="onehalf" unicode="&#xbd;" horiz-adv-x="921" 
d="M12 871h90v-670h-130v587zM418 -77q68 11 130.5 37t110.5 64t77 87t29 107q0 25 -8.5 47.5t-23.5 39t-35 26t-43 9.5q-31 0 -55 -15t-39 -40t-19 -56t5 -64h-131q-9 55 1 110t40 98.5t79.5 71t118.5 27.5q51 0 94.5 -19.5t76 -52.5t51 -77.5t18.5 -93.5q0 -40 -18 -84.5
t-49.5 -86t-74.5 -76t-93 -53.5h235v-131h-477v125zM24 58l445 591l94 -94l-445 -592z" />
    <glyph glyph-name="threequarters" unicode="&#xbe;" horiz-adv-x="943" 
d="M106 744q-7 31 0 60t26 51t48.5 35t68.5 13q30 0 55.5 -9t44 -25.5t29.5 -39.5t11 -50q0 -55 -50 -85q80 -15 124 -69.5t44 -129.5q0 -56 -20.5 -104.5t-56.5 -84.5t-84 -56.5t-103 -20.5q-59 0 -110 21t-87.5 59.5t-54.5 93.5t-10 123h130q-4 -40 5 -71t27 -52t44 -32
t56 -11q28 0 52 10.5t42 28.5t28 42.5t10 53.5q0 27 -11 52.5t-34.5 44.5t-60.5 29t-89 6v84q31 2 51.5 5.5t31.5 9.5t15.5 13.5t4.5 16.5q0 17 -11.5 25.5t-28.5 8.5q-20 0 -31 -12.5t-7 -33.5h-99zM877 467v-667h-129v144h-273l290 523h112zM279 58l445 591l94 -94
l-445 -592zM751 23l18 289l-40 -99l-80 -190h102z" />
    <glyph glyph-name="questiondown" unicode="&#xbf;" horiz-adv-x="468" 
d="M461 239q2 -51 -15 -94.5t-48 -76t-73 -50.5t-90 -18t-89.5 15.5t-71.5 44t-47 68.5t-17 89q0 40 13 73t36 58.5t54 42.5t66 25v63h121v-134q-81 -14 -120.5 -40.5t-39.5 -78.5q0 -42 26.5 -68t68.5 -26t67.5 28t25.5 79h133zM314 598q0 -31 -22 -53t-52 -22
q-32 0 -54 22t-22 53q0 30 22 52t54 22q30 0 52 -22t22 -52z" />
    <glyph glyph-name="Agrave" unicode="&#xc0;" horiz-adv-x="515" 
d="M-13 0l198 670h135l207 -670h-134l-31 111h-211l-29 -111h-135zM384 713l-255 82v135l255 -126v-91zM180 218h152l-77 280z" />
    <glyph glyph-name="Aacute" unicode="&#xc1;" horiz-adv-x="515" 
d="M-13 0l198 670h135l207 -670h-134l-31 111h-211l-29 -111h-135zM130 801l254 121v-135l-254 -69v83zM180 218h152l-77 280z" />
    <glyph glyph-name="Acircumflex" unicode="&#xc2;" horiz-adv-x="515" 
d="M-13 0l198 670h135l207 -670h-134l-31 111h-211l-29 -111h-135zM90 771l166 121l168 -121l-94 -65l-74 62l-74 -61zM180 218h152l-77 280z" />
    <glyph glyph-name="Atilde" unicode="&#xc3;" horiz-adv-x="515" 
d="M-13 0l198 670h135l207 -670h-134l-31 111h-211l-29 -111h-135zM97 712q-14 41 -14.5 75t8.5 58t26.5 37t39.5 13q21 0 41 -9t38.5 -20.5t35.5 -20.5t32 -9q12 0 18 15t-11 44h94q18 -50 18 -84.5t-11 -56t-29.5 -31.5t-37.5 -10q-20 0 -39.5 8t-37.5 17.5t-34 17.5
t-30 8q-13 0 -18 -14t5 -38h-94zM180 218h152l-77 280z" />
    <glyph glyph-name="Adieresis" unicode="&#xc4;" horiz-adv-x="515" 
d="M-13 0l198 670h135l207 -670h-134l-31 111h-211l-29 -111h-135zM180 218h152l-77 280zM90 791q0 32 22 53.5t52 21.5q32 0 54 -21.5t22 -53.5q0 -30 -22 -52t-54 -22q-30 0 -52 22t-22 52zM275 791q0 32 22 53.5t52 21.5q31 0 53 -21.5t22 -53.5q0 -30 -22 -52t-53 -22
q-30 0 -52 22t-22 52z" />
    <glyph glyph-name="Aring" unicode="&#xc5;" horiz-adv-x="515" 
d="M-13 0l198 670h135l207 -670h-134l-31 111h-211l-29 -111h-135zM384 823q0 -28 -10 -51.5t-27 -40.5t-41 -26.5t-51 -9.5q-26 0 -48.5 9.5t-39.5 26.5t-27 40.5t-10 51.5q0 26 10 49t27 40.5t39.5 27.5t48.5 10q27 0 51 -10t41 -27.5t27 -40.5t10 -49zM180 218h152
l-77 280zM216 823q0 -17 12 -29t27 -12q17 0 29 12t12 29t-12 28.5t-29 11.5q-15 0 -27 -11.5t-12 -28.5z" />
    <glyph glyph-name="AE" unicode="&#xc6;" horiz-adv-x="849" 
d="M829 0h-410v111h-227l-71 -111h-134l423 670h419v-132h-279v-175h229v-129h-229v-103h279v-131zM419 218v248l-159 -248h159z" />
    <glyph glyph-name="Ccedilla" unicode="&#xc7;" horiz-adv-x="637" 
d="M299 -164q0 -12 5.5 -21t13.5 -14.5t17.5 -8t17.5 -2.5q14 0 28.5 10.5t14.5 26.5q0 9 -4.5 17.5t-16.5 14.5t-33.5 9t-55.5 0v140q-56 12 -104 42t-83 73t-54.5 97t-19.5 114q0 70 26.5 131.5t72 107t106.5 71.5t131 26q88 0 156.5 -39t113.5 -107l-87 -88
q-35 52 -81 77t-102 25q-43 0 -80.5 -16t-65 -43.5t-43.5 -64.5t-16 -80t16 -80t43.5 -64.5t65 -43t80.5 -15.5q51 0 94.5 22.5t85.5 72.5l87 -86q-42 -56 -95.5 -90.5t-116.5 -45.5v-79q16 -7 29.5 -16.5t24 -23.5t16.5 -33t6 -46q0 -31 -13.5 -55t-34 -40.5t-45.5 -25
t-48 -8.5q-25 0 -51 11t-46 31t-32 49.5t-9 67.5h86z" />
    <glyph glyph-name="Egrave" unicode="&#xc8;" horiz-adv-x="460" 
d="M435 0h-410v670h410v-132h-279v-175h229v-129h-229v-103h279v-131zM357 713l-255 82v135l255 -126v-91z" />
    <glyph glyph-name="Eacute" unicode="&#xc9;" horiz-adv-x="460" 
d="M435 0h-410v670h410v-132h-279v-175h229v-129h-229v-103h279v-131zM102 801l254 121v-135l-254 -69v83z" />
    <glyph glyph-name="Ecircumflex" unicode="&#xca;" horiz-adv-x="460" 
d="M435 0h-410v670h410v-132h-279v-175h229v-129h-229v-103h279v-131zM62 771l166 121l168 -121l-94 -65l-74 62l-74 -61z" />
    <glyph glyph-name="Edieresis" unicode="&#xcb;" horiz-adv-x="460" 
d="M435 0h-410v670h410v-132h-279v-175h229v-129h-229v-103h279v-131zM63 791q0 32 22 53.5t52 21.5q32 0 54 -21.5t22 -53.5q0 -30 -22 -52t-54 -22q-30 0 -52 22t-22 52zM248 791q0 32 22 53.5t52 21.5q31 0 53 -21.5t22 -53.5q0 -30 -22 -52t-53 -22q-30 0 -52 22t-22 52
z" />
    <glyph glyph-name="Igrave" unicode="&#xcc;" horiz-adv-x="216" 
d="M44 0v670h130v-670h-130zM235 713l-255 82v135l255 -126v-91z" />
    <glyph glyph-name="Iacute" unicode="&#xcd;" horiz-adv-x="216" 
d="M44 0v670h130v-670h-130zM-19 801l254 121v-135l-254 -69v83z" />
    <glyph glyph-name="Icircumflex" unicode="&#xce;" horiz-adv-x="216" 
d="M44 0v670h130v-670h-130zM-59 771l166 121l168 -121l-94 -65l-74 62l-74 -61z" />
    <glyph glyph-name="Idieresis" unicode="&#xcf;" horiz-adv-x="216" 
d="M44 0v670h130v-670h-130zM-59 791q0 32 22 53.5t52 21.5q32 0 54 -21.5t22 -53.5q0 -30 -22 -52t-54 -22q-30 0 -52 22t-22 52zM126 791q0 32 22 53.5t52 21.5q31 0 53 -21.5t22 -53.5q0 -30 -22 -52t-53 -22q-30 0 -52 22t-22 52z" />
    <glyph glyph-name="Eth" unicode="&#xd0;" horiz-adv-x="547" 
d="M-32 376h57v296h176q70 0 131 -26.5t106.5 -72t72 -107.5t26.5 -132t-26.5 -131t-72 -106.5t-106.5 -72t-131 -26.5h-176v247h-57v131zM156 540v-164h102v-131h-102v-116h45q42 0 79.5 16t65.5 43.5t44 65t16 80.5t-16 80.5t-44 65.5t-65.5 44t-79.5 16h-45z" />
    <glyph glyph-name="Ntilde" unicode="&#xd1;" horiz-adv-x="576" 
d="M517 670v-670h-101l-269 423v-423h-122v670h114l261 -425v425h117zM122 712q-14 41 -14.5 75t8.5 58t26.5 37t39.5 13q21 0 41 -9t38.5 -20.5t35.5 -20.5t32 -9q12 0 18 15t-11 44h94q18 -50 18 -84.5t-11 -56t-29.5 -31.5t-37.5 -10q-20 0 -39.5 8t-37.5 17.5t-34 17.5
t-30 8q-13 0 -18 -14t5 -38h-94z" />
    <glyph glyph-name="Ograve" unicode="&#xd2;" horiz-adv-x="724" 
d="M567 334q0 43 -16.5 80t-44.5 64.5t-65.5 43.5t-79.5 16q-43 0 -80.5 -16t-65.5 -43.5t-44 -64.5t-16 -80t16 -80t44 -64.5t65.5 -43t80.5 -15.5q42 0 79.5 15.5t65.5 43t44.5 64.5t16.5 80zM697 334q0 -70 -26 -131t-71.5 -106t-107 -71t-131.5 -26q-71 0 -132 26
t-106.5 71t-71.5 106t-26 131t26 131.5t71.5 107t106.5 71.5t132 26q70 0 131.5 -26t107 -71.5t71.5 -107t26 -131.5zM489 713l-255 82v135l255 -126v-91z" />
    <glyph glyph-name="Oacute" unicode="&#xd3;" horiz-adv-x="724" 
d="M567 334q0 43 -16.5 80t-44.5 64.5t-65.5 43.5t-79.5 16q-43 0 -80.5 -16t-65.5 -43.5t-44 -64.5t-16 -80t16 -80t44 -64.5t65.5 -43t80.5 -15.5q42 0 79.5 15.5t65.5 43t44.5 64.5t16.5 80zM697 334q0 -70 -26 -131t-71.5 -106t-107 -71t-131.5 -26q-71 0 -132 26
t-106.5 71t-71.5 106t-26 131t26 131.5t71.5 107t106.5 71.5t132 26q70 0 131.5 -26t107 -71.5t71.5 -107t26 -131.5zM234 801l254 121v-135l-254 -69v83z" />
    <glyph glyph-name="Ocircumflex" unicode="&#xd4;" horiz-adv-x="724" 
d="M567 334q0 43 -16.5 80t-44.5 64.5t-65.5 43.5t-79.5 16q-43 0 -80.5 -16t-65.5 -43.5t-44 -64.5t-16 -80t16 -80t44 -64.5t65.5 -43t80.5 -15.5q42 0 79.5 15.5t65.5 43t44.5 64.5t16.5 80zM697 334q0 -70 -26 -131t-71.5 -106t-107 -71t-131.5 -26q-71 0 -132 26
t-106.5 71t-71.5 106t-26 131t26 131.5t71.5 107t106.5 71.5t132 26q70 0 131.5 -26t107 -71.5t71.5 -107t26 -131.5zM194 771l166 121l168 -121l-94 -65l-74 62l-74 -61z" />
    <glyph glyph-name="Otilde" unicode="&#xd5;" horiz-adv-x="724" 
d="M567 334q0 43 -16.5 80t-44.5 64.5t-65.5 43.5t-79.5 16q-43 0 -80.5 -16t-65.5 -43.5t-44 -64.5t-16 -80t16 -80t44 -64.5t65.5 -43t80.5 -15.5q42 0 79.5 15.5t65.5 43t44.5 64.5t16.5 80zM697 334q0 -70 -26 -131t-71.5 -106t-107 -71t-131.5 -26q-71 0 -132 26
t-106.5 71t-71.5 106t-26 131t26 131.5t71.5 107t106.5 71.5t132 26q70 0 131.5 -26t107 -71.5t71.5 -107t26 -131.5zM201 712q-14 41 -14.5 75t8.5 58t26.5 37t39.5 13q21 0 41 -9t38.5 -20.5t35.5 -20.5t32 -9q12 0 18 15t-11 44h94q18 -50 18 -84.5t-11 -56t-29.5 -31.5
t-37.5 -10q-20 0 -39.5 8t-37.5 17.5t-34 17.5t-30 8q-13 0 -18 -14t5 -38h-94z" />
    <glyph glyph-name="Odieresis" unicode="&#xd6;" horiz-adv-x="724" 
d="M567 334q0 43 -16.5 80t-44.5 64.5t-65.5 43.5t-79.5 16q-43 0 -80.5 -16t-65.5 -43.5t-44 -64.5t-16 -80t16 -80t44 -64.5t65.5 -43t80.5 -15.5q42 0 79.5 15.5t65.5 43t44.5 64.5t16.5 80zM697 334q0 -70 -26 -131t-71.5 -106t-107 -71t-131.5 -26q-71 0 -132 26
t-106.5 71t-71.5 106t-26 131t26 131.5t71.5 107t106.5 71.5t132 26q70 0 131.5 -26t107 -71.5t71.5 -107t26 -131.5zM195 791q0 32 22 53.5t52 21.5q32 0 54 -21.5t22 -53.5q0 -30 -22 -52t-54 -22q-30 0 -52 22t-22 52zM380 791q0 32 22 53.5t52 21.5q31 0 53 -21.5
t22 -53.5q0 -30 -22 -52t-53 -22q-30 0 -52 22t-22 52z" />
    <glyph glyph-name="multiply" unicode="&#xd7;" horiz-adv-x="340" 
d="M21 215l54 54l-56 57l94 93l56 -56l57 57l93 -93l-57 -57l57 -56l-94 -94l-57 56l-54 -54z" />
    <glyph glyph-name="Oslash" unicode="&#xd8;" horiz-adv-x="724" 
d="M41 112l38 38q-26 40 -40 86.5t-14 97.5q0 70 26 132t71.5 107.5t106.5 72t132 26.5q51 0 98 -14.5t86 -40.5l42 42l95 -94l-42 -42q27 -41 42 -88.5t15 -100.5q0 -70 -26 -131t-71.5 -106.5t-107 -72t-131.5 -26.5q-54 0 -101.5 15t-87.5 42l-37 -37zM567 334
q0 50 -23 93l-277 -277q42 -21 94 -21q42 0 79.5 16t65.5 43.5t44.5 65t16.5 80.5zM155 334q0 -48 20 -88l273 274q-20 9 -42 14.5t-45 5.5q-43 0 -80.5 -16t-65.5 -44t-44 -65.5t-16 -80.5z" />
    <glyph glyph-name="Ugrave" unicode="&#xd9;" horiz-adv-x="565" 
d="M150 670v-408q0 -27 10.5 -51.5t28.5 -42.5t42 -28.5t51 -10.5q35 0 60.5 14t41.5 38t23.5 55t7.5 65v369h131v-408q0 -55 -20.5 -103t-56.5 -84t-84 -56.5t-103 -20.5t-103 20.5t-83 56.5t-55.5 84t-20.5 103v408h130zM409 713l-255 82v135l255 -126v-91z" />
    <glyph glyph-name="Uacute" unicode="&#xda;" horiz-adv-x="565" 
d="M150 670v-408q0 -27 10.5 -51.5t28.5 -42.5t42 -28.5t51 -10.5q35 0 60.5 14t41.5 38t23.5 55t7.5 65v369h131v-408q0 -55 -20.5 -103t-56.5 -84t-84 -56.5t-103 -20.5t-103 20.5t-83 56.5t-55.5 84t-20.5 103v408h130zM155 801l254 121v-135l-254 -69v83z" />
    <glyph glyph-name="Ucircumflex" unicode="&#xdb;" horiz-adv-x="565" 
d="M150 670v-408q0 -27 10.5 -51.5t28.5 -42.5t42 -28.5t51 -10.5q35 0 60.5 14t41.5 38t23.5 55t7.5 65v369h131v-408q0 -55 -20.5 -103t-56.5 -84t-84 -56.5t-103 -20.5t-103 20.5t-83 56.5t-55.5 84t-20.5 103v408h130zM115 771l166 121l168 -121l-94 -65l-74 62l-74 -61
z" />
    <glyph glyph-name="Udieresis" unicode="&#xdc;" horiz-adv-x="565" 
d="M150 670v-408q0 -27 10.5 -51.5t28.5 -42.5t42 -28.5t51 -10.5q35 0 60.5 14t41.5 38t23.5 55t7.5 65v369h131v-408q0 -55 -20.5 -103t-56.5 -84t-84 -56.5t-103 -20.5t-103 20.5t-83 56.5t-55.5 84t-20.5 103v408h130zM115 791q0 32 22 53.5t52 21.5q32 0 54 -21.5
t22 -53.5q0 -30 -22 -52t-54 -22q-30 0 -52 22t-22 52zM300 791q0 32 22 53.5t52 21.5q31 0 53 -21.5t22 -53.5q0 -30 -22 -52t-53 -22q-30 0 -52 22t-22 52z" />
    <glyph glyph-name="Yacute" unicode="&#xdd;" horiz-adv-x="486" 
d="M123 670l118 -335l118 335h146l-197 -474v-196h-132v196l-197 474h144zM115 801l254 121v-135l-254 -69v83z" />
    <glyph glyph-name="Thorn" unicode="&#xde;" horiz-adv-x="477" 
d="M25 0v670h130v-99h64q49 0 91.5 -18t74 -49.5t49.5 -74t18 -91.5t-18 -92t-49.5 -74.5t-74 -50t-91.5 -18.5h-64v-103h-130zM155 440v-206h64q20 0 38.5 8t32.5 22t22.5 33t8.5 41q0 21 -8 39.5t-22 32.5t-32.5 22t-39.5 8h-64z" />
    <glyph glyph-name="germandbls" unicode="&#xdf;" horiz-adv-x="490" 
d="M209 123q63 0 96.5 34t33.5 89q0 24 -8 46t-23 38.5t-37.5 26t-51.5 9.5h-69v-366h-125v485q0 48 15.5 77t36.5 45t43.5 21t36.5 5q45 0 79.5 -13t52.5 -36q15 -14 23 -31.5t8 -36t-8 -36.5t-26 -32l25 -3q28 -5 55.5 -21.5t49 -42.5t35 -60.5t14.5 -74.5
q1 -51 -15.5 -96t-49 -79t-80.5 -53.5t-111 -19.5v125zM200 472q11 5 18 13.5t7 22.5t-9.5 24.5t-27.5 10.5q-15 0 -27 -9t-12 -32v-30h51z" />
    <glyph glyph-name="agrave" unicode="&#xe0;" horiz-adv-x="549" 
d="M21 244q0 52 17 97t46.5 78.5t69.5 53t86 19.5q45 0 83 -19t66 -51v68h125v-490h-125v68q-28 -33 -66 -51.5t-83 -18.5q-46 0 -86 19.5t-69.5 52.5t-46.5 78t-17 96zM146 244q0 -25 9 -47t25.5 -38.5t38 -26t47.5 -9.5q25 0 47 9.5t38.5 26t26 38.5t9.5 47t-9.5 47.5
t-26 39t-38.5 26t-47 9.5q-26 0 -47.5 -9.5t-38 -26t-25.5 -39t-9 -47.5zM401 533l-255 82v135l255 -126v-91z" />
    <glyph glyph-name="aacute" unicode="&#xe1;" horiz-adv-x="549" 
d="M21 244q0 52 17 97t46.5 78.5t69.5 53t86 19.5q45 0 83 -19t66 -51v68h125v-490h-125v68q-28 -33 -66 -51.5t-83 -18.5q-46 0 -86 19.5t-69.5 52.5t-46.5 78t-17 96zM146 244q0 -25 9 -47t25.5 -38.5t38 -26t47.5 -9.5q25 0 47 9.5t38.5 26t26 38.5t9.5 47t-9.5 47.5
t-26 39t-38.5 26t-47 9.5q-26 0 -47.5 -9.5t-38 -26t-25.5 -39t-9 -47.5zM147 621l254 121v-135l-254 -69v83z" />
    <glyph glyph-name="acircumflex" unicode="&#xe2;" horiz-adv-x="549" 
d="M21 244q0 52 17 97t46.5 78.5t69.5 53t86 19.5q45 0 83 -19t66 -51v68h125v-490h-125v68q-28 -33 -66 -51.5t-83 -18.5q-46 0 -86 19.5t-69.5 52.5t-46.5 78t-17 96zM146 244q0 -25 9 -47t25.5 -38.5t38 -26t47.5 -9.5q25 0 47 9.5t38.5 26t26 38.5t9.5 47t-9.5 47.5
t-26 39t-38.5 26t-47 9.5q-26 0 -47.5 -9.5t-38 -26t-25.5 -39t-9 -47.5zM107 591l166 121l168 -121l-94 -65l-74 62l-74 -61z" />
    <glyph glyph-name="atilde" unicode="&#xe3;" horiz-adv-x="549" 
d="M21 244q0 52 17 97t46.5 78.5t69.5 53t86 19.5q45 0 83 -19t66 -51v68h125v-490h-125v68q-28 -33 -66 -51.5t-83 -18.5q-46 0 -86 19.5t-69.5 52.5t-46.5 78t-17 96zM114 532q-14 41 -14.5 75t8.5 58t26.5 37t39.5 13q21 0 41 -9t38.5 -20.5t35.5 -20.5t32 -9q12 0 18 15
t-11 44h94q18 -50 18 -84.5t-11 -56t-29.5 -31.5t-37.5 -10q-20 0 -39.5 8t-37.5 17.5t-34 17.5t-30 8q-13 0 -18 -14t5 -38h-94zM146 244q0 -25 9 -47t25.5 -38.5t38 -26t47.5 -9.5q25 0 47 9.5t38.5 26t26 38.5t9.5 47t-9.5 47.5t-26 39t-38.5 26t-47 9.5
q-26 0 -47.5 -9.5t-38 -26t-25.5 -39t-9 -47.5z" />
    <glyph glyph-name="adieresis" unicode="&#xe4;" horiz-adv-x="549" 
d="M21 244q0 52 17 97t46.5 78.5t69.5 53t86 19.5q45 0 83 -19t66 -51v68h125v-490h-125v68q-28 -33 -66 -51.5t-83 -18.5q-46 0 -86 19.5t-69.5 52.5t-46.5 78t-17 96zM146 244q0 -25 9 -47t25.5 -38.5t38 -26t47.5 -9.5q25 0 47 9.5t38.5 26t26 38.5t9.5 47t-9.5 47.5
t-26 39t-38.5 26t-47 9.5q-26 0 -47.5 -9.5t-38 -26t-25.5 -39t-9 -47.5zM107 611q0 32 22 53.5t52 21.5q32 0 54 -21.5t22 -53.5q0 -30 -22 -52t-54 -22q-30 0 -52 22t-22 52zM292 611q0 32 22 53.5t52 21.5q31 0 53 -21.5t22 -53.5q0 -30 -22 -52t-53 -22q-30 0 -52 22
t-22 52z" />
    <glyph glyph-name="aring" unicode="&#xe5;" horiz-adv-x="549" 
d="M21 244q0 52 17 97t46.5 78.5t69.5 53t86 19.5q45 0 83 -19t66 -51v68h125v-490h-125v68q-28 -33 -66 -51.5t-83 -18.5q-46 0 -86 19.5t-69.5 52.5t-46.5 78t-17 96zM401 643q0 -28 -10 -51.5t-27 -40.5t-41 -26.5t-51 -9.5q-26 0 -48.5 9.5t-39.5 26.5t-27 40.5
t-10 51.5q0 26 10 49t27 40.5t39.5 27.5t48.5 10q27 0 51 -10t41 -27.5t27 -40.5t10 -49zM146 244q0 -25 9 -47t25.5 -38.5t38 -26t47.5 -9.5q25 0 47 9.5t38.5 26t26 38.5t9.5 47t-9.5 47.5t-26 39t-38.5 26t-47 9.5q-26 0 -47.5 -9.5t-38 -26t-25.5 -39t-9 -47.5zM233 643
q0 -17 12 -29t27 -12q17 0 29 12t12 29t-12 28.5t-29 11.5q-15 0 -27 -11.5t-12 -28.5z" />
    <glyph glyph-name="ae" unicode="&#xe6;" horiz-adv-x="886" 
d="M21 244q0 52 17 97t46.5 78.5t69.5 53t86 19.5q45 0 83 -19t66 -51v68h125v-31q27 16 57.5 24.5t64.5 8.5q65 0 124.5 -29.5t104.5 -100.5l-265 -235q10 -5 29 -7t38 3q31 8 59 27.5t49 49.5l84 -81q-45 -66 -101.5 -93.5t-121.5 -27.5q-34 0 -64.5 8.5t-57.5 23.5v-30
h-125v68q-28 -33 -66 -51.5t-83 -18.5q-46 0 -86 19.5t-69.5 52.5t-46.5 78t-17 96zM146 244q0 -25 9 -47t25.5 -38.5t38 -26t47.5 -9.5q25 0 47 9.5t38.5 26t26 38.5t9.5 47t-9.5 47.5t-26 39t-38.5 26t-47 9.5q-26 0 -47.5 -9.5t-38 -26t-25.5 -39t-9 -47.5zM619 372
q-38 -5 -65.5 -27.5t-39.5 -60.5v-83q4 -12 12 -18l176 166q-13 11 -34.5 18.5t-48.5 4.5z" />
    <glyph glyph-name="ccedilla" unicode="&#xe7;" horiz-adv-x="469" 
d="M213 -157q0 -12 5.5 -21t13.5 -14.5t17.5 -8t17.5 -2.5q14 0 28.5 10.5t14.5 26.5q0 9 -4.5 17.5t-16.5 14.5t-33.5 9t-55.5 0v131q-40 10 -73 32.5t-57 54t-37.5 70t-13.5 81.5q0 52 19 97t52 78t78 52t97 19q63 0 119 -27.5t96 -90.5l-90 -88q-24 38 -52 59.5t-73 21.5
q-25 0 -47 -9.5t-39 -26t-27 -38.5t-10 -47t10 -47t26.5 -38.5t39 -26t47.5 -9.5q38 0 70 21.5t55 60.5l90 -85q-27 -47 -66 -75t-84 -39v-74q16 -7 29.5 -16.5t24 -23.5t16.5 -33t6 -46q0 -31 -13.5 -55t-34 -40.5t-45.5 -25t-48 -8.5q-25 0 -51 11t-46 31t-32 49.5
t-9 67.5h86z" />
    <glyph glyph-name="egrave" unicode="&#xe8;" horiz-adv-x="504" 
d="M488 119q-45 -66 -101.5 -93.5t-121.5 -27.5q-51 0 -96 19.5t-78 52.5t-52.5 78t-19.5 96q0 52 19.5 97t52.5 78.5t78 53t96 19.5q65 0 124.5 -29.5t104.5 -100.5l-265 -235q10 -5 29 -7t38 3q31 8 59 27.5t49 49.5zM138 263q-5 -26 0.5 -47.5t16.5 -32.5l176 166
q-13 11 -34.5 18.5t-48.5 4.5q-44 -6 -73 -34t-37 -75zM398 533l-255 82v135l255 -126v-91z" />
    <glyph glyph-name="eacute" unicode="&#xe9;" horiz-adv-x="504" 
d="M488 119q-45 -66 -101.5 -93.5t-121.5 -27.5q-51 0 -96 19.5t-78 52.5t-52.5 78t-19.5 96q0 52 19.5 97t52.5 78.5t78 53t96 19.5q65 0 124.5 -29.5t104.5 -100.5l-265 -235q10 -5 29 -7t38 3q31 8 59 27.5t49 49.5zM138 263q-5 -26 0.5 -47.5t16.5 -32.5l176 166
q-13 11 -34.5 18.5t-48.5 4.5q-44 -6 -73 -34t-37 -75zM91 621l254 121v-135l-254 -69v83z" />
    <glyph glyph-name="ecircumflex" unicode="&#xea;" horiz-adv-x="504" 
d="M488 119q-45 -66 -101.5 -93.5t-121.5 -27.5q-51 0 -96 19.5t-78 52.5t-52.5 78t-19.5 96q0 52 19.5 97t52.5 78.5t78 53t96 19.5q65 0 124.5 -29.5t104.5 -100.5l-265 -235q10 -5 29 -7t38 3q31 8 59 27.5t49 49.5zM138 263q-5 -26 0.5 -47.5t16.5 -32.5l176 166
q-13 11 -34.5 18.5t-48.5 4.5q-44 -6 -73 -34t-37 -75zM99 605l166 121l168 -121l-94 -65l-74 62l-74 -61z" />
    <glyph glyph-name="edieresis" unicode="&#xeb;" horiz-adv-x="504" 
d="M488 119q-45 -66 -101.5 -93.5t-121.5 -27.5q-51 0 -96 19.5t-78 52.5t-52.5 78t-19.5 96q0 52 19.5 97t52.5 78.5t78 53t96 19.5q65 0 124.5 -29.5t104.5 -100.5l-265 -235q10 -5 29 -7t38 3q31 8 59 27.5t49 49.5zM138 263q-5 -26 0.5 -47.5t16.5 -32.5l176 166
q-13 11 -34.5 18.5t-48.5 4.5q-44 -6 -73 -34t-37 -75zM103 611q0 32 22 53.5t52 21.5q32 0 54 -21.5t22 -53.5q0 -30 -22 -52t-54 -22q-30 0 -52 22t-22 52zM288 611q0 32 22 53.5t52 21.5q31 0 53 -21.5t22 -53.5q0 -30 -22 -52t-53 -22q-30 0 -52 22t-22 52z" />
    <glyph glyph-name="igrave" unicode="&#xec;" horiz-adv-x="214" 
d="M169 490v-490h-124v490h124zM234 533l-255 82v135l255 -126v-91z" />
    <glyph glyph-name="iacute" unicode="&#xed;" horiz-adv-x="214" 
d="M169 490v-490h-124v490h124zM-20 621l254 121v-135l-254 -69v83z" />
    <glyph glyph-name="icircumflex" unicode="&#xee;" horiz-adv-x="214" 
d="M169 490v-490h-124v490h124zM-60 591l166 121l168 -121l-94 -65l-74 62l-74 -61z" />
    <glyph glyph-name="idieresis" unicode="&#xef;" horiz-adv-x="214" 
d="M169 490v-490h-124v490h124zM-60 611q0 32 22 53.5t52 21.5q32 0 54 -21.5t22 -53.5q0 -30 -22 -52t-54 -22q-30 0 -52 22t-22 52zM125 611q0 32 22 53.5t52 21.5q31 0 53 -21.5t22 -53.5q0 -30 -22 -52t-53 -22q-30 0 -52 22t-22 52z" />
    <glyph glyph-name="eth" unicode="&#xf0;" horiz-adv-x="542" 
d="M20 246q0 32 10.5 62.5t29.5 55t46.5 43t61.5 26.5l-57 54l41 38l-53 57l87 87l55 -53l54 53l88 -87l-54 -53q20 -20 40 -38.5t37 -36.5q19 -19 38 -42.5t34 -49.5t24.5 -55.5t9.5 -60.5q0 -52 -19.5 -97t-52.5 -78.5t-78 -53t-96 -19.5q-52 0 -97 19.5t-78 53t-52 78.5
t-19 97zM146 246q0 -26 9.5 -48.5t26 -39t38 -26t46.5 -9.5t47 9.5t38.5 26t26 39t9.5 48.5q0 23 -9 44.5t-25 38.5t-38 27t-49 10q-25 0 -46.5 -9.5t-38 -26t-26 -38.5t-9.5 -46zM176 435q8 2 16 2.5t17 1.5q28 1 56 -8.5t41 -19.5l-71 63z" />
    <glyph glyph-name="ntilde" unicode="&#xf1;" 
d="M392 0v244q0 25 -9.5 47.5t-26 40t-38.5 27.5t-47 10q-51 0 -85.5 -36t-36.5 -99v-234h-124v490h124v-73q29 37 69 56t87 19q44 0 82.5 -17t67 -47.5t45 -73t16.5 -94.5v-260h-124zM111 532q-14 41 -14.5 75t8.5 58t26.5 37t39.5 13q21 0 41 -9t38.5 -20.5t35.5 -20.5
t32 -9q12 0 18 15t-11 44h94q18 -50 18 -84.5t-11 -56t-29.5 -31.5t-37.5 -10q-20 0 -39.5 8t-37.5 17.5t-34 17.5t-30 8q-13 0 -18 -14t5 -38h-94z" />
    <glyph glyph-name="ograve" unicode="&#xf2;" horiz-adv-x="531" 
d="M383 244q0 25 -9.5 47.5t-26 39t-38 26t-46.5 9.5t-47 -9.5t-38.5 -26t-26 -39t-9.5 -47.5t9.5 -47t26 -38.5t38.5 -26t47 -9.5t46.5 9.5t38 26t26 38.5t9.5 47zM509 244q0 -51 -19.5 -96t-52.5 -78t-78 -52.5t-96 -19.5q-52 0 -97 19.5t-78 52.5t-52 78t-19 96
q0 52 19 97t52 78.5t78 53t97 19.5q51 0 96 -19.5t78 -53t52.5 -78.5t19.5 -97zM398 533l-255 82v135l255 -126v-91z" />
    <glyph glyph-name="oacute" unicode="&#xf3;" horiz-adv-x="531" 
d="M383 244q0 25 -9.5 47.5t-26 39t-38 26t-46.5 9.5t-47 -9.5t-38.5 -26t-26 -39t-9.5 -47.5t9.5 -47t26 -38.5t38.5 -26t47 -9.5t46.5 9.5t38 26t26 38.5t9.5 47zM509 244q0 -51 -19.5 -96t-52.5 -78t-78 -52.5t-96 -19.5q-52 0 -97 19.5t-78 52.5t-52 78t-19 96
q0 52 19 97t52 78.5t78 53t97 19.5q51 0 96 -19.5t78 -53t52.5 -78.5t19.5 -97zM143 621l254 121v-135l-254 -69v83z" />
    <glyph glyph-name="ocircumflex" unicode="&#xf4;" horiz-adv-x="531" 
d="M383 244q0 25 -9.5 47.5t-26 39t-38 26t-46.5 9.5t-47 -9.5t-38.5 -26t-26 -39t-9.5 -47.5t9.5 -47t26 -38.5t38.5 -26t47 -9.5t46.5 9.5t38 26t26 38.5t9.5 47zM509 244q0 -51 -19.5 -96t-52.5 -78t-78 -52.5t-96 -19.5q-52 0 -97 19.5t-78 52.5t-52 78t-19 96
q0 52 19 97t52 78.5t78 53t97 19.5q51 0 96 -19.5t78 -53t52.5 -78.5t19.5 -97zM103 591l166 121l168 -121l-94 -65l-74 62l-74 -61z" />
    <glyph glyph-name="otilde" unicode="&#xf5;" horiz-adv-x="531" 
d="M383 244q0 25 -9.5 47.5t-26 39t-38 26t-46.5 9.5t-47 -9.5t-38.5 -26t-26 -39t-9.5 -47.5t9.5 -47t26 -38.5t38.5 -26t47 -9.5t46.5 9.5t38 26t26 38.5t9.5 47zM509 244q0 -51 -19.5 -96t-52.5 -78t-78 -52.5t-96 -19.5q-52 0 -97 19.5t-78 52.5t-52 78t-19 96
q0 52 19 97t52 78.5t78 53t97 19.5q51 0 96 -19.5t78 -53t52.5 -78.5t19.5 -97zM110 532q-14 41 -14.5 75t8.5 58t26.5 37t39.5 13q21 0 41 -9t38.5 -20.5t35.5 -20.5t32 -9q12 0 18 15t-11 44h94q18 -50 18 -84.5t-11 -56t-29.5 -31.5t-37.5 -10q-20 0 -39.5 8t-37.5 17.5
t-34 17.5t-30 8q-13 0 -18 -14t5 -38h-94z" />
    <glyph glyph-name="odieresis" unicode="&#xf6;" horiz-adv-x="531" 
d="M383 244q0 25 -9.5 47.5t-26 39t-38 26t-46.5 9.5t-47 -9.5t-38.5 -26t-26 -39t-9.5 -47.5t9.5 -47t26 -38.5t38.5 -26t47 -9.5t46.5 9.5t38 26t26 38.5t9.5 47zM509 244q0 -51 -19.5 -96t-52.5 -78t-78 -52.5t-96 -19.5q-52 0 -97 19.5t-78 52.5t-52 78t-19 96
q0 52 19 97t52 78.5t78 53t97 19.5q51 0 96 -19.5t78 -53t52.5 -78.5t19.5 -97zM104 611q0 32 22 53.5t52 21.5q32 0 54 -21.5t22 -53.5q0 -30 -22 -52t-54 -22q-30 0 -52 22t-22 52zM289 611q0 32 22 53.5t52 21.5q31 0 53 -21.5t22 -53.5q0 -30 -22 -52t-53 -22
q-30 0 -52 22t-22 52z" />
    <glyph glyph-name="divide" unicode="&#xf7;" horiz-adv-x="414" 
d="M143 74q0 31 22 53t52 22q32 0 53.5 -22t21.5 -53q0 -30 -21.5 -52t-53.5 -22q-30 0 -52 22t-22 52zM143 466q0 32 22 54t52 22q32 0 53.5 -22t21.5 -54q0 -30 -21.5 -52t-53.5 -22q-30 0 -52 22t-22 52zM30 341h364v-132h-364v132z" />
    <glyph glyph-name="oslash" unicode="&#xf8;" horiz-adv-x="545" 
d="M22 36l49 59q-23 31 -36 69t-13 80q0 52 19 97t52 78.5t78 53t97 19.5q59 0 112 -28l52 62l88 -71l-54 -64q23 -31 35.5 -68t12.5 -79q0 -51 -19.5 -96t-52.5 -78t-78 -52.5t-96 -19.5q-58 0 -110 25l-49 -59zM129 244q0 -35 15 -63l165 198q-20 6 -41 6q-29 0 -54.5 -11
t-44 -30t-29.5 -45t-11 -55zM407 244q0 31 -13 60l-163 -194q18 -5 37 -5q29 0 54.5 11t44 29.5t29.5 44t11 54.5z" />
    <glyph glyph-name="ugrave" unicode="&#xf9;" 
d="M149 490v-239q0 -67 32 -105t90 -38q24 0 45.5 10.5t38 30.5t26.5 48.5t11 64.5v228h124v-490h-124v87q-26 -42 -65 -65t-91 -23q-45 0 -84 16t-67 45t-44 70.5t-16 92.5v267h124zM403 533l-255 82v135l255 -126v-91z" />
    <glyph glyph-name="uacute" unicode="&#xfa;" 
d="M149 490v-239q0 -67 32 -105t90 -38q24 0 45.5 10.5t38 30.5t26.5 48.5t11 64.5v228h124v-490h-124v87q-26 -42 -65 -65t-91 -23q-45 0 -84 16t-67 45t-44 70.5t-16 92.5v267h124zM148 621l254 121v-135l-254 -69v83z" />
    <glyph glyph-name="ucircumflex" unicode="&#xfb;" 
d="M149 490v-239q0 -67 32 -105t90 -38q25 0 47 11t38.5 32t26 51t9.5 68v220h124v-490h-124v87q-26 -42 -65 -65t-91 -23q-45 0 -84 16t-67 45t-44 70.5t-16 92.5v267h124zM108 591l166 121l168 -121l-94 -65l-74 62l-74 -61z" />
    <glyph glyph-name="udieresis" unicode="&#xfc;" 
d="M149 490v-239q0 -67 32 -105t90 -38q25 0 47 11t38.5 32t26 51t9.5 68v220h124v-490h-124v87q-26 -42 -65 -65t-91 -23q-45 0 -84 16t-67 45t-44 70.5t-16 92.5v267h124zM109 611q0 32 22 53.5t52 21.5q32 0 54 -21.5t22 -53.5q0 -30 -22 -52t-54 -22q-30 0 -52 22
t-22 52zM294 611q0 32 22 53.5t52 21.5q31 0 53 -21.5t22 -53.5q0 -30 -22 -52t-53 -22q-30 0 -52 22t-22 52z" />
    <glyph glyph-name="yacute" unicode="&#xfd;" horiz-adv-x="461" 
d="M125 490l110 -321l102 321h133l-222 -627h-125l47 134l-179 493h134zM103 621l254 121v-135l-254 -69v83z" />
    <glyph glyph-name="thorn" unicode="&#xfe;" horiz-adv-x="542" 
d="M150 629v-196q29 28 67 43.5t84 15.5q44 0 83.5 -19.5t69 -52.5t46.5 -78t17 -96q0 -52 -17 -97t-46.5 -78.5t-69 -53t-83.5 -19.5q-46 0 -84 15.5t-67 43.5v-190h-125v762h125zM391 246q0 24 -9.5 46t-26 38.5t-38 26t-46.5 9.5t-46.5 -9t-38 -25t-26 -36.5t-10.5 -44.5
v-5q0 -26 9.5 -48.5t26 -39t38.5 -26t47 -9.5t46.5 9.5t38 26t26 39t9.5 48.5z" />
    <glyph glyph-name="ydieresis" unicode="&#xff;" horiz-adv-x="461" 
d="M125 490l110 -321l102 321h133l-222 -627h-125l47 134l-179 493h134zM63 611q0 32 22 53.5t52 21.5q32 0 54 -21.5t22 -53.5q0 -30 -22 -52t-54 -22q-30 0 -52 22t-22 52zM248 611q0 32 22 53.5t52 21.5q31 0 53 -21.5t22 -53.5q0 -30 -22 -52t-53 -22q-30 0 -52 22
t-22 52z" />
    <glyph glyph-name="Amacron" unicode="&#x100;" horiz-adv-x="515" 
d="M-13 0l198 670h135l207 -670h-134l-31 111h-211l-29 -111h-135zM75 868h364v-130h-364v130zM180 218h152l-77 280z" />
    <glyph glyph-name="amacron" unicode="&#x101;" horiz-adv-x="549" 
d="M21 244q0 52 17 97t46.5 78.5t69.5 53t86 19.5q45 0 83 -19t66 -51v68h125v-490h-125v68q-28 -33 -66 -51.5t-83 -18.5q-46 0 -86 19.5t-69.5 52.5t-46.5 78t-17 96zM92 688h364v-130h-364v130zM146 244q0 -25 9 -47t25.5 -38.5t38 -26t47.5 -9.5q25 0 47 9.5t38.5 26
t26 38.5t9.5 47t-9.5 47.5t-26 39t-38.5 26t-47 9.5q-26 0 -47.5 -9.5t-38 -26t-25.5 -39t-9 -47.5z" />
    <glyph glyph-name="Abreve" unicode="&#x102;" horiz-adv-x="515" 
d="M-13 0l198 670h135l207 -670h-134l-31 111h-211l-29 -111h-135zM404 883q0 -36 -11.5 -65.5t-31.5 -50.5t-47 -32.5t-59 -11.5q-31 0 -57.5 11.5t-46 32.5t-30.5 50.5t-11 65.5h100q0 -19 12 -35.5t35 -16.5t34 16.5t11 35.5h102zM180 218h152l-77 280z" />
    <glyph glyph-name="abreve" unicode="&#x103;" horiz-adv-x="549" 
d="M21 244q0 52 17 97t46.5 78.5t69.5 53t86 19.5q45 0 83 -19t66 -51v68h125v-490h-125v68q-28 -33 -66 -51.5t-83 -18.5q-46 0 -86 19.5t-69.5 52.5t-46.5 78t-17 96zM146 244q0 -25 9 -47t25.5 -38.5t38 -26t47.5 -9.5q25 0 47 9.5t38.5 26t26 38.5t9.5 47t-9.5 47.5
t-26 39t-38.5 26t-47 9.5q-26 0 -47.5 -9.5t-38 -26t-25.5 -39t-9 -47.5zM421 703q0 -36 -11.5 -65.5t-31.5 -50.5t-47 -32.5t-59 -11.5q-31 0 -57.5 11.5t-46 32.5t-30.5 50.5t-11 65.5h100q0 -19 12 -35.5t35 -16.5t34 16.5t11 35.5h102z" />
    <glyph glyph-name="Aogonek" unicode="&#x104;" horiz-adv-x="515" 
d="M-13 0l198 670h135l207 -670h-31q-34 0 -48 -14.5t-14 -33.5q0 -20 16 -34t37 -14q23 0 37.5 14t14.5 38h95q1 -33 -9.5 -63t-31 -52t-50 -35t-65.5 -13q-33 0 -62.5 12.5t-51.5 34.5t-34.5 50.5t-10.5 61.5q2 27 15.5 57t41.5 51l-14 51h-211l-29 -111h-135zM180 218
h152l-77 280z" />
    <glyph glyph-name="aogonek" unicode="&#x105;" horiz-adv-x="549" 
d="M21 244q0 52 17 97t46.5 78.5t69.5 53t86 19.5q45 0 83 -19t66 -51v68h125v-490h-7q-30 -2 -42.5 -16t-12.5 -32q0 -20 16 -34t37 -14q23 0 37.5 14t14.5 38h95q1 -33 -9.5 -63t-31 -52t-50 -35t-65.5 -13q-33 0 -62.5 12.5t-51.5 34.5t-34.5 50.5t-10.5 61.5q2 26 14 54
t38 49v13q-28 -33 -66 -51.5t-83 -18.5q-46 0 -86 19.5t-69.5 52.5t-46.5 78t-17 96zM146 244q0 -25 9 -47t25.5 -38.5t38 -26t47.5 -9.5q25 0 47 9.5t38.5 26t26 38.5t9.5 47t-9.5 47.5t-26 39t-38.5 26t-47 9.5q-26 0 -47.5 -9.5t-38 -26t-25.5 -39t-9 -47.5z" />
    <glyph glyph-name="Cacute" unicode="&#x106;" horiz-adv-x="640" 
d="M628 140q-51 -67 -118.5 -103.5t-148.5 -36.5q-70 0 -131 26t-106.5 71t-72 106t-26.5 131t26.5 131.5t72 107t106.5 71.5t131 26q88 0 156.5 -39t113.5 -107l-87 -88q-35 52 -81 77t-102 25q-43 0 -80.5 -16t-65 -43.5t-43.5 -64.5t-16 -80t16 -80t43.5 -64.5t65 -43
t80.5 -15.5q51 0 94.5 22.5t85.5 72.5zM218 801l254 121v-135l-254 -69v83z" />
    <glyph glyph-name="cacute" unicode="&#x107;" horiz-adv-x="478" 
d="M390 284q-24 38 -52 59.5t-73 21.5q-25 0 -47 -9.5t-39 -26t-27 -38.5t-10 -47t10 -47t26.5 -38.5t39 -26t47.5 -9.5q38 0 70 21.5t55 60.5l90 -85q-37 -63 -94.5 -92.5t-120.5 -29.5q-52 0 -97 19.5t-78 52.5t-52 78t-19 96q0 52 19 97t52 78t78 52t97 19
q63 0 119 -27.5t96 -90.5zM143 621l254 121v-135l-254 -69v83z" />
    <glyph glyph-name="Ccircumflex" unicode="&#x108;" horiz-adv-x="640" 
d="M628 140q-51 -67 -118.5 -103.5t-148.5 -36.5q-70 0 -131 26t-106.5 71t-72 106t-26.5 131t26.5 131.5t72 107t106.5 71.5t131 26q88 0 156.5 -39t113.5 -107l-87 -88q-35 52 -81 77t-102 25q-43 0 -80.5 -16t-65 -43.5t-43.5 -64.5t-16 -80t16 -80t43.5 -64.5t65 -43
t80.5 -15.5q51 0 94.5 22.5t85.5 72.5zM185 771l166 121l168 -121l-94 -65l-74 62l-74 -61z" />
    <glyph glyph-name="ccircumflex" unicode="&#x109;" horiz-adv-x="478" 
d="M390 284q-24 38 -52 59.5t-73 21.5q-25 0 -47 -9.5t-39 -26t-27 -38.5t-10 -47t10 -47t26.5 -38.5t39 -26t47.5 -9.5q38 0 70 21.5t55 60.5l90 -85q-37 -63 -94.5 -92.5t-120.5 -29.5q-52 0 -97 19.5t-78 52.5t-52 78t-19 96q0 52 19 97t52 78t78 52t97 19
q63 0 119 -27.5t96 -90.5zM101 591l166 121l168 -121l-94 -65l-74 62l-74 -61z" />
    <glyph glyph-name="Cdotaccent" unicode="&#x10a;" horiz-adv-x="640" 
d="M628 140q-51 -67 -118.5 -103.5t-148.5 -36.5q-70 0 -131 26t-106.5 71t-72 106t-26.5 131t26.5 131.5t72 107t106.5 71.5t131 26q88 0 156.5 -39t113.5 -107l-87 -88q-35 52 -81 77t-102 25q-43 0 -80.5 -16t-65 -43.5t-43.5 -64.5t-16 -80t16 -80t43.5 -64.5t65 -43
t80.5 -15.5q51 0 94.5 22.5t85.5 72.5zM272 799q0 32 22 54t52 22q32 0 54 -22t22 -54q0 -29 -22 -51.5t-54 -22.5q-15 0 -28.5 6t-23.5 16.5t-16 23.5t-6 28z" />
    <glyph glyph-name="cdotaccent" unicode="&#x10b;" horiz-adv-x="478" 
d="M390 284q-24 38 -52 59.5t-73 21.5q-25 0 -47 -9.5t-39 -26t-27 -38.5t-10 -47t10 -47t26.5 -38.5t39 -26t47.5 -9.5q38 0 70 21.5t55 60.5l90 -85q-37 -63 -94.5 -92.5t-120.5 -29.5q-52 0 -97 19.5t-78 52.5t-52 78t-19 96q0 52 19 97t52 78t78 52t97 19
q63 0 119 -27.5t96 -90.5zM182 618q0 32 22 54t52 22q32 0 54 -22t22 -54q0 -29 -22 -51.5t-54 -22.5q-15 0 -28.5 6t-23.5 16.5t-16 23.5t-6 28z" />
    <glyph glyph-name="Ccaron" unicode="&#x10c;" horiz-adv-x="640" 
d="M628 140q-51 -67 -118.5 -103.5t-148.5 -36.5q-70 0 -131 26t-106.5 71t-72 106t-26.5 131t26.5 131.5t72 107t106.5 71.5t131 26q88 0 156.5 -39t113.5 -107l-87 -88q-35 52 -81 77t-102 25q-43 0 -80.5 -16t-65 -43.5t-43.5 -64.5t-16 -80t16 -80t43.5 -64.5t65 -43
t80.5 -15.5q51 0 94.5 22.5t85.5 72.5zM493 838l-151 -131l-153 131l77 54l76 -67l74 67z" />
    <glyph glyph-name="ccaron" unicode="&#x10d;" horiz-adv-x="478" 
d="M390 284q-24 38 -52 59.5t-73 21.5q-25 0 -47 -9.5t-39 -26t-27 -38.5t-10 -47t10 -47t26.5 -38.5t39 -26t47.5 -9.5q38 0 70 21.5t55 60.5l90 -85q-37 -63 -94.5 -92.5t-120.5 -29.5q-52 0 -97 19.5t-78 52.5t-52 78t-19 96q0 52 19 97t52 78t78 52t97 19
q63 0 119 -27.5t96 -90.5zM405 658l-151 -131l-153 131l77 54l76 -67l74 67z" />
    <glyph glyph-name="Dcaron" unicode="&#x10e;" horiz-adv-x="561" 
d="M161 538v-407h45q42 0 79.5 15.5t65.5 43t44 64.5t16 80t-16 80t-44 64.5t-65.5 43.5t-79.5 16h-45zM206 670q70 0 131 -26t106.5 -71.5t72 -107t26.5 -131.5t-26.5 -131t-72 -106t-106.5 -71t-131 -26h-176v670h176zM372 838l-151 -131l-153 131l77 54l76 -67l74 67z
" />
    <glyph glyph-name="dcaron" unicode="&#x10f;" horiz-adv-x="727" 
d="M21 244q0 52 17 97t46.5 78.5t69.5 53t86 19.5q45 0 82 -18t65 -50v205h125v-629h-125v65q-28 -32 -65 -49.5t-82 -17.5q-46 0 -86 19.5t-69.5 52.5t-46.5 78t-17 96zM146 244q0 -25 9 -47t25.5 -38.5t38 -26t47.5 -9.5q23 0 44 8t37 22.5t26.5 33.5t13.5 42v30
q-3 22 -13.5 42t-26.5 34t-37 22.5t-44 8.5q-26 0 -47.5 -9.5t-38 -26t-25.5 -39t-9 -47.5zM702 637v-229h-130v229h130z" />
    <glyph glyph-name="Dcroat" unicode="&#x110;" horiz-adv-x="561" 
d="M-31 400h61v270h176q70 0 131 -26t106.5 -71.5t72 -107t26.5 -131.5t-26.5 -131t-72 -106t-106.5 -71t-131 -26h-176v272h-61v128zM161 538v-138h129v-128h-129v-141h45q42 0 79.5 15.5t65.5 43t44 64.5t16 80t-16 80t-44 64.5t-65.5 43.5t-79.5 16h-45z" />
    <glyph glyph-name="dcroat" unicode="&#x111;" horiz-adv-x="547" 
d="M228 637h354v-101h-70v-536h-125v65q-28 -32 -65 -49.5t-82 -17.5q-46 0 -86 19.5t-69.5 52.5t-46.5 78t-17 96q0 52 17 97t46.5 78.5t69.5 53t86 19.5q45 0 82 -18t65 -50v112h-159v101zM146 244q0 -25 9 -47t25.5 -38.5t38 -26t47.5 -9.5q23 0 44 8t37 22.5t26.5 33.5
t13.5 42v30q-3 22 -13.5 42t-26.5 34t-37 22.5t-44 8.5q-26 0 -47.5 -9.5t-38 -26t-25.5 -39t-9 -47.5z" />
    <glyph glyph-name="Emacron" unicode="&#x112;" horiz-adv-x="460" 
d="M435 0h-410v670h410v-132h-279v-175h229v-129h-229v-103h279v-131zM48 868h364v-130h-364v130z" />
    <glyph glyph-name="emacron" unicode="&#x113;" horiz-adv-x="504" 
d="M488 119q-45 -66 -101.5 -93.5t-121.5 -27.5q-51 0 -96 19.5t-78 52.5t-52.5 78t-19.5 96q0 52 19.5 97t52.5 78.5t78 53t96 19.5q65 0 124.5 -29.5t104.5 -100.5l-265 -235q10 -5 29 -7t38 3q31 8 59 27.5t49 49.5zM138 263q-5 -26 0.5 -47.5t16.5 -32.5l176 166
q-13 11 -34.5 18.5t-48.5 4.5q-44 -6 -73 -34t-37 -75zM82 688h364v-130h-364v130z" />
    <glyph glyph-name="Edotaccent" unicode="&#x116;" horiz-adv-x="460" 
d="M435 0h-410v670h410v-132h-279v-175h229v-129h-229v-103h279v-131zM155 804q0 32 22 54t52 22q32 0 54 -22t22 -54q0 -29 -22 -51.5t-54 -22.5q-15 0 -28.5 6t-23.5 16.5t-16 23.5t-6 28z" />
    <glyph glyph-name="edotaccent" unicode="&#x117;" horiz-adv-x="504" 
d="M488 119q-45 -66 -101.5 -93.5t-121.5 -27.5q-51 0 -96 19.5t-78 52.5t-52.5 78t-19.5 96q0 52 19.5 97t52.5 78.5t78 53t96 19.5q65 0 124.5 -29.5t104.5 -100.5l-265 -235q10 -5 29 -7t38 3q31 8 59 27.5t49 49.5zM138 263q-5 -26 0.5 -47.5t16.5 -32.5l176 166
q-13 11 -34.5 18.5t-48.5 4.5q-44 -6 -73 -34t-37 -75zM177 624q0 32 22 54t52 22q32 0 54 -22t22 -54q0 -29 -22 -51.5t-54 -22.5q-15 0 -28.5 6t-23.5 16.5t-16 23.5t-6 28z" />
    <glyph glyph-name="Eogonek" unicode="&#x118;" horiz-adv-x="460" 
d="M435 0h-141q-34 0 -48 -14.5t-14 -33.5q0 -20 16 -34t37 -14q23 0 37.5 14t14.5 38h95q1 -33 -9.5 -63t-31 -52t-50 -35t-65.5 -13q-33 0 -62.5 12.5t-51.5 34.5t-34.5 50.5t-10.5 61.5q1 11 3.5 23.5t7.5 24.5h-103v670h410v-132h-279v-175h229v-129h-229v-103h279v-131
z" />
    <glyph glyph-name="eogonek" unicode="&#x119;" horiz-adv-x="504" 
d="M488 119q-45 -66 -100.5 -93t-119.5 -28q-23 -5 -32 -17.5t-9 -28.5q0 -20 16 -34t37 -14q23 0 37.5 14t14.5 38h95q1 -33 -9.5 -63t-31 -52t-50 -35t-65.5 -13q-33 0 -62.5 12.5t-51.5 34.5t-34.5 50.5t-10.5 61.5q1 19 8 39.5t21 39.5q-55 32 -88.5 88t-33.5 125
q0 52 19.5 97t52.5 78.5t78 53t96 19.5q65 0 124.5 -29.5t104.5 -100.5l-265 -235q10 -5 29 -7t38 3q31 8 59 27.5t49 49.5zM138 263q-5 -26 0.5 -47.5t16.5 -32.5l176 166q-13 11 -34.5 18.5t-48.5 4.5q-44 -6 -73 -34t-37 -75z" />
    <glyph glyph-name="Ecaron" unicode="&#x11a;" horiz-adv-x="460" 
d="M435 0h-410v670h410v-132h-279v-175h229v-129h-229v-103h279v-131zM381 838l-151 -131l-153 131l77 54l76 -67l74 67z" />
    <glyph glyph-name="ecaron" unicode="&#x11b;" horiz-adv-x="504" 
d="M488 119q-45 -66 -101.5 -93.5t-121.5 -27.5q-51 0 -96 19.5t-78 52.5t-52.5 78t-19.5 96q0 52 19.5 97t52.5 78.5t78 53t96 19.5q65 0 124.5 -29.5t104.5 -100.5l-265 -235q10 -5 29 -7t38 3q31 8 59 27.5t49 49.5zM138 263q-5 -26 0.5 -47.5t16.5 -32.5l176 166
q-13 11 -34.5 18.5t-48.5 4.5q-44 -6 -73 -34t-37 -75zM403 658l-151 -131l-153 131l77 54l76 -67l74 67z" />
    <glyph glyph-name="Gcircumflex" unicode="&#x11c;" horiz-adv-x="667" 
d="M547 432q-36 47 -80.5 76.5t-105.5 29.5q-43 0 -80.5 -16t-65 -43.5t-43.5 -64.5t-16 -80t16 -80t43.5 -64.5t65 -43t80.5 -15.5q61 0 104 21t64 50v40h-256v115h377v-201q-52 -72 -126.5 -114t-162.5 -42q-70 0 -131 26t-106.5 71t-72 106t-26.5 131t26.5 131.5t72 107
t106.5 71.5t131 26q77 0 152 -36.5t129 -113.5zM194 771l166 121l168 -121l-94 -65l-74 62l-74 -61z" />
    <glyph glyph-name="gcircumflex" unicode="&#x11d;" horiz-adv-x="542" 
d="M265 -2q-52 0 -96.5 19.5t-77.5 52.5t-52 78t-19 96q0 52 19 97t52 78.5t78 53t97 19.5h244v-114l-78 3q42 -24 61.5 -59.5t21.5 -73.5q2 -29 -5.5 -60t-24 -60.5t-41 -53.5t-57.5 -38q17 -9 29 -24.5t18.5 -35t8 -40.5t-3.5 -39q-14 -49 -58 -81t-115 -32q-36 0 -68 8.5
t-56.5 28t-39 52t-14.5 80.5h126q0 -22 16.5 -35t35.5 -13q23 0 37 14.5t14 33.5q0 20 -13.5 32.5t-38.5 12.5zM387 244q0 25 -9.5 47.5t-26 39t-38.5 26t-47 9.5t-46.5 -9.5t-38 -26t-26 -39t-9.5 -47.5t9.5 -47t26 -38.5t38 -26t46.5 -9.5t47 9.5t38.5 26t26 38.5t9.5 47z
M103 591l166 121l168 -121l-94 -65l-74 62l-74 -61z" />
    <glyph glyph-name="Gbreve" unicode="&#x11e;" horiz-adv-x="667" 
d="M547 432q-36 47 -80.5 76.5t-105.5 29.5q-43 0 -80.5 -16t-65 -43.5t-43.5 -64.5t-16 -80t16 -80t43.5 -64.5t65 -43t80.5 -15.5q61 0 104 21t64 50v40h-256v115h377v-201q-52 -72 -126.5 -114t-162.5 -42q-70 0 -131 26t-106.5 71t-72 106t-26.5 131t26.5 131.5t72 107
t106.5 71.5t131 26q77 0 152 -36.5t129 -113.5zM510 883q0 -36 -11.5 -65.5t-31.5 -50.5t-47 -32.5t-59 -11.5q-31 0 -57.5 11.5t-46 32.5t-30.5 50.5t-11 65.5h100q0 -19 12 -35.5t35 -16.5t34 16.5t11 35.5h102z" />
    <glyph glyph-name="gbreve" unicode="&#x11f;" horiz-adv-x="542" 
d="M265 -2q-52 0 -96.5 19.5t-77.5 52.5t-52 78t-19 96q0 52 19 97t52 78.5t78 53t97 19.5h244v-114l-78 3q42 -24 61.5 -59.5t21.5 -73.5q2 -29 -5.5 -60t-24 -60.5t-41 -53.5t-57.5 -38q17 -9 29 -24.5t18.5 -35t8 -40.5t-3.5 -39q-14 -49 -58 -81t-115 -32q-36 0 -68 8.5
t-56.5 28t-39 52t-14.5 80.5h126q0 -22 16.5 -35t35.5 -13q23 0 37 14.5t14 33.5q0 20 -13.5 32.5t-38.5 12.5zM387 244q0 25 -9.5 47.5t-26 39t-38.5 26t-47 9.5t-46.5 -9.5t-38 -26t-26 -39t-9.5 -47.5t9.5 -47t26 -38.5t38 -26t46.5 -9.5t47 9.5t38.5 26t26 38.5t9.5 47z
M418 703q0 -36 -11.5 -65.5t-31.5 -50.5t-47 -32.5t-59 -11.5q-31 0 -57.5 11.5t-46 32.5t-30.5 50.5t-11 65.5h100q0 -19 12 -35.5t35 -16.5t34 16.5t11 35.5h102z" />
    <glyph glyph-name="Gdotaccent" unicode="&#x120;" horiz-adv-x="667" 
d="M547 432q-36 47 -80.5 76.5t-105.5 29.5q-43 0 -80.5 -16t-65 -43.5t-43.5 -64.5t-16 -80t16 -80t43.5 -64.5t65 -43t80.5 -15.5q61 0 104 21t64 50v40h-256v115h377v-201q-52 -72 -126.5 -114t-162.5 -42q-70 0 -131 26t-106.5 71t-72 106t-26.5 131t26.5 131.5t72 107
t106.5 71.5t131 26q77 0 152 -36.5t129 -113.5zM283 804q0 32 22 54t52 22q32 0 54 -22t22 -54q0 -29 -22 -51.5t-54 -22.5q-15 0 -28.5 6t-23.5 16.5t-16 23.5t-6 28z" />
    <glyph glyph-name="gdotaccent" unicode="&#x121;" horiz-adv-x="542" 
d="M265 -2q-52 0 -96.5 19.5t-77.5 52.5t-52 78t-19 96q0 52 19 97t52 78.5t78 53t97 19.5h244v-114l-78 3q42 -24 61.5 -59.5t21.5 -73.5q2 -29 -5.5 -60t-24 -60.5t-41 -53.5t-57.5 -38q17 -9 29 -24.5t18.5 -35t8 -40.5t-3.5 -39q-14 -49 -58 -81t-115 -32q-36 0 -68 8.5
t-56.5 28t-39 52t-14.5 80.5h126q0 -22 16.5 -35t35.5 -13q23 0 37 14.5t14 33.5q0 20 -13.5 32.5t-38.5 12.5zM387 244q0 25 -9.5 47.5t-26 39t-38.5 26t-47 9.5t-46.5 -9.5t-38 -26t-26 -39t-9.5 -47.5t9.5 -47t26 -38.5t38 -26t46.5 -9.5t47 9.5t38.5 26t26 38.5t9.5 47z
M196 624q0 32 22 54t52 22q32 0 54 -22t22 -54q0 -29 -22 -51.5t-54 -22.5q-15 0 -28.5 6t-23.5 16.5t-16 23.5t-6 28z" />
    <glyph glyph-name="uni0122" unicode="&#x122;" horiz-adv-x="667" 
d="M547 432q-36 47 -80.5 76.5t-105.5 29.5q-43 0 -80.5 -16t-65 -43.5t-43.5 -64.5t-16 -80t16 -80t43.5 -64.5t65 -43t80.5 -15.5q61 0 104 21t64 50v40h-256v115h377v-201q-52 -72 -126.5 -114t-162.5 -42q-70 0 -131 26t-106.5 71t-72 106t-26.5 131t26.5 131.5t72 107
t106.5 71.5t131 26q77 0 152 -36.5t129 -113.5zM421 -49v-184h-130v184h130z" />
    <glyph glyph-name="uni0123" unicode="&#x123;" horiz-adv-x="542" 
d="M265 -2q-52 0 -96.5 19.5t-77.5 52.5t-52 78t-19 96q0 52 19 97t52 78.5t78 53t97 19.5h244v-114l-78 3q42 -24 61.5 -59.5t21.5 -73.5q2 -29 -5.5 -60t-24 -60.5t-41 -53.5t-57.5 -38q17 -9 29 -24.5t18.5 -35t8 -40.5t-3.5 -39q-14 -49 -58 -81t-115 -32q-36 0 -68 8.5
t-56.5 28t-39 52t-14.5 80.5h126q0 -22 16.5 -35t35.5 -13q23 0 37 14.5t14 33.5q0 20 -13.5 32.5t-38.5 12.5zM387 244q0 25 -9.5 47.5t-26 39t-38.5 26t-47 9.5t-46.5 -9.5t-38 -26t-26 -39t-9.5 -47.5t9.5 -47t26 -38.5t38 -26t46.5 -9.5t47 9.5t38.5 26t26 38.5t9.5 47z
M341 725v-184h-130v184h130z" />
    <glyph glyph-name="Hcircumflex" unicode="&#x124;" horiz-adv-x="542" 
d="M385 0v197h-230v-197h-130v670h130v-345h230v345h132v-670h-132zM103 771l166 121l168 -121l-94 -65l-74 62l-74 -61z" />
    <glyph glyph-name="hcircumflex" unicode="&#x125;" 
d="M392 0v255q0 25 -9.5 46t-26 36.5t-38 24.5t-44.5 9q-46 0 -81.5 -30.5t-43.5 -90.5v-250h-124v629h124v-209q31 32 69.5 49t80.5 19q50 3 90.5 -14t68.5 -48.5t43 -73.5t15 -89v-263h-124zM108 713l166 121l168 -121l-94 -65l-74 62l-74 -61z" />
    <glyph glyph-name="Hbar" unicode="&#x126;" horiz-adv-x="542" 
d="M155 670v-121h230v121h132v-121h48v-130h-48v-419h-132v197h-230v-197h-130v419h-49v130h49v121h130zM155 325h230v94h-230v-94z" />
    <glyph glyph-name="hbar" unicode="&#x127;" 
d="M392 0v255q0 25 -9.5 46t-26 36.5t-38 24.5t-44.5 9q-46 0 -81.5 -30.5t-43.5 -90.5v-250h-124v552h-41v104h354v-104h-189v-132q31 32 69.5 49t80.5 19q50 3 90.5 -14t68.5 -48.5t43 -73.5t15 -89v-263h-124z" />
    <glyph glyph-name="Itilde" unicode="&#x128;" horiz-adv-x="222" 
d="M44 0v670h130v-670h-130zM-44 712q-14 41 -14.5 75t8.5 58t26.5 37t39.5 13q21 0 41 -9t38.5 -20.5t35.5 -20.5t32 -9q12 0 18 15t-11 44h94q18 -50 18 -84.5t-11 -56t-29.5 -31.5t-37.5 -10q-20 0 -39.5 8t-37.5 17.5t-34 17.5t-30 8q-13 0 -18 -14t5 -38h-94z" />
    <glyph glyph-name="itilde" unicode="&#x129;" horiz-adv-x="214" 
d="M169 490v-490h-124v490h124zM-53 532q-14 41 -14.5 75t8.5 58t26.5 37t39.5 13q21 0 41 -9t38.5 -20.5t35.5 -20.5t32 -9q12 0 18 15t-11 44h94q18 -50 18 -84.5t-11 -56t-29.5 -31.5t-37.5 -10q-20 0 -39.5 8t-37.5 17.5t-34 17.5t-30 8q-13 0 -18 -14t5 -38h-94z" />
    <glyph glyph-name="Imacron" unicode="&#x12a;" horiz-adv-x="222" 
d="M44 0v670h130v-670h-130zM-74 868h364v-130h-364v130z" />
    <glyph glyph-name="imacron" unicode="&#x12b;" horiz-adv-x="214" 
d="M169 490v-490h-124v490h124zM-75 688h364v-130h-364v130z" />
    <glyph glyph-name="Iogonek" unicode="&#x12e;" horiz-adv-x="225" 
d="M130 0q-34 0 -48 -14.5t-14 -33.5q0 -20 16 -34t37 -14q23 0 37.5 14t14.5 38h95q1 -33 -9.5 -63t-31 -52t-50 -35t-65.5 -13q-33 0 -62.5 12.5t-51.5 34.5t-34.5 50.5t-10.5 61.5q1 17 7 35.5t17 36t27.5 31.5t39.5 23v592h130v-670h-44z" />
    <glyph glyph-name="iogonek" unicode="&#x12f;" horiz-adv-x="209" 
d="M160 490v-490h-30q-34 0 -48 -14.5t-14 -33.5q0 -20 16 -34t37 -14q23 0 37.5 14t14.5 38h95q1 -33 -9.5 -63t-31 -52t-50 -35t-65.5 -13q-33 0 -62.5 12.5t-51.5 34.5t-34.5 50.5t-10.5 61.5t21.5 68.5t61.5 54.5v415h124zM24 618q0 32 22 54t52 22q32 0 53.5 -22
t21.5 -54q0 -30 -21.5 -52t-53.5 -22q-30 0 -52 22t-22 52z" />
    <glyph glyph-name="Idotaccent" unicode="&#x130;" horiz-adv-x="219" 
d="M44 0v670h130v-670h-130zM36 804q0 32 22 54t52 22q32 0 54 -22t22 -54q0 -29 -22 -51.5t-54 -22.5q-15 0 -28.5 6t-23.5 16.5t-16 23.5t-6 28z" />
    <glyph glyph-name="dotlessi" unicode="&#x131;" horiz-adv-x="214" 
d="M169 490v-490h-124v490h124z" />
    <glyph glyph-name="Jcircumflex" unicode="&#x134;" horiz-adv-x="483" 
d="M146 245q-4 -54 23.5 -84t71.5 -30q19 0 36.5 7.5t30.5 20.5t20.5 30t7.5 36v445h130v-445q0 -47 -17.5 -88t-48 -71.5t-71.5 -48t-88 -17.5q-55 0 -99 17.5t-74 49.5t-43.5 77t-7.5 101h129zM225 770l166 121l168 -121l-94 -65l-74 62l-74 -61z" />
    <glyph glyph-name="jcircumflex" unicode="&#x135;" horiz-adv-x="167" 
d="M145 490v-623h-124v623h124zM-83 591l166 121l168 -121l-94 -65l-74 62l-74 -61z" />
    <glyph glyph-name="uni0136" unicode="&#x136;" horiz-adv-x="485" 
d="M144 670v-289h60l158 289h147l-200 -347l200 -323h-147l-158 258h-60v-258h-125v670h125zM291 -49v-184h-130v184h130z" />
    <glyph glyph-name="uni0137" unicode="&#x137;" horiz-adv-x="447" 
d="M144 629v-324h46l134 185h156l-188 -242l188 -248h-156l-127 182h-53v-182h-125v629h125zM283 -49v-184h-130v184h130z" />
    <glyph glyph-name="kgreenlandic" unicode="&#x138;" horiz-adv-x="447" 
d="M144 490v-185h46l134 185h156l-188 -242l188 -248h-156l-127 182h-53v-182h-125v490h125z" />
    <glyph glyph-name="Lacute" unicode="&#x139;" horiz-adv-x="365" 
d="M365 0h-340v670h131v-539h209v-131zM55 801l254 121v-135l-254 -69v83z" />
    <glyph glyph-name="lacute" unicode="&#x13a;" horiz-adv-x="167" 
d="M160 629v-629h-124v629h124zM-16 738l254 121v-135l-254 -69v83z" />
    <glyph glyph-name="uni013B" unicode="&#x13b;" horiz-adv-x="365" 
d="M365 0h-340v670h131v-539h209v-131zM268 -49v-184h-130v184h130z" />
    <glyph glyph-name="uni013C" unicode="&#x13c;" horiz-adv-x="167" 
d="M145 629v-629h-124v629h124zM149 -49v-184h-130v184h130z" />
    <glyph glyph-name="Lcaron" unicode="&#x13d;" horiz-adv-x="365" 
d="M365 0h-340v670h131v-539h209v-131zM389 671v-229h-130v229h130z" />
    <glyph glyph-name="lcaron" unicode="&#x13e;" horiz-adv-x="336" 
d="M160 629v-629h-124v629h124zM322 637v-229h-130v229h130z" />
    <glyph glyph-name="Lslash" unicode="&#x141;" horiz-adv-x="399" 
d="M-46 416l71 53v201h131v-104l53 40l38 -75l-91 -68v-334h232v-131h-363v367l-32 -24z" />
    <glyph glyph-name="lslash" unicode="&#x142;" horiz-adv-x="186" 
d="M159 629v-60l50 37l38 -75l-88 -66v-465h-124v372l-42 -31l-39 75l81 60v153h124z" />
    <glyph glyph-name="Nacute" unicode="&#x143;" horiz-adv-x="542" 
d="M517 670v-670h-101l-269 423v-423h-122v670h114l261 -425v425h117zM143 801l254 121v-135l-254 -69v83z" />
    <glyph glyph-name="nacute" unicode="&#x144;" 
d="M392 0v244q0 25 -9.5 47.5t-26 40t-38.5 27.5t-47 10q-51 0 -85.5 -36t-36.5 -99v-234h-124v490h124v-73q29 37 69 56t87 19q44 0 82.5 -17t67 -47.5t45 -73t16.5 -94.5v-260h-124zM148 621l254 121v-135l-254 -69v83z" />
    <glyph glyph-name="uni0145" unicode="&#x145;" horiz-adv-x="542" 
d="M517 670v-670h-101l-269 423v-423h-122v670h114l261 -425v425h117zM333 -49v-184h-130v184h130z" />
    <glyph glyph-name="uni0146" unicode="&#x146;" 
d="M392 0v244q0 25 -9.5 47.5t-26 40t-38.5 27.5t-47 10q-51 0 -85.5 -36t-36.5 -99v-234h-124v490h124v-73q29 37 69 56t87 19q44 0 82.5 -17t67 -47.5t45 -73t16.5 -94.5v-260h-124zM333 -49v-184h-130v184h130z" />
    <glyph glyph-name="Ncaron" unicode="&#x147;" horiz-adv-x="542" 
d="M517 670v-670h-101l-269 423v-423h-122v670h114l261 -425v425h117zM422 838l-151 -131l-153 131l77 54l76 -67l74 67z" />
    <glyph glyph-name="ncaron" unicode="&#x148;" 
d="M392 0v244q0 25 -9.5 47.5t-26 40t-38.5 27.5t-47 10q-51 0 -85.5 -36t-36.5 -99v-234h-124v490h124v-73q29 37 69 56t87 19q44 0 82.5 -17t67 -47.5t45 -73t16.5 -94.5v-260h-124zM427 658l-151 -131l-153 131l77 54l76 -67l74 67z" />
    <glyph glyph-name="Eng" unicode="&#x14a;" horiz-adv-x="542" 
d="M517 670v-703q0 -47 -17.5 -88t-47.5 -71.5t-71 -48t-88 -17.5q-55 0 -99.5 17.5t-74.5 49.5t-43.5 77t-7.5 101h129q-4 -54 23.5 -84.5t72.5 -30.5q19 0 36 7.5t29.5 20.5t20 30t8.5 37l4 71l-244 385v-423h-122v670h114l261 -425v425h117z" />
    <glyph glyph-name="eng" unicode="&#x14b;" 
d="M149 490v-73q29 37 69 56t87 19q44 0 82.5 -17t67 -47.5t45 -73t16.5 -94.5v-438h-124v422q0 25 -9.5 47.5t-26 40t-38.5 27.5t-47 10q-51 0 -85.5 -36t-36.5 -99v-234h-124v490h124z" />
    <glyph glyph-name="Omacron" unicode="&#x14c;" horiz-adv-x="724" 
d="M567 334q0 43 -16.5 80t-44.5 64.5t-65.5 43.5t-79.5 16q-43 0 -80.5 -16t-65.5 -43.5t-44 -64.5t-16 -80t16 -80t44 -64.5t65.5 -43t80.5 -15.5q42 0 79.5 15.5t65.5 43t44.5 64.5t16.5 80zM697 334q0 -70 -26 -131t-71.5 -106t-107 -71t-131.5 -26q-71 0 -132 26
t-106.5 71t-71.5 106t-26 131t26 131.5t71.5 107t106.5 71.5t132 26q70 0 131.5 -26t107 -71.5t71.5 -107t26 -131.5zM180 868h364v-130h-364v130z" />
    <glyph glyph-name="omacron" unicode="&#x14d;" horiz-adv-x="531" 
d="M383 244q0 25 -9.5 47.5t-26 39t-38 26t-46.5 9.5t-47 -9.5t-38.5 -26t-26 -39t-9.5 -47.5t9.5 -47t26 -38.5t38.5 -26t47 -9.5t46.5 9.5t38 26t26 38.5t9.5 47zM509 244q0 -51 -19.5 -96t-52.5 -78t-78 -52.5t-96 -19.5q-52 0 -97 19.5t-78 52.5t-52 78t-19 96
q0 52 19 97t52 78.5t78 53t97 19.5q51 0 96 -19.5t78 -53t52.5 -78.5t19.5 -97zM82 688h364v-130h-364v130z" />
    <glyph glyph-name="Ohungarumlaut" unicode="&#x150;" horiz-adv-x="724" 
d="M697 334q0 -70 -26 -131t-71.5 -106t-107 -71t-131.5 -26q-71 0 -132 26t-106.5 71t-71.5 106t-26 131t26 131.5t71.5 107t106.5 71.5t132 26q70 0 131.5 -26t107 -71.5t71.5 -107t26 -131.5zM567 334q0 43 -16.5 80t-44.5 64.5t-65.5 43.5t-79.5 16q-43 0 -80.5 -16
t-65.5 -43.5t-44 -64.5t-16 -80t16 -80t44 -64.5t65.5 -43t80.5 -15.5q42 0 79.5 15.5t65.5 43t44.5 64.5t16.5 80zM168 861l248 91v-69l186 69v-135l-247 -92v69l-187 -69v136z" />
    <glyph glyph-name="ohungarumlaut" unicode="&#x151;" horiz-adv-x="531" 
d="M509 244q0 -51 -19.5 -96t-52.5 -78t-78 -52.5t-96 -19.5q-52 0 -97 19.5t-78 52.5t-52 78t-19 96q0 52 19 97t52 78.5t78 53t97 19.5q51 0 96 -19.5t78 -53t52.5 -78.5t19.5 -97zM72 681l248 91v-69l186 69v-135l-247 -92v69l-187 -69v136zM383 244q0 25 -9.5 47.5
t-26 39t-38 26t-46.5 9.5t-47 -9.5t-38.5 -26t-26 -39t-9.5 -47.5t9.5 -47t26 -38.5t38.5 -26t47 -9.5t46.5 9.5t38 26t26 38.5t9.5 47z" />
    <glyph glyph-name="OE" unicode="&#x152;" horiz-adv-x="996" 
d="M980 0h-410v71q-43 -34 -96 -52.5t-113 -18.5q-71 0 -132 26t-106.5 71t-71.5 106t-26 131t26 131.5t71.5 107t106.5 71.5t132 26q60 0 113 -19t96 -53v72h410v-132h-279v-175h229v-129h-229v-103h279v-131zM567 334q0 43 -16.5 80t-44.5 64.5t-65.5 43.5t-79.5 16
q-43 0 -80.5 -16t-65.5 -43.5t-44 -64.5t-16 -80t16 -80t44 -64.5t65.5 -43t80.5 -15.5q42 0 79.5 15.5t65.5 43t44.5 64.5t16.5 80z" />
    <glyph glyph-name="oe" unicode="&#x153;" horiz-adv-x="887" 
d="M857 119q-45 -66 -101.5 -93.5t-121.5 -27.5q-56 0 -104 23t-82 61q-34 -38 -81.5 -61t-103.5 -23q-52 0 -97 19.5t-78 52.5t-52 78t-19 96q0 52 19 97t52 78.5t78 53t97 19.5q56 0 103.5 -23t81.5 -62q34 39 82 62t104 23q65 0 124.5 -29.5t104.5 -100.5l-265 -235
q10 -5 29 -7t38 3q31 8 59 27.5t49 49.5zM383 244q0 25 -9.5 47.5t-26 39t-38 26t-46.5 9.5t-47 -9.5t-38.5 -26t-26 -39t-9.5 -47.5t9.5 -47t26 -38.5t38.5 -26t47 -9.5t46.5 9.5t38 26t26 38.5t9.5 47zM509 244q0 -8 -0.5 -14.5t-1.5 -13.5q4 -22 17 -33l176 166
q-13 11 -34.5 18.5t-48.5 4.5q-43 -6 -71.5 -33.5t-37.5 -72.5q0 -5 0.5 -11t0.5 -11z" />
    <glyph glyph-name="Racute" unicode="&#x154;" horiz-adv-x="526" 
d="M32 0v670h216q55 0 103 -20.5t83.5 -56.5t56 -84.5t20.5 -103.5q0 -69 -31.5 -125.5t-85.5 -91.5l122 -188h-148l-96 145q-6 -1 -12 -1h-12h-86v-144h-130zM162 274h86q27 0 51 10.5t42 28.5t28.5 41.5t10.5 50.5q0 28 -10.5 52.5t-28.5 42.5t-42 28t-51 10h-86v-264z
M135 801l254 121v-135l-254 -69v83z" />
    <glyph glyph-name="racute" unicode="&#x155;" horiz-adv-x="272" 
d="M162 490v-69q21 30 53.5 50.5t75.5 20.5v-126q-23 0 -45.5 -8.5t-40.5 -23.5t-30 -35t-13 -42v-257h-124v490h124zM47 621l254 121v-135l-254 -69v83z" />
    <glyph glyph-name="uni0156" unicode="&#x156;" horiz-adv-x="526" 
d="M32 0v670h216q55 0 103 -20.5t83.5 -56.5t56 -84.5t20.5 -103.5q0 -69 -31.5 -125.5t-85.5 -91.5l122 -188h-148l-96 145q-6 -1 -12 -1h-12h-86v-144h-130zM162 274h86q27 0 51 10.5t42 28.5t28.5 41.5t10.5 50.5q0 28 -10.5 52.5t-28.5 42.5t-42 28t-51 10h-86v-264z
M306 -49v-184h-130v184h130z" />
    <glyph glyph-name="uni0157" unicode="&#x157;" horiz-adv-x="272" 
d="M147 490v-69q21 30 53.5 50.5t75.5 20.5v-126q-23 0 -45.5 -8.5t-40.5 -23.5t-30 -35t-13 -42v-257h-124v490h124zM153 -49v-184h-130v184h130z" />
    <glyph glyph-name="Rcaron" unicode="&#x158;" horiz-adv-x="526" 
d="M32 0v670h216q55 0 103 -20.5t83.5 -56.5t56 -84.5t20.5 -103.5q0 -69 -31.5 -125.5t-85.5 -91.5l122 -188h-148l-96 145q-6 -1 -12 -1h-12h-86v-144h-130zM162 274h86q27 0 51 10.5t42 28.5t28.5 41.5t10.5 50.5q0 28 -10.5 52.5t-28.5 42.5t-42 28t-51 10h-86v-264z
M400 838l-151 -131l-153 131l77 54l76 -67l74 67z" />
    <glyph glyph-name="rcaron" unicode="&#x159;" horiz-adv-x="286" 
d="M154 490v-69q21 30 53.5 50.5t75.5 20.5v-126q-23 0 -45.5 -8.5t-40.5 -23.5t-30 -35t-13 -42v-257h-124v490h124zM312 658l-151 -131l-153 131l77 54l76 -67l74 67z" />
    <glyph glyph-name="Sacute" unicode="&#x15a;" horiz-adv-x="544" 
d="M176 348q-17 -16 -26.5 -38t-9.5 -47q0 -28 10.5 -52t28.5 -42t42.5 -28t52.5 -10q27 0 51.5 10t42.5 28t28.5 42t10.5 52q0 29 -11.5 49t-30.5 33.5t-43 21t-48 11.5q-75 11 -114.5 53.5t-37.5 102.5q0 28 11 53t30 43.5t45.5 29t59.5 10.5t58 -9t43 -24t29 -35t17 -41
l-94 -38q-3 17 -16 26.5t-28 9.5q-18 0 -29 -10.5t-10 -25.5q3 -31 62 -39q49 -6 92.5 -22t75.5 -44t51 -67t19 -91q0 -55 -20.5 -102.5t-56.5 -82.5t-84 -55t-103 -20t-103 20.5t-84 56t-56.5 83.5t-20.5 103q0 53 21.5 98.5t56.5 75.5zM165 801l254 121v-135l-254 -69v83z
" />
    <glyph glyph-name="sacute" unicode="&#x15b;" horiz-adv-x="330" 
d="M223 341q0 21 -10.5 35.5t-26.5 14.5t-26 -13.5t-10 -33.5q0 -22 21 -33t59 -22q53 -13 79.5 -45.5t26.5 -91.5q0 -32 -11.5 -60t-32.5 -49t-49 -33t-61 -12q-31 0 -59 10.5t-49 30t-33 47.5t-12 62h124q0 -21 11.5 -33t26.5 -12q14 0 25 12.5t11 31.5q0 13 -6.5 21.5
t-18.5 14.5t-28 9.5t-34 8.5q-48 12 -79.5 47t-31.5 92q0 33 11 61t31.5 48t48.5 31.5t62 11.5q72 0 113 -39.5t41 -111.5h-113zM75 621l254 121v-135l-254 -69v83z" />
    <glyph glyph-name="Scircumflex" unicode="&#x15c;" horiz-adv-x="544" 
d="M176 348q-17 -16 -26.5 -38t-9.5 -47q0 -28 10.5 -52t28.5 -42t42.5 -28t52.5 -10q27 0 51.5 10t42.5 28t28.5 42t10.5 52q0 29 -11.5 49t-30.5 33.5t-43 21t-48 11.5q-75 11 -114.5 53.5t-37.5 102.5q0 28 11 53t30 43.5t45.5 29t59.5 10.5t58 -9t43 -24t29 -35t17 -41
l-94 -38q-3 17 -16 26.5t-28 9.5q-18 0 -29 -10.5t-10 -25.5q3 -31 62 -39q49 -6 92.5 -22t75.5 -44t51 -67t19 -91q0 -55 -20.5 -102.5t-56.5 -82.5t-84 -55t-103 -20t-103 20.5t-84 56t-56.5 83.5t-20.5 103q0 53 21.5 98.5t56.5 75.5zM104 771l166 121l168 -121l-94 -65
l-74 62l-74 -61z" />
    <glyph glyph-name="scircumflex" unicode="&#x15d;" horiz-adv-x="330" 
d="M223 341q0 21 -10.5 35.5t-26.5 14.5t-26 -13.5t-10 -33.5q0 -22 21 -33t59 -22q53 -13 79.5 -45.5t26.5 -91.5q0 -32 -11.5 -60t-32.5 -49t-49 -33t-61 -12q-31 0 -59 10.5t-49 30t-33 47.5t-12 62h124q0 -21 11.5 -33t26.5 -12q14 0 25 12.5t11 31.5q0 13 -6.5 21.5
t-18.5 14.5t-28 9.5t-34 8.5q-48 12 -79.5 47t-31.5 92q0 33 11 61t31.5 48t48.5 31.5t62 11.5q72 0 113 -39.5t41 -111.5h-113zM20 591l166 121l168 -121l-94 -65l-74 62l-74 -61z" />
    <glyph glyph-name="Scedilla" unicode="&#x15e;" horiz-adv-x="544" 
d="M222 -163q0 -12 5.5 -21t13.5 -14.5t17.5 -8t17.5 -2.5q14 0 28.5 10.5t14.5 26.5q0 9 -4.5 17.5t-16.5 14.5t-33.5 9t-55.5 0v138q-43 11 -79.5 34.5t-63 57.5t-41.5 75.5t-15 88.5q0 53 21.5 98.5t56.5 75.5l88 -89q-17 -16 -26.5 -38t-9.5 -47q0 -28 10.5 -52
t28.5 -42t42.5 -28t52.5 -10q27 0 51.5 10t42.5 28t28.5 42t10.5 52q0 29 -11.5 49t-30.5 33.5t-43 21t-48 11.5q-75 11 -114.5 53.5t-37.5 102.5q0 28 11 53t30 43.5t45.5 29t59.5 10.5t58 -9t43 -24t29 -35t17 -41l-94 -38q-3 17 -16 26.5t-28 9.5q-18 0 -29 -10.5
t-10 -25.5q3 -31 62 -39q49 -6 92.5 -22t75.5 -44t51 -67t19 -91q0 -47 -15 -88t-41.5 -74t-63 -56.5t-79.5 -33.5v-82q16 -7 29.5 -16.5t24 -23.5t16.5 -33t6 -46q0 -31 -13.5 -55t-34 -40.5t-45.5 -25t-48 -8.5q-25 0 -51 11t-46 31t-32 49.5t-9 67.5h86z" />
    <glyph glyph-name="scedilla" unicode="&#x15f;" horiz-adv-x="330" 
d="M115 -158q0 -12 5.5 -21t13.5 -14.5t17.5 -8t17.5 -2.5q14 0 28.5 10.5t14.5 26.5q0 9 -4.5 17.5t-16.5 14.5t-33.5 9t-55.5 0v144q-33 19 -53 52t-20 78h124q0 -21 11.5 -33t26.5 -12q14 0 25 12.5t11 31.5q0 13 -6.5 21.5t-18.5 14.5t-28 9.5t-34 8.5q-48 12 -79.5 47
t-31.5 92q0 33 11 61t31.5 48t48.5 31.5t62 11.5q72 0 113 -39.5t41 -111.5h-113q0 21 -10.5 35.5t-26.5 14.5t-26 -13.5t-10 -33.5q0 -22 21 -33t59 -22q53 -13 79.5 -45.5t26.5 -91.5q0 -51 -28.5 -91t-75.5 -55v-75q16 -7 29.5 -16.5t24 -23.5t16.5 -33t6 -46
q0 -31 -13.5 -55t-34 -40.5t-45.5 -25t-48 -8.5q-25 0 -51 11t-46 31t-32 49.5t-9 67.5h86z" />
    <glyph glyph-name="Scaron" unicode="&#x160;" horiz-adv-x="578" 
d="M176 348q-17 -16 -26.5 -38t-9.5 -47q0 -28 10.5 -52t28.5 -42t42.5 -28t52.5 -10q27 0 51.5 10t42.5 28t28.5 42t10.5 52q0 29 -11.5 49t-30.5 33.5t-43 21t-48 11.5q-75 11 -114.5 53.5t-37.5 102.5q0 28 11 53t30 43.5t45.5 29t59.5 10.5t58 -9t43 -24t29 -35t17 -41
l-94 -38q-3 17 -16 26.5t-28 9.5q-18 0 -29 -10.5t-10 -25.5q3 -31 62 -39q49 -6 92.5 -22t75.5 -44t51 -67t19 -91q0 -55 -20.5 -102.5t-56.5 -82.5t-84 -55t-103 -20t-103 20.5t-84 56t-56.5 83.5t-20.5 103q0 53 21.5 98.5t56.5 75.5zM440 838l-151 -131l-153 131l77 54
l76 -67l74 67z" />
    <glyph glyph-name="scaron" unicode="&#x161;" horiz-adv-x="330" 
d="M223 341q0 21 -10.5 35.5t-26.5 14.5t-26 -13.5t-10 -33.5q0 -22 21 -33t59 -22q53 -13 79.5 -45.5t26.5 -91.5q0 -32 -11.5 -60t-32.5 -49t-49 -33t-61 -12q-31 0 -59 10.5t-49 30t-33 47.5t-12 62h124q0 -21 11.5 -33t26.5 -12q14 0 25 12.5t11 31.5q0 13 -6.5 21.5
t-18.5 14.5t-28 9.5t-34 8.5q-48 12 -79.5 47t-31.5 92q0 33 11 61t31.5 48t48.5 31.5t62 11.5q72 0 113 -39.5t41 -111.5h-113zM317 658l-151 -131l-153 131l77 54l76 -67l74 67z" />
    <glyph glyph-name="uni0162" unicode="&#x162;" horiz-adv-x="401" 
d="M138 0v538h-154v132h438v-132h-154v-538h-130zM268 -49v-184h-130v184h130z" />
    <glyph glyph-name="uni0163" unicode="&#x163;" horiz-adv-x="193" 
d="M-13 492h38v137h125v-137h54v-103h-54v-229q0 -52 54 -52v-110q-94 0 -136.5 39t-42.5 123v229h-38v103zM181 -49v-184h-130v184h130z" />
    <glyph glyph-name="Tcaron" unicode="&#x164;" horiz-adv-x="401" 
d="M138 0v538h-154v132h438v-132h-154v-538h-130zM352 838l-151 -131l-153 131l77 54l76 -67l74 67z" />
    <glyph glyph-name="tcaron" unicode="&#x165;" horiz-adv-x="359" 
d="M-13 492h31v137h125v-137h68v-103h-68v-229q0 -52 54 -52v-110q-94 0 -136.5 39t-42.5 123v229h-31v103zM348 637v-229h-130v229h130z" />
    <glyph glyph-name="Tbar" unicode="&#x166;" horiz-adv-x="401" 
d="M138 0v284h-119v130h119v124h-154v132h438v-132h-154v-124h115v-130h-115v-284h-130z" />
    <glyph glyph-name="tbar" unicode="&#x167;" horiz-adv-x="193" 
d="M-11 658h221v-104h-67v-62h68v-103h-68v-229q0 -52 54 -52v-110q-94 0 -136.5 39t-42.5 123v229h-31v103h31v62h-29v104z" />
    <glyph glyph-name="Utilde" unicode="&#x168;" horiz-adv-x="565" 
d="M150 670v-408q0 -27 10.5 -51.5t28.5 -42.5t42 -28.5t51 -10.5q35 0 60.5 14t41.5 38t23.5 55t7.5 65v369h131v-408q0 -55 -20.5 -103t-56.5 -84t-84 -56.5t-103 -20.5t-103 20.5t-83 56.5t-55.5 84t-20.5 103v408h130zM122 712q-14 41 -14.5 75t8.5 58t26.5 37t39.5 13
q21 0 41 -9t38.5 -20.5t35.5 -20.5t32 -9q12 0 18 15t-11 44h94q18 -50 18 -84.5t-11 -56t-29.5 -31.5t-37.5 -10q-20 0 -39.5 8t-37.5 17.5t-34 17.5t-30 8q-13 0 -18 -14t5 -38h-94z" />
    <glyph glyph-name="utilde" unicode="&#x169;" 
d="M149 490v-239q0 -67 32 -105t90 -38q24 0 45.5 10.5t38 30.5t26.5 48.5t11 64.5v228h124v-490h-124v87q-26 -42 -65 -65t-91 -23q-45 0 -84 16t-67 45t-44 70.5t-16 92.5v267h124zM115 532q-14 41 -14.5 75t8.5 58t26.5 37t39.5 13q21 0 41 -9t38.5 -20.5t35.5 -20.5
t32 -9q12 0 18 15t-11 44h94q18 -50 18 -84.5t-11 -56t-29.5 -31.5t-37.5 -10q-20 0 -39.5 8t-37.5 17.5t-34 17.5t-30 8q-13 0 -18 -14t5 -38h-94z" />
    <glyph glyph-name="Umacron" unicode="&#x16a;" horiz-adv-x="565" 
d="M150 670v-408q0 -27 10.5 -51.5t28.5 -42.5t42 -28.5t51 -10.5q35 0 60.5 14t41.5 38t23.5 55t7.5 65v369h131v-408q0 -55 -20.5 -103t-56.5 -84t-84 -56.5t-103 -20.5t-103 20.5t-83 56.5t-55.5 84t-20.5 103v408h130zM100 868h364v-130h-364v130z" />
    <glyph glyph-name="umacron" unicode="&#x16b;" 
d="M149 490v-239q0 -67 32 -105t90 -38q25 0 47 11t38.5 32t26 51t9.5 68v220h124v-490h-124v87q-26 -42 -65 -65t-91 -23q-45 0 -84 16t-67 45t-44 70.5t-16 92.5v267h124zM94 688h364v-130h-364v130z" />
    <glyph glyph-name="Ubreve" unicode="&#x16c;" horiz-adv-x="565" 
d="M150 670v-408q0 -27 10.5 -51.5t28.5 -42.5t42 -28.5t51 -10.5q35 0 60.5 14t41.5 38t23.5 55t7.5 65v369h131v-408q0 -55 -20.5 -103t-56.5 -84t-84 -56.5t-103 -20.5t-103 20.5t-83 56.5t-55.5 84t-20.5 103v408h130zM429 883q0 -36 -11.5 -65.5t-31.5 -50.5t-47 -32.5
t-59 -11.5q-31 0 -57.5 11.5t-46 32.5t-30.5 50.5t-11 65.5h100q0 -19 12 -35.5t35 -16.5t34 16.5t11 35.5h102z" />
    <glyph glyph-name="ubreve" unicode="&#x16d;" 
d="M149 490v-239q0 -67 32 -105t90 -38q25 0 47 11t38.5 32t26 51t9.5 68v220h124v-490h-124v87q-26 -42 -65 -65t-91 -23q-45 0 -84 16t-67 45t-44 70.5t-16 92.5v267h124zM423 703q0 -36 -11.5 -65.5t-31.5 -50.5t-47 -32.5t-59 -11.5q-31 0 -57.5 11.5t-46 32.5
t-30.5 50.5t-11 65.5h100q0 -19 12 -35.5t35 -16.5t34 16.5t11 35.5h102z" />
    <glyph glyph-name="Uring" unicode="&#x16e;" horiz-adv-x="565" 
d="M150 670v-408q0 -27 10.5 -51.5t28.5 -42.5t42 -28.5t51 -10.5q35 0 60.5 14t41.5 38t23.5 55t7.5 65v369h131v-408q0 -55 -20.5 -103t-56.5 -84t-84 -56.5t-103 -20.5t-103 20.5t-83 56.5t-55.5 84t-20.5 103v408h130zM241 823q0 -17 12 -29t27 -12q17 0 29 12t12 29
t-12 28.5t-29 11.5q-15 0 -27 -11.5t-12 -28.5zM409 823q0 -28 -10 -51.5t-27 -40.5t-41 -26.5t-51 -9.5q-26 0 -48.5 9.5t-39.5 26.5t-27 40.5t-10 51.5q0 26 10 49t27 40.5t39.5 27.5t48.5 10q27 0 51 -10t41 -27.5t27 -40.5t10 -49z" />
    <glyph glyph-name="uring" unicode="&#x16f;" 
d="M149 490v-239q0 -67 32 -105t90 -38q24 0 45.5 10.5t38 30.5t26.5 48.5t11 64.5v228h124v-490h-124v87q-26 -42 -65 -65t-91 -23q-45 0 -84 16t-67 45t-44 70.5t-16 92.5v267h124zM402 643q0 -28 -10 -51.5t-27 -40.5t-41 -26.5t-51 -9.5q-26 0 -48.5 9.5t-39.5 26.5
t-27 40.5t-10 51.5q0 26 10 49t27 40.5t39.5 27.5t48.5 10q27 0 51 -10t41 -27.5t27 -40.5t10 -49zM234 643q0 -17 12 -29t27 -12q17 0 29 12t12 29t-12 28.5t-29 11.5q-15 0 -27 -11.5t-12 -28.5z" />
    <glyph glyph-name="Uhungarumlaut" unicode="&#x170;" horiz-adv-x="565" 
d="M150 670v-408q0 -27 10.5 -51.5t28.5 -42.5t42 -28.5t51 -10.5q35 0 60.5 14t41.5 38t23.5 55t7.5 65v369h131v-408q0 -55 -20.5 -103t-56.5 -84t-84 -56.5t-103 -20.5t-103 20.5t-83 56.5t-55.5 84t-20.5 103v408h130zM90 847l248 91v-69l186 69v-135l-247 -92v69
l-187 -69v136z" />
    <glyph glyph-name="uhungarumlaut" unicode="&#x171;" 
d="M149 490v-239q0 -67 32 -105t90 -38q25 0 47 11t38.5 32t26 51t9.5 68v220h124v-490h-124v87q-26 -42 -65 -65t-91 -23q-45 0 -84 16t-67 45t-44 70.5t-16 92.5v267h124zM59 681l248 91v-69l186 69v-135l-247 -92v69l-187 -69v136z" />
    <glyph glyph-name="Uogonek" unicode="&#x172;" horiz-adv-x="565" 
d="M150 670v-408q0 -27 10.5 -51.5t28.5 -42.5t42 -28.5t51 -10.5q35 0 60.5 14t41.5 38t23.5 55t7.5 65v369h131v-408q0 -55 -20.5 -103t-56.5 -84t-84 -56.5t-103 -20.5h-8q-30 -2 -42.5 -16t-12.5 -32q0 -20 16 -34t37 -14q23 0 37.5 14t14.5 38h95q1 -33 -9.5 -63
t-31 -52t-50 -35t-65.5 -13q-33 0 -62.5 12.5t-51.5 34.5t-34.5 50.5t-10.5 61.5q2 22 10.5 45.5t26.5 43.5q-55 35 -88 93t-33 130v408h130z" />
    <glyph glyph-name="uogonek" unicode="&#x173;" 
d="M149 490v-239q0 -67 32 -105t90 -38q25 0 47 11t38.5 32t26 51t9.5 68v220h124v-490h-11q-30 -2 -42.5 -16t-12.5 -32q0 -20 16 -34t37 -14q23 0 37.5 14t14.5 38h95q1 -33 -9.5 -63t-31 -52t-50 -35t-65.5 -13q-33 0 -62.5 12.5t-51.5 34.5t-34.5 50.5t-10.5 61.5
q2 27 15.5 57t41.5 51v27q-26 -42 -65 -65t-91 -23q-45 0 -84 16t-67 45t-44 70.5t-16 92.5v267h124z" />
    <glyph glyph-name="Wcircumflex" unicode="&#x174;" horiz-adv-x="698" 
d="M304 670l45 -161l46 161h104l-102 -331l56 -198l152 529h134l-206 -670h-135l-52 174l-53 -174h-135l-197 670h133l152 -521l53 186l-98 335h103zM181 771l166 121l168 -121l-94 -65l-74 62l-74 -61z" />
    <glyph glyph-name="wcircumflex" unicode="&#x175;" horiz-adv-x="680" 
d="M460 490l-66 -182l49 -155l126 337h133l-177 -492h-134l-53 154l-55 -154h-134l-168 492h134l104 -314l56 162l-52 152h237zM172 591l166 121l168 -121l-94 -65l-74 62l-74 -61z" />
    <glyph glyph-name="Ycircumflex" unicode="&#x176;" horiz-adv-x="486" 
d="M123 670l118 -335l118 335h146l-197 -474v-196h-132v196l-197 474h144zM75 771l166 121l168 -121l-94 -65l-74 62l-74 -61z" />
    <glyph glyph-name="ycircumflex" unicode="&#x177;" horiz-adv-x="461" 
d="M125 490l110 -321l102 321h133l-222 -627h-125l47 134l-179 493h134zM63 591l166 121l168 -121l-94 -65l-74 62l-74 -61z" />
    <glyph glyph-name="Ydieresis" unicode="&#x178;" horiz-adv-x="486" 
d="M123 670l118 -335l118 335h146l-197 -474v-196h-132v196l-197 474h144zM76 791q0 32 22 53.5t52 21.5q32 0 54 -21.5t22 -53.5q0 -30 -22 -52t-54 -22q-30 0 -52 22t-22 52zM261 791q0 32 22 53.5t52 21.5q31 0 53 -21.5t22 -53.5q0 -30 -22 -52t-53 -22q-30 0 -52 22
t-22 52z" />
    <glyph glyph-name="Zacute" unicode="&#x179;" horiz-adv-x="502" 
d="M23 670h461l-266 -539h264v-131h-461l252 538h-250v132zM123 801l254 121v-135l-254 -69v83z" />
    <glyph glyph-name="zacute" unicode="&#x17a;" horiz-adv-x="450" 
d="M-1 492h447l-226 -369h226v-125h-443l221 368h-225v126zM97 621l254 121v-135l-254 -69v83z" />
    <glyph glyph-name="Zdotaccent" unicode="&#x17b;" horiz-adv-x="502" 
d="M23 670h461l-266 -539h264v-131h-461l252 538h-250v132zM176 804q0 32 22 54t52 22q32 0 54 -22t22 -54q0 -29 -22 -51.5t-54 -22.5q-15 0 -28.5 6t-23.5 16.5t-16 23.5t-6 28z" />
    <glyph glyph-name="zdotaccent" unicode="&#x17c;" horiz-adv-x="450" 
d="M-1 492h447l-226 -369h226v-125h-443l221 368h-225v126zM150 624q0 32 22 54t52 22q32 0 54 -22t22 -54q0 -29 -22 -51.5t-54 -22.5q-15 0 -28.5 6t-23.5 16.5t-16 23.5t-6 28z" />
    <glyph glyph-name="Zcaron" unicode="&#x17d;" horiz-adv-x="502" 
d="M23 670h461l-266 -539h264v-131h-461l252 538h-250v132zM402 838l-151 -131l-153 131l77 54l76 -67l74 67z" />
    <glyph glyph-name="zcaron" unicode="&#x17e;" horiz-adv-x="450" 
d="M-1 492h447l-226 -369h226v-125h-443l221 368h-225v126zM376 658l-151 -131l-153 131l77 54l76 -67l74 67z" />
    <glyph glyph-name="florin" unicode="&#x192;" horiz-adv-x="367" 
d="M62 492h60v-14q1 31 19 59t47.5 49t69 33t84.5 12v-124q-25 0 -45.5 -4t-34.5 -11h80v-126h-97v-389q0 -29 -19 -54t-50.5 -43t-71 -28.5t-79.5 -10.5v124q41 0 69 10.5t28 24.5v366h-60v126z" />
    <glyph glyph-name="circumflex" unicode="&#x2c6;" horiz-adv-x="384" 
d="M25 591l166 121l168 -121l-94 -65l-74 62l-74 -61z" />
    <glyph glyph-name="caron" unicode="&#x2c7;" horiz-adv-x="384" 
d="M344 658l-151 -131l-153 131l77 54l76 -67l74 67z" />
    <glyph glyph-name="breve" unicode="&#x2d8;" horiz-adv-x="344" 
d="M319 703q0 -36 -11.5 -65.5t-31.5 -50.5t-47 -32.5t-59 -11.5q-31 0 -57.5 11.5t-46 32.5t-30.5 50.5t-11 65.5h100q0 -19 12 -35.5t35 -16.5t34 16.5t11 35.5h102z" />
    <glyph glyph-name="dotaccent" unicode="&#x2d9;" horiz-adv-x="180" 
d="M12 624q0 32 22 54t52 22q32 0 54 -22t22 -54q0 -29 -22 -51.5t-54 -22.5q-15 0 -28.5 6t-23.5 16.5t-16 23.5t-6 28z" />
    <glyph glyph-name="ring" unicode="&#x2da;" horiz-adv-x="303" 
d="M112 643q0 -17 12 -29t27 -12q17 0 29 12t12 29t-12 28.5t-29 11.5q-15 0 -27 -11.5t-12 -28.5zM280 643q0 -28 -10 -51.5t-27 -40.5t-41 -26.5t-51 -9.5q-26 0 -48.5 9.5t-39.5 26.5t-27 40.5t-10 51.5q0 26 10 49t27 40.5t39.5 27.5t48.5 10q27 0 51 -10t41 -27.5
t27 -40.5t10 -49z" />
    <glyph glyph-name="ogonek" unicode="&#x2db;" horiz-adv-x="365" 
d="M202 -2q-34 0 -48 -14.5t-14 -33.5q0 -20 16 -34t37 -14q23 0 37.5 14t14.5 38h95q1 -33 -9.5 -63t-31 -52t-50 -35t-65.5 -13q-33 0 -62.5 12.5t-51.5 34.5t-34.5 50.5t-10.5 61.5q1 24 12 50t32.5 47t54.5 32t78 5v-86z" />
    <glyph glyph-name="tilde" unicode="&#x2dc;" horiz-adv-x="334" 
d="M8 532q-14 41 -14.5 75t8.5 58t26.5 37t39.5 13q21 0 41 -9t38.5 -20.5t35.5 -20.5t32 -9q12 0 18 15t-11 44h94q18 -50 18 -84.5t-11 -56t-29.5 -31.5t-37.5 -10q-20 0 -39.5 8t-37.5 17.5t-34 17.5t-30 8q-13 0 -18 -14t5 -38h-94z" />
    <glyph glyph-name="hungarumlaut" unicode="&#x2dd;" horiz-adv-x="477" 
d="M33 681l248 91v-69l186 69v-135l-247 -92v69l-187 -69v136z" />
    <glyph glyph-name="uni1E02" unicode="&#x1e02;" horiz-adv-x="518" 
d="M371 546q0 -29 -13 -49t-36 -31q46 -8 79 -29.5t54 -50.5t31 -61.5t10 -62.5q0 -55 -20.5 -103t-56 -83t-83.5 -55.5t-103 -20.5h-216v670h216q29 0 54.5 -9t44 -25t29 -39t10.5 -51zM147 396v-265h86q27 0 51 10t42 27.5t28.5 41.5t10.5 52q0 27 -8.5 51.5t-26.5 43
t-44.5 29t-62.5 10.5h-76zM265 528q0 15 -9.5 25.5t-26.5 10.5h-81v-71h83q16 0 25 10.5t9 24.5zM105 784q0 32 22 54t52 22q32 0 54 -22t22 -54q0 -29 -22 -51.5t-54 -22.5q-15 0 -28.5 6t-23.5 16.5t-16 23.5t-6 28z" />
    <glyph glyph-name="uni1E03" unicode="&#x1e03;" horiz-adv-x="547" 
d="M149 629v-206q28 32 65.5 50.5t82.5 18.5q46 0 86 -19.5t69.5 -53t46.5 -78.5t17 -97q0 -51 -17 -96t-46.5 -78t-69.5 -52.5t-86 -19.5q-45 0 -82.5 18t-65.5 50v-66h-124v629h124zM392 244q0 25 -9.5 47.5t-26 39t-38.5 26t-47 9.5t-47 -9.5t-38.5 -25t-26 -37
t-10.5 -45.5v-5q0 -25 9.5 -47t26 -38.5t38.5 -26t48 -9.5q25 0 47 9.5t38.5 26t26 38.5t9.5 47zM198 717q0 32 22 54t52 22q32 0 54 -22t22 -54q0 -29 -22 -51.5t-54 -22.5q-15 0 -28.5 6t-23.5 16.5t-16 23.5t-6 28z" />
    <glyph glyph-name="uni1E0A" unicode="&#x1e0a;" horiz-adv-x="561" 
d="M161 538v-407h45q42 0 79.5 15.5t65.5 43t44 64.5t16 80t-16 80t-44 64.5t-65.5 43.5t-79.5 16h-45zM206 670q70 0 131 -26t106.5 -71.5t72 -107t26.5 -131.5t-26.5 -131t-72 -106t-106.5 -71t-131 -26h-176v670h176zM173 801q0 32 22 54t52 22q32 0 54 -22t22 -54
q0 -29 -22 -51.5t-54 -22.5q-15 0 -28.5 6t-23.5 16.5t-16 23.5t-6 28z" />
    <glyph glyph-name="uni1E0B" unicode="&#x1e0b;" horiz-adv-x="547" 
d="M21 244q0 52 17 97t46.5 78.5t69.5 53t86 19.5q45 0 82 -18t65 -50v205h125v-629h-125v65q-28 -32 -65 -49.5t-82 -17.5q-46 0 -86 19.5t-69.5 52.5t-46.5 78t-17 96zM146 244q0 -25 9 -47t25.5 -38.5t38 -26t47.5 -9.5q23 0 44 8t37 22.5t26.5 33.5t13.5 42v30
q-3 22 -13.5 42t-26.5 34t-37 22.5t-44 8.5q-26 0 -47.5 -9.5t-38 -26t-25.5 -39t-9 -47.5zM198 697q0 32 22 54t52 22q32 0 54 -22t22 -54q0 -29 -22 -51.5t-54 -22.5q-15 0 -28.5 6t-23.5 16.5t-16 23.5t-6 28z" />
    <glyph glyph-name="uni1E1E" unicode="&#x1e1e;" horiz-adv-x="389" 
d="M25 0v670h459v-132h-328v-213h202v-128h-202v-197h-131zM164 804q0 32 22 54t52 22q32 0 54 -22t22 -54q0 -29 -22 -51.5t-54 -22.5q-15 0 -28.5 6t-23.5 16.5t-16 23.5t-6 28z" />
    <glyph glyph-name="uni1E1F" unicode="&#x1e1f;" horiz-adv-x="186" 
d="M-5 492h32v2q0 34 9 65.5t29.5 54.5t54.5 34t84 5v-93q-25 2 -39 -11.5t-14 -37.5v-19h56v-103h-56v-389h-124v389h-32v103zM33 765q0 32 22 54t52 22q32 0 54 -22t22 -54q0 -29 -22 -51.5t-54 -22.5q-15 0 -28.5 6t-23.5 16.5t-16 23.5t-6 28z" />
    <glyph glyph-name="uni1E40" unicode="&#x1e40;" horiz-adv-x="670" 
d="M269 0l-129 423v-423h-115v670h143l164 -499l172 499h141v-670h-121v422l-125 -422h-130zM260 762q0 32 22 54t52 22q32 0 54 -22t22 -54q0 -29 -22 -51.5t-54 -22.5q-15 0 -28.5 6t-23.5 16.5t-16 23.5t-6 28z" />
    <glyph glyph-name="uni1E41" unicode="&#x1e41;" horiz-adv-x="680" 
d="M158 490v-44q40 46 101 46q42 0 71 -18t47 -49q20 32 50 49.5t72 17.5q35 0 63 -14t48 -38.5t30.5 -57t10.5 -69.5v-313h-125v313q0 18 -7.5 31t-19 20.5t-25 9t-26.5 -3.5q-17 -5 -29.5 -22t-14.5 -58v-290h-125v313q0 17 -7 30.5t-18.5 21t-25 9.5t-25.5 -4
q-17 -5 -30.5 -21.5t-14.5 -57.5v-291h-125v490h125zM265 624q0 32 22 54t52 22q32 0 54 -22t22 -54q0 -29 -22 -51.5t-54 -22.5q-15 0 -28.5 6t-23.5 16.5t-16 23.5t-6 28z" />
    <glyph glyph-name="uni1E56" unicode="&#x1e56;" horiz-adv-x="501" 
d="M17 0v670h216q55 0 103 -20.5t84 -56.5t56.5 -84.5t20.5 -103.5q0 -54 -20.5 -101.5t-56.5 -83t-84 -56t-103 -20.5h-86v-144h-130zM147 274h86q27 0 51.5 10.5t42.5 28.5t28.5 41.5t10.5 50.5q0 28 -10.5 52.5t-28.5 42.5t-42.5 28t-51.5 10h-86v-264zM154 806
q0 32 22 54t52 22q32 0 54 -22t22 -54q0 -29 -22 -51.5t-54 -22.5q-15 0 -28.5 6t-23.5 16.5t-16 23.5t-6 28z" />
    <glyph glyph-name="uni1E57" unicode="&#x1e57;" horiz-adv-x="547" 
d="M516 244q0 -51 -17 -96t-46.5 -78t-69.5 -52.5t-86 -19.5q-45 0 -82.5 18t-65.5 50v-199h-124v623h124v-67q28 32 65.5 50.5t82.5 18.5q46 0 86 -19.5t69.5 -53t46.5 -78.5t17 -97zM392 244q0 25 -9.5 47.5t-26 39t-38.5 26t-47 9.5t-47 -9.5t-38.5 -25t-26 -37
t-10.5 -45.5v-5q0 -25 9.5 -47t26 -38.5t38.5 -26t48 -9.5q25 0 47 9.5t38.5 26t26 38.5t9.5 47zM198 618q0 32 22 54t52 22q32 0 54 -22t22 -54q0 -29 -22 -51.5t-54 -22.5q-15 0 -28.5 6t-23.5 16.5t-16 23.5t-6 28z" />
    <glyph glyph-name="uni1E60" unicode="&#x1e60;" horiz-adv-x="544" 
d="M176 348q-17 -16 -26.5 -38t-9.5 -47q0 -28 10.5 -52t28.5 -42t42.5 -28t52.5 -10q27 0 51.5 10t42.5 28t28.5 42t10.5 52q0 29 -11.5 49t-30.5 33.5t-43 21t-48 11.5q-75 11 -114.5 53.5t-37.5 102.5q0 28 11 53t30 43.5t45.5 29t59.5 10.5t58 -9t43 -24t29 -35t17 -41
l-94 -38q-3 17 -16 26.5t-28 9.5q-18 0 -29 -10.5t-10 -25.5q3 -31 62 -39q49 -6 92.5 -22t75.5 -44t51 -67t19 -91q0 -55 -20.5 -102.5t-56.5 -82.5t-84 -55t-103 -20t-103 20.5t-84 56t-56.5 83.5t-20.5 103q0 53 21.5 98.5t56.5 75.5zM197 804q0 32 22 54t52 22
q32 0 54 -22t22 -54q0 -29 -22 -51.5t-54 -22.5q-15 0 -28.5 6t-23.5 16.5t-16 23.5t-6 28z" />
    <glyph glyph-name="uni1E61" unicode="&#x1e61;" horiz-adv-x="330" 
d="M223 341q0 21 -10.5 35.5t-26.5 14.5t-26 -13.5t-10 -33.5q0 -22 21 -33t59 -22q53 -13 79.5 -45.5t26.5 -91.5q0 -32 -11.5 -60t-32.5 -49t-49 -33t-61 -12q-31 0 -59 10.5t-49 30t-33 47.5t-12 62h124q0 -21 11.5 -33t26.5 -12q14 0 25 12.5t11 31.5q0 13 -6.5 21.5
t-18.5 14.5t-28 9.5t-34 8.5q-48 12 -79.5 47t-31.5 92q0 33 11 61t31.5 48t48.5 31.5t62 11.5q72 0 113 -39.5t41 -111.5h-113zM112 624q0 32 22 54t52 22q32 0 54 -22t22 -54q0 -29 -22 -51.5t-54 -22.5q-15 0 -28.5 6t-23.5 16.5t-16 23.5t-6 28z" />
    <glyph glyph-name="uni1E6A" unicode="&#x1e6a;" horiz-adv-x="401" 
d="M138 0v538h-154v132h438v-132h-154v-538h-130zM125 804q0 32 22 54t52 22q32 0 54 -22t22 -54q0 -29 -22 -51.5t-54 -22.5q-15 0 -28.5 6t-23.5 16.5t-16 23.5t-6 28z" />
    <glyph glyph-name="uni1E6B" unicode="&#x1e6b;" horiz-adv-x="193" 
d="M-13 492h31v137h125v-137h68v-103h-68v-229q0 -52 54 -52v-110q-94 0 -136.5 39t-42.5 123v229h-31v103zM12 735q0 32 22 54t52 22q32 0 54 -22t22 -54q0 -29 -22 -51.5t-54 -22.5q-15 0 -28.5 6t-23.5 16.5t-16 23.5t-6 28z" />
    <glyph glyph-name="Wgrave" unicode="&#x1e80;" horiz-adv-x="698" 
d="M304 670l45 -161l46 161h104l-102 -331l56 -198l152 529h134l-206 -670h-135l-52 174l-53 -174h-135l-197 670h133l152 -521l53 186l-98 335h103zM476 713l-255 82v135l255 -126v-91z" />
    <glyph glyph-name="wgrave" unicode="&#x1e81;" horiz-adv-x="680" 
d="M460 490l-66 -182l49 -155l126 337h133l-177 -492h-134l-53 154l-55 -154h-134l-168 492h134l104 -314l56 162l-52 152h237zM451 533l-255 82v135l255 -126v-91z" />
    <glyph glyph-name="Wacute" unicode="&#x1e82;" horiz-adv-x="698" 
d="M304 670l45 -161l46 161h104l-102 -331l56 -198l152 529h134l-206 -670h-135l-52 174l-53 -174h-135l-197 670h133l152 -521l53 186l-98 335h103zM221 801l254 121v-135l-254 -69v83z" />
    <glyph glyph-name="wacute" unicode="&#x1e83;" horiz-adv-x="680" 
d="M460 490l-66 -182l49 -155l126 337h133l-177 -492h-134l-53 154l-55 -154h-134l-168 492h134l104 -314l56 162l-52 152h237zM212 621l254 121v-135l-254 -69v83z" />
    <glyph glyph-name="Wdieresis" unicode="&#x1e84;" horiz-adv-x="698" 
d="M304 670l45 -161l46 161h104l-102 -331l56 -198l152 529h134l-206 -670h-135l-52 174l-53 -174h-135l-197 670h133l152 -521l53 186l-98 335h103zM182 791q0 32 22 53.5t52 21.5q32 0 54 -21.5t22 -53.5q0 -30 -22 -52t-54 -22q-30 0 -52 22t-22 52zM367 791
q0 32 22 53.5t52 21.5q31 0 53 -21.5t22 -53.5q0 -30 -22 -52t-53 -22q-30 0 -52 22t-22 52z" />
    <glyph glyph-name="wdieresis" unicode="&#x1e85;" horiz-adv-x="680" 
d="M460 490l-66 -182l49 -155l126 337h133l-177 -492h-134l-53 154l-55 -154h-134l-168 492h134l104 -314l56 162l-52 152h237zM173 611q0 32 22 53.5t52 21.5q32 0 54 -21.5t22 -53.5q0 -30 -22 -52t-54 -22q-30 0 -52 22t-22 52zM358 611q0 32 22 53.5t52 21.5
q31 0 53 -21.5t22 -53.5q0 -30 -22 -52t-53 -22q-30 0 -52 22t-22 52z" />
    <glyph glyph-name="Ygrave" unicode="&#x1ef2;" horiz-adv-x="486" 
d="M123 670l118 -335l118 335h146l-197 -474v-196h-132v196l-197 474h144zM370 705l-255 82v135l255 -126v-91z" />
    <glyph glyph-name="ygrave" unicode="&#x1ef3;" horiz-adv-x="461" 
d="M125 490l110 -321l102 321h133l-222 -627h-125l47 134l-179 493h134zM357 533l-255 82v135l255 -126v-91z" />
    <glyph glyph-name="endash" unicode="&#x2013;" horiz-adv-x="576" 
d="M25 337h526v-132h-526v132z" />
    <glyph glyph-name="emdash" unicode="&#x2014;" horiz-adv-x="818" 
d="M25 337h768v-132h-768v132z" />
    <glyph glyph-name="quoteleft" unicode="&#x2018;" horiz-adv-x="180" 
d="M155 637v-229h-130v229h130z" />
    <glyph glyph-name="quoteright" unicode="&#x2019;" horiz-adv-x="180" 
d="M155 637v-229h-130v229h130z" />
    <glyph glyph-name="quotesinglbase" unicode="&#x201a;" horiz-adv-x="180" 
d="M155 175v-228h-130v228h130z" />
    <glyph glyph-name="quotedblleft" unicode="&#x201c;" horiz-adv-x="359" 
d="M155 637v-229h-130v229h130zM327 637v-229h-131v229h131z" />
    <glyph glyph-name="quotedblright" unicode="&#x201d;" horiz-adv-x="354" 
d="M155 637v-229h-130v229h130zM327 637v-229h-131v229h131z" />
    <glyph glyph-name="quotedblbase" unicode="&#x201e;" horiz-adv-x="341" 
d="M155 175v-228h-130v228h130zM313 175v-228h-132v228h132z" />
    <glyph glyph-name="dagger" unicode="&#x2020;" horiz-adv-x="414" 
d="M25 604h117v127h129v-127h118v-132h-118v-641h-129v641h-117v132z" />
    <glyph glyph-name="daggerdbl" unicode="&#x2021;" horiz-adv-x="414" 
d="M25 604h117v127h129v-127h118v-132h-118v-396h118v-129h-118v-116h-129v116h-117v129h117v396h-117v132z" />
    <glyph glyph-name="bullet" unicode="&#x2022;" horiz-adv-x="303" 
d="M278 264q0 -28 -9.5 -52t-27 -41.5t-40.5 -27.5t-50 -10t-50 10t-40 27.5t-26.5 41.5t-9.5 52q0 26 9.5 48.5t26.5 39.5t40 27t50 10t50 -10t40.5 -27t27 -39.5t9.5 -48.5z" />
    <glyph glyph-name="ellipsis" unicode="&#x2026;" horiz-adv-x="636" 
d="M32 74q0 31 22 53t52 22q32 0 54 -22t22 -53q0 -30 -22 -52t-54 -22q-30 0 -52 22t-22 52zM240 74q0 31 22 53t52 22q32 0 53.5 -22t21.5 -53q0 -30 -21.5 -52t-53.5 -22q-30 0 -52 22t-22 52zM447 74q0 31 22 53t52 22q31 0 53.5 -22t22.5 -53q0 -30 -22.5 -52
t-53.5 -22q-30 0 -52 22t-22 52z" />
    <glyph glyph-name="perthousand" unicode="&#x2030;" horiz-adv-x="756" 
d="M-8 58l203 270q-15 -3 -30 -3q-32 0 -60 12t-49 33t-33 49t-12 61t12 61t33 49t49 33t60 12q31 0 58 -11t47.5 -29.5t33.5 -44.5t16 -56l117 155l94 -94l-191 -255q8 2 16 3t17 1q30 0 56.5 -10t46.5 -27q20 17 46.5 27t56.5 10q33 0 61 -11.5t49 -32t33 -48.5t12 -61
t-12 -61t-33 -49t-49 -32.5t-61 -11.5q-61 0 -103 37q-42 -37 -103 -37q-31 0 -58.5 11t-48 30t-33 45t-14.5 57l-133 -177zM123 480q0 -20 14 -29.5t28 -9.5q18 0 33 9.5t15 29.5q0 17 -15 28.5t-33 11.5q-14 0 -28 -11.5t-14 -28.5zM323 149q0 -20 14.5 -29.5t28.5 -9.5
q17 0 32.5 9.5t15.5 29.5q0 17 -15.5 28t-32.5 11q-14 0 -28.5 -11t-14.5 -28zM529 149q0 -20 14.5 -29.5t28.5 -9.5q17 0 32 9.5t15 29.5q0 17 -15 28t-32 11q-14 0 -28.5 -11t-14.5 -28z" />
    <glyph glyph-name="guilsinglleft" unicode="&#x2039;" horiz-adv-x="351" 
d="M232 59l-207 211l209 210l92 -91l-117 -119l117 -117z" />
    <glyph glyph-name="guilsinglright" unicode="&#x203a;" horiz-adv-x="355" 
d="M117 480l213 -208l-213 -211l-92 92l120 117l-120 119z" />
    <glyph glyph-name="fraction" unicode="&#x2044;" horiz-adv-x="458" 
d="M-40 58l445 591l94 -94l-445 -592z" />
    <glyph glyph-name="Euro" unicode="&#x20ac;" horiz-adv-x="714" 
d="M579 418q-47 68 -96 95t-101 27q-51 0 -94 -23t-71 -61h172v-101h-211q-1 -5 -1 -10.5v-10.5v-18h212v-101h-174q29 -39 72.5 -62.5t94.5 -23.5q52 0 101 27.5t96 95.5l95 -97q-59 -83 -131.5 -120t-160.5 -37q-54 0 -103 16t-90 45t-72 68.5t-49 87.5h-43v101h22v18
v10.5t1 10.5h-23v101h44q18 48 49 87.5t71.5 68t89.5 44.5t103 16q88 0 160.5 -37t131.5 -121z" />
    <glyph glyph-name="trademark" unicode="&#x2122;" horiz-adv-x="947" 
d="M138 300v238h-154v132h559l94 -255l88 255h182v-370h-121v219l-97 -219h-119l-90 221v-221h-108v238h-104v-238h-130z" />
    <glyph glyph-name="minus" unicode="&#x2212;" horiz-adv-x="414" 
d="M25 337h364v-132h-364v132z" />
    </font>
</defs>
</svg>
