<?xml version="1.0" standalone="no"?>
<!DOCTYPE svg PUBLIC "-//W3C//DTD SVG 1.1//EN" "http://www.w3.org/Graphics/SVG/1.1/DTD/svg11.dtd" >
<svg xmlns="http://www.w3.org/2000/svg" xmlns:xlink="http://www.w3.org/1999/xlink" version="1.1">
<metadata>
Created by FontForge 20170731 at Mon Jun 27 14:14:42 2016
 By Aleksey,,,
Copyright (c) 2016 by MA^ns Grebck. All rights reserved.
</metadata>
<defs>
<font id="BunyaPERSONAL-Regular" horiz-adv-x="552" >
  <font-face 
    font-family="Bunya PERSONAL"
    font-weight="400"
    font-stretch="normal"
    units-per-em="1000"
    panose-1="0 0 0 0 0 0 0 0 0 0"
    ascent="800"
    descent="-200"
    x-height="490"
    cap-height="670"
    bbox="-75 -320 1215.45 928"
    underline-thickness="50"
    underline-position="-150"
    unicode-range="U+000D-FB02"
  />
<missing-glyph horiz-adv-x="207" 
 />
    <glyph glyph-name="f_f" unicode="ff" horiz-adv-x="392" 
d="M0 492h48v19q0 32 9.5 61t29 50t50 32t73.5 7v-63q-35 2 -56.5 -20t-21.5 -55v-31h112v19q0 32 9.5 61t29 50t50 32t73.5 7v-63q-35 2 -56.5 -20t-21.5 -55v-31h81v-70h-81v-422h-84v422h-112v-422h-84v422h-48v70z" />
    <glyph glyph-name="fi" unicode="fi" horiz-adv-x="323" 
d="M-3 492h48v19q0 73 40 113t115 38q7 13 19.5 20.5t26.5 7.5q23 0 38.5 -15.5t15.5 -38.5q0 -21 -15.5 -37t-38.5 -16q-22 0 -38 16q-18 0 -32.5 -6t-25 -16.5t-16 -24.5t-5.5 -29v-31h78v-1h82v-491h-84v422h-76v-422h-84v422h-48v70z" />
    <glyph glyph-name="fl" unicode="fl" horiz-adv-x="354" 
d="M-3 492h48v19q0 32 9.5 61t29 50t50 32t73.5 7v-63q-35 2 -56.5 -20t-21.5 -55v-31h80v-70h-80v-422h-84v422h-48v70zM324 644v-644h-84v644h84z" />
    <glyph glyph-name="f_t" unicode="ft" horiz-adv-x="398" 
d="M207 598q-35 2 -56.5 -20t-21.5 -55v-31h112v152h85v-152h79v-70h-79v-271q0 -35 22 -56.5t57 -21.5v-75q-81 0 -122.5 39t-41.5 114v271h-112v-422h-84v422h-48v70h48v32q0 32 9.5 59t29 45.5t50 27.5t73.5 5v-63z" />
    <glyph glyph-name="t_f" unicode="tf" horiz-adv-x="401" 
d="M0 492h46v152h85v-152h122v19q0 32 9.5 61t29 50t50 32t73.5 7v-63q-35 2 -56.5 -20t-21.5 -55v-31h80v-70h-80v-422h-84v422h-122v-271q0 -35 22 -56.5t57 -21.5v-75q-81 0 -122.5 39t-41.5 114v271h-46v70z" />
    <glyph glyph-name="t_t" unicode="tt" horiz-adv-x="410" 
d="M415 -2q-81 0 -122.5 39t-41.5 114v271h-120v-271q0 -35 22 -56.5t57 -21.5v-75q-81 0 -122.5 39t-41.5 114v271h-46v70h46v152h85v-152h120v152h85v-152h89v-70h-89v-271q0 -35 22 -56.5t57 -21.5v-75z" />
    <glyph glyph-name=".notdef" horiz-adv-x="207" 
 />
    <glyph glyph-name=".null" horiz-adv-x="0" 
 />
    <glyph glyph-name="nonmarkingreturn" unicode="&#xd;" horiz-adv-x="207" 
 />
    <glyph glyph-name="NULL" horiz-adv-x="0" 
 />
    <glyph glyph-name="NULL" horiz-adv-x="0" 
 />
    <glyph glyph-name="space" unicode=" " horiz-adv-x="207" 
 />
    <glyph glyph-name="exclam" unicode="!" horiz-adv-x="156" 
d="M34 187v483h88v-483h-88zM27 53q0 22 15.5 37.5t37.5 15.5q23 0 38.5 -15.5t15.5 -37.5t-15.5 -37.5t-38.5 -15.5q-22 0 -37.5 15.5t-15.5 37.5z" />
    <glyph glyph-name="quotedbl" unicode="&#x22;" horiz-adv-x="235" 
d="M97 634v-194h-73v194h73zM213 634v-194h-73v194h73z" />
    <glyph glyph-name="numbersign" unicode="#" horiz-adv-x="341" 
d="M5 384h40v37h69v-37h111v37h69v-37h41v-73h-41v-107h41v-73h-41v-40h-69v40h-111v-40h-69v40h-40v73h40v107h-40v73zM114 204h111v107h-111v-107z" />
    <glyph glyph-name="dollar" unicode="$" horiz-adv-x="544" 
d="M152 371q-23 -21 -36 -51t-13 -63q0 -35 13.5 -65.5t36.5 -53.5t54 -36.5t66 -13.5t66 13.5t54 36.5t36.5 53.5t13.5 65.5q0 38 -15.5 64.5t-39.5 44t-53 27.5t-56 15q-69 12 -104 49.5t-34 91.5q1 39 24 70.5t61 43.5v64h88v-64q36 -11 56.5 -37.5t27.5 -58.5l-64 -25
q-2 23 -19.5 37.5t-39.5 14.5q-23 0 -39.5 -15.5t-15.5 -37.5q2 -47 76 -61q48 -7 90.5 -24t75 -44.5t51 -66.5t18.5 -90q0 -48 -16.5 -91t-46 -76.5t-69 -55.5t-85.5 -29v-62h-88v63q-45 8 -84 30.5t-67 56t-44 76t-16 90.5q0 53 21 98t56 77z" />
    <glyph glyph-name="percent" unicode="%" horiz-adv-x="538" 
d="M91 491q0 -28 20.5 -45t44.5 -17q26 0 47 17t21 45q0 27 -21 45t-47 18q-24 0 -44.5 -18.5t-20.5 -44.5zM298 491q0 -29 -11 -54.5t-30.5 -44.5t-45 -30t-55.5 -11q-29 0 -55 11t-45 30t-30 44.5t-11 54.5q0 30 11 56t30 44.5t45 29.5t55 11q30 0 55.5 -11t45 -29.5
t30.5 -44.5t11 -56zM521 136q0 -30 -11 -55.5t-30 -44.5t-44.5 -29.5t-55.5 -10.5t-55.5 10.5t-44.5 29.5t-30 44.5t-11 55.5t11 56t30 44.5t44.5 29t55.5 10.5t55.5 -10.5t44.5 -29t30 -44.5t11 -56zM4 39l447 595l64 -64l-447 -596zM310 135q0 -28 20.5 -45t44.5 -17
q26 0 47 17t21 45q0 26 -21 44.5t-47 18.5q-24 0 -44.5 -18.5t-20.5 -44.5z" />
    <glyph glyph-name="ampersand" unicode="&#x26;" horiz-adv-x="568" 
d="M257 86q35 0 65.5 13.5t53.5 37t36.5 54.5t13.5 67v168h-162q-39 0 -71.5 -14t-56 -37t-36 -53.5t-12.5 -63.5q0 -36 13.5 -67t36.5 -54.5t53.5 -37t65.5 -13.5zM593 489v-63h-79v-168q0 -55 -20 -102.5t-54.5 -82.5t-81.5 -55t-101 -20t-101 20t-82 55t-55 82.5
t-20 102.5q0 38 13 75t37 67.5t58 53t76 32.5q-29 7 -43 35.5t-5 62.5q10 39 45.5 63t89.5 24q36 0 61 -12t39.5 -31t18 -43t-3.5 -48h-65q2 25 -14 43.5t-40 18.5q-25 0 -41 -16t-16 -38q0 -25 17.5 -40.5t39.5 -15.5h327z" />
    <glyph glyph-name="quotesingle" unicode="'" horiz-adv-x="138" 
d="M113 634v-194h-88v194h88z" />
    <glyph glyph-name="parenleft" unicode="(" horiz-adv-x="272" 
d="M247 583q-27 0 -51.5 -5t-43 -16t-29 -28.5t-10.5 -42.5v-487q0 -24 10.5 -41.5t28.5 -29t42.5 -16.5t52.5 -5v-89q-103 0 -162.5 42.5t-59.5 138.5v487q0 96 59.5 138.5t162.5 42.5v-89z" />
    <glyph glyph-name="parenright" unicode=")" horiz-adv-x="271" 
d="M25 672q103 0 162.5 -42.5t59.5 -138.5v-487q0 -96 -59.5 -138.5t-162.5 -42.5v89q28 0 52.5 5t42.5 16.5t28.5 29t10.5 41.5v487q0 25 -10.5 42.5t-29 28.5t-43 16t-51.5 5v89z" />
    <glyph glyph-name="asterisk" unicode="*" horiz-adv-x="345" 
d="M64 579l75 -49v87h68v-86l75 48l28 -64l-74 -48l74 -47l-28 -64l-75 48v-86h-68v86l-75 -48l-30 64l74 47l-74 48z" />
    <glyph glyph-name="plus" unicode="+" horiz-adv-x="341" 
d="M25 310h99v101h90v-101h102v-89h-102v-101h-90v101h-99v89z" />
    <glyph glyph-name="comma" unicode="," horiz-adv-x="138" 
d="M113 100v-195h-88v195h88z" />
    <glyph glyph-name="hyphen" unicode="-" horiz-adv-x="341" 
d="M25 310h291v-89h-291v89z" />
    <glyph glyph-name="period" unicode="." horiz-adv-x="138" 
d="M13 53q0 22 16 37.5t37 15.5q23 0 38.5 -15.5t15.5 -37.5t-15.5 -37.5t-38.5 -15.5q-21 0 -37 15.5t-16 37.5z" />
    <glyph glyph-name="slash" unicode="/" horiz-adv-x="475" 
d="M-18 39l447 595l64 -64l-447 -596z" />
    <glyph glyph-name="zero" unicode="0" horiz-adv-x="1272" 
d="M358 203h42q5 -51 8.5 -101.5t5.5 -101.5q3 38 5.5 77t7.5 77l6 49h39q5 -42 9 -83t7 -83l3 -37q3 41 4.5 80.5t5.5 78.5q2 11 2.5 22t1.5 22h30l-20 -244h-46q-5 48 -9.5 96.5t-6.5 97.5q-2 -36 -5 -72.5t-7 -72.5l-4 -49h-47l-11 137l-12 -137h-45q-5 48 -10 96.5
t-7 97.5q-2 -36 -4.5 -72.5t-6.5 -72.5l-5 -49h-46l-12 140l-11 -140h-46q-5 48 -9.5 96t-6.5 97q-1 -37 -4 -72.5t-7 -71.5l-6 -49h-45l-21 244h30q5 -51 8.5 -101.5t5.5 -101.5q3 38 5.5 77t7.5 77l6 49h39q5 -42 9 -83t7 -83l3 -37q3 41 4.5 80.5t5.5 78.5l5 44h41
q5 -51 8.5 -101.5t6.5 -101.5q3 38 5.5 77t6.5 77q2 12 3 24t3 25h40q5 -42 8.5 -83t7.5 -83l2 -37q3 41 5 80.5t6 78.5zM1204 731h-1130v22h1130v-22zM1204 -197h-1130v22h1130v-22zM740 -41h-35v244h36q11 0 22 0.5t21 -4.5q17 -8 22 -27.5t5 -36.5v-19t-2.5 -22t-7.5 -20
t-14 -12l30 -103h-39l-21 97h-17v-97zM983 13v-54h-33v244h32q12 -43 24.5 -85t22.5 -86q-4 43 -4.5 85.5t-0.5 85.5h32v-244h-33q-12 42 -24.5 83.5t-21.5 83.5q2 -29 3 -56.5t3 -56.5zM606 -41h-33l29 244h57l30 -244h-35l-7 58h-33zM1153 112q1 11 0 23.5t-5 23.5
q-3 8 -10.5 13t-14.5 -5q-6 -8 -7 -20.5t-2 -23.5q-1 -12 -1 -23.5v-22.5v-23t2 -23q0 -9 2 -22t11 -18q10 -6 16 1.5t8 20t2.5 25t0.5 17.5h-25v28h58v-123h-26l-1 33q-2 -11 -7.5 -22t-16.5 -14t-22 2t-18 13q-14 17 -16 42t-2 45q-2 26 -1 52.5t8 50.5q2 11 7 21t15 15
q10 6 22 7t23 -3q12 -5 19 -15t10 -22.5t4 -25.5t1 -24zM224 327q5 8 12 14t16 8q8 2 16 -1.5t17 -0.5l-18 -34q-2 -3 -5.5 -10t0.5 -9q5 -4 11 2t11 13q2 5 5 10l6 10l8 18q8 0 15 4l-19 -38q-2 -3 -5 -9.5t1 -9.5q4 -4 10 1.5t10 12.5q4 9 9.5 19t9.5 19q5 9 9 18t9 18
q8 -2 14 3l-27 -55q-2 -5 -4.5 -10t-4.5 -10t-4 -12.5t6 -3.5q5 2 9.5 7t8.5 11q3 8 8 15q5 8 12 14t16 8t17 -1.5t17 -0.5q-5 -8 -9 -16.5t-9 -17.5q-2 -3 -5 -10t0 -9q3 -3 6.5 -1t7 5.5t6.5 8l5 7.5l1 2l32 66q8 0 13 3q-5 -12 -10 -23.5t-13 -22.5q7 7 16.5 11.5
t16.5 -6.5q6 -10 0.5 -23t-12.5 -21q6 -1 11 2t10 7q4 9 9 18.5t10 18.5l18 36q7 -2 13 3q-7 -14 -13 -27.5t-14 -27.5q-2 -5 -4.5 -10t-5.5 -10q-1 -2 -2 -5.5t-1 -6.5t1 -4.5t6 0.5t10.5 8t8.5 12q3 13 12 22q3 3 9.5 7.5t14 6.5t13.5 0.5t8 -10.5q1 -8 -3.5 -15
t-12 -11.5t-16.5 -7t-15 -2.5q-1 -6 3 -9.5t10 -3.5q13 0 24 7t17 18l4 -2q-8 -14 -23 -22.5t-31 -5.5t-16 18q-4 -5 -8 -9.5t-9 -6.5q-7 -4 -14.5 -1.5t-5.5 12.5v2q-2 -2 -4 -2q-4 -3 -12 -3h-7q-2 0 -3 -2t-3 -2q-10 -6 -21.5 -5t-17.5 11q-7 -9 -17 -12q-9 -2 -12.5 3
t-0.5 13q-5 -7 -13.5 -13.5t-17.5 -0.5q-7 4 -7 14q-6 -9 -14 -14q-8 -4 -15 -1.5t-6 10.5q-7 -7 -11 -9q-8 -4 -15.5 -1.5t-5.5 11.5q-4 -4 -8 -7t-9 -5q-9 -2 -12.5 3t0.5 13h-1q-5 -7 -13.5 -13.5t-17.5 -0.5q-5 2 -6 6.5t0 9.5q-5 -5 -10 -6q-4 -2 -13 -2q-5 0 -6 -1
t-4 -3q-5 -3 -11.5 -5t-11.5 -1t-8 5.5t-1 12.5q2 11 8 22t11 21q5 0 13 4q-3 -8 -6 -15t-7 -14q-1 -3 -4 -7.5t-5 -9.5t-2 -9t4 -5q9 -2 17 8t11 15q5 8 8 17.5t3 18.5q9 2 10 -5t-1 -13q-4 -16 -18 -31q8 -2 15 3t11 12zM943 446q-11 0 -17.5 5t-9.5 13t-4.5 17.5
t-1.5 17.5q-2 19 -2 39.5t6 39.5q3 8 8.5 14.5t14.5 7.5q20 5 31 -13q9 -17 9 -37.5v-38.5q0 -9 -0.5 -20.5t-4 -21t-10.5 -16.5t-19 -7zM389 446q-11 0 -17.5 5t-10 13t-4.5 17.5t-2 17.5q-1 19 -1 39.5t6 39.5q3 8 8 14.5t15 7.5q21 5 31 -13q8 -17 8.5 -37.5t0.5 -38.5
q0 -9 -1 -20.5t-4.5 -21t-10 -16.5t-18.5 -7zM867 -41h-35v244h35v-244zM225 447h-21v152h23h14t13 -2q10 -5 13 -16.5t3 -20.5q1 -11 -1 -27.5t-14 -21.5l18 -64h-24l-13 61q-3 0 -5.5 0.5t-5.5 0.5v-62zM1006 481v-34h-20v152h19q8 -26 16 -52.5t14 -53.5q-2 26 -2.5 53
t-0.5 53h20v-152h-21q-8 26 -15.5 52t-13.5 53q2 -18 2.5 -35.5t1.5 -35.5zM88 447h-22v152h34q26 0 32 -26q4 -14 3.5 -32t-8.5 -32q-7 -10 -17.5 -11t-21.5 -1v-50zM452 481v-34h-20v152h19q8 -26 15.5 -52.5t13.5 -53.5q-2 26 -2.5 53t-0.5 53h20v-152h-21
q-7 26 -14.5 52t-13.5 53q2 -18 2 -35.5t2 -35.5zM524 447h-21l18 152h35l19 -152h-21l-5 37h-21zM701 446q-15 0 -22.5 8.5t-10 21t-2 26.5t0.5 26v71h22v-106q0 -5 -0.5 -10t1.5 -10t7 -7.5t10 2.5t5.5 13.5t0.5 14.5q1 12 0.5 24t-0.5 24v55h22v-71q0 -12 0.5 -26
t-2 -26.5t-9.5 -21t-23 -8.5zM1090 348q5 -1 13 3q-3 -6 -5.5 -10.5t-6.5 -9.5v-1q6 7 14.5 13.5t17.5 7.5q12 0 11.5 -9t-3.5 -17q-3 -4 -10 -14.5t-4 -15.5q2 -3 5.5 -2t7 5l7 8t5.5 7l19 38h-8l3 6h8l8 17q8 0 14 3l-10 -20h15l-4 -6h-14l-18 -37l-5 -10t-1 -10
q3 -3 7 -0.5t8.5 7t7.5 9t4 6.5l4 -2q-5 -8 -12 -17t-18 -11q-9 -2 -12 2t-1 10q-3 -3 -6 -5.5t-6 -4.5q-7 -4 -14.5 -2t-6.5 12q1 8 6.5 15.5t8.5 14.5q1 3 3.5 9.5t-4.5 5.5q-11 -2 -20 -14t-14 -20q-4 -5 -6.5 -11.5t-5.5 -12.5h-12l7 16l-1 -1q-4 -2 -10 -4h-9
q-5 -6 -10.5 -8t-8.5 -2q-10 -4 -18 3t-6.5 18t5.5 20q5 9 14 16.5t21 7.5q10 0 14.5 -6t4.5 -14t-3.5 -16.5t-7.5 -14.5q13 0 20 11zM304 518q-23 15 -26 39q-2 11 2 22.5t15 17.5q9 5 21.5 4t20.5 -9q9 -9 9 -19.5v-21.5q-6 0 -11.5 0.5t-10.5 0.5q0 6 0.5 12.5t-4.5 11.5
q-9 8 -14.5 1t-6.5 -15q0 -11 7.5 -18t15.5 -13t14 -13.5t8 -16.5q2 -11 0.5 -21.5t-7 -18.5t-14 -12.5t-20.5 -2.5q-20 4 -22.5 19.5t-1.5 31.5h20q0 -5 -0.5 -10t0.5 -10q2 -6 7.5 -10t11.5 1q5 4 6 12.5t-1 14.5q-2 8 -7 13.5t-12 9.5zM771 518q-23 13 -27 39
q-1 11 2.5 22.5t14.5 17.5q10 5 22 4t20 -9q9 -9 8.5 -19.5t-0.5 -21.5q-5 0 -10 0.5t-10 0.5q0 6 0.5 12.5t-4.5 11.5q-9 8 -14.5 1t-6.5 -15q0 -11 7 -18t15 -13q17 -12 23 -30q2 -11 0.5 -21.5t-7 -18.5t-14.5 -12.5t-21 -2.5q-20 4 -22.5 19.5t-2.5 31.5h22q0 -5 -1 -10
t1 -10q2 -6 7 -10t11 1q6 4 7 12.5t-1 14.5q-2 8 -7 13.5t-12 9.5zM198 447h-55v152h55v-20h-33v-43h27v-22h-27v-46h33v-21zM875 447h-54v152h54v-20h-32v-43h27v-22h-27v-46h32v-21zM128 319l-42 -2q-5 -8 -9 -17t-5 -19q-8 -2 -9.5 2.5t0 11.5t4.5 13.5t5 8.5l-14 -1
l-5 8h23q11 17 26 34t35 27q6 4 16 5t12 -10q2 -5 -0.5 -10.5t-4.5 -10.5q-5 -10 -9.5 -19.5t-9.5 -18.5q-3 -7 -9 -17.5t-3 -18.5q-8 -2 -10 2t-0.5 10t4.5 12.5t5 9.5zM1163 599h21q-5 -21 -10 -42.5t-10 -42.5q-5 -16 -3.5 -33t1.5 -34h-23q0 17 0.5 34t-3.5 33
q-5 21 -10 42.5t-10 42.5h21q4 -19 7.5 -38.5t5.5 -39.5q1 20 5 39t8 39zM800 287q-7 4 -5.5 11.5t4.5 13.5l17 35q6 0 14 4l-13 -27q-2 -4 -8 -14.5t-2 -14.5q6 -5 14.5 2.5t11.5 11.5t5 7.5t5 8.5l12 24q4 0 12 2q-4 -9 -8.5 -18.5t-9.5 -18.5l-5 -10t0 -10q4 -5 10 1
t11 13q4 9 9.5 19t10.5 19l8 18t9 18q7 -2 14 3l-27 -55l-10 -20q-2 -5 -3.5 -12.5t6.5 -3.5q8 3 15 13q4 10 9.5 20t10.5 19l8 18t9 18q7 -2 14 3l-27 -55l-10 -20q-1 -2 -2 -5.5t-1.5 -6.5t0.5 -4.5t6 0.5q7 2 12 9t8 13l4 -2q-5 -8 -10 -15t-13 -11q-7 -4 -14 -1.5
t-6 10.5q-6 -6 -12 -9q-7 -4 -14 -1.5t-6 11.5q-5 -5 -9.5 -9t-10.5 -4q-9 0 -10 6t2 12q-6 -7 -16.5 -14t-18.5 -2zM1114 447h-54v152h22v-133h32v-19zM634 447h-54v152h22v-133h32v-19zM740 81q6 0 12.5 -0.5t11.5 3.5q9 8 11 20t2 22q0 11 -2 24t-10 21q-5 5 -12 4.5
t-13 -0.5v-94zM675 348q6 -1 14 3q-3 -6 -5.5 -10.5t-6.5 -9.5v-1q6 7 14.5 13.5t17.5 7.5q12 0 11.5 -9t-4.5 -17q-2 -4 -9.5 -14.5t-4.5 -15.5q2 -4 6.5 -1.5t8.5 7t7.5 9t4.5 6.5l4 -2l-10 -14t-13 -12q-7 -4 -14 -2t-6 12q1 8 6.5 15.5t8.5 14.5q1 1 2 4t1.5 5.5
t-0.5 4.5t-5 1q-11 -2 -19.5 -14t-13.5 -20l-12 -24h-12l4 9q-2 -2 -4 -3.5t-4 -2.5q-8 -4 -15 -1.5t-5 12.5q0 8 4.5 15t7.5 15q6 9 9 18q10 0 15 4l-19 -38q-2 -3 -5 -9.5t0 -9.5t7 -0.5t8 7t7 9t4 6.5zM943 582q-6 0 -9 -7.5t-4 -17.5t-0.5 -20t0.5 -14t-0.5 -13.5
t0.5 -19.5t4 -17.5t9 -7.5t9 7.5t4 17.5t0.5 19.5t-0.5 13.5t0.5 14t-0.5 20t-4 17.5t-9 7.5zM389 582q-6 0 -9 -7.5t-4 -17.5t-0.5 -20t0.5 -14t-0.5 -13.5t0.5 -19.5t4 -17.5t9 -7.5t8.5 7.5t3.5 17.5t0.5 19.5t-0.5 13.5t0.5 14t-0.5 20t-3.5 17.5t-8.5 7.5zM1190 599h22
q0 -28 -1 -56t-3 -57h-14q-2 29 -3 56.5t-1 56.5zM152 384q-8 2 -18.5 -7t-15.5 -14q-16 -18 -29 -39h42l13 27q1 3 4 8t5 10.5t2.5 9.5t-3.5 5zM1039 371q-5 -3 -6.5 0.5t-0.5 7.5q-11 4 -16.5 -5.5t-7.5 -16.5h14l-3 -6h-14l-44 -90q-4 0 -14 -2l46 92h-15l3 6h15
q3 8 8 16t15 10q6 2 15 -1q2 -1 5.5 -4.5t-0.5 -6.5zM835 371q-5 -3 -7 0.5t-1 7.5q-11 4 -16.5 -5.5t-7.5 -16.5h14l-3 -6h-14l-44 -90q-5 0 -13 -2l45 92h-15l4 6h14q3 8 8 16t15 10q6 2 15 -1q2 -1 5.5 -4.5t0.5 -6.5zM622 91q-2 -10 -3 -20t-3 -20h29q-3 29 -8 58.5
t-7 59.5q-1 -20 -3.5 -39t-4.5 -39zM88 515q5 0 9.5 -0.5t7.5 3.5q5 5 5.5 14t0.5 16t-0.5 16t-5.5 14q-3 5 -7.5 4.5t-9.5 -0.5v-67zM1045 346q-8 0 -15 -9t-11 -19.5t-4 -19t8 -8.5q6 0 13 9t11.5 19.5t4.5 19t-7 8.5zM928 -21q0 -10 -6 -15t-13.5 -5t-13.5 5t-6 15t6 15
t13.5 5t13.5 -5t6 -15zM562 -21q0 -10 -6 -15t-13.5 -5t-13.5 5t-6 15t6 15t13.5 5t13.5 -5t6 -15zM462 343q-7 0 -12.5 -5t-10 -12.5t-8 -16t-6.5 -13.5q11 -8 21 0t15 16q1 2 4 7t4 10.5t0 9.5t-7 4zM231 292q7 0 13 6t10.5 14t8 16.5t6.5 14.5q-10 5 -20 -3t-15 -16
q-1 -2 -4 -7t-4.5 -10.5t-1 -10t6.5 -4.5zM225 524q4 0 8 -0.5t7 1.5q6 5 7 13t1 15q0 6 -1 14.5t-7 12.5q-3 2 -6.5 2h-8.5v-58zM366 292q7 0 13 6t10.5 14t8 16.5t6.5 14.5q-11 5 -20.5 -3t-14.5 -16q-1 -2 -4 -7t-4.5 -10.5t-1 -10t6.5 -4.5zM539 322q-3 -5 -4 -8l-2 -6
q11 0 24.5 9.5t13.5 21.5q0 8 -5.5 7t-10.5 -4q-5 -4 -9 -9.5t-7 -10.5zM533 529l-3 -24h17q-2 18 -4.5 36t-3.5 36q-1 -11 -2.5 -23t-3.5 -25zM1213 460q0 -6 -4 -9.5t-8.5 -3.5t-8 3.5t-3.5 9.5t3.5 9.5t8 3.5t8.5 -3.5t4 -9.5zM667 368q-4 -7 -11.5 -5t-5.5 10q1 4 5 5.5
t7.5 0.5t5 -4t-0.5 -7zM327 368q-3 -7 -10.5 -5t-5.5 10q1 4 4.5 5.5t7 0.5t5.5 -4t-1 -7zM1194 291q-4 -8 -11.5 -4.5t-3.5 10.5q4 8 11.5 4.5t3.5 -10.5zM1214 337q-2 -4 -5 -5t-6 0.5t-4 4t1 6.5q4 7 11 4t3 -10z" />
    <glyph glyph-name="one" unicode="1" horiz-adv-x="1272" 
d="M358 203h42q5 -51 8.5 -101.5t5.5 -101.5q3 38 5.5 77t7.5 77l6 49h39q5 -42 9 -83t7 -83l3 -37q3 41 4.5 80.5t5.5 78.5q2 11 2.5 22t1.5 22h30l-20 -244h-46q-5 48 -9.5 96.5t-6.5 97.5q-2 -36 -5 -72.5t-7 -72.5l-4 -49h-47l-11 137l-12 -137h-45q-5 48 -10 96.5
t-7 97.5q-2 -36 -4.5 -72.5t-6.5 -72.5l-5 -49h-46l-12 140l-11 -140h-46q-5 48 -9.5 96t-6.5 97q-1 -37 -4 -72.5t-7 -71.5l-6 -49h-45l-21 244h30q5 -51 8.5 -101.5t5.5 -101.5q3 38 5.5 77t7.5 77l6 49h39q5 -42 9 -83t7 -83l3 -37q3 41 4.5 80.5t5.5 78.5l5 44h41
q5 -51 8.5 -101.5t6.5 -101.5q3 38 5.5 77t6.5 77q2 12 3 24t3 25h40q5 -42 8.5 -83t7.5 -83l2 -37q3 41 5 80.5t6 78.5zM1204 731h-1130v22h1130v-22zM1204 -197h-1130v22h1130v-22zM740 -41h-35v244h36q11 0 22 0.5t21 -4.5q17 -8 22 -27.5t5 -36.5v-19t-2.5 -22t-7.5 -20
t-14 -12l30 -103h-39l-21 97h-17v-97zM983 13v-54h-33v244h32q12 -43 24.5 -85t22.5 -86q-4 43 -4.5 85.5t-0.5 85.5h32v-244h-33q-12 42 -24.5 83.5t-21.5 83.5q2 -29 3 -56.5t3 -56.5zM606 -41h-33l29 244h57l30 -244h-35l-7 58h-33zM1153 112q1 11 0 23.5t-5 23.5
q-3 8 -10.5 13t-14.5 -5q-6 -8 -7 -20.5t-2 -23.5q-1 -12 -1 -23.5v-22.5v-23t2 -23q0 -9 2 -22t11 -18q10 -6 16 1.5t8 20t2.5 25t0.5 17.5h-25v28h58v-123h-26l-1 33q-2 -11 -7.5 -22t-16.5 -14t-22 2t-18 13q-14 17 -16 42t-2 45q-2 26 -1 52.5t8 50.5q2 11 7 21t15 15
q10 6 22 7t23 -3q12 -5 19 -15t10 -22.5t4 -25.5t1 -24zM224 327q5 8 12 14t16 8q8 2 16 -1.5t17 -0.5l-18 -34q-2 -3 -5.5 -10t0.5 -9q5 -4 11 2t11 13q2 5 5 10l6 10l8 18q8 0 15 4l-19 -38q-2 -3 -5 -9.5t1 -9.5q4 -4 10 1.5t10 12.5q4 9 9.5 19t9.5 19q5 9 9 18t9 18
q8 -2 14 3l-27 -55q-2 -5 -4.5 -10t-4.5 -10t-4 -12.5t6 -3.5q5 2 9.5 7t8.5 11q3 8 8 15q5 8 12 14t16 8t17 -1.5t17 -0.5q-5 -8 -9 -16.5t-9 -17.5q-2 -3 -5 -10t0 -9q3 -3 6.5 -1t7 5.5t6.5 8l5 7.5l1 2l32 66q8 0 13 3q-5 -12 -10 -23.5t-13 -22.5q7 7 16.5 11.5
t16.5 -6.5q6 -10 0.5 -23t-12.5 -21q6 -1 11 2t10 7q4 9 9 18.5t10 18.5l18 36q7 -2 13 3q-7 -14 -13 -27.5t-14 -27.5q-2 -5 -4.5 -10t-5.5 -10q-1 -2 -2 -5.5t-1 -6.5t1 -4.5t6 0.5t10.5 8t8.5 12q3 13 12 22q3 3 9.5 7.5t14 6.5t13.5 0.5t8 -10.5q1 -8 -3.5 -15
t-12 -11.5t-16.5 -7t-15 -2.5q-1 -6 3 -9.5t10 -3.5q13 0 24 7t17 18l4 -2q-8 -14 -23 -22.5t-31 -5.5t-16 18q-4 -5 -8 -9.5t-9 -6.5q-7 -4 -14.5 -1.5t-5.5 12.5v2q-2 -2 -4 -2q-4 -3 -12 -3h-7q-2 0 -3 -2t-3 -2q-10 -6 -21.5 -5t-17.5 11q-7 -9 -17 -12q-9 -2 -12.5 3
t-0.5 13q-5 -7 -13.5 -13.5t-17.5 -0.5q-7 4 -7 14q-6 -9 -14 -14q-8 -4 -15 -1.5t-6 10.5q-7 -7 -11 -9q-8 -4 -15.5 -1.5t-5.5 11.5q-4 -4 -8 -7t-9 -5q-9 -2 -12.5 3t0.5 13h-1q-5 -7 -13.5 -13.5t-17.5 -0.5q-5 2 -6 6.5t0 9.5q-5 -5 -10 -6q-4 -2 -13 -2q-5 0 -6 -1
t-4 -3q-5 -3 -11.5 -5t-11.5 -1t-8 5.5t-1 12.5q2 11 8 22t11 21q5 0 13 4q-3 -8 -6 -15t-7 -14q-1 -3 -4 -7.5t-5 -9.5t-2 -9t4 -5q9 -2 17 8t11 15q5 8 8 17.5t3 18.5q9 2 10 -5t-1 -13q-4 -16 -18 -31q8 -2 15 3t11 12zM943 446q-11 0 -17.5 5t-9.5 13t-4.5 17.5
t-1.5 17.5q-2 19 -2 39.5t6 39.5q3 8 8.5 14.5t14.5 7.5q20 5 31 -13q9 -17 9 -37.5v-38.5q0 -9 -0.5 -20.5t-4 -21t-10.5 -16.5t-19 -7zM389 446q-11 0 -17.5 5t-10 13t-4.5 17.5t-2 17.5q-1 19 -1 39.5t6 39.5q3 8 8 14.5t15 7.5q21 5 31 -13q8 -17 8.5 -37.5t0.5 -38.5
q0 -9 -1 -20.5t-4.5 -21t-10 -16.5t-18.5 -7zM867 -41h-35v244h35v-244zM225 447h-21v152h23h14t13 -2q10 -5 13 -16.5t3 -20.5q1 -11 -1 -27.5t-14 -21.5l18 -64h-24l-13 61q-3 0 -5.5 0.5t-5.5 0.5v-62zM1006 481v-34h-20v152h19q8 -26 16 -52.5t14 -53.5q-2 26 -2.5 53
t-0.5 53h20v-152h-21q-8 26 -15.5 52t-13.5 53q2 -18 2.5 -35.5t1.5 -35.5zM88 447h-22v152h34q26 0 32 -26q4 -14 3.5 -32t-8.5 -32q-7 -10 -17.5 -11t-21.5 -1v-50zM452 481v-34h-20v152h19q8 -26 15.5 -52.5t13.5 -53.5q-2 26 -2.5 53t-0.5 53h20v-152h-21
q-7 26 -14.5 52t-13.5 53q2 -18 2 -35.5t2 -35.5zM524 447h-21l18 152h35l19 -152h-21l-5 37h-21zM701 446q-15 0 -22.5 8.5t-10 21t-2 26.5t0.5 26v71h22v-106q0 -5 -0.5 -10t1.5 -10t7 -7.5t10 2.5t5.5 13.5t0.5 14.5q1 12 0.5 24t-0.5 24v55h22v-71q0 -12 0.5 -26
t-2 -26.5t-9.5 -21t-23 -8.5zM1090 348q5 -1 13 3q-3 -6 -5.5 -10.5t-6.5 -9.5v-1q6 7 14.5 13.5t17.5 7.5q12 0 11.5 -9t-3.5 -17q-3 -4 -10 -14.5t-4 -15.5q2 -3 5.5 -2t7 5l7 8t5.5 7l19 38h-8l3 6h8l8 17q8 0 14 3l-10 -20h15l-4 -6h-14l-18 -37l-5 -10t-1 -10
q3 -3 7 -0.5t8.5 7t7.5 9t4 6.5l4 -2q-5 -8 -12 -17t-18 -11q-9 -2 -12 2t-1 10q-3 -3 -6 -5.5t-6 -4.5q-7 -4 -14.5 -2t-6.5 12q1 8 6.5 15.5t8.5 14.5q1 3 3.5 9.5t-4.5 5.5q-11 -2 -20 -14t-14 -20q-4 -5 -6.5 -11.5t-5.5 -12.5h-12l7 16l-1 -1q-4 -2 -10 -4h-9
q-5 -6 -10.5 -8t-8.5 -2q-10 -4 -18 3t-6.5 18t5.5 20q5 9 14 16.5t21 7.5q10 0 14.5 -6t4.5 -14t-3.5 -16.5t-7.5 -14.5q13 0 20 11zM304 518q-23 15 -26 39q-2 11 2 22.5t15 17.5q9 5 21.5 4t20.5 -9q9 -9 9 -19.5v-21.5q-6 0 -11.5 0.5t-10.5 0.5q0 6 0.5 12.5t-4.5 11.5
q-9 8 -14.5 1t-6.5 -15q0 -11 7.5 -18t15.5 -13t14 -13.5t8 -16.5q2 -11 0.5 -21.5t-7 -18.5t-14 -12.5t-20.5 -2.5q-20 4 -22.5 19.5t-1.5 31.5h20q0 -5 -0.5 -10t0.5 -10q2 -6 7.5 -10t11.5 1q5 4 6 12.5t-1 14.5q-2 8 -7 13.5t-12 9.5zM771 518q-23 13 -27 39
q-1 11 2.5 22.5t14.5 17.5q10 5 22 4t20 -9q9 -9 8.5 -19.5t-0.5 -21.5q-5 0 -10 0.5t-10 0.5q0 6 0.5 12.5t-4.5 11.5q-9 8 -14.5 1t-6.5 -15q0 -11 7 -18t15 -13q17 -12 23 -30q2 -11 0.5 -21.5t-7 -18.5t-14.5 -12.5t-21 -2.5q-20 4 -22.5 19.5t-2.5 31.5h22q0 -5 -1 -10
t1 -10q2 -6 7 -10t11 1q6 4 7 12.5t-1 14.5q-2 8 -7 13.5t-12 9.5zM198 447h-55v152h55v-20h-33v-43h27v-22h-27v-46h33v-21zM875 447h-54v152h54v-20h-32v-43h27v-22h-27v-46h32v-21zM128 319l-42 -2q-5 -8 -9 -17t-5 -19q-8 -2 -9.5 2.5t0 11.5t4.5 13.5t5 8.5l-14 -1
l-5 8h23q11 17 26 34t35 27q6 4 16 5t12 -10q2 -5 -0.5 -10.5t-4.5 -10.5q-5 -10 -9.5 -19.5t-9.5 -18.5q-3 -7 -9 -17.5t-3 -18.5q-8 -2 -10 2t-0.5 10t4.5 12.5t5 9.5zM1163 599h21q-5 -21 -10 -42.5t-10 -42.5q-5 -16 -3.5 -33t1.5 -34h-23q0 17 0.5 34t-3.5 33
q-5 21 -10 42.5t-10 42.5h21q4 -19 7.5 -38.5t5.5 -39.5q1 20 5 39t8 39zM800 287q-7 4 -5.5 11.5t4.5 13.5l17 35q6 0 14 4l-13 -27q-2 -4 -8 -14.5t-2 -14.5q6 -5 14.5 2.5t11.5 11.5t5 7.5t5 8.5l12 24q4 0 12 2q-4 -9 -8.5 -18.5t-9.5 -18.5l-5 -10t0 -10q4 -5 10 1
t11 13q4 9 9.5 19t10.5 19l8 18t9 18q7 -2 14 3l-27 -55l-10 -20q-2 -5 -3.5 -12.5t6.5 -3.5q8 3 15 13q4 10 9.5 20t10.5 19l8 18t9 18q7 -2 14 3l-27 -55l-10 -20q-1 -2 -2 -5.5t-1.5 -6.5t0.5 -4.5t6 0.5q7 2 12 9t8 13l4 -2q-5 -8 -10 -15t-13 -11q-7 -4 -14 -1.5
t-6 10.5q-6 -6 -12 -9q-7 -4 -14 -1.5t-6 11.5q-5 -5 -9.5 -9t-10.5 -4q-9 0 -10 6t2 12q-6 -7 -16.5 -14t-18.5 -2zM1114 447h-54v152h22v-133h32v-19zM634 447h-54v152h22v-133h32v-19zM740 81q6 0 12.5 -0.5t11.5 3.5q9 8 11 20t2 22q0 11 -2 24t-10 21q-5 5 -12 4.5
t-13 -0.5v-94zM675 348q6 -1 14 3q-3 -6 -5.5 -10.5t-6.5 -9.5v-1q6 7 14.5 13.5t17.5 7.5q12 0 11.5 -9t-4.5 -17q-2 -4 -9.5 -14.5t-4.5 -15.5q2 -4 6.5 -1.5t8.5 7t7.5 9t4.5 6.5l4 -2l-10 -14t-13 -12q-7 -4 -14 -2t-6 12q1 8 6.5 15.5t8.5 14.5q1 1 2 4t1.5 5.5
t-0.5 4.5t-5 1q-11 -2 -19.5 -14t-13.5 -20l-12 -24h-12l4 9q-2 -2 -4 -3.5t-4 -2.5q-8 -4 -15 -1.5t-5 12.5q0 8 4.5 15t7.5 15q6 9 9 18q10 0 15 4l-19 -38q-2 -3 -5 -9.5t0 -9.5t7 -0.5t8 7t7 9t4 6.5zM943 582q-6 0 -9 -7.5t-4 -17.5t-0.5 -20t0.5 -14t-0.5 -13.5
t0.5 -19.5t4 -17.5t9 -7.5t9 7.5t4 17.5t0.5 19.5t-0.5 13.5t0.5 14t-0.5 20t-4 17.5t-9 7.5zM389 582q-6 0 -9 -7.5t-4 -17.5t-0.5 -20t0.5 -14t-0.5 -13.5t0.5 -19.5t4 -17.5t9 -7.5t8.5 7.5t3.5 17.5t0.5 19.5t-0.5 13.5t0.5 14t-0.5 20t-3.5 17.5t-8.5 7.5zM1190 599h22
q0 -28 -1 -56t-3 -57h-14q-2 29 -3 56.5t-1 56.5zM152 384q-8 2 -18.5 -7t-15.5 -14q-16 -18 -29 -39h42l13 27q1 3 4 8t5 10.5t2.5 9.5t-3.5 5zM1039 371q-5 -3 -6.5 0.5t-0.5 7.5q-11 4 -16.5 -5.5t-7.5 -16.5h14l-3 -6h-14l-44 -90q-4 0 -14 -2l46 92h-15l3 6h15
q3 8 8 16t15 10q6 2 15 -1q2 -1 5.5 -4.5t-0.5 -6.5zM835 371q-5 -3 -7 0.5t-1 7.5q-11 4 -16.5 -5.5t-7.5 -16.5h14l-3 -6h-14l-44 -90q-5 0 -13 -2l45 92h-15l4 6h14q3 8 8 16t15 10q6 2 15 -1q2 -1 5.5 -4.5t0.5 -6.5zM622 91q-2 -10 -3 -20t-3 -20h29q-3 29 -8 58.5
t-7 59.5q-1 -20 -3.5 -39t-4.5 -39zM88 515q5 0 9.5 -0.5t7.5 3.5q5 5 5.5 14t0.5 16t-0.5 16t-5.5 14q-3 5 -7.5 4.5t-9.5 -0.5v-67zM1045 346q-8 0 -15 -9t-11 -19.5t-4 -19t8 -8.5q6 0 13 9t11.5 19.5t4.5 19t-7 8.5zM928 -21q0 -10 -6 -15t-13.5 -5t-13.5 5t-6 15t6 15
t13.5 5t13.5 -5t6 -15zM562 -21q0 -10 -6 -15t-13.5 -5t-13.5 5t-6 15t6 15t13.5 5t13.5 -5t6 -15zM462 343q-7 0 -12.5 -5t-10 -12.5t-8 -16t-6.5 -13.5q11 -8 21 0t15 16q1 2 4 7t4 10.5t0 9.5t-7 4zM231 292q7 0 13 6t10.5 14t8 16.5t6.5 14.5q-10 5 -20 -3t-15 -16
q-1 -2 -4 -7t-4.5 -10.5t-1 -10t6.5 -4.5zM225 524q4 0 8 -0.5t7 1.5q6 5 7 13t1 15q0 6 -1 14.5t-7 12.5q-3 2 -6.5 2h-8.5v-58zM366 292q7 0 13 6t10.5 14t8 16.5t6.5 14.5q-11 5 -20.5 -3t-14.5 -16q-1 -2 -4 -7t-4.5 -10.5t-1 -10t6.5 -4.5zM539 322q-3 -5 -4 -8l-2 -6
q11 0 24.5 9.5t13.5 21.5q0 8 -5.5 7t-10.5 -4q-5 -4 -9 -9.5t-7 -10.5zM533 529l-3 -24h17q-2 18 -4.5 36t-3.5 36q-1 -11 -2.5 -23t-3.5 -25zM1213 460q0 -6 -4 -9.5t-8.5 -3.5t-8 3.5t-3.5 9.5t3.5 9.5t8 3.5t8.5 -3.5t4 -9.5zM667 368q-4 -7 -11.5 -5t-5.5 10q1 4 5 5.5
t7.5 0.5t5 -4t-0.5 -7zM327 368q-3 -7 -10.5 -5t-5.5 10q1 4 4.5 5.5t7 0.5t5.5 -4t-1 -7zM1194 291q-4 -8 -11.5 -4.5t-3.5 10.5q4 8 11.5 4.5t3.5 -10.5zM1214 337q-2 -4 -5 -5t-6 0.5t-4 4t1 6.5q4 7 11 4t3 -10z" />
    <glyph glyph-name="two" unicode="2" horiz-adv-x="1272" 
d="M358 203h42q5 -51 8.5 -101.5t5.5 -101.5q3 38 5.5 77t7.5 77l6 49h39q5 -42 9 -83t7 -83l3 -37q3 41 4.5 80.5t5.5 78.5q2 11 2.5 22t1.5 22h30l-20 -244h-46q-5 48 -9.5 96.5t-6.5 97.5q-2 -36 -5 -72.5t-7 -72.5l-4 -49h-47l-11 137l-12 -137h-45q-5 48 -10 96.5
t-7 97.5q-2 -36 -4.5 -72.5t-6.5 -72.5l-5 -49h-46l-12 140l-11 -140h-46q-5 48 -9.5 96t-6.5 97q-1 -37 -4 -72.5t-7 -71.5l-6 -49h-45l-21 244h30q5 -51 8.5 -101.5t5.5 -101.5q3 38 5.5 77t7.5 77l6 49h39q5 -42 9 -83t7 -83l3 -37q3 41 4.5 80.5t5.5 78.5l5 44h41
q5 -51 8.5 -101.5t6.5 -101.5q3 38 5.5 77t6.5 77q2 12 3 24t3 25h40q5 -42 8.5 -83t7.5 -83l2 -37q3 41 5 80.5t6 78.5zM1204 731h-1130v22h1130v-22zM1204 -197h-1130v22h1130v-22zM740 -41h-35v244h36q11 0 22 0.5t21 -4.5q17 -8 22 -27.5t5 -36.5v-19t-2.5 -22t-7.5 -20
t-14 -12l30 -103h-39l-21 97h-17v-97zM983 13v-54h-33v244h32q12 -43 24.5 -85t22.5 -86q-4 43 -4.5 85.5t-0.5 85.5h32v-244h-33q-12 42 -24.5 83.5t-21.5 83.5q2 -29 3 -56.5t3 -56.5zM606 -41h-33l29 244h57l30 -244h-35l-7 58h-33zM1153 112q1 11 0 23.5t-5 23.5
q-3 8 -10.5 13t-14.5 -5q-6 -8 -7 -20.5t-2 -23.5q-1 -12 -1 -23.5v-22.5v-23t2 -23q0 -9 2 -22t11 -18q10 -6 16 1.5t8 20t2.5 25t0.5 17.5h-25v28h58v-123h-26l-1 33q-2 -11 -7.5 -22t-16.5 -14t-22 2t-18 13q-14 17 -16 42t-2 45q-2 26 -1 52.5t8 50.5q2 11 7 21t15 15
q10 6 22 7t23 -3q12 -5 19 -15t10 -22.5t4 -25.5t1 -24zM224 327q5 8 12 14t16 8q8 2 16 -1.5t17 -0.5l-18 -34q-2 -3 -5.5 -10t0.5 -9q5 -4 11 2t11 13q2 5 5 10l6 10l8 18q8 0 15 4l-19 -38q-2 -3 -5 -9.5t1 -9.5q4 -4 10 1.5t10 12.5q4 9 9.5 19t9.5 19q5 9 9 18t9 18
q8 -2 14 3l-27 -55q-2 -5 -4.5 -10t-4.5 -10t-4 -12.5t6 -3.5q5 2 9.5 7t8.5 11q3 8 8 15q5 8 12 14t16 8t17 -1.5t17 -0.5q-5 -8 -9 -16.5t-9 -17.5q-2 -3 -5 -10t0 -9q3 -3 6.5 -1t7 5.5t6.5 8l5 7.5l1 2l32 66q8 0 13 3q-5 -12 -10 -23.5t-13 -22.5q7 7 16.5 11.5
t16.5 -6.5q6 -10 0.5 -23t-12.5 -21q6 -1 11 2t10 7q4 9 9 18.5t10 18.5l18 36q7 -2 13 3q-7 -14 -13 -27.5t-14 -27.5q-2 -5 -4.5 -10t-5.5 -10q-1 -2 -2 -5.5t-1 -6.5t1 -4.5t6 0.5t10.5 8t8.5 12q3 13 12 22q3 3 9.5 7.5t14 6.5t13.5 0.5t8 -10.5q1 -8 -3.5 -15
t-12 -11.5t-16.5 -7t-15 -2.5q-1 -6 3 -9.5t10 -3.5q13 0 24 7t17 18l4 -2q-8 -14 -23 -22.5t-31 -5.5t-16 18q-4 -5 -8 -9.5t-9 -6.5q-7 -4 -14.5 -1.5t-5.5 12.5v2q-2 -2 -4 -2q-4 -3 -12 -3h-7q-2 0 -3 -2t-3 -2q-10 -6 -21.5 -5t-17.5 11q-7 -9 -17 -12q-9 -2 -12.5 3
t-0.5 13q-5 -7 -13.5 -13.5t-17.5 -0.5q-7 4 -7 14q-6 -9 -14 -14q-8 -4 -15 -1.5t-6 10.5q-7 -7 -11 -9q-8 -4 -15.5 -1.5t-5.5 11.5q-4 -4 -8 -7t-9 -5q-9 -2 -12.5 3t0.5 13h-1q-5 -7 -13.5 -13.5t-17.5 -0.5q-5 2 -6 6.5t0 9.5q-5 -5 -10 -6q-4 -2 -13 -2q-5 0 -6 -1
t-4 -3q-5 -3 -11.5 -5t-11.5 -1t-8 5.5t-1 12.5q2 11 8 22t11 21q5 0 13 4q-3 -8 -6 -15t-7 -14q-1 -3 -4 -7.5t-5 -9.5t-2 -9t4 -5q9 -2 17 8t11 15q5 8 8 17.5t3 18.5q9 2 10 -5t-1 -13q-4 -16 -18 -31q8 -2 15 3t11 12zM943 446q-11 0 -17.5 5t-9.5 13t-4.5 17.5
t-1.5 17.5q-2 19 -2 39.5t6 39.5q3 8 8.5 14.5t14.5 7.5q20 5 31 -13q9 -17 9 -37.5v-38.5q0 -9 -0.5 -20.5t-4 -21t-10.5 -16.5t-19 -7zM389 446q-11 0 -17.5 5t-10 13t-4.5 17.5t-2 17.5q-1 19 -1 39.5t6 39.5q3 8 8 14.5t15 7.5q21 5 31 -13q8 -17 8.5 -37.5t0.5 -38.5
q0 -9 -1 -20.5t-4.5 -21t-10 -16.5t-18.5 -7zM867 -41h-35v244h35v-244zM225 447h-21v152h23h14t13 -2q10 -5 13 -16.5t3 -20.5q1 -11 -1 -27.5t-14 -21.5l18 -64h-24l-13 61q-3 0 -5.5 0.5t-5.5 0.5v-62zM1006 481v-34h-20v152h19q8 -26 16 -52.5t14 -53.5q-2 26 -2.5 53
t-0.5 53h20v-152h-21q-8 26 -15.5 52t-13.5 53q2 -18 2.5 -35.5t1.5 -35.5zM88 447h-22v152h34q26 0 32 -26q4 -14 3.5 -32t-8.5 -32q-7 -10 -17.5 -11t-21.5 -1v-50zM452 481v-34h-20v152h19q8 -26 15.5 -52.5t13.5 -53.5q-2 26 -2.5 53t-0.5 53h20v-152h-21
q-7 26 -14.5 52t-13.5 53q2 -18 2 -35.5t2 -35.5zM524 447h-21l18 152h35l19 -152h-21l-5 37h-21zM701 446q-15 0 -22.5 8.5t-10 21t-2 26.5t0.5 26v71h22v-106q0 -5 -0.5 -10t1.5 -10t7 -7.5t10 2.5t5.5 13.5t0.5 14.5q1 12 0.5 24t-0.5 24v55h22v-71q0 -12 0.5 -26
t-2 -26.5t-9.5 -21t-23 -8.5zM1090 348q5 -1 13 3q-3 -6 -5.5 -10.5t-6.5 -9.5v-1q6 7 14.5 13.5t17.5 7.5q12 0 11.5 -9t-3.5 -17q-3 -4 -10 -14.5t-4 -15.5q2 -3 5.5 -2t7 5l7 8t5.5 7l19 38h-8l3 6h8l8 17q8 0 14 3l-10 -20h15l-4 -6h-14l-18 -37l-5 -10t-1 -10
q3 -3 7 -0.5t8.5 7t7.5 9t4 6.5l4 -2q-5 -8 -12 -17t-18 -11q-9 -2 -12 2t-1 10q-3 -3 -6 -5.5t-6 -4.5q-7 -4 -14.5 -2t-6.5 12q1 8 6.5 15.5t8.5 14.5q1 3 3.5 9.5t-4.5 5.5q-11 -2 -20 -14t-14 -20q-4 -5 -6.5 -11.5t-5.5 -12.5h-12l7 16l-1 -1q-4 -2 -10 -4h-9
q-5 -6 -10.5 -8t-8.5 -2q-10 -4 -18 3t-6.5 18t5.5 20q5 9 14 16.5t21 7.5q10 0 14.5 -6t4.5 -14t-3.5 -16.5t-7.5 -14.5q13 0 20 11zM304 518q-23 15 -26 39q-2 11 2 22.5t15 17.5q9 5 21.5 4t20.5 -9q9 -9 9 -19.5v-21.5q-6 0 -11.5 0.5t-10.5 0.5q0 6 0.5 12.5t-4.5 11.5
q-9 8 -14.5 1t-6.5 -15q0 -11 7.5 -18t15.5 -13t14 -13.5t8 -16.5q2 -11 0.5 -21.5t-7 -18.5t-14 -12.5t-20.5 -2.5q-20 4 -22.5 19.5t-1.5 31.5h20q0 -5 -0.5 -10t0.5 -10q2 -6 7.5 -10t11.5 1q5 4 6 12.5t-1 14.5q-2 8 -7 13.5t-12 9.5zM771 518q-23 13 -27 39
q-1 11 2.5 22.5t14.5 17.5q10 5 22 4t20 -9q9 -9 8.5 -19.5t-0.5 -21.5q-5 0 -10 0.5t-10 0.5q0 6 0.5 12.5t-4.5 11.5q-9 8 -14.5 1t-6.5 -15q0 -11 7 -18t15 -13q17 -12 23 -30q2 -11 0.5 -21.5t-7 -18.5t-14.5 -12.5t-21 -2.5q-20 4 -22.5 19.5t-2.5 31.5h22q0 -5 -1 -10
t1 -10q2 -6 7 -10t11 1q6 4 7 12.5t-1 14.5q-2 8 -7 13.5t-12 9.5zM198 447h-55v152h55v-20h-33v-43h27v-22h-27v-46h33v-21zM875 447h-54v152h54v-20h-32v-43h27v-22h-27v-46h32v-21zM128 319l-42 -2q-5 -8 -9 -17t-5 -19q-8 -2 -9.5 2.5t0 11.5t4.5 13.5t5 8.5l-14 -1
l-5 8h23q11 17 26 34t35 27q6 4 16 5t12 -10q2 -5 -0.5 -10.5t-4.5 -10.5q-5 -10 -9.5 -19.5t-9.5 -18.5q-3 -7 -9 -17.5t-3 -18.5q-8 -2 -10 2t-0.5 10t4.5 12.5t5 9.5zM1163 599h21q-5 -21 -10 -42.5t-10 -42.5q-5 -16 -3.5 -33t1.5 -34h-23q0 17 0.5 34t-3.5 33
q-5 21 -10 42.5t-10 42.5h21q4 -19 7.5 -38.5t5.5 -39.5q1 20 5 39t8 39zM800 287q-7 4 -5.5 11.5t4.5 13.5l17 35q6 0 14 4l-13 -27q-2 -4 -8 -14.5t-2 -14.5q6 -5 14.5 2.5t11.5 11.5t5 7.5t5 8.5l12 24q4 0 12 2q-4 -9 -8.5 -18.5t-9.5 -18.5l-5 -10t0 -10q4 -5 10 1
t11 13q4 9 9.5 19t10.5 19l8 18t9 18q7 -2 14 3l-27 -55l-10 -20q-2 -5 -3.5 -12.5t6.5 -3.5q8 3 15 13q4 10 9.5 20t10.5 19l8 18t9 18q7 -2 14 3l-27 -55l-10 -20q-1 -2 -2 -5.5t-1.5 -6.5t0.5 -4.5t6 0.5q7 2 12 9t8 13l4 -2q-5 -8 -10 -15t-13 -11q-7 -4 -14 -1.5
t-6 10.5q-6 -6 -12 -9q-7 -4 -14 -1.5t-6 11.5q-5 -5 -9.5 -9t-10.5 -4q-9 0 -10 6t2 12q-6 -7 -16.5 -14t-18.5 -2zM1114 447h-54v152h22v-133h32v-19zM634 447h-54v152h22v-133h32v-19zM740 81q6 0 12.5 -0.5t11.5 3.5q9 8 11 20t2 22q0 11 -2 24t-10 21q-5 5 -12 4.5
t-13 -0.5v-94zM675 348q6 -1 14 3q-3 -6 -5.5 -10.5t-6.5 -9.5v-1q6 7 14.5 13.5t17.5 7.5q12 0 11.5 -9t-4.5 -17q-2 -4 -9.5 -14.5t-4.5 -15.5q2 -4 6.5 -1.5t8.5 7t7.5 9t4.5 6.5l4 -2l-10 -14t-13 -12q-7 -4 -14 -2t-6 12q1 8 6.5 15.5t8.5 14.5q1 1 2 4t1.5 5.5
t-0.5 4.5t-5 1q-11 -2 -19.5 -14t-13.5 -20l-12 -24h-12l4 9q-2 -2 -4 -3.5t-4 -2.5q-8 -4 -15 -1.5t-5 12.5q0 8 4.5 15t7.5 15q6 9 9 18q10 0 15 4l-19 -38q-2 -3 -5 -9.5t0 -9.5t7 -0.5t8 7t7 9t4 6.5zM943 582q-6 0 -9 -7.5t-4 -17.5t-0.5 -20t0.5 -14t-0.5 -13.5
t0.5 -19.5t4 -17.5t9 -7.5t9 7.5t4 17.5t0.5 19.5t-0.5 13.5t0.5 14t-0.5 20t-4 17.5t-9 7.5zM389 582q-6 0 -9 -7.5t-4 -17.5t-0.5 -20t0.5 -14t-0.5 -13.5t0.5 -19.5t4 -17.5t9 -7.5t8.5 7.5t3.5 17.5t0.5 19.5t-0.5 13.5t0.5 14t-0.5 20t-3.5 17.5t-8.5 7.5zM1190 599h22
q0 -28 -1 -56t-3 -57h-14q-2 29 -3 56.5t-1 56.5zM152 384q-8 2 -18.5 -7t-15.5 -14q-16 -18 -29 -39h42l13 27q1 3 4 8t5 10.5t2.5 9.5t-3.5 5zM1039 371q-5 -3 -6.5 0.5t-0.5 7.5q-11 4 -16.5 -5.5t-7.5 -16.5h14l-3 -6h-14l-44 -90q-4 0 -14 -2l46 92h-15l3 6h15
q3 8 8 16t15 10q6 2 15 -1q2 -1 5.5 -4.5t-0.5 -6.5zM835 371q-5 -3 -7 0.5t-1 7.5q-11 4 -16.5 -5.5t-7.5 -16.5h14l-3 -6h-14l-44 -90q-5 0 -13 -2l45 92h-15l4 6h14q3 8 8 16t15 10q6 2 15 -1q2 -1 5.5 -4.5t0.5 -6.5zM622 91q-2 -10 -3 -20t-3 -20h29q-3 29 -8 58.5
t-7 59.5q-1 -20 -3.5 -39t-4.5 -39zM88 515q5 0 9.5 -0.5t7.5 3.5q5 5 5.5 14t0.5 16t-0.5 16t-5.5 14q-3 5 -7.5 4.5t-9.5 -0.5v-67zM1045 346q-8 0 -15 -9t-11 -19.5t-4 -19t8 -8.5q6 0 13 9t11.5 19.5t4.5 19t-7 8.5zM928 -21q0 -10 -6 -15t-13.5 -5t-13.5 5t-6 15t6 15
t13.5 5t13.5 -5t6 -15zM562 -21q0 -10 -6 -15t-13.5 -5t-13.5 5t-6 15t6 15t13.5 5t13.5 -5t6 -15zM462 343q-7 0 -12.5 -5t-10 -12.5t-8 -16t-6.5 -13.5q11 -8 21 0t15 16q1 2 4 7t4 10.5t0 9.5t-7 4zM231 292q7 0 13 6t10.5 14t8 16.5t6.5 14.5q-10 5 -20 -3t-15 -16
q-1 -2 -4 -7t-4.5 -10.5t-1 -10t6.5 -4.5zM225 524q4 0 8 -0.5t7 1.5q6 5 7 13t1 15q0 6 -1 14.5t-7 12.5q-3 2 -6.5 2h-8.5v-58zM366 292q7 0 13 6t10.5 14t8 16.5t6.5 14.5q-11 5 -20.5 -3t-14.5 -16q-1 -2 -4 -7t-4.5 -10.5t-1 -10t6.5 -4.5zM539 322q-3 -5 -4 -8l-2 -6
q11 0 24.5 9.5t13.5 21.5q0 8 -5.5 7t-10.5 -4q-5 -4 -9 -9.5t-7 -10.5zM533 529l-3 -24h17q-2 18 -4.5 36t-3.5 36q-1 -11 -2.5 -23t-3.5 -25zM1213 460q0 -6 -4 -9.5t-8.5 -3.5t-8 3.5t-3.5 9.5t3.5 9.5t8 3.5t8.5 -3.5t4 -9.5zM667 368q-4 -7 -11.5 -5t-5.5 10q1 4 5 5.5
t7.5 0.5t5 -4t-0.5 -7zM327 368q-3 -7 -10.5 -5t-5.5 10q1 4 4.5 5.5t7 0.5t5.5 -4t-1 -7zM1194 291q-4 -8 -11.5 -4.5t-3.5 10.5q4 8 11.5 4.5t3.5 -10.5zM1214 337q-2 -4 -5 -5t-6 0.5t-4 4t1 6.5q4 7 11 4t3 -10z" />
    <glyph glyph-name="three" unicode="3" horiz-adv-x="1272" 
d="M358 203h42q5 -51 8.5 -101.5t5.5 -101.5q3 38 5.5 77t7.5 77l6 49h39q5 -42 9 -83t7 -83l3 -37q3 41 4.5 80.5t5.5 78.5q2 11 2.5 22t1.5 22h30l-20 -244h-46q-5 48 -9.5 96.5t-6.5 97.5q-2 -36 -5 -72.5t-7 -72.5l-4 -49h-47l-11 137l-12 -137h-45q-5 48 -10 96.5
t-7 97.5q-2 -36 -4.5 -72.5t-6.5 -72.5l-5 -49h-46l-12 140l-11 -140h-46q-5 48 -9.5 96t-6.5 97q-1 -37 -4 -72.5t-7 -71.5l-6 -49h-45l-21 244h30q5 -51 8.5 -101.5t5.5 -101.5q3 38 5.5 77t7.5 77l6 49h39q5 -42 9 -83t7 -83l3 -37q3 41 4.5 80.5t5.5 78.5l5 44h41
q5 -51 8.5 -101.5t6.5 -101.5q3 38 5.5 77t6.5 77q2 12 3 24t3 25h40q5 -42 8.5 -83t7.5 -83l2 -37q3 41 5 80.5t6 78.5zM1204 731h-1130v22h1130v-22zM1204 -197h-1130v22h1130v-22zM740 -41h-35v244h36q11 0 22 0.5t21 -4.5q17 -8 22 -27.5t5 -36.5v-19t-2.5 -22t-7.5 -20
t-14 -12l30 -103h-39l-21 97h-17v-97zM983 13v-54h-33v244h32q12 -43 24.5 -85t22.5 -86q-4 43 -4.5 85.5t-0.5 85.5h32v-244h-33q-12 42 -24.5 83.5t-21.5 83.5q2 -29 3 -56.5t3 -56.5zM606 -41h-33l29 244h57l30 -244h-35l-7 58h-33zM1153 112q1 11 0 23.5t-5 23.5
q-3 8 -10.5 13t-14.5 -5q-6 -8 -7 -20.5t-2 -23.5q-1 -12 -1 -23.5v-22.5v-23t2 -23q0 -9 2 -22t11 -18q10 -6 16 1.5t8 20t2.5 25t0.5 17.5h-25v28h58v-123h-26l-1 33q-2 -11 -7.5 -22t-16.5 -14t-22 2t-18 13q-14 17 -16 42t-2 45q-2 26 -1 52.5t8 50.5q2 11 7 21t15 15
q10 6 22 7t23 -3q12 -5 19 -15t10 -22.5t4 -25.5t1 -24zM224 327q5 8 12 14t16 8q8 2 16 -1.5t17 -0.5l-18 -34q-2 -3 -5.5 -10t0.5 -9q5 -4 11 2t11 13q2 5 5 10l6 10l8 18q8 0 15 4l-19 -38q-2 -3 -5 -9.5t1 -9.5q4 -4 10 1.5t10 12.5q4 9 9.5 19t9.5 19q5 9 9 18t9 18
q8 -2 14 3l-27 -55q-2 -5 -4.5 -10t-4.5 -10t-4 -12.5t6 -3.5q5 2 9.5 7t8.5 11q3 8 8 15q5 8 12 14t16 8t17 -1.5t17 -0.5q-5 -8 -9 -16.5t-9 -17.5q-2 -3 -5 -10t0 -9q3 -3 6.5 -1t7 5.5t6.5 8l5 7.5l1 2l32 66q8 0 13 3q-5 -12 -10 -23.5t-13 -22.5q7 7 16.5 11.5
t16.5 -6.5q6 -10 0.5 -23t-12.5 -21q6 -1 11 2t10 7q4 9 9 18.5t10 18.5l18 36q7 -2 13 3q-7 -14 -13 -27.5t-14 -27.5q-2 -5 -4.5 -10t-5.5 -10q-1 -2 -2 -5.5t-1 -6.5t1 -4.5t6 0.5t10.5 8t8.5 12q3 13 12 22q3 3 9.5 7.5t14 6.5t13.5 0.5t8 -10.5q1 -8 -3.5 -15
t-12 -11.5t-16.5 -7t-15 -2.5q-1 -6 3 -9.5t10 -3.5q13 0 24 7t17 18l4 -2q-8 -14 -23 -22.5t-31 -5.5t-16 18q-4 -5 -8 -9.5t-9 -6.5q-7 -4 -14.5 -1.5t-5.5 12.5v2q-2 -2 -4 -2q-4 -3 -12 -3h-7q-2 0 -3 -2t-3 -2q-10 -6 -21.5 -5t-17.5 11q-7 -9 -17 -12q-9 -2 -12.5 3
t-0.5 13q-5 -7 -13.5 -13.5t-17.5 -0.5q-7 4 -7 14q-6 -9 -14 -14q-8 -4 -15 -1.5t-6 10.5q-7 -7 -11 -9q-8 -4 -15.5 -1.5t-5.5 11.5q-4 -4 -8 -7t-9 -5q-9 -2 -12.5 3t0.5 13h-1q-5 -7 -13.5 -13.5t-17.5 -0.5q-5 2 -6 6.5t0 9.5q-5 -5 -10 -6q-4 -2 -13 -2q-5 0 -6 -1
t-4 -3q-5 -3 -11.5 -5t-11.5 -1t-8 5.5t-1 12.5q2 11 8 22t11 21q5 0 13 4q-3 -8 -6 -15t-7 -14q-1 -3 -4 -7.5t-5 -9.5t-2 -9t4 -5q9 -2 17 8t11 15q5 8 8 17.5t3 18.5q9 2 10 -5t-1 -13q-4 -16 -18 -31q8 -2 15 3t11 12zM943 446q-11 0 -17.5 5t-9.5 13t-4.5 17.5
t-1.5 17.5q-2 19 -2 39.5t6 39.5q3 8 8.5 14.5t14.5 7.5q20 5 31 -13q9 -17 9 -37.5v-38.5q0 -9 -0.5 -20.5t-4 -21t-10.5 -16.5t-19 -7zM389 446q-11 0 -17.5 5t-10 13t-4.5 17.5t-2 17.5q-1 19 -1 39.5t6 39.5q3 8 8 14.5t15 7.5q21 5 31 -13q8 -17 8.5 -37.5t0.5 -38.5
q0 -9 -1 -20.5t-4.5 -21t-10 -16.5t-18.5 -7zM867 -41h-35v244h35v-244zM225 447h-21v152h23h14t13 -2q10 -5 13 -16.5t3 -20.5q1 -11 -1 -27.5t-14 -21.5l18 -64h-24l-13 61q-3 0 -5.5 0.5t-5.5 0.5v-62zM1006 481v-34h-20v152h19q8 -26 16 -52.5t14 -53.5q-2 26 -2.5 53
t-0.5 53h20v-152h-21q-8 26 -15.5 52t-13.5 53q2 -18 2.5 -35.5t1.5 -35.5zM88 447h-22v152h34q26 0 32 -26q4 -14 3.5 -32t-8.5 -32q-7 -10 -17.5 -11t-21.5 -1v-50zM452 481v-34h-20v152h19q8 -26 15.5 -52.5t13.5 -53.5q-2 26 -2.5 53t-0.5 53h20v-152h-21
q-7 26 -14.5 52t-13.5 53q2 -18 2 -35.5t2 -35.5zM524 447h-21l18 152h35l19 -152h-21l-5 37h-21zM701 446q-15 0 -22.5 8.5t-10 21t-2 26.5t0.5 26v71h22v-106q0 -5 -0.5 -10t1.5 -10t7 -7.5t10 2.5t5.5 13.5t0.5 14.5q1 12 0.5 24t-0.5 24v55h22v-71q0 -12 0.5 -26
t-2 -26.5t-9.5 -21t-23 -8.5zM1090 348q5 -1 13 3q-3 -6 -5.5 -10.5t-6.5 -9.5v-1q6 7 14.5 13.5t17.5 7.5q12 0 11.5 -9t-3.5 -17q-3 -4 -10 -14.5t-4 -15.5q2 -3 5.5 -2t7 5l7 8t5.5 7l19 38h-8l3 6h8l8 17q8 0 14 3l-10 -20h15l-4 -6h-14l-18 -37l-5 -10t-1 -10
q3 -3 7 -0.5t8.5 7t7.5 9t4 6.5l4 -2q-5 -8 -12 -17t-18 -11q-9 -2 -12 2t-1 10q-3 -3 -6 -5.5t-6 -4.5q-7 -4 -14.5 -2t-6.5 12q1 8 6.5 15.5t8.5 14.5q1 3 3.5 9.5t-4.5 5.5q-11 -2 -20 -14t-14 -20q-4 -5 -6.5 -11.5t-5.5 -12.5h-12l7 16l-1 -1q-4 -2 -10 -4h-9
q-5 -6 -10.5 -8t-8.5 -2q-10 -4 -18 3t-6.5 18t5.5 20q5 9 14 16.5t21 7.5q10 0 14.5 -6t4.5 -14t-3.5 -16.5t-7.5 -14.5q13 0 20 11zM304 518q-23 15 -26 39q-2 11 2 22.5t15 17.5q9 5 21.5 4t20.5 -9q9 -9 9 -19.5v-21.5q-6 0 -11.5 0.5t-10.5 0.5q0 6 0.5 12.5t-4.5 11.5
q-9 8 -14.5 1t-6.5 -15q0 -11 7.5 -18t15.5 -13t14 -13.5t8 -16.5q2 -11 0.5 -21.5t-7 -18.5t-14 -12.5t-20.5 -2.5q-20 4 -22.5 19.5t-1.5 31.5h20q0 -5 -0.5 -10t0.5 -10q2 -6 7.5 -10t11.5 1q5 4 6 12.5t-1 14.5q-2 8 -7 13.5t-12 9.5zM771 518q-23 13 -27 39
q-1 11 2.5 22.5t14.5 17.5q10 5 22 4t20 -9q9 -9 8.5 -19.5t-0.5 -21.5q-5 0 -10 0.5t-10 0.5q0 6 0.5 12.5t-4.5 11.5q-9 8 -14.5 1t-6.5 -15q0 -11 7 -18t15 -13q17 -12 23 -30q2 -11 0.5 -21.5t-7 -18.5t-14.5 -12.5t-21 -2.5q-20 4 -22.5 19.5t-2.5 31.5h22q0 -5 -1 -10
t1 -10q2 -6 7 -10t11 1q6 4 7 12.5t-1 14.5q-2 8 -7 13.5t-12 9.5zM198 447h-55v152h55v-20h-33v-43h27v-22h-27v-46h33v-21zM875 447h-54v152h54v-20h-32v-43h27v-22h-27v-46h32v-21zM128 319l-42 -2q-5 -8 -9 -17t-5 -19q-8 -2 -9.5 2.5t0 11.5t4.5 13.5t5 8.5l-14 -1
l-5 8h23q11 17 26 34t35 27q6 4 16 5t12 -10q2 -5 -0.5 -10.5t-4.5 -10.5q-5 -10 -9.5 -19.5t-9.5 -18.5q-3 -7 -9 -17.5t-3 -18.5q-8 -2 -10 2t-0.5 10t4.5 12.5t5 9.5zM1163 599h21q-5 -21 -10 -42.5t-10 -42.5q-5 -16 -3.5 -33t1.5 -34h-23q0 17 0.5 34t-3.5 33
q-5 21 -10 42.5t-10 42.5h21q4 -19 7.5 -38.5t5.5 -39.5q1 20 5 39t8 39zM800 287q-7 4 -5.5 11.5t4.5 13.5l17 35q6 0 14 4l-13 -27q-2 -4 -8 -14.5t-2 -14.5q6 -5 14.5 2.5t11.5 11.5t5 7.5t5 8.5l12 24q4 0 12 2q-4 -9 -8.5 -18.5t-9.5 -18.5l-5 -10t0 -10q4 -5 10 1
t11 13q4 9 9.5 19t10.5 19l8 18t9 18q7 -2 14 3l-27 -55l-10 -20q-2 -5 -3.5 -12.5t6.5 -3.5q8 3 15 13q4 10 9.5 20t10.5 19l8 18t9 18q7 -2 14 3l-27 -55l-10 -20q-1 -2 -2 -5.5t-1.5 -6.5t0.5 -4.5t6 0.5q7 2 12 9t8 13l4 -2q-5 -8 -10 -15t-13 -11q-7 -4 -14 -1.5
t-6 10.5q-6 -6 -12 -9q-7 -4 -14 -1.5t-6 11.5q-5 -5 -9.5 -9t-10.5 -4q-9 0 -10 6t2 12q-6 -7 -16.5 -14t-18.5 -2zM1114 447h-54v152h22v-133h32v-19zM634 447h-54v152h22v-133h32v-19zM740 81q6 0 12.5 -0.5t11.5 3.5q9 8 11 20t2 22q0 11 -2 24t-10 21q-5 5 -12 4.5
t-13 -0.5v-94zM675 348q6 -1 14 3q-3 -6 -5.5 -10.5t-6.5 -9.5v-1q6 7 14.5 13.5t17.5 7.5q12 0 11.5 -9t-4.5 -17q-2 -4 -9.5 -14.5t-4.5 -15.5q2 -4 6.5 -1.5t8.5 7t7.5 9t4.5 6.5l4 -2l-10 -14t-13 -12q-7 -4 -14 -2t-6 12q1 8 6.5 15.5t8.5 14.5q1 1 2 4t1.5 5.5
t-0.5 4.5t-5 1q-11 -2 -19.5 -14t-13.5 -20l-12 -24h-12l4 9q-2 -2 -4 -3.5t-4 -2.5q-8 -4 -15 -1.5t-5 12.5q0 8 4.5 15t7.5 15q6 9 9 18q10 0 15 4l-19 -38q-2 -3 -5 -9.5t0 -9.5t7 -0.5t8 7t7 9t4 6.5zM943 582q-6 0 -9 -7.5t-4 -17.5t-0.5 -20t0.5 -14t-0.5 -13.5
t0.5 -19.5t4 -17.5t9 -7.5t9 7.5t4 17.5t0.5 19.5t-0.5 13.5t0.5 14t-0.5 20t-4 17.5t-9 7.5zM389 582q-6 0 -9 -7.5t-4 -17.5t-0.5 -20t0.5 -14t-0.5 -13.5t0.5 -19.5t4 -17.5t9 -7.5t8.5 7.5t3.5 17.5t0.5 19.5t-0.5 13.5t0.5 14t-0.5 20t-3.5 17.5t-8.5 7.5zM1190 599h22
q0 -28 -1 -56t-3 -57h-14q-2 29 -3 56.5t-1 56.5zM152 384q-8 2 -18.5 -7t-15.5 -14q-16 -18 -29 -39h42l13 27q1 3 4 8t5 10.5t2.5 9.5t-3.5 5zM1039 371q-5 -3 -6.5 0.5t-0.5 7.5q-11 4 -16.5 -5.5t-7.5 -16.5h14l-3 -6h-14l-44 -90q-4 0 -14 -2l46 92h-15l3 6h15
q3 8 8 16t15 10q6 2 15 -1q2 -1 5.5 -4.5t-0.5 -6.5zM835 371q-5 -3 -7 0.5t-1 7.5q-11 4 -16.5 -5.5t-7.5 -16.5h14l-3 -6h-14l-44 -90q-5 0 -13 -2l45 92h-15l4 6h14q3 8 8 16t15 10q6 2 15 -1q2 -1 5.5 -4.5t0.5 -6.5zM622 91q-2 -10 -3 -20t-3 -20h29q-3 29 -8 58.5
t-7 59.5q-1 -20 -3.5 -39t-4.5 -39zM88 515q5 0 9.5 -0.5t7.5 3.5q5 5 5.5 14t0.5 16t-0.5 16t-5.5 14q-3 5 -7.5 4.5t-9.5 -0.5v-67zM1045 346q-8 0 -15 -9t-11 -19.5t-4 -19t8 -8.5q6 0 13 9t11.5 19.5t4.5 19t-7 8.5zM928 -21q0 -10 -6 -15t-13.5 -5t-13.5 5t-6 15t6 15
t13.5 5t13.5 -5t6 -15zM562 -21q0 -10 -6 -15t-13.5 -5t-13.5 5t-6 15t6 15t13.5 5t13.5 -5t6 -15zM462 343q-7 0 -12.5 -5t-10 -12.5t-8 -16t-6.5 -13.5q11 -8 21 0t15 16q1 2 4 7t4 10.5t0 9.5t-7 4zM231 292q7 0 13 6t10.5 14t8 16.5t6.5 14.5q-10 5 -20 -3t-15 -16
q-1 -2 -4 -7t-4.5 -10.5t-1 -10t6.5 -4.5zM225 524q4 0 8 -0.5t7 1.5q6 5 7 13t1 15q0 6 -1 14.5t-7 12.5q-3 2 -6.5 2h-8.5v-58zM366 292q7 0 13 6t10.5 14t8 16.5t6.5 14.5q-11 5 -20.5 -3t-14.5 -16q-1 -2 -4 -7t-4.5 -10.5t-1 -10t6.5 -4.5zM539 322q-3 -5 -4 -8l-2 -6
q11 0 24.5 9.5t13.5 21.5q0 8 -5.5 7t-10.5 -4q-5 -4 -9 -9.5t-7 -10.5zM533 529l-3 -24h17q-2 18 -4.5 36t-3.5 36q-1 -11 -2.5 -23t-3.5 -25zM1213 460q0 -6 -4 -9.5t-8.5 -3.5t-8 3.5t-3.5 9.5t3.5 9.5t8 3.5t8.5 -3.5t4 -9.5zM667 368q-4 -7 -11.5 -5t-5.5 10q1 4 5 5.5
t7.5 0.5t5 -4t-0.5 -7zM327 368q-3 -7 -10.5 -5t-5.5 10q1 4 4.5 5.5t7 0.5t5.5 -4t-1 -7zM1194 291q-4 -8 -11.5 -4.5t-3.5 10.5q4 8 11.5 4.5t3.5 -10.5zM1214 337q-2 -4 -5 -5t-6 0.5t-4 4t1 6.5q4 7 11 4t3 -10z" />
    <glyph glyph-name="four" unicode="4" horiz-adv-x="1272" 
d="M358 203h42q5 -51 8.5 -101.5t5.5 -101.5q3 38 5.5 77t7.5 77l6 49h39q5 -42 9 -83t7 -83l3 -37q3 41 4.5 80.5t5.5 78.5q2 11 2.5 22t1.5 22h30l-20 -244h-46q-5 48 -9.5 96.5t-6.5 97.5q-2 -36 -5 -72.5t-7 -72.5l-4 -49h-47l-11 137l-12 -137h-45q-5 48 -10 96.5
t-7 97.5q-2 -36 -4.5 -72.5t-6.5 -72.5l-5 -49h-46l-12 140l-11 -140h-46q-5 48 -9.5 96t-6.5 97q-1 -37 -4 -72.5t-7 -71.5l-6 -49h-45l-21 244h30q5 -51 8.5 -101.5t5.5 -101.5q3 38 5.5 77t7.5 77l6 49h39q5 -42 9 -83t7 -83l3 -37q3 41 4.5 80.5t5.5 78.5l5 44h41
q5 -51 8.5 -101.5t6.5 -101.5q3 38 5.5 77t6.5 77q2 12 3 24t3 25h40q5 -42 8.5 -83t7.5 -83l2 -37q3 41 5 80.5t6 78.5zM1204 731h-1130v22h1130v-22zM1204 -197h-1130v22h1130v-22zM740 -41h-35v244h36q11 0 22 0.5t21 -4.5q17 -8 22 -27.5t5 -36.5v-19t-2.5 -22t-7.5 -20
t-14 -12l30 -103h-39l-21 97h-17v-97zM983 13v-54h-33v244h32q12 -43 24.5 -85t22.5 -86q-4 43 -4.5 85.5t-0.5 85.5h32v-244h-33q-12 42 -24.5 83.5t-21.5 83.5q2 -29 3 -56.5t3 -56.5zM606 -41h-33l29 244h57l30 -244h-35l-7 58h-33zM1153 112q1 11 0 23.5t-5 23.5
q-3 8 -10.5 13t-14.5 -5q-6 -8 -7 -20.5t-2 -23.5q-1 -12 -1 -23.5v-22.5v-23t2 -23q0 -9 2 -22t11 -18q10 -6 16 1.5t8 20t2.5 25t0.5 17.5h-25v28h58v-123h-26l-1 33q-2 -11 -7.5 -22t-16.5 -14t-22 2t-18 13q-14 17 -16 42t-2 45q-2 26 -1 52.5t8 50.5q2 11 7 21t15 15
q10 6 22 7t23 -3q12 -5 19 -15t10 -22.5t4 -25.5t1 -24zM224 327q5 8 12 14t16 8q8 2 16 -1.5t17 -0.5l-18 -34q-2 -3 -5.5 -10t0.5 -9q5 -4 11 2t11 13q2 5 5 10l6 10l8 18q8 0 15 4l-19 -38q-2 -3 -5 -9.5t1 -9.5q4 -4 10 1.5t10 12.5q4 9 9.5 19t9.5 19q5 9 9 18t9 18
q8 -2 14 3l-27 -55q-2 -5 -4.5 -10t-4.5 -10t-4 -12.5t6 -3.5q5 2 9.5 7t8.5 11q3 8 8 15q5 8 12 14t16 8t17 -1.5t17 -0.5q-5 -8 -9 -16.5t-9 -17.5q-2 -3 -5 -10t0 -9q3 -3 6.5 -1t7 5.5t6.5 8l5 7.5l1 2l32 66q8 0 13 3q-5 -12 -10 -23.5t-13 -22.5q7 7 16.5 11.5
t16.5 -6.5q6 -10 0.5 -23t-12.5 -21q6 -1 11 2t10 7q4 9 9 18.5t10 18.5l18 36q7 -2 13 3q-7 -14 -13 -27.5t-14 -27.5q-2 -5 -4.5 -10t-5.5 -10q-1 -2 -2 -5.5t-1 -6.5t1 -4.5t6 0.5t10.5 8t8.5 12q3 13 12 22q3 3 9.5 7.5t14 6.5t13.5 0.5t8 -10.5q1 -8 -3.5 -15
t-12 -11.5t-16.5 -7t-15 -2.5q-1 -6 3 -9.5t10 -3.5q13 0 24 7t17 18l4 -2q-8 -14 -23 -22.5t-31 -5.5t-16 18q-4 -5 -8 -9.5t-9 -6.5q-7 -4 -14.5 -1.5t-5.5 12.5v2q-2 -2 -4 -2q-4 -3 -12 -3h-7q-2 0 -3 -2t-3 -2q-10 -6 -21.5 -5t-17.5 11q-7 -9 -17 -12q-9 -2 -12.5 3
t-0.5 13q-5 -7 -13.5 -13.5t-17.5 -0.5q-7 4 -7 14q-6 -9 -14 -14q-8 -4 -15 -1.5t-6 10.5q-7 -7 -11 -9q-8 -4 -15.5 -1.5t-5.5 11.5q-4 -4 -8 -7t-9 -5q-9 -2 -12.5 3t0.5 13h-1q-5 -7 -13.5 -13.5t-17.5 -0.5q-5 2 -6 6.5t0 9.5q-5 -5 -10 -6q-4 -2 -13 -2q-5 0 -6 -1
t-4 -3q-5 -3 -11.5 -5t-11.5 -1t-8 5.5t-1 12.5q2 11 8 22t11 21q5 0 13 4q-3 -8 -6 -15t-7 -14q-1 -3 -4 -7.5t-5 -9.5t-2 -9t4 -5q9 -2 17 8t11 15q5 8 8 17.5t3 18.5q9 2 10 -5t-1 -13q-4 -16 -18 -31q8 -2 15 3t11 12zM943 446q-11 0 -17.5 5t-9.5 13t-4.5 17.5
t-1.5 17.5q-2 19 -2 39.5t6 39.5q3 8 8.5 14.5t14.5 7.5q20 5 31 -13q9 -17 9 -37.5v-38.5q0 -9 -0.5 -20.5t-4 -21t-10.5 -16.5t-19 -7zM389 446q-11 0 -17.5 5t-10 13t-4.5 17.5t-2 17.5q-1 19 -1 39.5t6 39.5q3 8 8 14.5t15 7.5q21 5 31 -13q8 -17 8.5 -37.5t0.5 -38.5
q0 -9 -1 -20.5t-4.5 -21t-10 -16.5t-18.5 -7zM867 -41h-35v244h35v-244zM225 447h-21v152h23h14t13 -2q10 -5 13 -16.5t3 -20.5q1 -11 -1 -27.5t-14 -21.5l18 -64h-24l-13 61q-3 0 -5.5 0.5t-5.5 0.5v-62zM1006 481v-34h-20v152h19q8 -26 16 -52.5t14 -53.5q-2 26 -2.5 53
t-0.5 53h20v-152h-21q-8 26 -15.5 52t-13.5 53q2 -18 2.5 -35.5t1.5 -35.5zM88 447h-22v152h34q26 0 32 -26q4 -14 3.5 -32t-8.5 -32q-7 -10 -17.5 -11t-21.5 -1v-50zM452 481v-34h-20v152h19q8 -26 15.5 -52.5t13.5 -53.5q-2 26 -2.5 53t-0.5 53h20v-152h-21
q-7 26 -14.5 52t-13.5 53q2 -18 2 -35.5t2 -35.5zM524 447h-21l18 152h35l19 -152h-21l-5 37h-21zM701 446q-15 0 -22.5 8.5t-10 21t-2 26.5t0.5 26v71h22v-106q0 -5 -0.5 -10t1.5 -10t7 -7.5t10 2.5t5.5 13.5t0.5 14.5q1 12 0.5 24t-0.5 24v55h22v-71q0 -12 0.5 -26
t-2 -26.5t-9.5 -21t-23 -8.5zM1090 348q5 -1 13 3q-3 -6 -5.5 -10.5t-6.5 -9.5v-1q6 7 14.5 13.5t17.5 7.5q12 0 11.5 -9t-3.5 -17q-3 -4 -10 -14.5t-4 -15.5q2 -3 5.5 -2t7 5l7 8t5.5 7l19 38h-8l3 6h8l8 17q8 0 14 3l-10 -20h15l-4 -6h-14l-18 -37l-5 -10t-1 -10
q3 -3 7 -0.5t8.5 7t7.5 9t4 6.5l4 -2q-5 -8 -12 -17t-18 -11q-9 -2 -12 2t-1 10q-3 -3 -6 -5.5t-6 -4.5q-7 -4 -14.5 -2t-6.5 12q1 8 6.5 15.5t8.5 14.5q1 3 3.5 9.5t-4.5 5.5q-11 -2 -20 -14t-14 -20q-4 -5 -6.5 -11.5t-5.5 -12.5h-12l7 16l-1 -1q-4 -2 -10 -4h-9
q-5 -6 -10.5 -8t-8.5 -2q-10 -4 -18 3t-6.5 18t5.5 20q5 9 14 16.5t21 7.5q10 0 14.5 -6t4.5 -14t-3.5 -16.5t-7.5 -14.5q13 0 20 11zM304 518q-23 15 -26 39q-2 11 2 22.5t15 17.5q9 5 21.5 4t20.5 -9q9 -9 9 -19.5v-21.5q-6 0 -11.5 0.5t-10.5 0.5q0 6 0.5 12.5t-4.5 11.5
q-9 8 -14.5 1t-6.5 -15q0 -11 7.5 -18t15.5 -13t14 -13.5t8 -16.5q2 -11 0.5 -21.5t-7 -18.5t-14 -12.5t-20.5 -2.5q-20 4 -22.5 19.5t-1.5 31.5h20q0 -5 -0.5 -10t0.5 -10q2 -6 7.5 -10t11.5 1q5 4 6 12.5t-1 14.5q-2 8 -7 13.5t-12 9.5zM771 518q-23 13 -27 39
q-1 11 2.5 22.5t14.5 17.5q10 5 22 4t20 -9q9 -9 8.5 -19.5t-0.5 -21.5q-5 0 -10 0.5t-10 0.5q0 6 0.5 12.5t-4.5 11.5q-9 8 -14.5 1t-6.5 -15q0 -11 7 -18t15 -13q17 -12 23 -30q2 -11 0.5 -21.5t-7 -18.5t-14.5 -12.5t-21 -2.5q-20 4 -22.5 19.5t-2.5 31.5h22q0 -5 -1 -10
t1 -10q2 -6 7 -10t11 1q6 4 7 12.5t-1 14.5q-2 8 -7 13.5t-12 9.5zM198 447h-55v152h55v-20h-33v-43h27v-22h-27v-46h33v-21zM875 447h-54v152h54v-20h-32v-43h27v-22h-27v-46h32v-21zM128 319l-42 -2q-5 -8 -9 -17t-5 -19q-8 -2 -9.5 2.5t0 11.5t4.5 13.5t5 8.5l-14 -1
l-5 8h23q11 17 26 34t35 27q6 4 16 5t12 -10q2 -5 -0.5 -10.5t-4.5 -10.5q-5 -10 -9.5 -19.5t-9.5 -18.5q-3 -7 -9 -17.5t-3 -18.5q-8 -2 -10 2t-0.5 10t4.5 12.5t5 9.5zM1163 599h21q-5 -21 -10 -42.5t-10 -42.5q-5 -16 -3.5 -33t1.5 -34h-23q0 17 0.5 34t-3.5 33
q-5 21 -10 42.5t-10 42.5h21q4 -19 7.5 -38.5t5.5 -39.5q1 20 5 39t8 39zM800 287q-7 4 -5.5 11.5t4.5 13.5l17 35q6 0 14 4l-13 -27q-2 -4 -8 -14.5t-2 -14.5q6 -5 14.5 2.5t11.5 11.5t5 7.5t5 8.5l12 24q4 0 12 2q-4 -9 -8.5 -18.5t-9.5 -18.5l-5 -10t0 -10q4 -5 10 1
t11 13q4 9 9.5 19t10.5 19l8 18t9 18q7 -2 14 3l-27 -55l-10 -20q-2 -5 -3.5 -12.5t6.5 -3.5q8 3 15 13q4 10 9.5 20t10.5 19l8 18t9 18q7 -2 14 3l-27 -55l-10 -20q-1 -2 -2 -5.5t-1.5 -6.5t0.5 -4.5t6 0.5q7 2 12 9t8 13l4 -2q-5 -8 -10 -15t-13 -11q-7 -4 -14 -1.5
t-6 10.5q-6 -6 -12 -9q-7 -4 -14 -1.5t-6 11.5q-5 -5 -9.5 -9t-10.5 -4q-9 0 -10 6t2 12q-6 -7 -16.5 -14t-18.5 -2zM1114 447h-54v152h22v-133h32v-19zM634 447h-54v152h22v-133h32v-19zM740 81q6 0 12.5 -0.5t11.5 3.5q9 8 11 20t2 22q0 11 -2 24t-10 21q-5 5 -12 4.5
t-13 -0.5v-94zM675 348q6 -1 14 3q-3 -6 -5.5 -10.5t-6.5 -9.5v-1q6 7 14.5 13.5t17.5 7.5q12 0 11.5 -9t-4.5 -17q-2 -4 -9.5 -14.5t-4.5 -15.5q2 -4 6.5 -1.5t8.5 7t7.5 9t4.5 6.5l4 -2l-10 -14t-13 -12q-7 -4 -14 -2t-6 12q1 8 6.5 15.5t8.5 14.5q1 1 2 4t1.5 5.5
t-0.5 4.5t-5 1q-11 -2 -19.5 -14t-13.5 -20l-12 -24h-12l4 9q-2 -2 -4 -3.5t-4 -2.5q-8 -4 -15 -1.5t-5 12.5q0 8 4.5 15t7.5 15q6 9 9 18q10 0 15 4l-19 -38q-2 -3 -5 -9.5t0 -9.5t7 -0.5t8 7t7 9t4 6.5zM943 582q-6 0 -9 -7.5t-4 -17.5t-0.5 -20t0.5 -14t-0.5 -13.5
t0.5 -19.5t4 -17.5t9 -7.5t9 7.5t4 17.5t0.5 19.5t-0.5 13.5t0.5 14t-0.5 20t-4 17.5t-9 7.5zM389 582q-6 0 -9 -7.5t-4 -17.5t-0.5 -20t0.5 -14t-0.5 -13.5t0.5 -19.5t4 -17.5t9 -7.5t8.5 7.5t3.5 17.5t0.5 19.5t-0.5 13.5t0.5 14t-0.5 20t-3.5 17.5t-8.5 7.5zM1190 599h22
q0 -28 -1 -56t-3 -57h-14q-2 29 -3 56.5t-1 56.5zM152 384q-8 2 -18.5 -7t-15.5 -14q-16 -18 -29 -39h42l13 27q1 3 4 8t5 10.5t2.5 9.5t-3.5 5zM1039 371q-5 -3 -6.5 0.5t-0.5 7.5q-11 4 -16.5 -5.5t-7.5 -16.5h14l-3 -6h-14l-44 -90q-4 0 -14 -2l46 92h-15l3 6h15
q3 8 8 16t15 10q6 2 15 -1q2 -1 5.5 -4.5t-0.5 -6.5zM835 371q-5 -3 -7 0.5t-1 7.5q-11 4 -16.5 -5.5t-7.5 -16.5h14l-3 -6h-14l-44 -90q-5 0 -13 -2l45 92h-15l4 6h14q3 8 8 16t15 10q6 2 15 -1q2 -1 5.5 -4.5t0.5 -6.5zM622 91q-2 -10 -3 -20t-3 -20h29q-3 29 -8 58.5
t-7 59.5q-1 -20 -3.5 -39t-4.5 -39zM88 515q5 0 9.5 -0.5t7.5 3.5q5 5 5.5 14t0.5 16t-0.5 16t-5.5 14q-3 5 -7.5 4.5t-9.5 -0.5v-67zM1045 346q-8 0 -15 -9t-11 -19.5t-4 -19t8 -8.5q6 0 13 9t11.5 19.5t4.5 19t-7 8.5zM928 -21q0 -10 -6 -15t-13.5 -5t-13.5 5t-6 15t6 15
t13.5 5t13.5 -5t6 -15zM562 -21q0 -10 -6 -15t-13.5 -5t-13.5 5t-6 15t6 15t13.5 5t13.5 -5t6 -15zM462 343q-7 0 -12.5 -5t-10 -12.5t-8 -16t-6.5 -13.5q11 -8 21 0t15 16q1 2 4 7t4 10.5t0 9.5t-7 4zM231 292q7 0 13 6t10.5 14t8 16.5t6.5 14.5q-10 5 -20 -3t-15 -16
q-1 -2 -4 -7t-4.5 -10.5t-1 -10t6.5 -4.5zM225 524q4 0 8 -0.5t7 1.5q6 5 7 13t1 15q0 6 -1 14.5t-7 12.5q-3 2 -6.5 2h-8.5v-58zM366 292q7 0 13 6t10.5 14t8 16.5t6.5 14.5q-11 5 -20.5 -3t-14.5 -16q-1 -2 -4 -7t-4.5 -10.5t-1 -10t6.5 -4.5zM539 322q-3 -5 -4 -8l-2 -6
q11 0 24.5 9.5t13.5 21.5q0 8 -5.5 7t-10.5 -4q-5 -4 -9 -9.5t-7 -10.5zM533 529l-3 -24h17q-2 18 -4.5 36t-3.5 36q-1 -11 -2.5 -23t-3.5 -25zM1213 460q0 -6 -4 -9.5t-8.5 -3.5t-8 3.5t-3.5 9.5t3.5 9.5t8 3.5t8.5 -3.5t4 -9.5zM667 368q-4 -7 -11.5 -5t-5.5 10q1 4 5 5.5
t7.5 0.5t5 -4t-0.5 -7zM327 368q-3 -7 -10.5 -5t-5.5 10q1 4 4.5 5.5t7 0.5t5.5 -4t-1 -7zM1194 291q-4 -8 -11.5 -4.5t-3.5 10.5q4 8 11.5 4.5t3.5 -10.5zM1214 337q-2 -4 -5 -5t-6 0.5t-4 4t1 6.5q4 7 11 4t3 -10z" />
    <glyph glyph-name="five" unicode="5" horiz-adv-x="1272" 
d="M358 203h42q5 -51 8.5 -101.5t5.5 -101.5q3 38 5.5 77t7.5 77l6 49h39q5 -42 9 -83t7 -83l3 -37q3 41 4.5 80.5t5.5 78.5q2 11 2.5 22t1.5 22h30l-20 -244h-46q-5 48 -9.5 96.5t-6.5 97.5q-2 -36 -5 -72.5t-7 -72.5l-4 -49h-47l-11 137l-12 -137h-45q-5 48 -10 96.5
t-7 97.5q-2 -36 -4.5 -72.5t-6.5 -72.5l-5 -49h-46l-12 140l-11 -140h-46q-5 48 -9.5 96t-6.5 97q-1 -37 -4 -72.5t-7 -71.5l-6 -49h-45l-21 244h30q5 -51 8.5 -101.5t5.5 -101.5q3 38 5.5 77t7.5 77l6 49h39q5 -42 9 -83t7 -83l3 -37q3 41 4.5 80.5t5.5 78.5l5 44h41
q5 -51 8.5 -101.5t6.5 -101.5q3 38 5.5 77t6.5 77q2 12 3 24t3 25h40q5 -42 8.5 -83t7.5 -83l2 -37q3 41 5 80.5t6 78.5zM1204 731h-1130v22h1130v-22zM1204 -197h-1130v22h1130v-22zM740 -41h-35v244h36q11 0 22 0.5t21 -4.5q17 -8 22 -27.5t5 -36.5v-19t-2.5 -22t-7.5 -20
t-14 -12l30 -103h-39l-21 97h-17v-97zM983 13v-54h-33v244h32q12 -43 24.5 -85t22.5 -86q-4 43 -4.5 85.5t-0.5 85.5h32v-244h-33q-12 42 -24.5 83.5t-21.5 83.5q2 -29 3 -56.5t3 -56.5zM606 -41h-33l29 244h57l30 -244h-35l-7 58h-33zM1153 112q1 11 0 23.5t-5 23.5
q-3 8 -10.5 13t-14.5 -5q-6 -8 -7 -20.5t-2 -23.5q-1 -12 -1 -23.5v-22.5v-23t2 -23q0 -9 2 -22t11 -18q10 -6 16 1.5t8 20t2.5 25t0.5 17.5h-25v28h58v-123h-26l-1 33q-2 -11 -7.5 -22t-16.5 -14t-22 2t-18 13q-14 17 -16 42t-2 45q-2 26 -1 52.5t8 50.5q2 11 7 21t15 15
q10 6 22 7t23 -3q12 -5 19 -15t10 -22.5t4 -25.5t1 -24zM224 327q5 8 12 14t16 8q8 2 16 -1.5t17 -0.5l-18 -34q-2 -3 -5.5 -10t0.5 -9q5 -4 11 2t11 13q2 5 5 10l6 10l8 18q8 0 15 4l-19 -38q-2 -3 -5 -9.5t1 -9.5q4 -4 10 1.5t10 12.5q4 9 9.5 19t9.5 19q5 9 9 18t9 18
q8 -2 14 3l-27 -55q-2 -5 -4.5 -10t-4.5 -10t-4 -12.5t6 -3.5q5 2 9.5 7t8.5 11q3 8 8 15q5 8 12 14t16 8t17 -1.5t17 -0.5q-5 -8 -9 -16.5t-9 -17.5q-2 -3 -5 -10t0 -9q3 -3 6.5 -1t7 5.5t6.5 8l5 7.5l1 2l32 66q8 0 13 3q-5 -12 -10 -23.5t-13 -22.5q7 7 16.5 11.5
t16.5 -6.5q6 -10 0.5 -23t-12.5 -21q6 -1 11 2t10 7q4 9 9 18.5t10 18.5l18 36q7 -2 13 3q-7 -14 -13 -27.5t-14 -27.5q-2 -5 -4.5 -10t-5.5 -10q-1 -2 -2 -5.5t-1 -6.5t1 -4.5t6 0.5t10.5 8t8.5 12q3 13 12 22q3 3 9.5 7.5t14 6.5t13.5 0.5t8 -10.5q1 -8 -3.5 -15
t-12 -11.5t-16.5 -7t-15 -2.5q-1 -6 3 -9.5t10 -3.5q13 0 24 7t17 18l4 -2q-8 -14 -23 -22.5t-31 -5.5t-16 18q-4 -5 -8 -9.5t-9 -6.5q-7 -4 -14.5 -1.5t-5.5 12.5v2q-2 -2 -4 -2q-4 -3 -12 -3h-7q-2 0 -3 -2t-3 -2q-10 -6 -21.5 -5t-17.5 11q-7 -9 -17 -12q-9 -2 -12.5 3
t-0.5 13q-5 -7 -13.5 -13.5t-17.5 -0.5q-7 4 -7 14q-6 -9 -14 -14q-8 -4 -15 -1.5t-6 10.5q-7 -7 -11 -9q-8 -4 -15.5 -1.5t-5.5 11.5q-4 -4 -8 -7t-9 -5q-9 -2 -12.5 3t0.5 13h-1q-5 -7 -13.5 -13.5t-17.5 -0.5q-5 2 -6 6.5t0 9.5q-5 -5 -10 -6q-4 -2 -13 -2q-5 0 -6 -1
t-4 -3q-5 -3 -11.5 -5t-11.5 -1t-8 5.5t-1 12.5q2 11 8 22t11 21q5 0 13 4q-3 -8 -6 -15t-7 -14q-1 -3 -4 -7.5t-5 -9.5t-2 -9t4 -5q9 -2 17 8t11 15q5 8 8 17.5t3 18.5q9 2 10 -5t-1 -13q-4 -16 -18 -31q8 -2 15 3t11 12zM943 446q-11 0 -17.5 5t-9.5 13t-4.5 17.5
t-1.5 17.5q-2 19 -2 39.5t6 39.5q3 8 8.5 14.5t14.5 7.5q20 5 31 -13q9 -17 9 -37.5v-38.5q0 -9 -0.5 -20.5t-4 -21t-10.5 -16.5t-19 -7zM389 446q-11 0 -17.5 5t-10 13t-4.5 17.5t-2 17.5q-1 19 -1 39.5t6 39.5q3 8 8 14.5t15 7.5q21 5 31 -13q8 -17 8.5 -37.5t0.5 -38.5
q0 -9 -1 -20.5t-4.5 -21t-10 -16.5t-18.5 -7zM867 -41h-35v244h35v-244zM225 447h-21v152h23h14t13 -2q10 -5 13 -16.5t3 -20.5q1 -11 -1 -27.5t-14 -21.5l18 -64h-24l-13 61q-3 0 -5.5 0.5t-5.5 0.5v-62zM1006 481v-34h-20v152h19q8 -26 16 -52.5t14 -53.5q-2 26 -2.5 53
t-0.5 53h20v-152h-21q-8 26 -15.5 52t-13.5 53q2 -18 2.5 -35.5t1.5 -35.5zM88 447h-22v152h34q26 0 32 -26q4 -14 3.5 -32t-8.5 -32q-7 -10 -17.5 -11t-21.5 -1v-50zM452 481v-34h-20v152h19q8 -26 15.5 -52.5t13.5 -53.5q-2 26 -2.5 53t-0.5 53h20v-152h-21
q-7 26 -14.5 52t-13.5 53q2 -18 2 -35.5t2 -35.5zM524 447h-21l18 152h35l19 -152h-21l-5 37h-21zM701 446q-15 0 -22.5 8.5t-10 21t-2 26.5t0.5 26v71h22v-106q0 -5 -0.5 -10t1.5 -10t7 -7.5t10 2.5t5.5 13.5t0.5 14.5q1 12 0.5 24t-0.5 24v55h22v-71q0 -12 0.5 -26
t-2 -26.5t-9.5 -21t-23 -8.5zM1090 348q5 -1 13 3q-3 -6 -5.5 -10.5t-6.5 -9.5v-1q6 7 14.5 13.5t17.5 7.5q12 0 11.5 -9t-3.5 -17q-3 -4 -10 -14.5t-4 -15.5q2 -3 5.5 -2t7 5l7 8t5.5 7l19 38h-8l3 6h8l8 17q8 0 14 3l-10 -20h15l-4 -6h-14l-18 -37l-5 -10t-1 -10
q3 -3 7 -0.5t8.5 7t7.5 9t4 6.5l4 -2q-5 -8 -12 -17t-18 -11q-9 -2 -12 2t-1 10q-3 -3 -6 -5.5t-6 -4.5q-7 -4 -14.5 -2t-6.5 12q1 8 6.5 15.5t8.5 14.5q1 3 3.5 9.5t-4.5 5.5q-11 -2 -20 -14t-14 -20q-4 -5 -6.5 -11.5t-5.5 -12.5h-12l7 16l-1 -1q-4 -2 -10 -4h-9
q-5 -6 -10.5 -8t-8.5 -2q-10 -4 -18 3t-6.5 18t5.5 20q5 9 14 16.5t21 7.5q10 0 14.5 -6t4.5 -14t-3.5 -16.5t-7.5 -14.5q13 0 20 11zM304 518q-23 15 -26 39q-2 11 2 22.5t15 17.5q9 5 21.5 4t20.5 -9q9 -9 9 -19.5v-21.5q-6 0 -11.5 0.5t-10.5 0.5q0 6 0.5 12.5t-4.5 11.5
q-9 8 -14.5 1t-6.5 -15q0 -11 7.5 -18t15.5 -13t14 -13.5t8 -16.5q2 -11 0.5 -21.5t-7 -18.5t-14 -12.5t-20.5 -2.5q-20 4 -22.5 19.5t-1.5 31.5h20q0 -5 -0.5 -10t0.5 -10q2 -6 7.5 -10t11.5 1q5 4 6 12.5t-1 14.5q-2 8 -7 13.5t-12 9.5zM771 518q-23 13 -27 39
q-1 11 2.5 22.5t14.5 17.5q10 5 22 4t20 -9q9 -9 8.5 -19.5t-0.5 -21.5q-5 0 -10 0.5t-10 0.5q0 6 0.5 12.5t-4.5 11.5q-9 8 -14.5 1t-6.5 -15q0 -11 7 -18t15 -13q17 -12 23 -30q2 -11 0.5 -21.5t-7 -18.5t-14.5 -12.5t-21 -2.5q-20 4 -22.5 19.5t-2.5 31.5h22q0 -5 -1 -10
t1 -10q2 -6 7 -10t11 1q6 4 7 12.5t-1 14.5q-2 8 -7 13.5t-12 9.5zM198 447h-55v152h55v-20h-33v-43h27v-22h-27v-46h33v-21zM875 447h-54v152h54v-20h-32v-43h27v-22h-27v-46h32v-21zM128 319l-42 -2q-5 -8 -9 -17t-5 -19q-8 -2 -9.5 2.5t0 11.5t4.5 13.5t5 8.5l-14 -1
l-5 8h23q11 17 26 34t35 27q6 4 16 5t12 -10q2 -5 -0.5 -10.5t-4.5 -10.5q-5 -10 -9.5 -19.5t-9.5 -18.5q-3 -7 -9 -17.5t-3 -18.5q-8 -2 -10 2t-0.5 10t4.5 12.5t5 9.5zM1163 599h21q-5 -21 -10 -42.5t-10 -42.5q-5 -16 -3.5 -33t1.5 -34h-23q0 17 0.5 34t-3.5 33
q-5 21 -10 42.5t-10 42.5h21q4 -19 7.5 -38.5t5.5 -39.5q1 20 5 39t8 39zM800 287q-7 4 -5.5 11.5t4.5 13.5l17 35q6 0 14 4l-13 -27q-2 -4 -8 -14.5t-2 -14.5q6 -5 14.5 2.5t11.5 11.5t5 7.5t5 8.5l12 24q4 0 12 2q-4 -9 -8.5 -18.5t-9.5 -18.5l-5 -10t0 -10q4 -5 10 1
t11 13q4 9 9.5 19t10.5 19l8 18t9 18q7 -2 14 3l-27 -55l-10 -20q-2 -5 -3.5 -12.5t6.5 -3.5q8 3 15 13q4 10 9.5 20t10.5 19l8 18t9 18q7 -2 14 3l-27 -55l-10 -20q-1 -2 -2 -5.5t-1.5 -6.5t0.5 -4.5t6 0.5q7 2 12 9t8 13l4 -2q-5 -8 -10 -15t-13 -11q-7 -4 -14 -1.5
t-6 10.5q-6 -6 -12 -9q-7 -4 -14 -1.5t-6 11.5q-5 -5 -9.5 -9t-10.5 -4q-9 0 -10 6t2 12q-6 -7 -16.5 -14t-18.5 -2zM1114 447h-54v152h22v-133h32v-19zM634 447h-54v152h22v-133h32v-19zM740 81q6 0 12.5 -0.5t11.5 3.5q9 8 11 20t2 22q0 11 -2 24t-10 21q-5 5 -12 4.5
t-13 -0.5v-94zM675 348q6 -1 14 3q-3 -6 -5.5 -10.5t-6.5 -9.5v-1q6 7 14.5 13.5t17.5 7.5q12 0 11.5 -9t-4.5 -17q-2 -4 -9.5 -14.5t-4.5 -15.5q2 -4 6.5 -1.5t8.5 7t7.5 9t4.5 6.5l4 -2l-10 -14t-13 -12q-7 -4 -14 -2t-6 12q1 8 6.5 15.5t8.5 14.5q1 1 2 4t1.5 5.5
t-0.5 4.5t-5 1q-11 -2 -19.5 -14t-13.5 -20l-12 -24h-12l4 9q-2 -2 -4 -3.5t-4 -2.5q-8 -4 -15 -1.5t-5 12.5q0 8 4.5 15t7.5 15q6 9 9 18q10 0 15 4l-19 -38q-2 -3 -5 -9.5t0 -9.5t7 -0.5t8 7t7 9t4 6.5zM943 582q-6 0 -9 -7.5t-4 -17.5t-0.5 -20t0.5 -14t-0.5 -13.5
t0.5 -19.5t4 -17.5t9 -7.5t9 7.5t4 17.5t0.5 19.5t-0.5 13.5t0.5 14t-0.5 20t-4 17.5t-9 7.5zM389 582q-6 0 -9 -7.5t-4 -17.5t-0.5 -20t0.5 -14t-0.5 -13.5t0.5 -19.5t4 -17.5t9 -7.5t8.5 7.5t3.5 17.5t0.5 19.5t-0.5 13.5t0.5 14t-0.5 20t-3.5 17.5t-8.5 7.5zM1190 599h22
q0 -28 -1 -56t-3 -57h-14q-2 29 -3 56.5t-1 56.5zM152 384q-8 2 -18.5 -7t-15.5 -14q-16 -18 -29 -39h42l13 27q1 3 4 8t5 10.5t2.5 9.5t-3.5 5zM1039 371q-5 -3 -6.5 0.5t-0.5 7.5q-11 4 -16.5 -5.5t-7.5 -16.5h14l-3 -6h-14l-44 -90q-4 0 -14 -2l46 92h-15l3 6h15
q3 8 8 16t15 10q6 2 15 -1q2 -1 5.5 -4.5t-0.5 -6.5zM835 371q-5 -3 -7 0.5t-1 7.5q-11 4 -16.5 -5.5t-7.5 -16.5h14l-3 -6h-14l-44 -90q-5 0 -13 -2l45 92h-15l4 6h14q3 8 8 16t15 10q6 2 15 -1q2 -1 5.5 -4.5t0.5 -6.5zM622 91q-2 -10 -3 -20t-3 -20h29q-3 29 -8 58.5
t-7 59.5q-1 -20 -3.5 -39t-4.5 -39zM88 515q5 0 9.5 -0.5t7.5 3.5q5 5 5.5 14t0.5 16t-0.5 16t-5.5 14q-3 5 -7.5 4.5t-9.5 -0.5v-67zM1045 346q-8 0 -15 -9t-11 -19.5t-4 -19t8 -8.5q6 0 13 9t11.5 19.5t4.5 19t-7 8.5zM928 -21q0 -10 -6 -15t-13.5 -5t-13.5 5t-6 15t6 15
t13.5 5t13.5 -5t6 -15zM562 -21q0 -10 -6 -15t-13.5 -5t-13.5 5t-6 15t6 15t13.5 5t13.5 -5t6 -15zM462 343q-7 0 -12.5 -5t-10 -12.5t-8 -16t-6.5 -13.5q11 -8 21 0t15 16q1 2 4 7t4 10.5t0 9.5t-7 4zM231 292q7 0 13 6t10.5 14t8 16.5t6.5 14.5q-10 5 -20 -3t-15 -16
q-1 -2 -4 -7t-4.5 -10.5t-1 -10t6.5 -4.5zM225 524q4 0 8 -0.5t7 1.5q6 5 7 13t1 15q0 6 -1 14.5t-7 12.5q-3 2 -6.5 2h-8.5v-58zM366 292q7 0 13 6t10.5 14t8 16.5t6.5 14.5q-11 5 -20.5 -3t-14.5 -16q-1 -2 -4 -7t-4.5 -10.5t-1 -10t6.5 -4.5zM539 322q-3 -5 -4 -8l-2 -6
q11 0 24.5 9.5t13.5 21.5q0 8 -5.5 7t-10.5 -4q-5 -4 -9 -9.5t-7 -10.5zM533 529l-3 -24h17q-2 18 -4.5 36t-3.5 36q-1 -11 -2.5 -23t-3.5 -25zM1213 460q0 -6 -4 -9.5t-8.5 -3.5t-8 3.5t-3.5 9.5t3.5 9.5t8 3.5t8.5 -3.5t4 -9.5zM667 368q-4 -7 -11.5 -5t-5.5 10q1 4 5 5.5
t7.5 0.5t5 -4t-0.5 -7zM327 368q-3 -7 -10.5 -5t-5.5 10q1 4 4.5 5.5t7 0.5t5.5 -4t-1 -7zM1194 291q-4 -8 -11.5 -4.5t-3.5 10.5q4 8 11.5 4.5t3.5 -10.5zM1214 337q-2 -4 -5 -5t-6 0.5t-4 4t1 6.5q4 7 11 4t3 -10z" />
    <glyph glyph-name="six" unicode="6" horiz-adv-x="1272" 
d="M358 203h42q5 -51 8.5 -101.5t5.5 -101.5q3 38 5.5 77t7.5 77l6 49h39q5 -42 9 -83t7 -83l3 -37q3 41 4.5 80.5t5.5 78.5q2 11 2.5 22t1.5 22h30l-20 -244h-46q-5 48 -9.5 96.5t-6.5 97.5q-2 -36 -5 -72.5t-7 -72.5l-4 -49h-47l-11 137l-12 -137h-45q-5 48 -10 96.5
t-7 97.5q-2 -36 -4.5 -72.5t-6.5 -72.5l-5 -49h-46l-12 140l-11 -140h-46q-5 48 -9.5 96t-6.5 97q-1 -37 -4 -72.5t-7 -71.5l-6 -49h-45l-21 244h30q5 -51 8.5 -101.5t5.5 -101.5q3 38 5.5 77t7.5 77l6 49h39q5 -42 9 -83t7 -83l3 -37q3 41 4.5 80.5t5.5 78.5l5 44h41
q5 -51 8.5 -101.5t6.5 -101.5q3 38 5.5 77t6.5 77q2 12 3 24t3 25h40q5 -42 8.5 -83t7.5 -83l2 -37q3 41 5 80.5t6 78.5zM1204 731h-1130v22h1130v-22zM1204 -197h-1130v22h1130v-22zM740 -41h-35v244h36q11 0 22 0.5t21 -4.5q17 -8 22 -27.5t5 -36.5v-19t-2.5 -22t-7.5 -20
t-14 -12l30 -103h-39l-21 97h-17v-97zM983 13v-54h-33v244h32q12 -43 24.5 -85t22.5 -86q-4 43 -4.5 85.5t-0.5 85.5h32v-244h-33q-12 42 -24.5 83.5t-21.5 83.5q2 -29 3 -56.5t3 -56.5zM606 -41h-33l29 244h57l30 -244h-35l-7 58h-33zM1153 112q1 11 0 23.5t-5 23.5
q-3 8 -10.5 13t-14.5 -5q-6 -8 -7 -20.5t-2 -23.5q-1 -12 -1 -23.5v-22.5v-23t2 -23q0 -9 2 -22t11 -18q10 -6 16 1.5t8 20t2.5 25t0.5 17.5h-25v28h58v-123h-26l-1 33q-2 -11 -7.5 -22t-16.5 -14t-22 2t-18 13q-14 17 -16 42t-2 45q-2 26 -1 52.5t8 50.5q2 11 7 21t15 15
q10 6 22 7t23 -3q12 -5 19 -15t10 -22.5t4 -25.5t1 -24zM224 327q5 8 12 14t16 8q8 2 16 -1.5t17 -0.5l-18 -34q-2 -3 -5.5 -10t0.5 -9q5 -4 11 2t11 13q2 5 5 10l6 10l8 18q8 0 15 4l-19 -38q-2 -3 -5 -9.5t1 -9.5q4 -4 10 1.5t10 12.5q4 9 9.5 19t9.5 19q5 9 9 18t9 18
q8 -2 14 3l-27 -55q-2 -5 -4.5 -10t-4.5 -10t-4 -12.5t6 -3.5q5 2 9.5 7t8.5 11q3 8 8 15q5 8 12 14t16 8t17 -1.5t17 -0.5q-5 -8 -9 -16.5t-9 -17.5q-2 -3 -5 -10t0 -9q3 -3 6.5 -1t7 5.5t6.5 8l5 7.5l1 2l32 66q8 0 13 3q-5 -12 -10 -23.5t-13 -22.5q7 7 16.5 11.5
t16.5 -6.5q6 -10 0.5 -23t-12.5 -21q6 -1 11 2t10 7q4 9 9 18.5t10 18.5l18 36q7 -2 13 3q-7 -14 -13 -27.5t-14 -27.5q-2 -5 -4.5 -10t-5.5 -10q-1 -2 -2 -5.5t-1 -6.5t1 -4.5t6 0.5t10.5 8t8.5 12q3 13 12 22q3 3 9.5 7.5t14 6.5t13.5 0.5t8 -10.5q1 -8 -3.5 -15
t-12 -11.5t-16.5 -7t-15 -2.5q-1 -6 3 -9.5t10 -3.5q13 0 24 7t17 18l4 -2q-8 -14 -23 -22.5t-31 -5.5t-16 18q-4 -5 -8 -9.5t-9 -6.5q-7 -4 -14.5 -1.5t-5.5 12.5v2q-2 -2 -4 -2q-4 -3 -12 -3h-7q-2 0 -3 -2t-3 -2q-10 -6 -21.5 -5t-17.5 11q-7 -9 -17 -12q-9 -2 -12.5 3
t-0.5 13q-5 -7 -13.5 -13.5t-17.5 -0.5q-7 4 -7 14q-6 -9 -14 -14q-8 -4 -15 -1.5t-6 10.5q-7 -7 -11 -9q-8 -4 -15.5 -1.5t-5.5 11.5q-4 -4 -8 -7t-9 -5q-9 -2 -12.5 3t0.5 13h-1q-5 -7 -13.5 -13.5t-17.5 -0.5q-5 2 -6 6.5t0 9.5q-5 -5 -10 -6q-4 -2 -13 -2q-5 0 -6 -1
t-4 -3q-5 -3 -11.5 -5t-11.5 -1t-8 5.5t-1 12.5q2 11 8 22t11 21q5 0 13 4q-3 -8 -6 -15t-7 -14q-1 -3 -4 -7.5t-5 -9.5t-2 -9t4 -5q9 -2 17 8t11 15q5 8 8 17.5t3 18.5q9 2 10 -5t-1 -13q-4 -16 -18 -31q8 -2 15 3t11 12zM943 446q-11 0 -17.5 5t-9.5 13t-4.5 17.5
t-1.5 17.5q-2 19 -2 39.5t6 39.5q3 8 8.5 14.5t14.5 7.5q20 5 31 -13q9 -17 9 -37.5v-38.5q0 -9 -0.5 -20.5t-4 -21t-10.5 -16.5t-19 -7zM389 446q-11 0 -17.5 5t-10 13t-4.5 17.5t-2 17.5q-1 19 -1 39.5t6 39.5q3 8 8 14.5t15 7.5q21 5 31 -13q8 -17 8.5 -37.5t0.5 -38.5
q0 -9 -1 -20.5t-4.5 -21t-10 -16.5t-18.5 -7zM867 -41h-35v244h35v-244zM225 447h-21v152h23h14t13 -2q10 -5 13 -16.5t3 -20.5q1 -11 -1 -27.5t-14 -21.5l18 -64h-24l-13 61q-3 0 -5.5 0.5t-5.5 0.5v-62zM1006 481v-34h-20v152h19q8 -26 16 -52.5t14 -53.5q-2 26 -2.5 53
t-0.5 53h20v-152h-21q-8 26 -15.5 52t-13.5 53q2 -18 2.5 -35.5t1.5 -35.5zM88 447h-22v152h34q26 0 32 -26q4 -14 3.5 -32t-8.5 -32q-7 -10 -17.5 -11t-21.5 -1v-50zM452 481v-34h-20v152h19q8 -26 15.5 -52.5t13.5 -53.5q-2 26 -2.5 53t-0.5 53h20v-152h-21
q-7 26 -14.5 52t-13.5 53q2 -18 2 -35.5t2 -35.5zM524 447h-21l18 152h35l19 -152h-21l-5 37h-21zM701 446q-15 0 -22.5 8.5t-10 21t-2 26.5t0.5 26v71h22v-106q0 -5 -0.5 -10t1.5 -10t7 -7.5t10 2.5t5.5 13.5t0.5 14.5q1 12 0.5 24t-0.5 24v55h22v-71q0 -12 0.5 -26
t-2 -26.5t-9.5 -21t-23 -8.5zM1090 348q5 -1 13 3q-3 -6 -5.5 -10.5t-6.5 -9.5v-1q6 7 14.5 13.5t17.5 7.5q12 0 11.5 -9t-3.5 -17q-3 -4 -10 -14.5t-4 -15.5q2 -3 5.5 -2t7 5l7 8t5.5 7l19 38h-8l3 6h8l8 17q8 0 14 3l-10 -20h15l-4 -6h-14l-18 -37l-5 -10t-1 -10
q3 -3 7 -0.5t8.5 7t7.5 9t4 6.5l4 -2q-5 -8 -12 -17t-18 -11q-9 -2 -12 2t-1 10q-3 -3 -6 -5.5t-6 -4.5q-7 -4 -14.5 -2t-6.5 12q1 8 6.5 15.5t8.5 14.5q1 3 3.5 9.5t-4.5 5.5q-11 -2 -20 -14t-14 -20q-4 -5 -6.5 -11.5t-5.5 -12.5h-12l7 16l-1 -1q-4 -2 -10 -4h-9
q-5 -6 -10.5 -8t-8.5 -2q-10 -4 -18 3t-6.5 18t5.5 20q5 9 14 16.5t21 7.5q10 0 14.5 -6t4.5 -14t-3.5 -16.5t-7.5 -14.5q13 0 20 11zM304 518q-23 15 -26 39q-2 11 2 22.5t15 17.5q9 5 21.5 4t20.5 -9q9 -9 9 -19.5v-21.5q-6 0 -11.5 0.5t-10.5 0.5q0 6 0.5 12.5t-4.5 11.5
q-9 8 -14.5 1t-6.5 -15q0 -11 7.5 -18t15.5 -13t14 -13.5t8 -16.5q2 -11 0.5 -21.5t-7 -18.5t-14 -12.5t-20.5 -2.5q-20 4 -22.5 19.5t-1.5 31.5h20q0 -5 -0.5 -10t0.5 -10q2 -6 7.5 -10t11.5 1q5 4 6 12.5t-1 14.5q-2 8 -7 13.5t-12 9.5zM771 518q-23 13 -27 39
q-1 11 2.5 22.5t14.5 17.5q10 5 22 4t20 -9q9 -9 8.5 -19.5t-0.5 -21.5q-5 0 -10 0.5t-10 0.5q0 6 0.5 12.5t-4.5 11.5q-9 8 -14.5 1t-6.5 -15q0 -11 7 -18t15 -13q17 -12 23 -30q2 -11 0.5 -21.5t-7 -18.5t-14.5 -12.5t-21 -2.5q-20 4 -22.5 19.5t-2.5 31.5h22q0 -5 -1 -10
t1 -10q2 -6 7 -10t11 1q6 4 7 12.5t-1 14.5q-2 8 -7 13.5t-12 9.5zM198 447h-55v152h55v-20h-33v-43h27v-22h-27v-46h33v-21zM875 447h-54v152h54v-20h-32v-43h27v-22h-27v-46h32v-21zM128 319l-42 -2q-5 -8 -9 -17t-5 -19q-8 -2 -9.5 2.5t0 11.5t4.5 13.5t5 8.5l-14 -1
l-5 8h23q11 17 26 34t35 27q6 4 16 5t12 -10q2 -5 -0.5 -10.5t-4.5 -10.5q-5 -10 -9.5 -19.5t-9.5 -18.5q-3 -7 -9 -17.5t-3 -18.5q-8 -2 -10 2t-0.5 10t4.5 12.5t5 9.5zM1163 599h21q-5 -21 -10 -42.5t-10 -42.5q-5 -16 -3.5 -33t1.5 -34h-23q0 17 0.5 34t-3.5 33
q-5 21 -10 42.5t-10 42.5h21q4 -19 7.5 -38.5t5.5 -39.5q1 20 5 39t8 39zM800 287q-7 4 -5.5 11.5t4.5 13.5l17 35q6 0 14 4l-13 -27q-2 -4 -8 -14.5t-2 -14.5q6 -5 14.5 2.5t11.5 11.5t5 7.5t5 8.5l12 24q4 0 12 2q-4 -9 -8.5 -18.5t-9.5 -18.5l-5 -10t0 -10q4 -5 10 1
t11 13q4 9 9.5 19t10.5 19l8 18t9 18q7 -2 14 3l-27 -55l-10 -20q-2 -5 -3.5 -12.5t6.5 -3.5q8 3 15 13q4 10 9.5 20t10.5 19l8 18t9 18q7 -2 14 3l-27 -55l-10 -20q-1 -2 -2 -5.5t-1.5 -6.5t0.5 -4.5t6 0.5q7 2 12 9t8 13l4 -2q-5 -8 -10 -15t-13 -11q-7 -4 -14 -1.5
t-6 10.5q-6 -6 -12 -9q-7 -4 -14 -1.5t-6 11.5q-5 -5 -9.5 -9t-10.5 -4q-9 0 -10 6t2 12q-6 -7 -16.5 -14t-18.5 -2zM1114 447h-54v152h22v-133h32v-19zM634 447h-54v152h22v-133h32v-19zM740 81q6 0 12.5 -0.5t11.5 3.5q9 8 11 20t2 22q0 11 -2 24t-10 21q-5 5 -12 4.5
t-13 -0.5v-94zM675 348q6 -1 14 3q-3 -6 -5.5 -10.5t-6.5 -9.5v-1q6 7 14.5 13.5t17.5 7.5q12 0 11.5 -9t-4.5 -17q-2 -4 -9.5 -14.5t-4.5 -15.5q2 -4 6.5 -1.5t8.5 7t7.5 9t4.5 6.5l4 -2l-10 -14t-13 -12q-7 -4 -14 -2t-6 12q1 8 6.5 15.5t8.5 14.5q1 1 2 4t1.5 5.5
t-0.5 4.5t-5 1q-11 -2 -19.5 -14t-13.5 -20l-12 -24h-12l4 9q-2 -2 -4 -3.5t-4 -2.5q-8 -4 -15 -1.5t-5 12.5q0 8 4.5 15t7.5 15q6 9 9 18q10 0 15 4l-19 -38q-2 -3 -5 -9.5t0 -9.5t7 -0.5t8 7t7 9t4 6.5zM943 582q-6 0 -9 -7.5t-4 -17.5t-0.5 -20t0.5 -14t-0.5 -13.5
t0.5 -19.5t4 -17.5t9 -7.5t9 7.5t4 17.5t0.5 19.5t-0.5 13.5t0.5 14t-0.5 20t-4 17.5t-9 7.5zM389 582q-6 0 -9 -7.5t-4 -17.5t-0.5 -20t0.5 -14t-0.5 -13.5t0.5 -19.5t4 -17.5t9 -7.5t8.5 7.5t3.5 17.5t0.5 19.5t-0.5 13.5t0.5 14t-0.5 20t-3.5 17.5t-8.5 7.5zM1190 599h22
q0 -28 -1 -56t-3 -57h-14q-2 29 -3 56.5t-1 56.5zM152 384q-8 2 -18.5 -7t-15.5 -14q-16 -18 -29 -39h42l13 27q1 3 4 8t5 10.5t2.5 9.5t-3.5 5zM1039 371q-5 -3 -6.5 0.5t-0.5 7.5q-11 4 -16.5 -5.5t-7.5 -16.5h14l-3 -6h-14l-44 -90q-4 0 -14 -2l46 92h-15l3 6h15
q3 8 8 16t15 10q6 2 15 -1q2 -1 5.5 -4.5t-0.5 -6.5zM835 371q-5 -3 -7 0.5t-1 7.5q-11 4 -16.5 -5.5t-7.5 -16.5h14l-3 -6h-14l-44 -90q-5 0 -13 -2l45 92h-15l4 6h14q3 8 8 16t15 10q6 2 15 -1q2 -1 5.5 -4.5t0.5 -6.5zM622 91q-2 -10 -3 -20t-3 -20h29q-3 29 -8 58.5
t-7 59.5q-1 -20 -3.5 -39t-4.5 -39zM88 515q5 0 9.5 -0.5t7.5 3.5q5 5 5.5 14t0.5 16t-0.5 16t-5.5 14q-3 5 -7.5 4.5t-9.5 -0.5v-67zM1045 346q-8 0 -15 -9t-11 -19.5t-4 -19t8 -8.5q6 0 13 9t11.5 19.5t4.5 19t-7 8.5zM928 -21q0 -10 -6 -15t-13.5 -5t-13.5 5t-6 15t6 15
t13.5 5t13.5 -5t6 -15zM562 -21q0 -10 -6 -15t-13.5 -5t-13.5 5t-6 15t6 15t13.5 5t13.5 -5t6 -15zM462 343q-7 0 -12.5 -5t-10 -12.5t-8 -16t-6.5 -13.5q11 -8 21 0t15 16q1 2 4 7t4 10.5t0 9.5t-7 4zM231 292q7 0 13 6t10.5 14t8 16.5t6.5 14.5q-10 5 -20 -3t-15 -16
q-1 -2 -4 -7t-4.5 -10.5t-1 -10t6.5 -4.5zM225 524q4 0 8 -0.5t7 1.5q6 5 7 13t1 15q0 6 -1 14.5t-7 12.5q-3 2 -6.5 2h-8.5v-58zM366 292q7 0 13 6t10.5 14t8 16.5t6.5 14.5q-11 5 -20.5 -3t-14.5 -16q-1 -2 -4 -7t-4.5 -10.5t-1 -10t6.5 -4.5zM539 322q-3 -5 -4 -8l-2 -6
q11 0 24.5 9.5t13.5 21.5q0 8 -5.5 7t-10.5 -4q-5 -4 -9 -9.5t-7 -10.5zM533 529l-3 -24h17q-2 18 -4.5 36t-3.5 36q-1 -11 -2.5 -23t-3.5 -25zM1213 460q0 -6 -4 -9.5t-8.5 -3.5t-8 3.5t-3.5 9.5t3.5 9.5t8 3.5t8.5 -3.5t4 -9.5zM667 368q-4 -7 -11.5 -5t-5.5 10q1 4 5 5.5
t7.5 0.5t5 -4t-0.5 -7zM327 368q-3 -7 -10.5 -5t-5.5 10q1 4 4.5 5.5t7 0.5t5.5 -4t-1 -7zM1194 291q-4 -8 -11.5 -4.5t-3.5 10.5q4 8 11.5 4.5t3.5 -10.5zM1214 337q-2 -4 -5 -5t-6 0.5t-4 4t1 6.5q4 7 11 4t3 -10z" />
    <glyph glyph-name="seven" unicode="7" horiz-adv-x="1272" 
d="M358 203h42q5 -51 8.5 -101.5t5.5 -101.5q3 38 5.5 77t7.5 77l6 49h39q5 -42 9 -83t7 -83l3 -37q3 41 4.5 80.5t5.5 78.5q2 11 2.5 22t1.5 22h30l-20 -244h-46q-5 48 -9.5 96.5t-6.5 97.5q-2 -36 -5 -72.5t-7 -72.5l-4 -49h-47l-11 137l-12 -137h-45q-5 48 -10 96.5
t-7 97.5q-2 -36 -4.5 -72.5t-6.5 -72.5l-5 -49h-46l-12 140l-11 -140h-46q-5 48 -9.5 96t-6.5 97q-1 -37 -4 -72.5t-7 -71.5l-6 -49h-45l-21 244h30q5 -51 8.5 -101.5t5.5 -101.5q3 38 5.5 77t7.5 77l6 49h39q5 -42 9 -83t7 -83l3 -37q3 41 4.5 80.5t5.5 78.5l5 44h41
q5 -51 8.5 -101.5t6.5 -101.5q3 38 5.5 77t6.5 77q2 12 3 24t3 25h40q5 -42 8.5 -83t7.5 -83l2 -37q3 41 5 80.5t6 78.5zM1204 731h-1130v22h1130v-22zM1204 -197h-1130v22h1130v-22zM740 -41h-35v244h36q11 0 22 0.5t21 -4.5q17 -8 22 -27.5t5 -36.5v-19t-2.5 -22t-7.5 -20
t-14 -12l30 -103h-39l-21 97h-17v-97zM983 13v-54h-33v244h32q12 -43 24.5 -85t22.5 -86q-4 43 -4.5 85.5t-0.5 85.5h32v-244h-33q-12 42 -24.5 83.5t-21.5 83.5q2 -29 3 -56.5t3 -56.5zM606 -41h-33l29 244h57l30 -244h-35l-7 58h-33zM1153 112q1 11 0 23.5t-5 23.5
q-3 8 -10.5 13t-14.5 -5q-6 -8 -7 -20.5t-2 -23.5q-1 -12 -1 -23.5v-22.5v-23t2 -23q0 -9 2 -22t11 -18q10 -6 16 1.5t8 20t2.5 25t0.5 17.5h-25v28h58v-123h-26l-1 33q-2 -11 -7.5 -22t-16.5 -14t-22 2t-18 13q-14 17 -16 42t-2 45q-2 26 -1 52.5t8 50.5q2 11 7 21t15 15
q10 6 22 7t23 -3q12 -5 19 -15t10 -22.5t4 -25.5t1 -24zM224 327q5 8 12 14t16 8q8 2 16 -1.5t17 -0.5l-18 -34q-2 -3 -5.5 -10t0.5 -9q5 -4 11 2t11 13q2 5 5 10l6 10l8 18q8 0 15 4l-19 -38q-2 -3 -5 -9.5t1 -9.5q4 -4 10 1.5t10 12.5q4 9 9.5 19t9.5 19q5 9 9 18t9 18
q8 -2 14 3l-27 -55q-2 -5 -4.5 -10t-4.5 -10t-4 -12.5t6 -3.5q5 2 9.5 7t8.5 11q3 8 8 15q5 8 12 14t16 8t17 -1.5t17 -0.5q-5 -8 -9 -16.5t-9 -17.5q-2 -3 -5 -10t0 -9q3 -3 6.5 -1t7 5.5t6.5 8l5 7.5l1 2l32 66q8 0 13 3q-5 -12 -10 -23.5t-13 -22.5q7 7 16.5 11.5
t16.5 -6.5q6 -10 0.5 -23t-12.5 -21q6 -1 11 2t10 7q4 9 9 18.5t10 18.5l18 36q7 -2 13 3q-7 -14 -13 -27.5t-14 -27.5q-2 -5 -4.5 -10t-5.5 -10q-1 -2 -2 -5.5t-1 -6.5t1 -4.5t6 0.5t10.5 8t8.5 12q3 13 12 22q3 3 9.5 7.5t14 6.5t13.5 0.5t8 -10.5q1 -8 -3.5 -15
t-12 -11.5t-16.5 -7t-15 -2.5q-1 -6 3 -9.5t10 -3.5q13 0 24 7t17 18l4 -2q-8 -14 -23 -22.5t-31 -5.5t-16 18q-4 -5 -8 -9.5t-9 -6.5q-7 -4 -14.5 -1.5t-5.5 12.5v2q-2 -2 -4 -2q-4 -3 -12 -3h-7q-2 0 -3 -2t-3 -2q-10 -6 -21.5 -5t-17.5 11q-7 -9 -17 -12q-9 -2 -12.5 3
t-0.5 13q-5 -7 -13.5 -13.5t-17.5 -0.5q-7 4 -7 14q-6 -9 -14 -14q-8 -4 -15 -1.5t-6 10.5q-7 -7 -11 -9q-8 -4 -15.5 -1.5t-5.5 11.5q-4 -4 -8 -7t-9 -5q-9 -2 -12.5 3t0.5 13h-1q-5 -7 -13.5 -13.5t-17.5 -0.5q-5 2 -6 6.5t0 9.5q-5 -5 -10 -6q-4 -2 -13 -2q-5 0 -6 -1
t-4 -3q-5 -3 -11.5 -5t-11.5 -1t-8 5.5t-1 12.5q2 11 8 22t11 21q5 0 13 4q-3 -8 -6 -15t-7 -14q-1 -3 -4 -7.5t-5 -9.5t-2 -9t4 -5q9 -2 17 8t11 15q5 8 8 17.5t3 18.5q9 2 10 -5t-1 -13q-4 -16 -18 -31q8 -2 15 3t11 12zM943 446q-11 0 -17.5 5t-9.5 13t-4.5 17.5
t-1.5 17.5q-2 19 -2 39.5t6 39.5q3 8 8.5 14.5t14.5 7.5q20 5 31 -13q9 -17 9 -37.5v-38.5q0 -9 -0.5 -20.5t-4 -21t-10.5 -16.5t-19 -7zM389 446q-11 0 -17.5 5t-10 13t-4.5 17.5t-2 17.5q-1 19 -1 39.5t6 39.5q3 8 8 14.5t15 7.5q21 5 31 -13q8 -17 8.5 -37.5t0.5 -38.5
q0 -9 -1 -20.5t-4.5 -21t-10 -16.5t-18.5 -7zM867 -41h-35v244h35v-244zM225 447h-21v152h23h14t13 -2q10 -5 13 -16.5t3 -20.5q1 -11 -1 -27.5t-14 -21.5l18 -64h-24l-13 61q-3 0 -5.5 0.5t-5.5 0.5v-62zM1006 481v-34h-20v152h19q8 -26 16 -52.5t14 -53.5q-2 26 -2.5 53
t-0.5 53h20v-152h-21q-8 26 -15.5 52t-13.5 53q2 -18 2.5 -35.5t1.5 -35.5zM88 447h-22v152h34q26 0 32 -26q4 -14 3.5 -32t-8.5 -32q-7 -10 -17.5 -11t-21.5 -1v-50zM452 481v-34h-20v152h19q8 -26 15.5 -52.5t13.5 -53.5q-2 26 -2.5 53t-0.5 53h20v-152h-21
q-7 26 -14.5 52t-13.5 53q2 -18 2 -35.5t2 -35.5zM524 447h-21l18 152h35l19 -152h-21l-5 37h-21zM701 446q-15 0 -22.5 8.5t-10 21t-2 26.5t0.5 26v71h22v-106q0 -5 -0.5 -10t1.5 -10t7 -7.5t10 2.5t5.5 13.5t0.5 14.5q1 12 0.5 24t-0.5 24v55h22v-71q0 -12 0.5 -26
t-2 -26.5t-9.5 -21t-23 -8.5zM1090 348q5 -1 13 3q-3 -6 -5.5 -10.5t-6.5 -9.5v-1q6 7 14.5 13.5t17.5 7.5q12 0 11.5 -9t-3.5 -17q-3 -4 -10 -14.5t-4 -15.5q2 -3 5.5 -2t7 5l7 8t5.5 7l19 38h-8l3 6h8l8 17q8 0 14 3l-10 -20h15l-4 -6h-14l-18 -37l-5 -10t-1 -10
q3 -3 7 -0.5t8.5 7t7.5 9t4 6.5l4 -2q-5 -8 -12 -17t-18 -11q-9 -2 -12 2t-1 10q-3 -3 -6 -5.5t-6 -4.5q-7 -4 -14.5 -2t-6.5 12q1 8 6.5 15.5t8.5 14.5q1 3 3.5 9.5t-4.5 5.5q-11 -2 -20 -14t-14 -20q-4 -5 -6.5 -11.5t-5.5 -12.5h-12l7 16l-1 -1q-4 -2 -10 -4h-9
q-5 -6 -10.5 -8t-8.5 -2q-10 -4 -18 3t-6.5 18t5.5 20q5 9 14 16.5t21 7.5q10 0 14.5 -6t4.5 -14t-3.5 -16.5t-7.5 -14.5q13 0 20 11zM304 518q-23 15 -26 39q-2 11 2 22.5t15 17.5q9 5 21.5 4t20.5 -9q9 -9 9 -19.5v-21.5q-6 0 -11.5 0.5t-10.5 0.5q0 6 0.5 12.5t-4.5 11.5
q-9 8 -14.5 1t-6.5 -15q0 -11 7.5 -18t15.5 -13t14 -13.5t8 -16.5q2 -11 0.5 -21.5t-7 -18.5t-14 -12.5t-20.5 -2.5q-20 4 -22.5 19.5t-1.5 31.5h20q0 -5 -0.5 -10t0.5 -10q2 -6 7.5 -10t11.5 1q5 4 6 12.5t-1 14.5q-2 8 -7 13.5t-12 9.5zM771 518q-23 13 -27 39
q-1 11 2.5 22.5t14.5 17.5q10 5 22 4t20 -9q9 -9 8.5 -19.5t-0.5 -21.5q-5 0 -10 0.5t-10 0.5q0 6 0.5 12.5t-4.5 11.5q-9 8 -14.5 1t-6.5 -15q0 -11 7 -18t15 -13q17 -12 23 -30q2 -11 0.5 -21.5t-7 -18.5t-14.5 -12.5t-21 -2.5q-20 4 -22.5 19.5t-2.5 31.5h22q0 -5 -1 -10
t1 -10q2 -6 7 -10t11 1q6 4 7 12.5t-1 14.5q-2 8 -7 13.5t-12 9.5zM198 447h-55v152h55v-20h-33v-43h27v-22h-27v-46h33v-21zM875 447h-54v152h54v-20h-32v-43h27v-22h-27v-46h32v-21zM128 319l-42 -2q-5 -8 -9 -17t-5 -19q-8 -2 -9.5 2.5t0 11.5t4.5 13.5t5 8.5l-14 -1
l-5 8h23q11 17 26 34t35 27q6 4 16 5t12 -10q2 -5 -0.5 -10.5t-4.5 -10.5q-5 -10 -9.5 -19.5t-9.5 -18.5q-3 -7 -9 -17.5t-3 -18.5q-8 -2 -10 2t-0.5 10t4.5 12.5t5 9.5zM1163 599h21q-5 -21 -10 -42.5t-10 -42.5q-5 -16 -3.5 -33t1.5 -34h-23q0 17 0.5 34t-3.5 33
q-5 21 -10 42.5t-10 42.5h21q4 -19 7.5 -38.5t5.5 -39.5q1 20 5 39t8 39zM800 287q-7 4 -5.5 11.5t4.5 13.5l17 35q6 0 14 4l-13 -27q-2 -4 -8 -14.5t-2 -14.5q6 -5 14.5 2.5t11.5 11.5t5 7.5t5 8.5l12 24q4 0 12 2q-4 -9 -8.5 -18.5t-9.5 -18.5l-5 -10t0 -10q4 -5 10 1
t11 13q4 9 9.5 19t10.5 19l8 18t9 18q7 -2 14 3l-27 -55l-10 -20q-2 -5 -3.5 -12.5t6.5 -3.5q8 3 15 13q4 10 9.5 20t10.5 19l8 18t9 18q7 -2 14 3l-27 -55l-10 -20q-1 -2 -2 -5.5t-1.5 -6.5t0.5 -4.5t6 0.5q7 2 12 9t8 13l4 -2q-5 -8 -10 -15t-13 -11q-7 -4 -14 -1.5
t-6 10.5q-6 -6 -12 -9q-7 -4 -14 -1.5t-6 11.5q-5 -5 -9.5 -9t-10.5 -4q-9 0 -10 6t2 12q-6 -7 -16.5 -14t-18.5 -2zM1114 447h-54v152h22v-133h32v-19zM634 447h-54v152h22v-133h32v-19zM740 81q6 0 12.5 -0.5t11.5 3.5q9 8 11 20t2 22q0 11 -2 24t-10 21q-5 5 -12 4.5
t-13 -0.5v-94zM675 348q6 -1 14 3q-3 -6 -5.5 -10.5t-6.5 -9.5v-1q6 7 14.5 13.5t17.5 7.5q12 0 11.5 -9t-4.5 -17q-2 -4 -9.5 -14.5t-4.5 -15.5q2 -4 6.5 -1.5t8.5 7t7.5 9t4.5 6.5l4 -2l-10 -14t-13 -12q-7 -4 -14 -2t-6 12q1 8 6.5 15.5t8.5 14.5q1 1 2 4t1.5 5.5
t-0.5 4.5t-5 1q-11 -2 -19.5 -14t-13.5 -20l-12 -24h-12l4 9q-2 -2 -4 -3.5t-4 -2.5q-8 -4 -15 -1.5t-5 12.5q0 8 4.5 15t7.5 15q6 9 9 18q10 0 15 4l-19 -38q-2 -3 -5 -9.5t0 -9.5t7 -0.5t8 7t7 9t4 6.5zM943 582q-6 0 -9 -7.5t-4 -17.5t-0.5 -20t0.5 -14t-0.5 -13.5
t0.5 -19.5t4 -17.5t9 -7.5t9 7.5t4 17.5t0.5 19.5t-0.5 13.5t0.5 14t-0.5 20t-4 17.5t-9 7.5zM389 582q-6 0 -9 -7.5t-4 -17.5t-0.5 -20t0.5 -14t-0.5 -13.5t0.5 -19.5t4 -17.5t9 -7.5t8.5 7.5t3.5 17.5t0.5 19.5t-0.5 13.5t0.5 14t-0.5 20t-3.5 17.5t-8.5 7.5zM1190 599h22
q0 -28 -1 -56t-3 -57h-14q-2 29 -3 56.5t-1 56.5zM152 384q-8 2 -18.5 -7t-15.5 -14q-16 -18 -29 -39h42l13 27q1 3 4 8t5 10.5t2.5 9.5t-3.5 5zM1039 371q-5 -3 -6.5 0.5t-0.5 7.5q-11 4 -16.5 -5.5t-7.5 -16.5h14l-3 -6h-14l-44 -90q-4 0 -14 -2l46 92h-15l3 6h15
q3 8 8 16t15 10q6 2 15 -1q2 -1 5.5 -4.5t-0.5 -6.5zM835 371q-5 -3 -7 0.5t-1 7.5q-11 4 -16.5 -5.5t-7.5 -16.5h14l-3 -6h-14l-44 -90q-5 0 -13 -2l45 92h-15l4 6h14q3 8 8 16t15 10q6 2 15 -1q2 -1 5.5 -4.5t0.5 -6.5zM622 91q-2 -10 -3 -20t-3 -20h29q-3 29 -8 58.5
t-7 59.5q-1 -20 -3.5 -39t-4.5 -39zM88 515q5 0 9.5 -0.5t7.5 3.5q5 5 5.5 14t0.5 16t-0.5 16t-5.5 14q-3 5 -7.5 4.5t-9.5 -0.5v-67zM1045 346q-8 0 -15 -9t-11 -19.5t-4 -19t8 -8.5q6 0 13 9t11.5 19.5t4.5 19t-7 8.5zM928 -21q0 -10 -6 -15t-13.5 -5t-13.5 5t-6 15t6 15
t13.5 5t13.5 -5t6 -15zM562 -21q0 -10 -6 -15t-13.5 -5t-13.5 5t-6 15t6 15t13.5 5t13.5 -5t6 -15zM462 343q-7 0 -12.5 -5t-10 -12.5t-8 -16t-6.5 -13.5q11 -8 21 0t15 16q1 2 4 7t4 10.5t0 9.5t-7 4zM231 292q7 0 13 6t10.5 14t8 16.5t6.5 14.5q-10 5 -20 -3t-15 -16
q-1 -2 -4 -7t-4.5 -10.5t-1 -10t6.5 -4.5zM225 524q4 0 8 -0.5t7 1.5q6 5 7 13t1 15q0 6 -1 14.5t-7 12.5q-3 2 -6.5 2h-8.5v-58zM366 292q7 0 13 6t10.5 14t8 16.5t6.5 14.5q-11 5 -20.5 -3t-14.5 -16q-1 -2 -4 -7t-4.5 -10.5t-1 -10t6.5 -4.5zM539 322q-3 -5 -4 -8l-2 -6
q11 0 24.5 9.5t13.5 21.5q0 8 -5.5 7t-10.5 -4q-5 -4 -9 -9.5t-7 -10.5zM533 529l-3 -24h17q-2 18 -4.5 36t-3.5 36q-1 -11 -2.5 -23t-3.5 -25zM1213 460q0 -6 -4 -9.5t-8.5 -3.5t-8 3.5t-3.5 9.5t3.5 9.5t8 3.5t8.5 -3.5t4 -9.5zM667 368q-4 -7 -11.5 -5t-5.5 10q1 4 5 5.5
t7.5 0.5t5 -4t-0.5 -7zM327 368q-3 -7 -10.5 -5t-5.5 10q1 4 4.5 5.5t7 0.5t5.5 -4t-1 -7zM1194 291q-4 -8 -11.5 -4.5t-3.5 10.5q4 8 11.5 4.5t3.5 -10.5zM1214 337q-2 -4 -5 -5t-6 0.5t-4 4t1 6.5q4 7 11 4t3 -10z" />
    <glyph glyph-name="eight" unicode="8" horiz-adv-x="1272" 
d="M358 203h42q5 -51 8.5 -101.5t5.5 -101.5q3 38 5.5 77t7.5 77l6 49h39q5 -42 9 -83t7 -83l3 -37q3 41 4.5 80.5t5.5 78.5q2 11 2.5 22t1.5 22h30l-20 -244h-46q-5 48 -9.5 96.5t-6.5 97.5q-2 -36 -5 -72.5t-7 -72.5l-4 -49h-47l-11 137l-12 -137h-45q-5 48 -10 96.5
t-7 97.5q-2 -36 -4.5 -72.5t-6.5 -72.5l-5 -49h-46l-12 140l-11 -140h-46q-5 48 -9.5 96t-6.5 97q-1 -37 -4 -72.5t-7 -71.5l-6 -49h-45l-21 244h30q5 -51 8.5 -101.5t5.5 -101.5q3 38 5.5 77t7.5 77l6 49h39q5 -42 9 -83t7 -83l3 -37q3 41 4.5 80.5t5.5 78.5l5 44h41
q5 -51 8.5 -101.5t6.5 -101.5q3 38 5.5 77t6.5 77q2 12 3 24t3 25h40q5 -42 8.5 -83t7.5 -83l2 -37q3 41 5 80.5t6 78.5zM1204 731h-1130v22h1130v-22zM1204 -197h-1130v22h1130v-22zM740 -41h-35v244h36q11 0 22 0.5t21 -4.5q17 -8 22 -27.5t5 -36.5v-19t-2.5 -22t-7.5 -20
t-14 -12l30 -103h-39l-21 97h-17v-97zM983 13v-54h-33v244h32q12 -43 24.5 -85t22.5 -86q-4 43 -4.5 85.5t-0.5 85.5h32v-244h-33q-12 42 -24.5 83.5t-21.5 83.5q2 -29 3 -56.5t3 -56.5zM606 -41h-33l29 244h57l30 -244h-35l-7 58h-33zM1153 112q1 11 0 23.5t-5 23.5
q-3 8 -10.5 13t-14.5 -5q-6 -8 -7 -20.5t-2 -23.5q-1 -12 -1 -23.5v-22.5v-23t2 -23q0 -9 2 -22t11 -18q10 -6 16 1.5t8 20t2.5 25t0.5 17.5h-25v28h58v-123h-26l-1 33q-2 -11 -7.5 -22t-16.5 -14t-22 2t-18 13q-14 17 -16 42t-2 45q-2 26 -1 52.5t8 50.5q2 11 7 21t15 15
q10 6 22 7t23 -3q12 -5 19 -15t10 -22.5t4 -25.5t1 -24zM224 327q5 8 12 14t16 8q8 2 16 -1.5t17 -0.5l-18 -34q-2 -3 -5.5 -10t0.5 -9q5 -4 11 2t11 13q2 5 5 10l6 10l8 18q8 0 15 4l-19 -38q-2 -3 -5 -9.5t1 -9.5q4 -4 10 1.5t10 12.5q4 9 9.5 19t9.5 19q5 9 9 18t9 18
q8 -2 14 3l-27 -55q-2 -5 -4.5 -10t-4.5 -10t-4 -12.5t6 -3.5q5 2 9.5 7t8.5 11q3 8 8 15q5 8 12 14t16 8t17 -1.5t17 -0.5q-5 -8 -9 -16.5t-9 -17.5q-2 -3 -5 -10t0 -9q3 -3 6.5 -1t7 5.5t6.5 8l5 7.5l1 2l32 66q8 0 13 3q-5 -12 -10 -23.5t-13 -22.5q7 7 16.5 11.5
t16.5 -6.5q6 -10 0.5 -23t-12.5 -21q6 -1 11 2t10 7q4 9 9 18.5t10 18.5l18 36q7 -2 13 3q-7 -14 -13 -27.5t-14 -27.5q-2 -5 -4.5 -10t-5.5 -10q-1 -2 -2 -5.5t-1 -6.5t1 -4.5t6 0.5t10.5 8t8.5 12q3 13 12 22q3 3 9.5 7.5t14 6.5t13.5 0.5t8 -10.5q1 -8 -3.5 -15
t-12 -11.5t-16.5 -7t-15 -2.5q-1 -6 3 -9.5t10 -3.5q13 0 24 7t17 18l4 -2q-8 -14 -23 -22.5t-31 -5.5t-16 18q-4 -5 -8 -9.5t-9 -6.5q-7 -4 -14.5 -1.5t-5.5 12.5v2q-2 -2 -4 -2q-4 -3 -12 -3h-7q-2 0 -3 -2t-3 -2q-10 -6 -21.5 -5t-17.5 11q-7 -9 -17 -12q-9 -2 -12.5 3
t-0.5 13q-5 -7 -13.5 -13.5t-17.5 -0.5q-7 4 -7 14q-6 -9 -14 -14q-8 -4 -15 -1.5t-6 10.5q-7 -7 -11 -9q-8 -4 -15.5 -1.5t-5.5 11.5q-4 -4 -8 -7t-9 -5q-9 -2 -12.5 3t0.5 13h-1q-5 -7 -13.5 -13.5t-17.5 -0.5q-5 2 -6 6.5t0 9.5q-5 -5 -10 -6q-4 -2 -13 -2q-5 0 -6 -1
t-4 -3q-5 -3 -11.5 -5t-11.5 -1t-8 5.5t-1 12.5q2 11 8 22t11 21q5 0 13 4q-3 -8 -6 -15t-7 -14q-1 -3 -4 -7.5t-5 -9.5t-2 -9t4 -5q9 -2 17 8t11 15q5 8 8 17.5t3 18.5q9 2 10 -5t-1 -13q-4 -16 -18 -31q8 -2 15 3t11 12zM943 446q-11 0 -17.5 5t-9.5 13t-4.5 17.5
t-1.5 17.5q-2 19 -2 39.5t6 39.5q3 8 8.5 14.5t14.5 7.5q20 5 31 -13q9 -17 9 -37.5v-38.5q0 -9 -0.5 -20.5t-4 -21t-10.5 -16.5t-19 -7zM389 446q-11 0 -17.5 5t-10 13t-4.5 17.5t-2 17.5q-1 19 -1 39.5t6 39.5q3 8 8 14.5t15 7.5q21 5 31 -13q8 -17 8.5 -37.5t0.5 -38.5
q0 -9 -1 -20.5t-4.5 -21t-10 -16.5t-18.5 -7zM867 -41h-35v244h35v-244zM225 447h-21v152h23h14t13 -2q10 -5 13 -16.5t3 -20.5q1 -11 -1 -27.5t-14 -21.5l18 -64h-24l-13 61q-3 0 -5.5 0.5t-5.5 0.5v-62zM1006 481v-34h-20v152h19q8 -26 16 -52.5t14 -53.5q-2 26 -2.5 53
t-0.5 53h20v-152h-21q-8 26 -15.5 52t-13.5 53q2 -18 2.5 -35.5t1.5 -35.5zM88 447h-22v152h34q26 0 32 -26q4 -14 3.5 -32t-8.5 -32q-7 -10 -17.5 -11t-21.5 -1v-50zM452 481v-34h-20v152h19q8 -26 15.5 -52.5t13.5 -53.5q-2 26 -2.5 53t-0.5 53h20v-152h-21
q-7 26 -14.5 52t-13.5 53q2 -18 2 -35.5t2 -35.5zM524 447h-21l18 152h35l19 -152h-21l-5 37h-21zM701 446q-15 0 -22.5 8.5t-10 21t-2 26.5t0.5 26v71h22v-106q0 -5 -0.5 -10t1.5 -10t7 -7.5t10 2.5t5.5 13.5t0.5 14.5q1 12 0.5 24t-0.5 24v55h22v-71q0 -12 0.5 -26
t-2 -26.5t-9.5 -21t-23 -8.5zM1090 348q5 -1 13 3q-3 -6 -5.5 -10.5t-6.5 -9.5v-1q6 7 14.5 13.5t17.5 7.5q12 0 11.5 -9t-3.5 -17q-3 -4 -10 -14.5t-4 -15.5q2 -3 5.5 -2t7 5l7 8t5.5 7l19 38h-8l3 6h8l8 17q8 0 14 3l-10 -20h15l-4 -6h-14l-18 -37l-5 -10t-1 -10
q3 -3 7 -0.5t8.5 7t7.5 9t4 6.5l4 -2q-5 -8 -12 -17t-18 -11q-9 -2 -12 2t-1 10q-3 -3 -6 -5.5t-6 -4.5q-7 -4 -14.5 -2t-6.5 12q1 8 6.5 15.5t8.5 14.5q1 3 3.5 9.5t-4.5 5.5q-11 -2 -20 -14t-14 -20q-4 -5 -6.5 -11.5t-5.5 -12.5h-12l7 16l-1 -1q-4 -2 -10 -4h-9
q-5 -6 -10.5 -8t-8.5 -2q-10 -4 -18 3t-6.5 18t5.5 20q5 9 14 16.5t21 7.5q10 0 14.5 -6t4.5 -14t-3.5 -16.5t-7.5 -14.5q13 0 20 11zM304 518q-23 15 -26 39q-2 11 2 22.5t15 17.5q9 5 21.5 4t20.5 -9q9 -9 9 -19.5v-21.5q-6 0 -11.5 0.5t-10.5 0.5q0 6 0.5 12.5t-4.5 11.5
q-9 8 -14.5 1t-6.5 -15q0 -11 7.5 -18t15.5 -13t14 -13.5t8 -16.5q2 -11 0.5 -21.5t-7 -18.5t-14 -12.5t-20.5 -2.5q-20 4 -22.5 19.5t-1.5 31.5h20q0 -5 -0.5 -10t0.5 -10q2 -6 7.5 -10t11.5 1q5 4 6 12.5t-1 14.5q-2 8 -7 13.5t-12 9.5zM771 518q-23 13 -27 39
q-1 11 2.5 22.5t14.5 17.5q10 5 22 4t20 -9q9 -9 8.5 -19.5t-0.5 -21.5q-5 0 -10 0.5t-10 0.5q0 6 0.5 12.5t-4.5 11.5q-9 8 -14.5 1t-6.5 -15q0 -11 7 -18t15 -13q17 -12 23 -30q2 -11 0.5 -21.5t-7 -18.5t-14.5 -12.5t-21 -2.5q-20 4 -22.5 19.5t-2.5 31.5h22q0 -5 -1 -10
t1 -10q2 -6 7 -10t11 1q6 4 7 12.5t-1 14.5q-2 8 -7 13.5t-12 9.5zM198 447h-55v152h55v-20h-33v-43h27v-22h-27v-46h33v-21zM875 447h-54v152h54v-20h-32v-43h27v-22h-27v-46h32v-21zM128 319l-42 -2q-5 -8 -9 -17t-5 -19q-8 -2 -9.5 2.5t0 11.5t4.5 13.5t5 8.5l-14 -1
l-5 8h23q11 17 26 34t35 27q6 4 16 5t12 -10q2 -5 -0.5 -10.5t-4.5 -10.5q-5 -10 -9.5 -19.5t-9.5 -18.5q-3 -7 -9 -17.5t-3 -18.5q-8 -2 -10 2t-0.5 10t4.5 12.5t5 9.5zM1163 599h21q-5 -21 -10 -42.5t-10 -42.5q-5 -16 -3.5 -33t1.5 -34h-23q0 17 0.5 34t-3.5 33
q-5 21 -10 42.5t-10 42.5h21q4 -19 7.5 -38.5t5.5 -39.5q1 20 5 39t8 39zM800 287q-7 4 -5.5 11.5t4.5 13.5l17 35q6 0 14 4l-13 -27q-2 -4 -8 -14.5t-2 -14.5q6 -5 14.5 2.5t11.5 11.5t5 7.5t5 8.5l12 24q4 0 12 2q-4 -9 -8.5 -18.5t-9.5 -18.5l-5 -10t0 -10q4 -5 10 1
t11 13q4 9 9.5 19t10.5 19l8 18t9 18q7 -2 14 3l-27 -55l-10 -20q-2 -5 -3.5 -12.5t6.5 -3.5q8 3 15 13q4 10 9.5 20t10.5 19l8 18t9 18q7 -2 14 3l-27 -55l-10 -20q-1 -2 -2 -5.5t-1.5 -6.5t0.5 -4.5t6 0.5q7 2 12 9t8 13l4 -2q-5 -8 -10 -15t-13 -11q-7 -4 -14 -1.5
t-6 10.5q-6 -6 -12 -9q-7 -4 -14 -1.5t-6 11.5q-5 -5 -9.5 -9t-10.5 -4q-9 0 -10 6t2 12q-6 -7 -16.5 -14t-18.5 -2zM1114 447h-54v152h22v-133h32v-19zM634 447h-54v152h22v-133h32v-19zM740 81q6 0 12.5 -0.5t11.5 3.5q9 8 11 20t2 22q0 11 -2 24t-10 21q-5 5 -12 4.5
t-13 -0.5v-94zM675 348q6 -1 14 3q-3 -6 -5.5 -10.5t-6.5 -9.5v-1q6 7 14.5 13.5t17.5 7.5q12 0 11.5 -9t-4.5 -17q-2 -4 -9.5 -14.5t-4.5 -15.5q2 -4 6.5 -1.5t8.5 7t7.5 9t4.5 6.5l4 -2l-10 -14t-13 -12q-7 -4 -14 -2t-6 12q1 8 6.5 15.5t8.5 14.5q1 1 2 4t1.5 5.5
t-0.5 4.5t-5 1q-11 -2 -19.5 -14t-13.5 -20l-12 -24h-12l4 9q-2 -2 -4 -3.5t-4 -2.5q-8 -4 -15 -1.5t-5 12.5q0 8 4.5 15t7.5 15q6 9 9 18q10 0 15 4l-19 -38q-2 -3 -5 -9.5t0 -9.5t7 -0.5t8 7t7 9t4 6.5zM943 582q-6 0 -9 -7.5t-4 -17.5t-0.5 -20t0.5 -14t-0.5 -13.5
t0.5 -19.5t4 -17.5t9 -7.5t9 7.5t4 17.5t0.5 19.5t-0.5 13.5t0.5 14t-0.5 20t-4 17.5t-9 7.5zM389 582q-6 0 -9 -7.5t-4 -17.5t-0.5 -20t0.5 -14t-0.5 -13.5t0.5 -19.5t4 -17.5t9 -7.5t8.5 7.5t3.5 17.5t0.5 19.5t-0.5 13.5t0.5 14t-0.5 20t-3.5 17.5t-8.5 7.5zM1190 599h22
q0 -28 -1 -56t-3 -57h-14q-2 29 -3 56.5t-1 56.5zM152 384q-8 2 -18.5 -7t-15.5 -14q-16 -18 -29 -39h42l13 27q1 3 4 8t5 10.5t2.5 9.5t-3.5 5zM1039 371q-5 -3 -6.5 0.5t-0.5 7.5q-11 4 -16.5 -5.5t-7.5 -16.5h14l-3 -6h-14l-44 -90q-4 0 -14 -2l46 92h-15l3 6h15
q3 8 8 16t15 10q6 2 15 -1q2 -1 5.5 -4.5t-0.5 -6.5zM835 371q-5 -3 -7 0.5t-1 7.5q-11 4 -16.5 -5.5t-7.5 -16.5h14l-3 -6h-14l-44 -90q-5 0 -13 -2l45 92h-15l4 6h14q3 8 8 16t15 10q6 2 15 -1q2 -1 5.5 -4.5t0.5 -6.5zM622 91q-2 -10 -3 -20t-3 -20h29q-3 29 -8 58.5
t-7 59.5q-1 -20 -3.5 -39t-4.5 -39zM88 515q5 0 9.5 -0.5t7.5 3.5q5 5 5.5 14t0.5 16t-0.5 16t-5.5 14q-3 5 -7.5 4.5t-9.5 -0.5v-67zM1045 346q-8 0 -15 -9t-11 -19.5t-4 -19t8 -8.5q6 0 13 9t11.5 19.5t4.5 19t-7 8.5zM928 -21q0 -10 -6 -15t-13.5 -5t-13.5 5t-6 15t6 15
t13.5 5t13.5 -5t6 -15zM562 -21q0 -10 -6 -15t-13.5 -5t-13.5 5t-6 15t6 15t13.5 5t13.5 -5t6 -15zM462 343q-7 0 -12.5 -5t-10 -12.5t-8 -16t-6.5 -13.5q11 -8 21 0t15 16q1 2 4 7t4 10.5t0 9.5t-7 4zM231 292q7 0 13 6t10.5 14t8 16.5t6.5 14.5q-10 5 -20 -3t-15 -16
q-1 -2 -4 -7t-4.5 -10.5t-1 -10t6.5 -4.5zM225 524q4 0 8 -0.5t7 1.5q6 5 7 13t1 15q0 6 -1 14.5t-7 12.5q-3 2 -6.5 2h-8.5v-58zM366 292q7 0 13 6t10.5 14t8 16.5t6.5 14.5q-11 5 -20.5 -3t-14.5 -16q-1 -2 -4 -7t-4.5 -10.5t-1 -10t6.5 -4.5zM539 322q-3 -5 -4 -8l-2 -6
q11 0 24.5 9.5t13.5 21.5q0 8 -5.5 7t-10.5 -4q-5 -4 -9 -9.5t-7 -10.5zM533 529l-3 -24h17q-2 18 -4.5 36t-3.5 36q-1 -11 -2.5 -23t-3.5 -25zM1213 460q0 -6 -4 -9.5t-8.5 -3.5t-8 3.5t-3.5 9.5t3.5 9.5t8 3.5t8.5 -3.5t4 -9.5zM667 368q-4 -7 -11.5 -5t-5.5 10q1 4 5 5.5
t7.5 0.5t5 -4t-0.5 -7zM327 368q-3 -7 -10.5 -5t-5.5 10q1 4 4.5 5.5t7 0.5t5.5 -4t-1 -7zM1194 291q-4 -8 -11.5 -4.5t-3.5 10.5q4 8 11.5 4.5t3.5 -10.5zM1214 337q-2 -4 -5 -5t-6 0.5t-4 4t1 6.5q4 7 11 4t3 -10z" />
    <glyph glyph-name="nine" unicode="9" horiz-adv-x="1272" 
d="M358 203h42q5 -51 8.5 -101.5t5.5 -101.5q3 38 5.5 77t7.5 77l6 49h39q5 -42 9 -83t7 -83l3 -37q3 41 4.5 80.5t5.5 78.5q2 11 2.5 22t1.5 22h30l-20 -244h-46q-5 48 -9.5 96.5t-6.5 97.5q-2 -36 -5 -72.5t-7 -72.5l-4 -49h-47l-11 137l-12 -137h-45q-5 48 -10 96.5
t-7 97.5q-2 -36 -4.5 -72.5t-6.5 -72.5l-5 -49h-46l-12 140l-11 -140h-46q-5 48 -9.5 96t-6.5 97q-1 -37 -4 -72.5t-7 -71.5l-6 -49h-45l-21 244h30q5 -51 8.5 -101.5t5.5 -101.5q3 38 5.5 77t7.5 77l6 49h39q5 -42 9 -83t7 -83l3 -37q3 41 4.5 80.5t5.5 78.5l5 44h41
q5 -51 8.5 -101.5t6.5 -101.5q3 38 5.5 77t6.5 77q2 12 3 24t3 25h40q5 -42 8.5 -83t7.5 -83l2 -37q3 41 5 80.5t6 78.5zM1204 731h-1130v22h1130v-22zM1204 -197h-1130v22h1130v-22zM740 -41h-35v244h36q11 0 22 0.5t21 -4.5q17 -8 22 -27.5t5 -36.5v-19t-2.5 -22t-7.5 -20
t-14 -12l30 -103h-39l-21 97h-17v-97zM983 13v-54h-33v244h32q12 -43 24.5 -85t22.5 -86q-4 43 -4.5 85.5t-0.5 85.5h32v-244h-33q-12 42 -24.5 83.5t-21.5 83.5q2 -29 3 -56.5t3 -56.5zM606 -41h-33l29 244h57l30 -244h-35l-7 58h-33zM1153 112q1 11 0 23.5t-5 23.5
q-3 8 -10.5 13t-14.5 -5q-6 -8 -7 -20.5t-2 -23.5q-1 -12 -1 -23.5v-22.5v-23t2 -23q0 -9 2 -22t11 -18q10 -6 16 1.5t8 20t2.5 25t0.5 17.5h-25v28h58v-123h-26l-1 33q-2 -11 -7.5 -22t-16.5 -14t-22 2t-18 13q-14 17 -16 42t-2 45q-2 26 -1 52.5t8 50.5q2 11 7 21t15 15
q10 6 22 7t23 -3q12 -5 19 -15t10 -22.5t4 -25.5t1 -24zM224 327q5 8 12 14t16 8q8 2 16 -1.5t17 -0.5l-18 -34q-2 -3 -5.5 -10t0.5 -9q5 -4 11 2t11 13q2 5 5 10l6 10l8 18q8 0 15 4l-19 -38q-2 -3 -5 -9.5t1 -9.5q4 -4 10 1.5t10 12.5q4 9 9.5 19t9.5 19q5 9 9 18t9 18
q8 -2 14 3l-27 -55q-2 -5 -4.5 -10t-4.5 -10t-4 -12.5t6 -3.5q5 2 9.5 7t8.5 11q3 8 8 15q5 8 12 14t16 8t17 -1.5t17 -0.5q-5 -8 -9 -16.5t-9 -17.5q-2 -3 -5 -10t0 -9q3 -3 6.5 -1t7 5.5t6.5 8l5 7.5l1 2l32 66q8 0 13 3q-5 -12 -10 -23.5t-13 -22.5q7 7 16.5 11.5
t16.5 -6.5q6 -10 0.5 -23t-12.5 -21q6 -1 11 2t10 7q4 9 9 18.5t10 18.5l18 36q7 -2 13 3q-7 -14 -13 -27.5t-14 -27.5q-2 -5 -4.5 -10t-5.5 -10q-1 -2 -2 -5.5t-1 -6.5t1 -4.5t6 0.5t10.5 8t8.5 12q3 13 12 22q3 3 9.5 7.5t14 6.5t13.5 0.5t8 -10.5q1 -8 -3.5 -15
t-12 -11.5t-16.5 -7t-15 -2.5q-1 -6 3 -9.5t10 -3.5q13 0 24 7t17 18l4 -2q-8 -14 -23 -22.5t-31 -5.5t-16 18q-4 -5 -8 -9.5t-9 -6.5q-7 -4 -14.5 -1.5t-5.5 12.5v2q-2 -2 -4 -2q-4 -3 -12 -3h-7q-2 0 -3 -2t-3 -2q-10 -6 -21.5 -5t-17.5 11q-7 -9 -17 -12q-9 -2 -12.5 3
t-0.5 13q-5 -7 -13.5 -13.5t-17.5 -0.5q-7 4 -7 14q-6 -9 -14 -14q-8 -4 -15 -1.5t-6 10.5q-7 -7 -11 -9q-8 -4 -15.5 -1.5t-5.5 11.5q-4 -4 -8 -7t-9 -5q-9 -2 -12.5 3t0.5 13h-1q-5 -7 -13.5 -13.5t-17.5 -0.5q-5 2 -6 6.5t0 9.5q-5 -5 -10 -6q-4 -2 -13 -2q-5 0 -6 -1
t-4 -3q-5 -3 -11.5 -5t-11.5 -1t-8 5.5t-1 12.5q2 11 8 22t11 21q5 0 13 4q-3 -8 -6 -15t-7 -14q-1 -3 -4 -7.5t-5 -9.5t-2 -9t4 -5q9 -2 17 8t11 15q5 8 8 17.5t3 18.5q9 2 10 -5t-1 -13q-4 -16 -18 -31q8 -2 15 3t11 12zM943 446q-11 0 -17.5 5t-9.5 13t-4.5 17.5
t-1.5 17.5q-2 19 -2 39.5t6 39.5q3 8 8.5 14.5t14.5 7.5q20 5 31 -13q9 -17 9 -37.5v-38.5q0 -9 -0.5 -20.5t-4 -21t-10.5 -16.5t-19 -7zM389 446q-11 0 -17.5 5t-10 13t-4.5 17.5t-2 17.5q-1 19 -1 39.5t6 39.5q3 8 8 14.5t15 7.5q21 5 31 -13q8 -17 8.5 -37.5t0.5 -38.5
q0 -9 -1 -20.5t-4.5 -21t-10 -16.5t-18.5 -7zM867 -41h-35v244h35v-244zM225 447h-21v152h23h14t13 -2q10 -5 13 -16.5t3 -20.5q1 -11 -1 -27.5t-14 -21.5l18 -64h-24l-13 61q-3 0 -5.5 0.5t-5.5 0.5v-62zM1006 481v-34h-20v152h19q8 -26 16 -52.5t14 -53.5q-2 26 -2.5 53
t-0.5 53h20v-152h-21q-8 26 -15.5 52t-13.5 53q2 -18 2.5 -35.5t1.5 -35.5zM88 447h-22v152h34q26 0 32 -26q4 -14 3.5 -32t-8.5 -32q-7 -10 -17.5 -11t-21.5 -1v-50zM452 481v-34h-20v152h19q8 -26 15.5 -52.5t13.5 -53.5q-2 26 -2.5 53t-0.5 53h20v-152h-21
q-7 26 -14.5 52t-13.5 53q2 -18 2 -35.5t2 -35.5zM524 447h-21l18 152h35l19 -152h-21l-5 37h-21zM701 446q-15 0 -22.5 8.5t-10 21t-2 26.5t0.5 26v71h22v-106q0 -5 -0.5 -10t1.5 -10t7 -7.5t10 2.5t5.5 13.5t0.5 14.5q1 12 0.5 24t-0.5 24v55h22v-71q0 -12 0.5 -26
t-2 -26.5t-9.5 -21t-23 -8.5zM1090 348q5 -1 13 3q-3 -6 -5.5 -10.5t-6.5 -9.5v-1q6 7 14.5 13.5t17.5 7.5q12 0 11.5 -9t-3.5 -17q-3 -4 -10 -14.5t-4 -15.5q2 -3 5.5 -2t7 5l7 8t5.5 7l19 38h-8l3 6h8l8 17q8 0 14 3l-10 -20h15l-4 -6h-14l-18 -37l-5 -10t-1 -10
q3 -3 7 -0.5t8.5 7t7.5 9t4 6.5l4 -2q-5 -8 -12 -17t-18 -11q-9 -2 -12 2t-1 10q-3 -3 -6 -5.5t-6 -4.5q-7 -4 -14.5 -2t-6.5 12q1 8 6.5 15.5t8.5 14.5q1 3 3.5 9.5t-4.5 5.5q-11 -2 -20 -14t-14 -20q-4 -5 -6.5 -11.5t-5.5 -12.5h-12l7 16l-1 -1q-4 -2 -10 -4h-9
q-5 -6 -10.5 -8t-8.5 -2q-10 -4 -18 3t-6.5 18t5.5 20q5 9 14 16.5t21 7.5q10 0 14.5 -6t4.5 -14t-3.5 -16.5t-7.5 -14.5q13 0 20 11zM304 518q-23 15 -26 39q-2 11 2 22.5t15 17.5q9 5 21.5 4t20.5 -9q9 -9 9 -19.5v-21.5q-6 0 -11.5 0.5t-10.5 0.5q0 6 0.5 12.5t-4.5 11.5
q-9 8 -14.5 1t-6.5 -15q0 -11 7.5 -18t15.5 -13t14 -13.5t8 -16.5q2 -11 0.5 -21.5t-7 -18.5t-14 -12.5t-20.5 -2.5q-20 4 -22.5 19.5t-1.5 31.5h20q0 -5 -0.5 -10t0.5 -10q2 -6 7.5 -10t11.5 1q5 4 6 12.5t-1 14.5q-2 8 -7 13.5t-12 9.5zM771 518q-23 13 -27 39
q-1 11 2.5 22.5t14.5 17.5q10 5 22 4t20 -9q9 -9 8.5 -19.5t-0.5 -21.5q-5 0 -10 0.5t-10 0.5q0 6 0.5 12.5t-4.5 11.5q-9 8 -14.5 1t-6.5 -15q0 -11 7 -18t15 -13q17 -12 23 -30q2 -11 0.5 -21.5t-7 -18.5t-14.5 -12.5t-21 -2.5q-20 4 -22.5 19.5t-2.5 31.5h22q0 -5 -1 -10
t1 -10q2 -6 7 -10t11 1q6 4 7 12.5t-1 14.5q-2 8 -7 13.5t-12 9.5zM198 447h-55v152h55v-20h-33v-43h27v-22h-27v-46h33v-21zM875 447h-54v152h54v-20h-32v-43h27v-22h-27v-46h32v-21zM128 319l-42 -2q-5 -8 -9 -17t-5 -19q-8 -2 -9.5 2.5t0 11.5t4.5 13.5t5 8.5l-14 -1
l-5 8h23q11 17 26 34t35 27q6 4 16 5t12 -10q2 -5 -0.5 -10.5t-4.5 -10.5q-5 -10 -9.5 -19.5t-9.5 -18.5q-3 -7 -9 -17.5t-3 -18.5q-8 -2 -10 2t-0.5 10t4.5 12.5t5 9.5zM1163 599h21q-5 -21 -10 -42.5t-10 -42.5q-5 -16 -3.5 -33t1.5 -34h-23q0 17 0.5 34t-3.5 33
q-5 21 -10 42.5t-10 42.5h21q4 -19 7.5 -38.5t5.5 -39.5q1 20 5 39t8 39zM800 287q-7 4 -5.5 11.5t4.5 13.5l17 35q6 0 14 4l-13 -27q-2 -4 -8 -14.5t-2 -14.5q6 -5 14.5 2.5t11.5 11.5t5 7.5t5 8.5l12 24q4 0 12 2q-4 -9 -8.5 -18.5t-9.5 -18.5l-5 -10t0 -10q4 -5 10 1
t11 13q4 9 9.5 19t10.5 19l8 18t9 18q7 -2 14 3l-27 -55l-10 -20q-2 -5 -3.5 -12.5t6.5 -3.5q8 3 15 13q4 10 9.5 20t10.5 19l8 18t9 18q7 -2 14 3l-27 -55l-10 -20q-1 -2 -2 -5.5t-1.5 -6.5t0.5 -4.5t6 0.5q7 2 12 9t8 13l4 -2q-5 -8 -10 -15t-13 -11q-7 -4 -14 -1.5
t-6 10.5q-6 -6 -12 -9q-7 -4 -14 -1.5t-6 11.5q-5 -5 -9.5 -9t-10.5 -4q-9 0 -10 6t2 12q-6 -7 -16.5 -14t-18.5 -2zM1114 447h-54v152h22v-133h32v-19zM634 447h-54v152h22v-133h32v-19zM740 81q6 0 12.5 -0.5t11.5 3.5q9 8 11 20t2 22q0 11 -2 24t-10 21q-5 5 -12 4.5
t-13 -0.5v-94zM675 348q6 -1 14 3q-3 -6 -5.5 -10.5t-6.5 -9.5v-1q6 7 14.5 13.5t17.5 7.5q12 0 11.5 -9t-4.5 -17q-2 -4 -9.5 -14.5t-4.5 -15.5q2 -4 6.5 -1.5t8.5 7t7.5 9t4.5 6.5l4 -2l-10 -14t-13 -12q-7 -4 -14 -2t-6 12q1 8 6.5 15.5t8.5 14.5q1 1 2 4t1.5 5.5
t-0.5 4.5t-5 1q-11 -2 -19.5 -14t-13.5 -20l-12 -24h-12l4 9q-2 -2 -4 -3.5t-4 -2.5q-8 -4 -15 -1.5t-5 12.5q0 8 4.5 15t7.5 15q6 9 9 18q10 0 15 4l-19 -38q-2 -3 -5 -9.5t0 -9.5t7 -0.5t8 7t7 9t4 6.5zM943 582q-6 0 -9 -7.5t-4 -17.5t-0.5 -20t0.5 -14t-0.5 -13.5
t0.5 -19.5t4 -17.5t9 -7.5t9 7.5t4 17.5t0.5 19.5t-0.5 13.5t0.5 14t-0.5 20t-4 17.5t-9 7.5zM389 582q-6 0 -9 -7.5t-4 -17.5t-0.5 -20t0.5 -14t-0.5 -13.5t0.5 -19.5t4 -17.5t9 -7.5t8.5 7.5t3.5 17.5t0.5 19.5t-0.5 13.5t0.5 14t-0.5 20t-3.5 17.5t-8.5 7.5zM1190 599h22
q0 -28 -1 -56t-3 -57h-14q-2 29 -3 56.5t-1 56.5zM152 384q-8 2 -18.5 -7t-15.5 -14q-16 -18 -29 -39h42l13 27q1 3 4 8t5 10.5t2.5 9.5t-3.5 5zM1039 371q-5 -3 -6.5 0.5t-0.5 7.5q-11 4 -16.5 -5.5t-7.5 -16.5h14l-3 -6h-14l-44 -90q-4 0 -14 -2l46 92h-15l3 6h15
q3 8 8 16t15 10q6 2 15 -1q2 -1 5.5 -4.5t-0.5 -6.5zM835 371q-5 -3 -7 0.5t-1 7.5q-11 4 -16.5 -5.5t-7.5 -16.5h14l-3 -6h-14l-44 -90q-5 0 -13 -2l45 92h-15l4 6h14q3 8 8 16t15 10q6 2 15 -1q2 -1 5.5 -4.5t0.5 -6.5zM622 91q-2 -10 -3 -20t-3 -20h29q-3 29 -8 58.5
t-7 59.5q-1 -20 -3.5 -39t-4.5 -39zM88 515q5 0 9.5 -0.5t7.5 3.5q5 5 5.5 14t0.5 16t-0.5 16t-5.5 14q-3 5 -7.5 4.5t-9.5 -0.5v-67zM1045 346q-8 0 -15 -9t-11 -19.5t-4 -19t8 -8.5q6 0 13 9t11.5 19.5t4.5 19t-7 8.5zM928 -21q0 -10 -6 -15t-13.5 -5t-13.5 5t-6 15t6 15
t13.5 5t13.5 -5t6 -15zM562 -21q0 -10 -6 -15t-13.5 -5t-13.5 5t-6 15t6 15t13.5 5t13.5 -5t6 -15zM462 343q-7 0 -12.5 -5t-10 -12.5t-8 -16t-6.5 -13.5q11 -8 21 0t15 16q1 2 4 7t4 10.5t0 9.5t-7 4zM231 292q7 0 13 6t10.5 14t8 16.5t6.5 14.5q-10 5 -20 -3t-15 -16
q-1 -2 -4 -7t-4.5 -10.5t-1 -10t6.5 -4.5zM225 524q4 0 8 -0.5t7 1.5q6 5 7 13t1 15q0 6 -1 14.5t-7 12.5q-3 2 -6.5 2h-8.5v-58zM366 292q7 0 13 6t10.5 14t8 16.5t6.5 14.5q-11 5 -20.5 -3t-14.5 -16q-1 -2 -4 -7t-4.5 -10.5t-1 -10t6.5 -4.5zM539 322q-3 -5 -4 -8l-2 -6
q11 0 24.5 9.5t13.5 21.5q0 8 -5.5 7t-10.5 -4q-5 -4 -9 -9.5t-7 -10.5zM533 529l-3 -24h17q-2 18 -4.5 36t-3.5 36q-1 -11 -2.5 -23t-3.5 -25zM1213 460q0 -6 -4 -9.5t-8.5 -3.5t-8 3.5t-3.5 9.5t3.5 9.5t8 3.5t8.5 -3.5t4 -9.5zM667 368q-4 -7 -11.5 -5t-5.5 10q1 4 5 5.5
t7.5 0.5t5 -4t-0.5 -7zM327 368q-3 -7 -10.5 -5t-5.5 10q1 4 4.5 5.5t7 0.5t5.5 -4t-1 -7zM1194 291q-4 -8 -11.5 -4.5t-3.5 10.5q4 8 11.5 4.5t3.5 -10.5zM1214 337q-2 -4 -5 -5t-6 0.5t-4 4t1 6.5q4 7 11 4t3 -10z" />
    <glyph glyph-name="colon" unicode=":" horiz-adv-x="138" 
d="M13 53q0 22 16 37.5t37 15.5q23 0 38.5 -15.5t15.5 -37.5t-15.5 -37.5t-38.5 -15.5q-21 0 -37 15.5t-16 37.5zM13 374q0 23 16 38.5t37 15.5q23 0 38.5 -15.5t15.5 -38.5q0 -21 -15.5 -37t-38.5 -16q-21 0 -37 16t-16 37z" />
    <glyph glyph-name="semicolon" unicode=";" horiz-adv-x="138" 
d="M113 100v-195h-88v195h88zM13 374q0 23 16 38.5t37 15.5q23 0 38.5 -15.5t15.5 -38.5q0 -21 -15.5 -37t-38.5 -16q-21 0 -37 16t-16 37z" />
    <glyph glyph-name="less" unicode="&#x3c;" horiz-adv-x="301" 
d="M212 74l-187 191l189 190l62 -63l-126 -127l126 -127z" />
    <glyph glyph-name="equal" unicode="=" horiz-adv-x="390" 
d="M25 386h340v-88h-340v88zM25 233h340v-88h-340v88z" />
    <glyph glyph-name="greater" unicode="&#x3e;" horiz-adv-x="304" 
d="M88 455l191 -189l-191 -190l-63 62l128 127l-128 127z" />
    <glyph glyph-name="question" unicode="?" horiz-adv-x="468" 
d="M18 442q-2 49 15 91t47 73t70.5 48.5t87.5 17.5q46 0 86.5 -16t70 -44.5t46.5 -68t17 -86.5q0 -41 -14 -75.5t-39 -60.5t-58 -43t-72 -23v-83h-81v132q82 10 129 47t47 100q0 28 -10 52t-28 42t-42 28t-52 10t-52 -10.5t-41.5 -29.5t-27.5 -44.5t-10 -56.5h-89zM181 53
q0 22 16 37.5t37 15.5q23 0 38.5 -15.5t15.5 -37.5t-15.5 -37.5t-38.5 -15.5q-21 0 -37 15.5t-16 37.5z" />
    <glyph glyph-name="at" unicode="@" horiz-adv-x="798" 
d="M587 438v-263q0 -21 13.5 -37t33.5 -16q11 0 23.5 9t23 26.5t17.5 42.5t7 58q0 62 -24.5 117t-66.5 96t-97.5 65t-117.5 24q-63 0 -118 -24t-96 -65t-65 -96t-24 -117q0 -63 24 -118.5t65 -97.5t96 -66t118 -24q45 0 83.5 15t68.5 40l45 -36q-16 -21 -38 -38t-48 -28.5
t-54.5 -17.5t-56.5 -6q-78 0 -146 29.5t-118.5 80.5t-80 119.5t-29.5 147.5q0 78 29.5 146t80 118.5t118.5 80t146 29.5t146 -29.5t118.5 -80t80 -118.5t29.5 -146q0 -42 -8.5 -80t-26 -66t-42.5 -44.5t-58 -16.5q-16 0 -34.5 8.5t-34 21.5t-26 28.5t-10.5 30.5v53
q-5 -39 -25.5 -65.5t-48.5 -40.5t-61 -15.5t-63 9.5q-54 20 -88.5 67.5t-34.5 109.5q0 59 32.5 105t84.5 66q31 13 63 13t60 -11.5t49.5 -32t30.5 -47.5l2 87h53zM400 158q40 0 69.5 27.5t29.5 73.5q0 41 -28.5 68.5t-70.5 27.5q-20 0 -38 -7.5t-31.5 -21t-21.5 -31
t-8 -37.5q0 -21 8 -39t21.5 -31.5t31.5 -21.5t38 -8z" />
    <glyph glyph-name="A" unicode="A" horiz-adv-x="515" 
d="M-9 0l216 670h91l226 -670h-91l-45 138h-263l-43 -138h-91zM147 210h218l-111 342z" />
    <glyph glyph-name="B" unicode="B" horiz-adv-x="518" 
d="M354 557q0 -29 -15 -51t-41 -32q46 -7 82 -28.5t60 -51.5t36.5 -66t12.5 -72q0 -54 -20 -101t-55 -81.5t-82 -54t-100 -19.5h-207v670h207q52 0 87 -31.5t35 -81.5zM113 426v-338h119q34 0 65 13t53.5 36t36 53.5t13.5 65.5t-12 66t-35 54t-55.5 36.5t-72.5 13.5h-112z
M282 545q0 22 -14.5 37.5t-38.5 15.5h-116v-106h120q21 0 35 15.5t14 37.5z" />
    <glyph glyph-name="C" unicode="C" horiz-adv-x="640" 
d="M631 141q-49 -67 -118 -104t-152 -37q-70 0 -131 26t-106.5 71t-72 106t-26.5 131t26.5 131.5t72 107t106.5 71.5t131 26q88 0 157.5 -39t114.5 -106l-59 -60q-38 57 -93 86.5t-120 29.5q-51 0 -96.5 -19.5t-79 -53t-53 -78.5t-19.5 -96t19.5 -96t53 -78.5t79 -52.5
t96.5 -19q61 0 114 28.5t97 82.5z" />
    <glyph glyph-name="D" unicode="D" horiz-adv-x="561" 
d="M123 581v-493h75q51 0 96 19t78.5 52.5t53 78.5t19.5 96t-19.5 96t-53 78.5t-78.5 53t-96 19.5h-75zM198 670q70 0 131 -26t106.5 -71.5t72 -107t26.5 -131.5t-26.5 -131t-72 -106t-106.5 -71t-131 -26h-163v670h163z" />
    <glyph glyph-name="E" unicode="E" horiz-adv-x="460" 
d="M435 0h-410v670h410v-89h-322v-257h272v-87h-272v-149h322v-88z" />
    <glyph glyph-name="F" unicode="F" horiz-adv-x="373" 
d="M25 0v670h443v-89h-355v-282h223v-87h-223v-212h-88z" />
    <glyph glyph-name="G" unicode="G" horiz-adv-x="667" 
d="M576 463q-40 52 -93 85t-122 33q-51 0 -96.5 -19.5t-79 -53t-53 -78.5t-19.5 -96t19.5 -96t53 -78.5t79 -52.5t96.5 -19q71 0 123.5 28.5t79.5 66.5v69h-272v79h354v-180q-50 -69 -123.5 -110t-161.5 -41q-70 0 -131 26t-106.5 71t-72 106t-26.5 131t26.5 131.5t72 107
t106.5 71.5t131 26q81 0 155 -37.5t125 -110.5z" />
    <glyph glyph-name="H" unicode="H" horiz-adv-x="542" 
d="M428 0v212h-315v-212h-88v670h88v-371h315v371h89v-670h-89z" />
    <glyph glyph-name="I" unicode="I" horiz-adv-x="191" 
d="M51 0v670h88v-670h-88z" />
    <glyph glyph-name="J" unicode="J" horiz-adv-x="483" 
d="M113 230q-2 -31 7.5 -57t27 -45t42 -29.5t52.5 -10.5q26 0 49 10t40.5 27.5t27.5 41t10 50.5v453h88v-453q0 -46 -16.5 -85.5t-46 -69t-68.5 -46t-84 -16.5q-51 0 -92.5 17t-70.5 47t-43.5 72.5t-10.5 93.5h88z" />
    <glyph glyph-name="K" unicode="K" horiz-adv-x="485" 
d="M107 670v-304h96l195 304h101l-225 -343l225 -327h-101l-195 282h-96v-282h-84v670h84z" />
    <glyph glyph-name="L" unicode="L" horiz-adv-x="365" 
d="M365 0h-340v670h88v-582h252v-88z" />
    <glyph glyph-name="M" unicode="M" horiz-adv-x="670" 
d="M290 0l-187 501v-501h-78v670h96l212 -555l217 555h95v-670h-82v501l-185 -501h-88z" />
    <glyph glyph-name="N" unicode="N" horiz-adv-x="542" 
d="M517 670v-670h-69l-340 503v-503h-83v670h77l336 -504v504h79z" />
    <glyph glyph-name="O" unicode="O" horiz-adv-x="724" 
d="M610 334q0 51 -20 96t-53.5 78.5t-79 53t-96.5 19.5t-96.5 -19.5t-79 -53t-53 -78.5t-19.5 -96t19.5 -96t53 -78.5t79 -52.5t96.5 -19t96.5 19t79 52.5t53.5 78.5t20 96zM698 334q0 -70 -26 -131t-72 -106t-107.5 -71t-131.5 -26t-131.5 26t-107 71t-71.5 106t-26 131
t26 131.5t71.5 107t107 71.5t131.5 26t131.5 -26t107.5 -71.5t72 -107t26 -131.5z" />
    <glyph glyph-name="P" unicode="P" horiz-adv-x="501" 
d="M25 0v670h206q54 0 101 -20t82 -55.5t55 -82.5t20 -101q0 -53 -20 -100t-55 -81.5t-82 -54.5t-101 -20h-118v-155h-88zM113 243h118q35 0 66 13.5t54 36t36.5 53t13.5 65.5q0 36 -13.5 67t-36.5 54t-54 36t-66 13h-118v-338z" />
    <glyph glyph-name="Q" unicode="Q" horiz-adv-x="722" 
d="M608 334q0 51 -19.5 96t-53 78.5t-78.5 53t-96 19.5t-96.5 -19.5t-79 -53t-53 -78.5t-19.5 -96t19.5 -96t53 -78.5t79 -52.5t96.5 -19t96 19t78.5 52.5t53 78.5t19.5 96zM696 334q0 -70 -26 -131t-71 -106t-106.5 -71t-131.5 -26t-131.5 26t-107 71t-71.5 106t-26 131
t26 131.5t71.5 107t107 71.5t131.5 26t131.5 -26t106.5 -71.5t71 -107t26 -131.5zM195 -66h330v-88h-330v88z" />
    <glyph glyph-name="R" unicode="R" horiz-adv-x="526" 
d="M40 0v670h206q54 0 101 -20t82 -55.5t55 -82.5t20 -101q0 -73 -36.5 -132.5t-96.5 -92.5l130 -186h-100l-113 158q-21 -3 -42 -3h-118v-155h-88zM128 243h118q35 0 65.5 13.5t53.5 36t36.5 53t13.5 65.5q0 36 -13.5 67t-36.5 54t-53.5 36t-65.5 13h-118v-338z" />
    <glyph glyph-name="S" unicode="S" horiz-adv-x="544" 
d="M152 371q-23 -21 -36 -51t-13 -63q0 -35 13.5 -65.5t36.5 -53.5t54 -36.5t66 -13.5t66 13.5t54 36.5t36.5 53.5t13.5 65.5q0 38 -15.5 64.5t-39.5 44t-53 27.5t-56 15q-69 12 -104 49.5t-34 91.5q0 25 9.5 47t26.5 38.5t40.5 26t51.5 9.5t50.5 -8.5t38.5 -22.5t26 -32.5
t14 -39.5l-64 -25q-2 23 -19.5 37.5t-39.5 14.5q-23 0 -39.5 -15.5t-15.5 -37.5q2 -47 76 -61q48 -7 90.5 -24t75 -44.5t51 -66.5t18.5 -90q0 -54 -20 -100.5t-55 -81t-82 -54t-101 -19.5t-101 20t-82 55t-55 81.5t-20 100.5q0 53 21 98t56 77z" />
    <glyph glyph-name="T" unicode="T" horiz-adv-x="401" 
d="M157 0v581h-167v89h420v-89h-166v-581h-87z" />
    <glyph glyph-name="U" unicode="U" horiz-adv-x="565" 
d="M113 670v-414q0 -35 13.5 -66t36 -54t53 -36.5t65.5 -13.5q40 0 71.5 16t53.5 43t33.5 62.5t11.5 74.5v388h88v-414q0 -54 -20 -101t-55 -82t-82 -55t-101 -20t-101 20t-81.5 55t-54 82t-19.5 101v414h88z" />
    <glyph glyph-name="V" unicode="V" horiz-adv-x="465" 
d="M55 670l173 -532l178 532h90l-225 -670h-90l-217 670h91z" />
    <glyph glyph-name="W" unicode="W" horiz-adv-x="698" 
d="M276 670l73 -232l76 232h71l-113 -338l75 -235l187 573h91l-224 -670h-91l-74 226l-75 -226h-91l-217 670h92l184 -568l74 228l-110 340h72z" />
    <glyph glyph-name="X" unicode="X" horiz-adv-x="471" 
d="M87 670l145 -276l148 276h105l-188 -339l188 -331h-105l-151 265l-142 -265h-102l182 325l-182 345h102z" />
    <glyph glyph-name="Y" unicode="Y" horiz-adv-x="486" 
d="M83 670l159 -363l158 363h99l-212 -458v-212h-89v212l-213 458h98z" />
    <glyph glyph-name="Z" unicode="Z" horiz-adv-x="502" 
d="M28 670h449l-317 -582h315v-88h-449l309 581h-307v89z" />
    <glyph glyph-name="bracketleft" unicode="[" horiz-adv-x="241" 
d="M216 583h-103v-671h103v-89h-191v849h191v-89z" />
    <glyph glyph-name="backslash" unicode="\" horiz-adv-x="561" 
d="M472 -26l-447 596l64 64l447 -595z" />
    <glyph glyph-name="bracketright" unicode="]" horiz-adv-x="241" 
d="M25 -88h103v671h-103v89h191v-849h-191v89z" />
    <glyph glyph-name="asciicircum" unicode="^" horiz-adv-x="337" 
d="M25 505l142 143l145 -143l-64 -64l-81 81l-80 -80z" />
    <glyph glyph-name="underscore" unicode="_" horiz-adv-x="390" 
d="M25 48h340v-88h-340v88z" />
    <glyph glyph-name="grave" unicode="`" horiz-adv-x="295" 
d="M274 554l-250 78v92l250 -108v-62z" />
    <glyph glyph-name="a" unicode="a" horiz-adv-x="549" 
d="M22 244q0 52 18 97t48.5 78.5t72 53t89.5 19.5q57 0 104 -27.5t77 -73.5v99h85v-490h-85v98q-30 -46 -77 -73t-104 -27q-48 0 -89.5 19.5t-72 52.5t-48.5 78t-18 96zM107 244q0 -33 12.5 -62.5t34 -51.5t51 -34.5t63.5 -12.5q33 0 62.5 12.5t51.5 34.5t35 51.5t13 62.5
t-13 63t-35 52t-51.5 35t-62.5 13q-34 0 -63.5 -13t-51 -35t-34 -52t-12.5 -63z" />
    <glyph glyph-name="b" unicode="b" horiz-adv-x="547" 
d="M111 644v-251q29 45 75.5 72t103.5 27q48 0 89.5 -19.5t72 -53t48.5 -78.5t18 -97q0 -51 -18 -96t-48.5 -78t-72 -52.5t-89.5 -19.5q-57 0 -103.5 26.5t-75.5 71.5v-96h-84v644h84zM434 244q0 33 -12.5 63t-34.5 52t-51.5 35t-62.5 13t-62 -12.5t-51 -34t-35 -50
t-14 -60.5v-6q0 -33 12.5 -62.5t34.5 -51.5t51.5 -34.5t63.5 -12.5q33 0 62.5 12.5t51.5 34.5t34.5 51.5t12.5 62.5z" />
    <glyph glyph-name="c" unicode="c" horiz-adv-x="478" 
d="M416 316q-27 41 -63 65t-86 24q-33 0 -63 -12.5t-52 -34.5t-35 -51.5t-13 -62.5t13 -62.5t35 -51.5t52 -34.5t63 -12.5q46 0 84.5 23.5t64.5 66.5l61 -59q-35 -58 -91 -87t-119 -29q-52 0 -97 19.5t-78 52.5t-52 78t-19 96q0 52 19 97t52 78t78 52t97 19q63 0 117.5 -28
t92.5 -85z" />
    <glyph glyph-name="d" unicode="d" horiz-adv-x="547" 
d="M22 244q0 52 18 97t48.5 78.5t72 53t89.5 19.5q57 0 103 -27t76 -72v251h85v-644h-85v96q-30 -45 -76 -71.5t-103 -26.5q-48 0 -89.5 19.5t-72 52.5t-48.5 78t-18 96zM107 244q0 -33 12.5 -62.5t34 -51.5t51 -34.5t63.5 -12.5q33 0 62.5 12.5t51.5 34.5t34.5 51.5
t12.5 62.5v6q-2 32 -15 60.5t-34.5 50t-50 34t-61.5 12.5q-34 0 -63.5 -13t-51 -35t-34 -52t-12.5 -63z" />
    <glyph glyph-name="e" unicode="e" horiz-adv-x="504" 
d="M484 115q-41 -61 -96.5 -89t-120.5 -28q-51 0 -96 19.5t-78 52.5t-52.5 78t-19.5 96q0 52 19.5 97t52.5 78.5t78 53t96 19.5q65 0 122.5 -30t99.5 -93l-290 -270q16 -11 40 -15.5t48 -1.5q42 5 78.5 28.5t61.5 59.5zM101 257q-3 -38 10 -70t37 -50l229 223
q-19 23 -51 37.5t-70 12.5q-31 -2 -58 -14t-47.5 -32.5t-33.5 -47.5t-16 -59z" />
    <glyph glyph-name="f" unicode="f" horiz-adv-x="196" 
d="M0 492h48v19q0 32 9.5 61t29 50t50 32t73.5 7v-63q-35 2 -56.5 -20t-21.5 -55v-31h80v-70h-80v-422h-84v422h-48v70z" />
    <glyph glyph-name="g" unicode="g" horiz-adv-x="542" 
d="M267 -2q-52 0 -96.5 19.5t-77.5 52.5t-52 78t-19 96q0 52 19 97t52 78.5t78 53t97 19.5h244v-77l-119 2q57 -22 89 -68t34 -102q1 -35 -9.5 -70t-31.5 -65.5t-51 -53.5t-67 -34q20 -7 35 -22t25 -34t13.5 -41t0.5 -43q-5 -26 -18.5 -49t-34.5 -39.5t-49 -26t-61 -9.5
q-34 0 -64.5 9.5t-53.5 29t-36.5 50t-13.5 72.5h85q0 -17 7 -31.5t18.5 -25t26.5 -16.5t31 -6q34 0 57.5 23.5t23.5 55.5t-23 54.5t-59 22.5zM429 244q0 33 -13 63t-34.5 52t-51 35t-62.5 13t-62.5 -13t-51.5 -35t-34.5 -52t-12.5 -63t12.5 -62.5t34.5 -51.5t51.5 -34.5
t62.5 -12.5t62.5 13t51 34.5t34.5 51t13 62.5z" />
    <glyph glyph-name="h" unicode="h" 
d="M434 0v251q0 33 -13 62t-34.5 50.5t-50.5 34t-61 12.5q-31 0 -59 -11t-50 -31t-36.5 -49.5t-18.5 -65.5v-253h-84v644h84v-251q29 42 72 65.5t91 28.5q52 7 96.5 -9t77.5 -48t51.5 -77t18.5 -96v-257h-84z" />
    <glyph glyph-name="i" unicode="i" horiz-adv-x="176" 
d="M130 490v-490h-84v490h84zM34 636q0 23 16 38.5t37 15.5q23 0 38.5 -15.5t15.5 -38.5q0 -21 -15.5 -37t-38.5 -16q-21 0 -37 16t-16 37z" />
    <glyph glyph-name="j" unicode="j" horiz-adv-x="175" 
d="M130 490v-637h-84v637h84zM34 636q0 23 16 38.5t37 15.5q23 0 38.5 -15.5t15.5 -38.5q0 -21 -15.5 -37t-38.5 -16q-21 0 -37 16t-16 37z" />
    <glyph glyph-name="k" unicode="k" horiz-adv-x="447" 
d="M107 644v-359h81l170 205h107l-207 -243l207 -247h-107l-165 202h-86v-202h-84v644h84z" />
    <glyph glyph-name="l" unicode="l" horiz-adv-x="177" 
d="M130 644v-644h-84v644h84z" />
    <glyph glyph-name="m" unicode="m" horiz-adv-x="680" 
d="M383 0h-84v321q0 25 -12 45t-31 32t-41.5 13.5t-43.5 -9.5q-22 -10 -37 -31.5t-17 -62.5v-308h-85v490h85v-61q21 30 51 46.5t67 16.5q47 0 80 -23t50 -60q19 39 52.5 61t79.5 22q34 0 62.5 -13.5t48.5 -37t31 -54.5t11 -66v-321h-84v321q0 26 -12 46t-31 31.5t-41.5 13
t-43.5 -9.5q-24 -10 -39.5 -34t-15.5 -68v-300z" />
    <glyph glyph-name="n" unicode="n" 
d="M434 0v244q0 33 -12.5 63t-34.5 52.5t-51.5 35.5t-62.5 13t-62 -12.5t-51 -34.5t-35 -53t-14 -68v-240h-84v490h84v-103q30 51 78 78t106 27q47 0 87.5 -18t70.5 -49.5t47.5 -75t17.5 -95.5v-254h-84z" />
    <glyph glyph-name="o" unicode="o" horiz-adv-x="534" 
d="M426 244q0 33 -12.5 63t-34.5 52t-51.5 35t-62.5 13t-62.5 -13t-51.5 -35t-34.5 -52t-12.5 -63t12.5 -62.5t34.5 -51.5t51.5 -34.5t62.5 -12.5t62.5 12.5t51.5 34.5t34.5 51.5t12.5 62.5zM511 244q0 -51 -19.5 -96t-52.5 -78t-78 -52.5t-96 -19.5q-52 0 -97 19.5
t-78 52.5t-52 78t-19 96q0 52 19 97t52 78.5t78 53t97 19.5q51 0 96 -19.5t78 -53t52.5 -78.5t19.5 -97z" />
    <glyph glyph-name="p" unicode="p" horiz-adv-x="547" 
d="M518 244q0 -51 -18 -96t-48.5 -78t-72 -52.5t-89.5 -19.5q-57 0 -103.5 26.5t-75.5 71.5v-243h-84v637h84v-97q29 45 75.5 72t103.5 27q48 0 89.5 -19.5t72 -53t48.5 -78.5t18 -97zM434 244q0 33 -12.5 63t-34.5 52t-51.5 35t-62.5 13t-62 -12.5t-51 -34t-35 -50
t-14 -60.5v-6q0 -33 12.5 -62.5t34.5 -51.5t51.5 -34.5t63.5 -12.5q33 0 62.5 12.5t51.5 34.5t34.5 51.5t12.5 62.5z" />
    <glyph glyph-name="q" unicode="q" horiz-adv-x="547" 
d="M22 244q0 52 17.5 97t48.5 78.5t72 53t89 19.5q57 0 103.5 -27t76.5 -73v98h85v-637h-85v244q-30 -45 -76.5 -72t-103.5 -27q-48 0 -89 19.5t-72 52.5t-48.5 78t-17.5 96zM106 244q0 -33 12.5 -62.5t34.5 -51.5t51.5 -34.5t62.5 -12.5t61.5 12t50.5 33t35 49t15 60v13
q-2 32 -15 60.5t-35 50t-50.5 34t-61.5 12.5t-62.5 -13t-51.5 -35t-34.5 -52t-12.5 -63z" />
    <glyph glyph-name="r" unicode="r" horiz-adv-x="272" 
d="M129 490v-84q20 35 55 60.5t82 25.5v-85q-26 0 -50 -10t-43 -26.5t-31 -38.5t-13 -47v-285h-84v490h84z" />
    <glyph glyph-name="s" unicode="s" horiz-adv-x="355" 
d="M243 349q0 31 -19 52.5t-46 21.5q-26 0 -45 -21.5t-19 -50.5q0 -27 23 -44.5t72 -31.5q56 -16 83.5 -45.5t27.5 -87.5q0 -30 -11 -56t-30.5 -45.5t-45.5 -31t-57 -11.5q-30 0 -56 10.5t-45.5 29t-31 44.5t-11.5 57h84q0 -30 19.5 -50t45.5 -20t45 19.5t19 49.5
q0 19 -7.5 31t-20 20t-30 14t-38.5 12q-50 14 -83.5 45.5t-33.5 87.5q0 31 10.5 57t30 45.5t45.5 30.5t58 11q65 0 104.5 -38.5t39.5 -104.5h-77z" />
    <glyph glyph-name="t" unicode="t" horiz-adv-x="205" 
d="M0 492h46v152h85v-152h89v-70h-89v-271q0 -35 22 -56.5t57 -21.5v-75q-81 0 -122.5 39t-41.5 114v271h-46v70z" />
    <glyph glyph-name="u" unicode="u" 
d="M111 490v-242q0 -38 11.5 -70t33 -55.5t51.5 -36.5t66 -13q33 0 62.5 14t51 38.5t34.5 59t13 76.5v229h84v-490h-84v117q-28 -54 -75 -86.5t-110 -32.5q-47 0 -87.5 17t-70.5 48t-47 73.5t-17 93.5v260h84z" />
    <glyph glyph-name="v" unicode="v" horiz-adv-x="440" 
d="M75 490l143 -372l148 372h90l-195 -492h-90l-187 492h91z" />
    <glyph glyph-name="w" unicode="w" horiz-adv-x="680" 
d="M305 490l29 -80l32 80h90l-78 -197l70 -190l160 387h90l-195 -492h-90l-75 196l-77 -196h-90l-187 492h91l143 -372l76 192l-68 180h79z" />
    <glyph glyph-name="x" unicode="x" horiz-adv-x="498" 
d="M103 490l144 -191l150 191h102l-190 -247l190 -243h-105l-149 190l-145 -190h-101l186 246l-186 244h104z" />
    <glyph glyph-name="y" unicode="y" horiz-adv-x="461" 
d="M85 490l147 -376l144 376h90l-251 -637h-84l57 145l-194 492h91z" />
    <glyph glyph-name="z" unicode="z" horiz-adv-x="450" 
d="M5 492h442l-296 -409h294v-85h-443l294 409h-291v85z" />
    <glyph glyph-name="braceleft" unicode="{" horiz-adv-x="403" 
d="M378 583q-38 8 -63.5 3.5t-40.5 -17.5t-21.5 -33.5t-6.5 -44.5v-106q0 -32 -7.5 -54t-21.5 -38t-34 -26.5t-45 -18.5q47 -12 77.5 -44.5t30.5 -89.5v-106q0 -23 6.5 -42.5t21.5 -32.5t40.5 -18t63.5 2v-89q-64 -7 -106.5 2t-68 31t-36 54.5t-10.5 73.5v110
q0 54 -33.5 81.5t-98.5 25.5v88q70 1 101 33t31 92v111q0 38 13 68t40 49.5t68.5 26.5t99.5 -2v-89z" />
    <glyph glyph-name="bar" unicode="|" horiz-adv-x="138" 
d="M25 -182v918h88v-918h-88z" />
    <glyph glyph-name="braceright" unicode="}" horiz-adv-x="403" 
d="M25 672q58 9 99.5 2t68.5 -26.5t40 -49.5t13 -68v-111q0 -60 31 -92t101 -33v-88q-65 2 -98.5 -25.5t-33.5 -81.5v-110q0 -41 -10.5 -73.5t-36 -54.5t-68 -31t-106.5 -2v89q38 -7 63.5 -2t40.5 18t21.5 32.5t6.5 42.5v106q0 57 30.5 89.5t77.5 44.5q-25 8 -45 18.5
t-34 26.5t-21.5 38t-7.5 54v106q0 24 -6.5 44.5t-21.5 33.5t-40.5 17.5t-63.5 -3.5v89z" />
    <glyph glyph-name="asciitilde" unicode="~" horiz-adv-x="336" 
d="M28 184q-17 71 3.5 111.5t60.5 40.5q23 0 39.5 -10.5t31 -23t29 -23t33.5 -10.5t27.5 16.5t-5.5 49.5h59q12 -41 10.5 -69.5t-12 -46.5t-27 -26t-34.5 -8q-23 0 -39.5 9.5t-30.5 21.5t-27.5 21.5t-31.5 9.5q-19 0 -28.5 -16.5t-3.5 -46.5h-54z" />
    <glyph glyph-name="uni00A0" unicode="&#xa0;" horiz-adv-x="207" 
 />
    <glyph glyph-name="exclamdown" unicode="&#xa1;" horiz-adv-x="156" 
d="M127 483v-483h-88v483h88zM134 617q0 -22 -15.5 -37.5t-37.5 -15.5q-23 0 -38.5 15.5t-15.5 37.5t15.5 37.5t38.5 15.5q22 0 37.5 -15.5t15.5 -37.5z" />
    <glyph glyph-name="cent" unicode="&#xa2;" horiz-adv-x="539" 
d="M236 -79v81q-46 8 -84.5 30.5t-66.5 56t-44 76.5t-16 91t16 90t44 75.5t66.5 56t84.5 30.5v68h89v-68q52 -8 97 -35t82 -78l-65 -65q-26 38 -55 59t-59 29v-326q31 8 59.5 30t54.5 60l64 -63q-36 -54 -81 -82t-97 -36v-80h-89zM113 256q0 -59 34.5 -104t88.5 -60v326
q-27 -8 -49.5 -23.5t-39 -36.5t-25.5 -47.5t-9 -54.5z" />
    <glyph glyph-name="sterling" unicode="&#xa3;" horiz-adv-x="622" 
d="M114 347h83v104q0 46 16 86.5t46 70.5t73 47t97 17v-89q-35 0 -62 -10.5t-45 -28.5t-27 -42t-9 -51v-104h168v-89h-168v-40q0 -30 -10.5 -54t-29.5 -41.5t-44 -26.5t-54 -9v-1h449v-88h-572v88q35 0 66 10t54.5 28t37.5 42t14 52v40h-83v89z" />
    <glyph glyph-name="currency" unicode="&#xa4;" horiz-adv-x="487" 
d="M406 258q0 -45 -20 -80l75 -74l-63 -63l-75 73q-35 -20 -79 -20t-81 20l-73 -72l-64 63l74 73q-20 35 -20 80q0 22 5.5 42t15.5 38l-68 69l62 62l69 -69q37 20 80 20q22 0 42 -5.5t38 -15.5l75 75l63 -63l-75 -76q19 -36 19 -77zM318 258q0 30 -22 52t-52 22
q-31 0 -53 -22t-22 -52q0 -31 22 -53.5t53 -22.5q30 0 52 22.5t22 53.5z" />
    <glyph glyph-name="yen" unicode="&#xa5;" horiz-adv-x="490" 
d="M83 670l159 -363l158 363h99l-185 -400h96v-68h-123v-65h123v-68h-123v-69h-89v69h-128v68h128v65h-128v68h101l-186 400h98z" />
    <glyph glyph-name="brokenbar" unicode="&#xa6;" horiz-adv-x="138" 
d="M113 229v-446h-88v446h88zM113 771v-446h-88v446h88z" />
    <glyph glyph-name="section" unicode="&#xa7;" horiz-adv-x="351" 
d="M25 362q0 27 10 46.5t25 34.5q-16 14 -25.5 35.5t-9.5 48.5q0 32 12 57t32.5 42.5t47.5 26.5t58 9q32 0 59.5 -9t48 -27.5t32 -48t11.5 -70.5h-82q0 38 -18.5 60.5t-48.5 22.5q-29 0 -49 -21.5t-20 -53.5q0 -24 16 -37t40.5 -22t52.5 -17.5t52.5 -22.5t40.5 -37t16 -61
q0 -23 -11 -47.5t-30 -36.5q24 -18 32.5 -43t8.5 -48q0 -30 -11.5 -55t-32 -43t-48 -28t-59.5 -10q-31 0 -58 10.5t-47.5 31.5t-32.5 51.5t-12 70.5h82q0 -13 4 -27t12 -26t20 -20t29 -8q31 0 49.5 20.5t18.5 49.5q0 32 -21 48t-60 30q-24 7 -47.5 15t-43 21t-31.5 34
t-12 54zM236 261q22 24 18 52q-1 22 -15.5 36t-34.5 24.5t-43.5 20t-42.5 22.5q-10 -11 -14.5 -25t-2.5 -29q1 -21 15.5 -34.5t35 -24t43.5 -20t41 -22.5z" />
    <glyph glyph-name="dieresis" unicode="&#xa8;" horiz-adv-x="310" 
d="M13 620q0 23 16 38.5t37 15.5q23 0 38.5 -15.5t15.5 -38.5q0 -21 -15.5 -37t-38.5 -16q-21 0 -37 16t-16 37zM180 620q0 23 15.5 38.5t37.5 15.5t37.5 -15.5t15.5 -38.5q0 -21 -15.5 -37t-37.5 -16t-37.5 16t-15.5 37z" />
    <glyph glyph-name="copyright" unicode="&#xa9;" horiz-adv-x="800" 
d="M560 366q-32 52 -76 73.5t-85 21.5q-35 0 -65 -13t-52.5 -35t-35.5 -51.5t-13 -63.5q0 -35 13 -65.5t35.5 -53t52.5 -35.5t65 -13q42 0 85 20.5t74 70.5l60 -40q-35 -68 -94.5 -101t-124.5 -33q-52 0 -97.5 19t-79.5 53t-53.5 79.5t-19.5 98.5q0 51 19.5 96t53.5 78.5
t79.5 52.5t97.5 19q32 0 65.5 -9.5t63.5 -27.5t53 -43.5t35 -56.5zM722 298q0 66 -25.5 124t-69.5 102t-103 69.5t-125 25.5q-67 0 -125.5 -25.5t-102 -69.5t-69 -102t-25.5 -124q0 -67 25.5 -126t69 -103.5t102 -70t125.5 -25.5q66 0 125 25.5t103 70t69.5 103.5t25.5 126z
M775 298q0 -78 -29.5 -146.5t-80.5 -119.5t-119.5 -80.5t-146.5 -29.5t-146 29.5t-118.5 80.5t-80 119.5t-29.5 146.5t29.5 146t80 118.5t118.5 80t146 29.5t146.5 -29.5t119.5 -80t80.5 -118.5t29.5 -146z" />
    <glyph glyph-name="ordfeminine" unicode="&#xaa;" horiz-adv-x="544" 
d="M25 444q0 52 18 97t48.5 78.5t72 53t89.5 19.5q57 0 104 -27.5t77 -73.5v99h85v-490h-85v98q-30 -46 -77 -73t-104 -27q-48 0 -89.5 19.5t-72 52.5t-48.5 78t-18 96zM110 444q0 -33 12.5 -62.5t34 -51.5t51 -34.5t63.5 -12.5q33 0 62.5 12.5t51.5 34.5t35 51.5t13 62.5
t-13 63t-35 52t-51.5 35t-62.5 13q-34 0 -63.5 -13t-51 -35t-34 -52t-12.5 -63z" />
    <glyph glyph-name="guillemotleft" unicode="&#xab;" horiz-adv-x="486" 
d="M212 74l-187 191l187 190l64 -63l-126 -127l126 -127zM396 74l-187 191l188 190l64 -63l-127 -127l127 -127z" />
    <glyph glyph-name="logicalnot" unicode="&#xac;" horiz-adv-x="390" 
d="M25 310h340v-179h-88v90h-252v89z" />
    <glyph glyph-name="uni00AD" unicode="&#xad;" horiz-adv-x="341" 
d="M25 310h291v-89h-291v89z" />
    <glyph glyph-name="registered" unicode="&#xae;" horiz-adv-x="798" 
d="M720 298q0 66 -25.5 124.5t-69 102.5t-102 69.5t-124.5 25.5q-67 0 -126 -25.5t-102.5 -69.5t-69 -102.5t-25.5 -124.5q0 -67 25.5 -126.5t69 -103.5t102.5 -70t126 -26q66 0 124.5 26t102 70t69 103.5t25.5 126.5zM773 298q0 -78 -29.5 -146.5t-80 -119.5t-118.5 -80.5
t-146 -29.5t-146.5 29.5t-119 80.5t-79.5 119.5t-29 146.5t29 146t79.5 118.5t119 80t146.5 29.5t146 -29.5t118.5 -80t80 -118.5t29.5 -146zM248 71v459h156q39 0 74 -9.5t60.5 -29.5t40.5 -50t15 -70q0 -26 -8 -50t-23.5 -44.5t-38.5 -35.5t-53 -22q31 -5 50.5 -20
t30.5 -36t15.5 -45t4.5 -47h-89q-1 51 -18.5 78.5t-44.5 27.5h-84v-106h-88zM336 260h68q21 0 39.5 8t32.5 22.5t22 33t8 39.5q0 22 -8 41t-22 33t-32.5 22.5t-39.5 8.5h-68v-208z" />
    <glyph glyph-name="macron" unicode="&#xaf;" horiz-adv-x="390" 
d="M25 669h340v-88h-340v88z" />
    <glyph glyph-name="degree" unicode="&#xb0;" horiz-adv-x="271" 
d="M83 561q0 -22 15.5 -37.5t36.5 -15.5t36.5 15.5t15.5 37.5q0 21 -15.5 36t-36.5 15t-36.5 -15t-15.5 -36zM246 561q0 -24 -8.5 -45t-23.5 -36t-35 -23.5t-44 -8.5q-23 0 -43 8.5t-35 23.5t-23.5 36t-8.5 45q0 23 8.5 43.5t23.5 35.5t35 23.5t43 8.5q24 0 44 -8.5
t35 -23.5t23.5 -35.5t8.5 -43.5z" />
    <glyph glyph-name="plusminus" unicode="&#xb1;" horiz-adv-x="341" 
d="M25 310h99v101h90v-101h102v-89h-102v-101h-90v101h-99v89zM25 71h291v-89h-291v89z" />
    <glyph glyph-name="twosuperior" unicode="&#xb2;" horiz-adv-x="515" 
d="M27 283q34 5 75.5 19t83 36.5t80.5 52t69.5 66.5t48.5 80t18 92q0 32 -11.5 60t-31 49t-46 33t-56.5 12q-36 0 -65 -16t-48.5 -42t-28 -60.5t-2.5 -70.5h-88q-6 52 6 102t42 89t76 63t108 24q49 0 91.5 -18.5t74 -51t49.5 -75t18 -90.5q0 -59 -29.5 -115t-73.5 -103
t-95.5 -82t-96.5 -51h294v-88h-462v85z" />
    <glyph glyph-name="threesuperior" unicode="&#xb3;" horiz-adv-x="564" 
d="M159 735q-4 27 3 52t24 44t42.5 30t57.5 11q53 0 88.5 -31.5t35.5 -82.5q0 -29 -15.5 -51.5t-44.5 -36.5q43 -6 78 -24.5t60 -46.5t38 -64t13 -77q0 -55 -20 -102.5t-54.5 -82.5t-82 -55t-101.5 -20q-56 0 -105 20.5t-84 57.5t-53.5 88.5t-13.5 114.5h88
q-3 -44 9.5 -79.5t35.5 -61t55 -39t68 -13.5q35 0 66 13.5t54 37t36 54.5t13 67q0 34 -13.5 65.5t-40.5 55.5t-66.5 37t-90.5 10v58q55 2 76.5 18.5t21.5 40.5q0 26 -16.5 39t-39.5 13q-24 0 -40 -15.5t-14 -44.5h-68z" />
    <glyph glyph-name="acute" unicode="&#xb4;" horiz-adv-x="344" 
d="M25 615l249 104v-92l-249 -69v57z" />
    <glyph glyph-name="mu" unicode="&#xb5;" 
d="M111 490v-242q0 -38 11.5 -70t33 -55.5t51.5 -36.5t66 -13q32 0 60.5 13t50.5 36.5t35 56.5t15 73v238h84v-490h-84v117q-28 -54 -75 -86.5t-110 -32.5q-40 0 -75 12t-63 34v-226h-84v672h84z" />
    <glyph glyph-name="paragraph" unicode="&#xb6;" horiz-adv-x="390" 
d="M236 -182v655h-66v-655h-73v655h-72v88h340v-88h-57v-655h-72z" />
    <glyph glyph-name="periodcentered" unicode="&#xb7;" horiz-adv-x="138" 
d="M14 253q0 22 15.5 38t37.5 15q22 0 37.5 -16t15.5 -38t-15.5 -37.5t-37.5 -15.5q-22 2 -37.5 16.5t-15.5 37.5z" />
    <glyph glyph-name="cedilla" unicode="&#xb8;" horiz-adv-x="300" 
d="M85 -137q0 -14 6 -25.5t16 -19.5t22 -12t23 -4q21 0 40 16t19 39q0 12 -5.5 23.5t-17.5 19.5t-32 12t-49 2v141h88v-101q34 -11 57.5 -37t23.5 -74q0 -27 -11.5 -49t-29.5 -37.5t-40 -23.5t-44 -8q-24 0 -47 9.5t-40.5 27.5t-28 43.5t-8.5 57.5h58z" />
    <glyph glyph-name="onesuperior" unicode="&#xb9;" horiz-adv-x="138" 
d="M25 174v670h88v-670h-88z" />
    <glyph glyph-name="ordmasculine" unicode="&#xba;" horiz-adv-x="517" 
d="M492 407q0 -49 -18.5 -91.5t-50 -74.5t-74.5 -50.5t-92 -18.5q-48 0 -90.5 18.5t-74 50.5t-49.5 74.5t-18 91.5v205q0 48 18 91t49.5 74.5t74 50t90.5 18.5q49 0 92 -18.5t74.5 -50t50 -74.5t18.5 -91v-205zM404 612q0 30 -11.5 56.5t-32 46t-47 31t-56.5 11.5
q-29 0 -55.5 -11.5t-46 -31t-31 -46t-11.5 -56.5v-205q0 -30 11.5 -56.5t31 -46.5t46 -31.5t55.5 -11.5q30 0 56.5 11.5t47 31.5t32 46.5t11.5 56.5v205z" />
    <glyph glyph-name="guillemotright" unicode="&#xbb;" horiz-adv-x="488" 
d="M87 455l191 -189l-191 -190l-62 62l127 127l-127 127zM272 455l191 -189l-191 -190l-63 62l128 127l-128 127z" />
    <glyph glyph-name="onequarter" unicode="&#xbc;" horiz-adv-x="638" 
d="M583 470v-670h-87v164h-275l287 506h75zM25 39l447 595l64 -64l-447 -596zM32 838h61v-670h-88v613zM498 19l11 343l-41 -90l-128 -254z" />
    <glyph glyph-name="onehalf" unicode="&#xbd;" horiz-adv-x="878" 
d="M32 837h61v-670h-88v613zM390 -117q34 5 75.5 19t83 36.5t80.5 52t69.5 66.5t48.5 80t18 92q0 32 -11.5 60t-31 49t-46 33t-56.5 12q-36 0 -65 -16t-48.5 -42t-28 -60.5t-2.5 -70.5h-88q-6 52 6 102t42 89t76 63t108 24q49 0 91.5 -18.5t74 -51t49.5 -75t18 -90.5
q0 -59 -29.5 -115t-73.5 -103t-95.5 -82t-96.5 -51h294v-88h-462v85zM24 39l447 595l64 -64l-447 -596z" />
    <glyph glyph-name="threequarters" unicode="&#xbe;" horiz-adv-x="923" 
d="M857 470v-670h-87v164h-275l287 506h75zM129 722q-4 27 3 52t24 44t42.5 30t57.5 11q53 0 88.5 -31.5t35.5 -82.5q0 -29 -15.5 -51.5t-44.5 -36.5q43 -6 78 -24.5t60 -46.5t38 -64t13 -77q0 -55 -20 -102.5t-54.5 -82.5t-82 -55t-101.5 -20q-56 0 -105 20.5t-84 57.5
t-53.5 88.5t-13.5 114.5h88q-3 -44 9.5 -79.5t35.5 -61t55 -39t68 -13.5q35 0 66 13.5t54 37t36 54.5t13 67q0 34 -13.5 65.5t-40.5 55.5t-66.5 37t-90.5 10v58q55 2 76.5 18.5t21.5 40.5q0 26 -16.5 39t-39.5 13q-24 0 -40 -15.5t-14 -44.5h-68zM309 39l447 595l64 -64
l-447 -596zM772 19l11 343l-41 -90l-128 -254z" />
    <glyph glyph-name="questiondown" unicode="&#xbf;" horiz-adv-x="468" 
d="M454 230q1 -49 -15.5 -91t-46.5 -73t-70.5 -48.5t-87.5 -17.5t-87 16t-69.5 44.5t-46.5 68t-17 86.5q0 40 14 75t39 61t58 43t72 23v83h81v-132q-82 -10 -129 -47t-47 -100q0 -28 10 -52t28 -42t42 -28t52 -10t52 10.5t41.5 29t27.5 44.5t10 57h89zM291 619
q0 -22 -16 -37.5t-37 -15.5q-23 0 -38.5 15.5t-15.5 37.5t15.5 37.5t38.5 15.5q21 0 37 -15.5t16 -37.5z" />
    <glyph glyph-name="Agrave" unicode="&#xc0;" horiz-adv-x="515" 
d="M-9 0l216 670h91l226 -670h-91l-45 138h-263l-43 -138h-91zM147 210h218l-111 342zM382 734l-250 78v92l250 -108v-62z" />
    <glyph glyph-name="Aacute" unicode="&#xc1;" horiz-adv-x="515" 
d="M-9 0l216 670h91l226 -670h-91l-45 138h-263l-43 -138h-91zM147 210h218l-111 342zM132 795l249 104v-92l-249 -69v57z" />
    <glyph glyph-name="Acircumflex" unicode="&#xc2;" horiz-adv-x="515" 
d="M-9 0l216 670h91l226 -670h-91l-45 138h-263l-43 -138h-91zM147 210h218l-111 342zM113 767l142 113l145 -113l-64 -44l-81 71l-80 -71z" />
    <glyph glyph-name="Atilde" unicode="&#xc3;" horiz-adv-x="515" 
d="M-9 0l216 670h91l226 -670h-91l-45 138h-263l-43 -138h-91zM147 210h218l-111 342zM101 729q-17 71 3.5 111.5t60.5 40.5q23 0 42 -10.5t36 -23t34 -23t36 -10.5t29 16t-2 50h64q12 -41 10.5 -69.5t-12 -46.5t-27 -26t-34.5 -8q-23 0 -42 9.5t-35.5 21.5t-32.5 21.5
t-34 9.5q-19 0 -28.5 -16.5t-3.5 -46.5h-64z" />
    <glyph glyph-name="Adieresis" unicode="&#xc4;" horiz-adv-x="515" 
d="M-9 0l216 670h91l226 -670h-91l-45 138h-263l-43 -138h-91zM147 210h218l-111 342zM120 800q0 23 16 38.5t37 15.5q23 0 38.5 -15.5t15.5 -38.5q0 -21 -15.5 -37t-38.5 -16q-21 0 -37 16t-16 37zM287 800q0 23 15.5 38.5t37.5 15.5t37.5 -15.5t15.5 -38.5
q0 -21 -15.5 -37t-37.5 -16t-37.5 16t-15.5 37z" />
    <glyph glyph-name="Aring" unicode="&#xc5;" horiz-adv-x="515" 
d="M-9 0l216 670h91l226 -670h-91l-45 138h-263l-43 -138h-91zM367 817q0 -24 -8.5 -44.5t-23.5 -35.5t-35.5 -23.5t-44.5 -8.5q-46 0 -77.5 31.5t-31.5 80.5q0 23 8.5 43.5t23 35.5t34.5 23.5t43 8.5q24 0 44.5 -8.5t35.5 -23.5t23.5 -35.5t8.5 -43.5zM147 210h218
l-111 342zM204 817q0 -22 15.5 -37t35.5 -15q22 0 37 15t15 37t-15 36.5t-37 14.5q-20 0 -35.5 -14.5t-15.5 -36.5z" />
    <glyph glyph-name="AE" unicode="&#xc6;" horiz-adv-x="880" 
d="M860 0h-410v138h-273l-95 -138h-91l453 670h416v-89h-322v-257h272v-87h-272v-149h322v-88zM450 210v324l-224 -324h224z" />
    <glyph glyph-name="Ccedilla" unicode="&#xc7;" horiz-adv-x="639" 
d="M289 -182q0 -14 6 -25.5t16 -19.5t22 -12t23 -4q21 0 40 16t19 39q0 12 -5.5 23.5t-17.5 19.5t-32 12t-49 2v135q-61 9 -113 38t-90.5 72.5t-60.5 100t-22 119.5q0 70 26.5 131.5t72 107t106.5 71.5t131 26q88 0 157.5 -39t114.5 -106l-59 -60q-38 57 -93 86.5t-120 29.5
q-51 0 -96.5 -19.5t-79 -53t-53 -78.5t-19.5 -96t19.5 -96t53 -78.5t79 -52.5t96.5 -19q61 0 114 28.5t97 82.5l59 -58q-44 -60 -102.5 -95.5t-129.5 -43.5v-93q34 -11 57.5 -37t23.5 -74q0 -27 -11.5 -49t-29.5 -37.5t-40 -23.5t-44 -8q-24 0 -47 9.5t-40.5 27.5t-28 43.5
t-8.5 57.5h58z" />
    <glyph glyph-name="Egrave" unicode="&#xc8;" horiz-adv-x="460" 
d="M435 0h-410v670h410v-89h-322v-257h272v-87h-272v-149h322v-88zM355 734l-250 78v92l250 -108v-62z" />
    <glyph glyph-name="Eacute" unicode="&#xc9;" horiz-adv-x="460" 
d="M435 0h-410v670h410v-89h-322v-257h272v-87h-272v-149h322v-88zM105 795l249 104v-92l-249 -69v57z" />
    <glyph glyph-name="Ecircumflex" unicode="&#xca;" horiz-adv-x="460" 
d="M435 0h-410v670h410v-89h-322v-257h272v-87h-272v-149h322v-88zM86 767l142 113l145 -113l-64 -44l-81 71l-80 -71z" />
    <glyph glyph-name="Edieresis" unicode="&#xcb;" horiz-adv-x="460" 
d="M435 0h-410v670h410v-89h-322v-257h272v-87h-272v-149h322v-88zM93 800q0 23 16 38.5t37 15.5q23 0 38.5 -15.5t15.5 -38.5q0 -21 -15.5 -37t-38.5 -16q-21 0 -37 16t-16 37zM260 800q0 23 15.5 38.5t37.5 15.5t37.5 -15.5t15.5 -38.5q0 -21 -15.5 -37t-37.5 -16
t-37.5 16t-15.5 37z" />
    <glyph glyph-name="Igrave" unicode="&#xcc;" horiz-adv-x="191" 
d="M51 0v670h88v-670h-88zM220 734l-250 78v92l250 -108v-62z" />
    <glyph glyph-name="Iacute" unicode="&#xcd;" horiz-adv-x="191" 
d="M51 0v670h88v-670h-88zM-29 795l249 104v-92l-249 -69v57z" />
    <glyph glyph-name="Icircumflex" unicode="&#xce;" horiz-adv-x="191" 
d="M51 0v670h88v-670h-88zM-48 767l142 113l145 -113l-64 -44l-81 71l-80 -71z" />
    <glyph glyph-name="Idieresis" unicode="&#xcf;" horiz-adv-x="191" 
d="M51 0v670h88v-670h-88zM-42 800q0 23 16 38.5t37 15.5q23 0 38.5 -15.5t15.5 -38.5q0 -21 -15.5 -37t-38.5 -16q-21 0 -37 16t-16 37zM125 800q0 23 15.5 38.5t37.5 15.5t37.5 -15.5t15.5 -38.5q0 -21 -15.5 -37t-37.5 -16t-37.5 16t-15.5 37z" />
    <glyph glyph-name="Eth" unicode="&#xd0;" horiz-adv-x="536" 
d="M-30 359h55v313h163q70 0 131 -26.5t106.5 -72t72 -107.5t26.5 -132t-26.5 -131t-72 -106.5t-106.5 -72t-131 -26.5h-163v273h-55v88zM113 583v-224h147v-88h-147v-185h75q51 0 96 19.5t78.5 53t53 79t19.5 96.5t-19.5 96.5t-53 79.5t-78.5 53.5t-96 19.5h-75z" />
    <glyph glyph-name="Ntilde" unicode="&#xd1;" horiz-adv-x="564" 
d="M517 670v-670h-69l-340 503v-503h-83v670h77l336 -504v504h79zM122 729q-17 71 3.5 111.5t60.5 40.5q23 0 42 -10.5t36 -23t34 -23t36 -10.5t29 16t-2 50h64q12 -41 10.5 -69.5t-12 -46.5t-27 -26t-34.5 -8q-23 0 -42 9.5t-35.5 21.5t-32.5 21.5t-34 9.5
q-19 0 -28.5 -16.5t-3.5 -46.5h-64z" />
    <glyph glyph-name="Ograve" unicode="&#xd2;" horiz-adv-x="724" 
d="M610 334q0 51 -20 96t-53.5 78.5t-79 53t-96.5 19.5t-96.5 -19.5t-79 -53t-53 -78.5t-19.5 -96t19.5 -96t53 -78.5t79 -52.5t96.5 -19t96.5 19t79 52.5t53.5 78.5t20 96zM698 334q0 -70 -26 -131t-72 -106t-107.5 -71t-131.5 -26t-131.5 26t-107 71t-71.5 106t-26 131
t26 131.5t71.5 107t107 71.5t131.5 26t131.5 -26t107.5 -71.5t72 -107t26 -131.5zM487 734l-250 78v92l250 -108v-62z" />
    <glyph glyph-name="Oacute" unicode="&#xd3;" horiz-adv-x="724" 
d="M610 334q0 51 -20 96t-53.5 78.5t-79 53t-96.5 19.5t-96.5 -19.5t-79 -53t-53 -78.5t-19.5 -96t19.5 -96t53 -78.5t79 -52.5t96.5 -19t96.5 19t79 52.5t53.5 78.5t20 96zM698 334q0 -70 -26 -131t-72 -106t-107.5 -71t-131.5 -26t-131.5 26t-107 71t-71.5 106t-26 131
t26 131.5t71.5 107t107 71.5t131.5 26t131.5 -26t107.5 -71.5t72 -107t26 -131.5zM237 795l249 104v-92l-249 -69v57z" />
    <glyph glyph-name="Ocircumflex" unicode="&#xd4;" horiz-adv-x="724" 
d="M610 334q0 51 -20 96t-53.5 78.5t-79 53t-96.5 19.5t-96.5 -19.5t-79 -53t-53 -78.5t-19.5 -96t19.5 -96t53 -78.5t79 -52.5t96.5 -19t96.5 19t79 52.5t53.5 78.5t20 96zM698 334q0 -70 -26 -131t-72 -106t-107.5 -71t-131.5 -26t-131.5 26t-107 71t-71.5 106t-26 131
t26 131.5t71.5 107t107 71.5t131.5 26t131.5 -26t107.5 -71.5t72 -107t26 -131.5zM218 767l142 113l145 -113l-64 -44l-81 71l-80 -71z" />
    <glyph glyph-name="Otilde" unicode="&#xd5;" horiz-adv-x="724" 
d="M610 334q0 51 -20 96t-53.5 78.5t-79 53t-96.5 19.5t-96.5 -19.5t-79 -53t-53 -78.5t-19.5 -96t19.5 -96t53 -78.5t79 -52.5t96.5 -19t96.5 19t79 52.5t53.5 78.5t20 96zM698 334q0 -70 -26 -131t-72 -106t-107.5 -71t-131.5 -26t-131.5 26t-107 71t-71.5 106t-26 131
t26 131.5t71.5 107t107 71.5t131.5 26t131.5 -26t107.5 -71.5t72 -107t26 -131.5zM205 729q-17 71 3.5 111.5t60.5 40.5q23 0 42 -10.5t36 -23t34 -23t36 -10.5t29 16t-2 50h64q12 -41 10.5 -69.5t-12 -46.5t-27 -26t-34.5 -8q-23 0 -42 9.5t-35.5 21.5t-32.5 21.5t-34 9.5
q-19 0 -28.5 -16.5t-3.5 -46.5h-64z" />
    <glyph glyph-name="Odieresis" unicode="&#xd6;" horiz-adv-x="724" 
d="M610 334q0 51 -20 96t-53.5 78.5t-79 53t-96.5 19.5t-96.5 -19.5t-79 -53t-53 -78.5t-19.5 -96t19.5 -96t53 -78.5t79 -52.5t96.5 -19t96.5 19t79 52.5t53.5 78.5t20 96zM698 334q0 -70 -26 -131t-72 -106t-107.5 -71t-131.5 -26t-131.5 26t-107 71t-71.5 106t-26 131
t26 131.5t71.5 107t107 71.5t131.5 26t131.5 -26t107.5 -71.5t72 -107t26 -131.5zM225 800q0 23 16 38.5t37 15.5q23 0 38.5 -15.5t15.5 -38.5q0 -21 -15.5 -37t-38.5 -16q-21 0 -37 16t-16 37zM392 800q0 23 15.5 38.5t37.5 15.5t37.5 -15.5t15.5 -38.5q0 -21 -15.5 -37
t-37.5 -16t-37.5 16t-15.5 37z" />
    <glyph glyph-name="multiply" unicode="&#xd7;" horiz-adv-x="341" 
d="M36 194l70 70l-71 72l63 64l72 -72l72 72l63 -63l-72 -72l71 -71l-63 -64l-72 71l-70 -70z" />
    <glyph glyph-name="Oslash" unicode="&#xd8;" horiz-adv-x="724" 
d="M72 87l29 32q-36 44 -56 98.5t-20 116.5q0 70 26 132t71.5 107.5t107 72t131.5 26.5q54 0 101.5 -15.5t88.5 -43.5l36 40l64 -64l-33 -36q38 -45 59 -100.5t21 -118.5q0 -70 -26 -131t-72 -106.5t-107.5 -72t-131.5 -26.5q-54 0 -103 15.5t-90 44.5l-32 -35zM610 334
q0 43 -14 81.5t-39 70.5l-329 -362q29 -18 62.5 -28t70.5 -10q51 0 96.5 19.5t79 53t53.5 79t20 96.5zM113 334q0 -42 13 -79.5t36 -68.5l328 360q-29 17 -61.5 27t-67.5 10q-51 0 -96.5 -19.5t-79 -53.5t-53 -79.5t-19.5 -96.5z" />
    <glyph glyph-name="Ugrave" unicode="&#xd9;" horiz-adv-x="565" 
d="M113 670v-414q0 -35 13.5 -66t36 -54t53 -36.5t65.5 -13.5q40 0 71.5 16t53.5 43t33.5 62.5t11.5 74.5v388h88v-414q0 -54 -20 -101t-55 -82t-82 -55t-101 -20t-101 20t-81.5 55t-54 82t-19.5 101v414h88zM407 734l-250 78v92l250 -108v-62z" />
    <glyph glyph-name="Uacute" unicode="&#xda;" horiz-adv-x="565" 
d="M113 670v-414q0 -35 13.5 -66t36 -54t53 -36.5t65.5 -13.5q40 0 71.5 16t53.5 43t33.5 62.5t11.5 74.5v388h88v-414q0 -54 -20 -101t-55 -82t-82 -55t-101 -20t-101 20t-81.5 55t-54 82t-19.5 101v414h88zM157 795l249 104v-92l-249 -69v57z" />
    <glyph glyph-name="Ucircumflex" unicode="&#xdb;" horiz-adv-x="565" 
d="M113 670v-414q0 -35 13.5 -66t36 -54t53 -36.5t65.5 -13.5q40 0 71.5 16t53.5 43t33.5 62.5t11.5 74.5v388h88v-414q0 -54 -20 -101t-55 -82t-82 -55t-101 -20t-101 20t-81.5 55t-54 82t-19.5 101v414h88zM138 767l142 113l145 -113l-64 -44l-81 71l-80 -71z" />
    <glyph glyph-name="Udieresis" unicode="&#xdc;" horiz-adv-x="565" 
d="M113 670v-414q0 -35 13.5 -66t36 -54t53 -36.5t65.5 -13.5q40 0 71.5 16t53.5 43t33.5 62.5t11.5 74.5v388h88v-414q0 -54 -20 -101t-55 -82t-82 -55t-101 -20t-101 20t-81.5 55t-54 82t-19.5 101v414h88zM145 800q0 23 16 38.5t37 15.5q23 0 38.5 -15.5t15.5 -38.5
q0 -21 -15.5 -37t-38.5 -16q-21 0 -37 16t-16 37zM312 800q0 23 15.5 38.5t37.5 15.5t37.5 -15.5t15.5 -38.5q0 -21 -15.5 -37t-37.5 -16t-37.5 16t-15.5 37z" />
    <glyph glyph-name="Yacute" unicode="&#xdd;" horiz-adv-x="486" 
d="M83 670l159 -363l158 363h99l-212 -458v-212h-89v212l-213 458h98zM118 795l249 104v-92l-249 -69v57z" />
    <glyph glyph-name="Thorn" unicode="&#xde;" horiz-adv-x="458" 
d="M25 0v670h88v-107h94q48 0 89 -17.5t71.5 -47.5t48 -71t17.5 -89q0 -47 -17.5 -88.5t-48 -72.5t-71.5 -48.5t-89 -17.5h-94v-111h-88zM113 475v-275h94q28 0 52.5 11t43.5 29.5t30 43.5t11 54q0 28 -11 53t-29.5 43.5t-43.5 29.5t-53 11h-94z" />
    <glyph glyph-name="germandbls" unicode="&#xdf;" horiz-adv-x="484" 
d="M206 83q38 0 69 12t53 34t34 52t12 65q0 33 -11.5 62t-32.5 51t-51 35t-66 13h-103v-407h-85v511q0 44 14 70.5t33.5 41t40 19t32.5 4.5q42 0 74.5 -17.5t44.5 -45.5q20 -30 14.5 -64t-38.5 -56l34 -3q36 -3 69.5 -20.5t59 -46t41 -66t15.5 -81.5q0 -51 -17 -96.5
t-50 -79t-80 -53t-106 -19.5v85zM179 479q18 6 29.5 19.5t11.5 33.5t-14.5 36t-40.5 16q-8 0 -17.5 -2.5t-18 -9t-14.5 -19t-6 -31.5v-43h70z" />
    <glyph glyph-name="agrave" unicode="&#xe0;" horiz-adv-x="549" 
d="M22 244q0 52 18 97t48.5 78.5t72 53t89.5 19.5q57 0 104 -27.5t77 -73.5v99h85v-490h-85v98q-30 -46 -77 -73t-104 -27q-48 0 -89.5 19.5t-72 52.5t-48.5 78t-18 96zM107 244q0 -33 12.5 -62.5t34 -51.5t51 -34.5t63.5 -12.5q33 0 62.5 12.5t51.5 34.5t35 51.5t13 62.5
t-13 63t-35 52t-51.5 35t-62.5 13q-34 0 -63.5 -13t-51 -35t-34 -52t-12.5 -63zM399 554l-250 78v92l250 -108v-62z" />
    <glyph glyph-name="aacute" unicode="&#xe1;" horiz-adv-x="549" 
d="M22 244q0 52 18 97t48.5 78.5t72 53t89.5 19.5q57 0 104 -27.5t77 -73.5v99h85v-490h-85v98q-30 -46 -77 -73t-104 -27q-48 0 -89.5 19.5t-72 52.5t-48.5 78t-18 96zM107 244q0 -33 12.5 -62.5t34 -51.5t51 -34.5t63.5 -12.5q33 0 62.5 12.5t51.5 34.5t35 51.5t13 62.5
t-13 63t-35 52t-51.5 35t-62.5 13q-34 0 -63.5 -13t-51 -35t-34 -52t-12.5 -63zM149 615l249 104v-92l-249 -69v57z" />
    <glyph glyph-name="acircumflex" unicode="&#xe2;" horiz-adv-x="549" 
d="M22 244q0 52 18 97t48.5 78.5t72 53t89.5 19.5q57 0 104 -27.5t77 -73.5v99h85v-490h-85v98q-30 -46 -77 -73t-104 -27q-48 0 -89.5 19.5t-72 52.5t-48.5 78t-18 96zM107 244q0 -33 12.5 -62.5t34 -51.5t51 -34.5t63.5 -12.5q33 0 62.5 12.5t51.5 34.5t35 51.5t13 62.5
t-13 63t-35 52t-51.5 35t-62.5 13q-34 0 -63.5 -13t-51 -35t-34 -52t-12.5 -63zM130 587l142 113l145 -113l-64 -44l-81 71l-80 -71z" />
    <glyph glyph-name="atilde" unicode="&#xe3;" horiz-adv-x="549" 
d="M22 244q0 52 18 97t48.5 78.5t72 53t89.5 19.5q57 0 104 -27.5t77 -73.5v99h85v-490h-85v98q-30 -46 -77 -73t-104 -27q-48 0 -89.5 19.5t-72 52.5t-48.5 78t-18 96zM107 244q0 -33 12.5 -62.5t34 -51.5t51 -34.5t63.5 -12.5q33 0 62.5 12.5t51.5 34.5t35 51.5t13 62.5
t-13 63t-35 52t-51.5 35t-62.5 13q-34 0 -63.5 -13t-51 -35t-34 -52t-12.5 -63zM118 549q-17 71 3.5 111.5t60.5 40.5q23 0 42 -10.5t36 -23t34 -23t36 -10.5t29 16t-2 50h64q12 -41 10.5 -69.5t-12 -46.5t-27 -26t-34.5 -8q-23 0 -42 9.5t-35.5 21.5t-32.5 21.5t-34 9.5
q-19 0 -28.5 -16.5t-3.5 -46.5h-64z" />
    <glyph glyph-name="adieresis" unicode="&#xe4;" horiz-adv-x="549" 
d="M22 244q0 52 18 97t48.5 78.5t72 53t89.5 19.5q57 0 104 -27.5t77 -73.5v99h85v-490h-85v98q-30 -46 -77 -73t-104 -27q-48 0 -89.5 19.5t-72 52.5t-48.5 78t-18 96zM107 244q0 -33 12.5 -62.5t34 -51.5t51 -34.5t63.5 -12.5q33 0 62.5 12.5t51.5 34.5t35 51.5t13 62.5
t-13 63t-35 52t-51.5 35t-62.5 13q-34 0 -63.5 -13t-51 -35t-34 -52t-12.5 -63zM137 620q0 23 16 38.5t37 15.5q23 0 38.5 -15.5t15.5 -38.5q0 -21 -15.5 -37t-38.5 -16q-21 0 -37 16t-16 37zM304 620q0 23 15.5 38.5t37.5 15.5t37.5 -15.5t15.5 -38.5q0 -21 -15.5 -37
t-37.5 -16t-37.5 16t-15.5 37z" />
    <glyph glyph-name="aring" unicode="&#xe5;" horiz-adv-x="549" 
d="M22 244q0 52 18 97t48.5 78.5t72 53t89.5 19.5q57 0 104 -27.5t77 -73.5v99h85v-490h-85v98q-30 -46 -77 -73t-104 -27q-48 0 -89.5 19.5t-72 52.5t-48.5 78t-18 96zM107 244q0 -33 12.5 -62.5t34 -51.5t51 -34.5t63.5 -12.5q33 0 62.5 12.5t51.5 34.5t35 51.5t13 62.5
t-13 63t-35 52t-51.5 35t-62.5 13q-34 0 -63.5 -13t-51 -35t-34 -52t-12.5 -63zM384 637q0 -24 -8.5 -44.5t-23.5 -35.5t-35.5 -23.5t-44.5 -8.5q-46 0 -77.5 31.5t-31.5 80.5q0 23 8.5 43.5t23 35.5t34.5 23.5t43 8.5q24 0 44.5 -8.5t35.5 -23.5t23.5 -35.5t8.5 -43.5z
M221 637q0 -22 15.5 -37t35.5 -15q22 0 37 15t15 37t-15 36.5t-37 14.5q-20 0 -35.5 -14.5t-15.5 -36.5z" />
    <glyph glyph-name="ae" unicode="&#xe6;" horiz-adv-x="921" 
d="M22 244q0 52 18 97t48.5 78.5t72 53t89.5 19.5q57 0 104 -27.5t77 -73.5v99h85v-59q32 29 73.5 45t88.5 16q65 0 122.5 -30t99.5 -93l-290 -270q16 -11 40 -15.5t48 -1.5q42 5 78.5 28.5t61.5 59.5l57 -55q-41 -61 -96.5 -89t-120.5 -28q-47 0 -88.5 16t-73.5 45v-59h-85
v98q-30 -46 -77 -73t-104 -27q-48 0 -89.5 19.5t-72 52.5t-48.5 78t-18 96zM107 244q0 -33 12.5 -62.5t34 -51.5t51 -34.5t63.5 -12.5q33 0 62.5 12.5t51.5 34.5t35 51.5t13 62.5t-13 63t-35 52t-51.5 35t-62.5 13q-34 0 -63.5 -13t-51 -35t-34 -52t-12.5 -63zM667 410
q-57 -4 -97.5 -39t-53.5 -89v-77q11 -45 43 -68l229 223q-19 23 -51 37.5t-70 12.5z" />
    <glyph glyph-name="ccedilla" unicode="&#xe7;" horiz-adv-x="478" 
d="M201 -178q0 -14 6 -25.5t16 -19.5t22 -12t23 -4q21 0 40 16t19 39q0 12 -5.5 23.5t-17.5 19.5t-32 12t-49 2v128q-44 8 -81 30t-64 54t-42 73t-15 86q0 52 19 97t52 78t78 52t97 19q63 0 117.5 -28t92.5 -85l-61 -61q-27 41 -63 65t-86 24q-33 0 -63 -12.5t-52 -34.5
t-35 -51.5t-13 -62.5t13 -62.5t35 -51.5t52 -34.5t63 -12.5q46 0 84.5 23.5t64.5 66.5l61 -59q-29 -48 -72 -76t-94 -37v-88q34 -11 57.5 -37t23.5 -74q0 -27 -11.5 -49t-29.5 -37.5t-40 -23.5t-44 -8q-24 0 -47 9.5t-40.5 27.5t-28 43.5t-8.5 57.5h58z" />
    <glyph glyph-name="egrave" unicode="&#xe8;" horiz-adv-x="504" 
d="M484 115q-41 -61 -96.5 -89t-120.5 -28q-51 0 -96 19.5t-78 52.5t-52.5 78t-19.5 96q0 52 19.5 97t52.5 78.5t78 53t96 19.5q65 0 122.5 -30t99.5 -93l-290 -270q16 -11 40 -15.5t48 -1.5q42 5 78.5 28.5t61.5 59.5zM101 257q-3 -38 10 -70t37 -50l229 223
q-19 23 -51 37.5t-70 12.5q-31 -2 -58 -14t-47.5 -32.5t-33.5 -47.5t-16 -59zM390 554l-250 78v92l250 -108v-62z" />
    <glyph glyph-name="eacute" unicode="&#xe9;" horiz-adv-x="504" 
d="M484 115q-41 -61 -96.5 -89t-120.5 -28q-51 0 -96 19.5t-78 52.5t-52.5 78t-19.5 96q0 52 19.5 97t52.5 78.5t78 53t96 19.5q65 0 122.5 -30t99.5 -93l-290 -270q16 -11 40 -15.5t48 -1.5q42 5 78.5 28.5t61.5 59.5zM101 257q-3 -38 10 -70t37 -50l229 223
q-19 23 -51 37.5t-70 12.5q-31 -2 -58 -14t-47.5 -32.5t-33.5 -47.5t-16 -59zM105 615l249 104v-92l-249 -69v57z" />
    <glyph glyph-name="ecircumflex" unicode="&#xea;" horiz-adv-x="504" 
d="M484 115q-41 -61 -96.5 -89t-120.5 -28q-51 0 -96 19.5t-78 52.5t-52.5 78t-19.5 96q0 52 19.5 97t52.5 78.5t78 53t96 19.5q65 0 122.5 -30t99.5 -93l-290 -270q16 -11 40 -15.5t48 -1.5q42 5 78.5 28.5t61.5 59.5zM101 257q-3 -38 10 -70t37 -50l229 223
q-19 23 -51 37.5t-70 12.5q-31 -2 -58 -14t-47.5 -32.5t-33.5 -47.5t-16 -59zM118 596l142 113l145 -113l-64 -44l-81 71l-80 -71z" />
    <glyph glyph-name="edieresis" unicode="&#xeb;" horiz-adv-x="504" 
d="M484 115q-41 -61 -96.5 -89t-120.5 -28q-51 0 -96 19.5t-78 52.5t-52.5 78t-19.5 96q0 52 19.5 97t52.5 78.5t78 53t96 19.5q65 0 122.5 -30t99.5 -93l-290 -270q16 -11 40 -15.5t48 -1.5q42 5 78.5 28.5t61.5 59.5zM101 257q-3 -38 10 -70t37 -50l229 223
q-19 23 -51 37.5t-70 12.5q-31 -2 -58 -14t-47.5 -32.5t-33.5 -47.5t-16 -59zM127 620q0 23 16 38.5t37 15.5q23 0 38.5 -15.5t15.5 -38.5q0 -21 -15.5 -37t-38.5 -16q-21 0 -37 16t-16 37zM294 620q0 23 15.5 38.5t37.5 15.5t37.5 -15.5t15.5 -38.5q0 -21 -15.5 -37
t-37.5 -16t-37.5 16t-15.5 37z" />
    <glyph glyph-name="igrave" unicode="&#xec;" horiz-adv-x="214" 
d="M149 490v-490h-84v490h84zM232 554l-250 78v92l250 -108v-62z" />
    <glyph glyph-name="iacute" unicode="&#xed;" horiz-adv-x="214" 
d="M149 490v-490h-84v490h84zM-18 615l249 104v-92l-249 -69v57z" />
    <glyph glyph-name="icircumflex" unicode="&#xee;" horiz-adv-x="214" 
d="M149 490v-490h-84v490h84zM-37 587l142 113l145 -113l-64 -44l-81 71l-80 -71z" />
    <glyph glyph-name="idieresis" unicode="&#xef;" horiz-adv-x="214" 
d="M149 490v-490h-84v490h84zM-30 620q0 23 16 38.5t37 15.5q23 0 38.5 -15.5t15.5 -38.5q0 -21 -15.5 -37t-38.5 -16q-21 0 -37 16t-16 37zM137 620q0 23 15.5 38.5t37.5 15.5t37.5 -15.5t15.5 -38.5q0 -21 -15.5 -37t-37.5 -16t-37.5 16t-15.5 37z" />
    <glyph glyph-name="eth" unicode="&#xf0;" horiz-adv-x="542" 
d="M134 513l45 44l-60 62l60 60l61 -60l60 60l59 -60l-59 -60l110 -106q20 -20 38.5 -43.5t33 -50t23.5 -55t9 -58.5q0 -52 -19.5 -97t-52.5 -78.5t-78 -53t-96 -19.5q-52 0 -97 19.5t-78 53t-52 78.5t-19 97q0 42 15 79.5t42.5 66t66 46t84.5 18.5q32 1 63 -9.5t48 -23.5
l-106 98l-61 -46zM107 246q0 -34 12.5 -64t34.5 -52t51.5 -34.5t62.5 -12.5t62.5 12.5t51 34.5t34.5 52t13 64q0 30 -11.5 58.5t-33 51.5t-51 37t-65.5 14q-33 0 -62.5 -13t-51.5 -35t-34.5 -51t-12.5 -62z" />
    <glyph glyph-name="ntilde" unicode="&#xf1;" 
d="M434 0v244q0 33 -12.5 63t-34.5 52.5t-51.5 35.5t-62.5 13t-62 -12.5t-51 -34.5t-35 -53t-14 -68v-240h-84v490h84v-103q30 51 78 78t106 27q47 0 87.5 -18t70.5 -49.5t47.5 -75t17.5 -95.5v-254h-84zM117 549q-17 71 3.5 111.5t60.5 40.5q23 0 42 -10.5t36 -23t34 -23
t36 -10.5t29 16t-2 50h64q12 -41 10.5 -69.5t-12 -46.5t-27 -26t-34.5 -8q-23 0 -42 9.5t-35.5 21.5t-32.5 21.5t-34 9.5q-19 0 -28.5 -16.5t-3.5 -46.5h-64z" />
    <glyph glyph-name="ograve" unicode="&#xf2;" horiz-adv-x="534" 
d="M426 244q0 33 -12.5 63t-34.5 52t-51.5 35t-62.5 13t-62.5 -13t-51.5 -35t-34.5 -52t-12.5 -63t12.5 -62.5t34.5 -51.5t51.5 -34.5t62.5 -12.5t62.5 12.5t51.5 34.5t34.5 51.5t12.5 62.5zM511 244q0 -51 -19.5 -96t-52.5 -78t-78 -52.5t-96 -19.5q-52 0 -97 19.5
t-78 52.5t-52 78t-19 96q0 52 19 97t52 78.5t78 53t97 19.5q51 0 96 -19.5t78 -53t52.5 -78.5t19.5 -97zM396 554l-250 78v92l250 -108v-62z" />
    <glyph glyph-name="oacute" unicode="&#xf3;" horiz-adv-x="534" 
d="M426 244q0 33 -12.5 63t-34.5 52t-51.5 35t-62.5 13t-62.5 -13t-51.5 -35t-34.5 -52t-12.5 -63t12.5 -62.5t34.5 -51.5t51.5 -34.5t62.5 -12.5t62.5 12.5t51.5 34.5t34.5 51.5t12.5 62.5zM511 244q0 -51 -19.5 -96t-52.5 -78t-78 -52.5t-96 -19.5q-52 0 -97 19.5
t-78 52.5t-52 78t-19 96q0 52 19 97t52 78.5t78 53t97 19.5q51 0 96 -19.5t78 -53t52.5 -78.5t19.5 -97zM146 615l249 104v-92l-249 -69v57z" />
    <glyph glyph-name="ocircumflex" unicode="&#xf4;" horiz-adv-x="534" 
d="M426 244q0 33 -12.5 63t-34.5 52t-51.5 35t-62.5 13t-62.5 -13t-51.5 -35t-34.5 -52t-12.5 -63t12.5 -62.5t34.5 -51.5t51.5 -34.5t62.5 -12.5t62.5 12.5t51.5 34.5t34.5 51.5t12.5 62.5zM511 244q0 -51 -19.5 -96t-52.5 -78t-78 -52.5t-96 -19.5q-52 0 -97 19.5
t-78 52.5t-52 78t-19 96q0 52 19 97t52 78.5t78 53t97 19.5q51 0 96 -19.5t78 -53t52.5 -78.5t19.5 -97zM127 587l142 113l145 -113l-64 -44l-81 71l-80 -71z" />
    <glyph glyph-name="otilde" unicode="&#xf5;" horiz-adv-x="534" 
d="M426 244q0 33 -12.5 63t-34.5 52t-51.5 35t-62.5 13t-62.5 -13t-51.5 -35t-34.5 -52t-12.5 -63t12.5 -62.5t34.5 -51.5t51.5 -34.5t62.5 -12.5t62.5 12.5t51.5 34.5t34.5 51.5t12.5 62.5zM511 244q0 -51 -19.5 -96t-52.5 -78t-78 -52.5t-96 -19.5q-52 0 -97 19.5
t-78 52.5t-52 78t-19 96q0 52 19 97t52 78.5t78 53t97 19.5q51 0 96 -19.5t78 -53t52.5 -78.5t19.5 -97zM114 549q-17 71 3.5 111.5t60.5 40.5q23 0 42 -10.5t36 -23t34 -23t36 -10.5t29 16t-2 50h64q12 -41 10.5 -69.5t-12 -46.5t-27 -26t-34.5 -8q-23 0 -42 9.5
t-35.5 21.5t-32.5 21.5t-34 9.5q-19 0 -28.5 -16.5t-3.5 -46.5h-64z" />
    <glyph glyph-name="odieresis" unicode="&#xf6;" horiz-adv-x="534" 
d="M426 244q0 33 -12.5 63t-34.5 52t-51.5 35t-62.5 13t-62.5 -13t-51.5 -35t-34.5 -52t-12.5 -63t12.5 -62.5t34.5 -51.5t51.5 -34.5t62.5 -12.5t62.5 12.5t51.5 34.5t34.5 51.5t12.5 62.5zM511 244q0 -51 -19.5 -96t-52.5 -78t-78 -52.5t-96 -19.5q-52 0 -97 19.5
t-78 52.5t-52 78t-19 96q0 52 19 97t52 78.5t78 53t97 19.5q51 0 96 -19.5t78 -53t52.5 -78.5t19.5 -97zM134 620q0 23 16 38.5t37 15.5q23 0 38.5 -15.5t15.5 -38.5q0 -21 -15.5 -37t-38.5 -16q-21 0 -37 16t-16 37zM301 620q0 23 15.5 38.5t37.5 15.5t37.5 -15.5
t15.5 -38.5q0 -21 -15.5 -37t-37.5 -16t-37.5 16t-15.5 37z" />
    <glyph glyph-name="divide" unicode="&#xf7;" horiz-adv-x="390" 
d="M148 53q0 22 16 37.5t37 15.5q23 0 38.5 -15.5t15.5 -37.5t-15.5 -37.5t-38.5 -15.5q-21 0 -37 15.5t-16 37.5zM148 434q0 23 16 38.5t37 15.5q23 0 38.5 -15.5t15.5 -38.5q0 -21 -15.5 -37t-38.5 -16q-21 0 -37 16t-16 37zM28 293h340v-89h-340v89z" />
    <glyph glyph-name="oslash" unicode="&#xf8;" horiz-adv-x="544" 
d="M30 25l51 59q-27 32 -42.5 73t-15.5 87q0 52 19 97t52 78.5t78 53t97 19.5q73 0 132 -39l53 61l60 -49l-55 -63q26 -32 41 -72.5t15 -85.5q0 -51 -19.5 -96t-52.5 -78t-78 -52.5t-96 -19.5q-71 0 -130 36l-50 -58zM95 244q0 -30 9 -56.5t26 -48.5l222 258q-39 22 -83 22
q-36 0 -67.5 -14t-55.5 -37.5t-37.5 -55.5t-13.5 -68zM442 244q0 28 -8.5 53.5t-23.5 47.5l-222 -255q37 -20 81 -20q36 0 67.5 13.5t55 37.5t37 55.5t13.5 67.5z" />
    <glyph glyph-name="ugrave" unicode="&#xf9;" 
d="M111 490v-242q0 -38 11.5 -70t33 -55.5t51.5 -36.5t66 -13q33 0 62.5 14t51 38.5t34.5 59t13 76.5v229h84v-490h-84v117q-28 -54 -75 -86.5t-110 -32.5q-47 0 -87.5 17t-70.5 48t-47 73.5t-17 93.5v260h84zM401 554l-250 78v92l250 -108v-62z" />
    <glyph glyph-name="uacute" unicode="&#xfa;" 
d="M111 490v-242q0 -38 11.5 -70t33 -55.5t51.5 -36.5t66 -13q33 0 62.5 14t51 38.5t34.5 59t13 76.5v229h84v-490h-84v117q-28 -54 -75 -86.5t-110 -32.5q-47 0 -87.5 17t-70.5 48t-47 73.5t-17 93.5v260h84zM151 615l249 104v-92l-249 -69v57z" />
    <glyph glyph-name="ucircumflex" unicode="&#xfb;" 
d="M111 490v-242q0 -38 11.5 -70t33 -55.5t51.5 -36.5t66 -13q33 0 62.5 14t51 38.5t34.5 59t13 76.5v229h84v-490h-84v117q-28 -54 -75 -86.5t-110 -32.5q-47 0 -87.5 17t-70.5 48t-47 73.5t-17 93.5v260h84zM132 587l142 113l145 -113l-64 -44l-81 71l-80 -71z" />
    <glyph glyph-name="udieresis" unicode="&#xfc;" 
d="M111 490v-242q0 -38 11.5 -70t33 -55.5t51.5 -36.5t66 -13q32 0 60.5 13t50.5 36.5t35 56.5t15 73v238h84v-490h-84v117q-28 -54 -75 -86.5t-110 -32.5q-47 0 -87.5 17t-70.5 48t-47 73.5t-17 93.5v260h84zM139 620q0 23 16 38.5t37 15.5q23 0 38.5 -15.5t15.5 -38.5
q0 -21 -15.5 -37t-38.5 -16q-21 0 -37 16t-16 37zM306 620q0 23 15.5 38.5t37.5 15.5t37.5 -15.5t15.5 -38.5q0 -21 -15.5 -37t-37.5 -16t-37.5 16t-15.5 37z" />
    <glyph glyph-name="yacute" unicode="&#xfd;" horiz-adv-x="461" 
d="M85 490l147 -376l144 376h90l-251 -637h-84l57 145l-194 492h91zM105 615l249 104v-92l-249 -69v57z" />
    <glyph glyph-name="thorn" unicode="&#xfe;" horiz-adv-x="542" 
d="M110 644v-242q31 42 77 66t104 24q46 0 87.5 -19.5t72 -52.5t48.5 -78t18 -96q0 -52 -18 -97t-48.5 -78.5t-72 -53t-87.5 -19.5q-58 0 -104 24t-77 66v-235h-85v791h85zM432 246q0 33 -12.5 62t-34.5 51t-51.5 35t-62.5 13t-62.5 -13t-51.5 -35t-34.5 -51t-12.5 -62
q0 -34 12.5 -64t34.5 -52t51.5 -34.5t62.5 -12.5t62.5 12.5t51.5 34.5t34.5 52t12.5 64z" />
    <glyph glyph-name="ydieresis" unicode="&#xff;" horiz-adv-x="461" 
d="M85 490l147 -376l144 376h90l-251 -637h-84l57 145l-194 492h91zM93 620q0 23 16 38.5t37 15.5q23 0 38.5 -15.5t15.5 -38.5q0 -21 -15.5 -37t-38.5 -16q-21 0 -37 16t-16 37zM260 620q0 23 15.5 38.5t37.5 15.5t37.5 -15.5t15.5 -38.5q0 -21 -15.5 -37t-37.5 -16
t-37.5 16t-15.5 37z" />
    <glyph glyph-name="Amacron" unicode="&#x100;" horiz-adv-x="515" 
d="M-9 0l216 670h91l226 -670h-91l-45 138h-263l-43 -138h-91zM147 210h218l-111 342zM87 849h340v-88h-340v88z" />
    <glyph glyph-name="amacron" unicode="&#x101;" horiz-adv-x="549" 
d="M22 244q0 52 18 97t48.5 78.5t72 53t89.5 19.5q57 0 104 -27.5t77 -73.5v99h85v-490h-85v98q-30 -46 -77 -73t-104 -27q-48 0 -89.5 19.5t-72 52.5t-48.5 78t-18 96zM107 244q0 -33 12.5 -62.5t34 -51.5t51 -34.5t63.5 -12.5q33 0 62.5 12.5t51.5 34.5t35 51.5t13 62.5
t-13 63t-35 52t-51.5 35t-62.5 13q-34 0 -63.5 -13t-51 -35t-34 -52t-12.5 -63zM104 669h340v-88h-340v88z" />
    <glyph glyph-name="Abreve" unicode="&#x102;" horiz-adv-x="515" 
d="M-9 0l216 670h91l226 -670h-91l-45 138h-263l-43 -138h-91zM147 210h218l-111 342zM389 874q0 -32 -10 -58t-28 -44.5t-42.5 -29t-52.5 -10.5t-52 10.5t-41.5 29t-27.5 44.5t-10 58h68q0 -28 18 -48t46 -20q29 -1 46 20t17 48h69z" />
    <glyph glyph-name="abreve" unicode="&#x103;" horiz-adv-x="549" 
d="M22 244q0 52 18 97t48.5 78.5t72 53t89.5 19.5q57 0 104 -27.5t77 -73.5v99h85v-490h-85v98q-30 -46 -77 -73t-104 -27q-48 0 -89.5 19.5t-72 52.5t-48.5 78t-18 96zM107 244q0 -33 12.5 -62.5t34 -51.5t51 -34.5t63.5 -12.5q33 0 62.5 12.5t51.5 34.5t35 51.5t13 62.5
t-13 63t-35 52t-51.5 35t-62.5 13q-34 0 -63.5 -13t-51 -35t-34 -52t-12.5 -63zM406 694q0 -32 -10 -58t-28 -44.5t-42.5 -29t-52.5 -10.5t-52 10.5t-41.5 29t-27.5 44.5t-10 58h68q0 -28 18 -48t46 -20q29 -1 46 20t17 48h69z" />
    <glyph glyph-name="Aogonek" unicode="&#x104;" horiz-adv-x="515" 
d="M-9 0l216 670h91l226 -670h-30q-34 -2 -52.5 -22.5t-18.5 -47.5q0 -29 22 -49t51 -20q30 0 51 20t21 52h64q1 -30 -9.5 -57t-29 -47t-45.5 -31.5t-59 -11.5q-30 0 -57 11t-46.5 30.5t-31 46t-9.5 56.5q1 33 19.5 65.5t53.5 49.5l-30 93h-263l-43 -138h-91zM147 210h218
l-111 342z" />
    <glyph glyph-name="aogonek" unicode="&#x105;" horiz-adv-x="549" 
d="M22 244q0 52 18 97t48.5 78.5t72 53t89.5 19.5q57 0 104 -27.5t77 -73.5v99h85v-490h-9q-34 -2 -52.5 -22.5t-18.5 -47.5q0 -29 22 -49t51 -20q30 0 51 20t21 52h64q1 -30 -9.5 -57t-29 -47t-45.5 -31.5t-59 -11.5q-30 0 -57 11t-46.5 30.5t-31 46t-9.5 56.5
q1 33 19.5 65.5t53.5 49.5v53q-30 -46 -77 -73t-104 -27q-48 0 -89.5 19.5t-72 52.5t-48.5 78t-18 96zM107 244q0 -33 12.5 -62.5t34 -51.5t51 -34.5t63.5 -12.5q33 0 62.5 12.5t51.5 34.5t35 51.5t13 62.5t-13 63t-35 52t-51.5 35t-62.5 13q-34 0 -63.5 -13t-51 -35
t-34 -52t-12.5 -63z" />
    <glyph glyph-name="Cacute" unicode="&#x106;" horiz-adv-x="640" 
d="M631 141q-49 -67 -118 -104t-152 -37q-70 0 -131 26t-106.5 71t-72 106t-26.5 131t26.5 131.5t72 107t106.5 71.5t131 26q88 0 157.5 -39t114.5 -106l-59 -60q-38 57 -93 86.5t-120 29.5q-51 0 -96.5 -19.5t-79 -53t-53 -78.5t-19.5 -96t19.5 -96t53 -78.5t79 -52.5
t96.5 -19q61 0 114 28.5t97 82.5zM221 795l249 104v-92l-249 -69v57z" />
    <glyph glyph-name="cacute" unicode="&#x107;" horiz-adv-x="478" 
d="M416 316q-27 41 -63 65t-86 24q-33 0 -63 -12.5t-52 -34.5t-35 -51.5t-13 -62.5t13 -62.5t35 -51.5t52 -34.5t63 -12.5q46 0 84.5 23.5t64.5 66.5l61 -59q-35 -58 -91 -87t-119 -29q-52 0 -97 19.5t-78 52.5t-52 78t-19 96q0 52 19 97t52 78t78 52t97 19q63 0 117.5 -28
t92.5 -85zM142 615l249 104v-92l-249 -69v57z" />
    <glyph glyph-name="Ccircumflex" unicode="&#x108;" horiz-adv-x="640" 
d="M631 141q-49 -67 -118 -104t-152 -37q-70 0 -131 26t-106.5 71t-72 106t-26.5 131t26.5 131.5t72 107t106.5 71.5t131 26q88 0 157.5 -39t114.5 -106l-59 -60q-38 57 -93 86.5t-120 29.5q-51 0 -96.5 -19.5t-79 -53t-53 -78.5t-19.5 -96t19.5 -96t53 -78.5t79 -52.5
t96.5 -19q61 0 114 28.5t97 82.5zM207 767l142 113l145 -113l-64 -44l-81 71l-80 -71z" />
    <glyph glyph-name="ccircumflex" unicode="&#x109;" horiz-adv-x="478" 
d="M416 316q-27 41 -63 65t-86 24q-33 0 -63 -12.5t-52 -34.5t-35 -51.5t-13 -62.5t13 -62.5t35 -51.5t52 -34.5t63 -12.5q46 0 84.5 23.5t64.5 66.5l61 -59q-35 -58 -91 -87t-119 -29q-52 0 -97 19.5t-78 52.5t-52 78t-19 96q0 52 19 97t52 78t78 52t97 19q63 0 117.5 -28
t92.5 -85zM125 587l142 113l145 -113l-64 -44l-81 71l-80 -71z" />
    <glyph glyph-name="Cdotaccent" unicode="&#x10a;" horiz-adv-x="640" 
d="M631 141q-49 -67 -118 -104t-152 -37q-70 0 -131 26t-106.5 71t-72 106t-26.5 131t26.5 131.5t72 107t106.5 71.5t131 26q88 0 157.5 -39t114.5 -106l-59 -60q-38 57 -93 86.5t-120 29.5q-51 0 -96.5 -19.5t-79 -53t-53 -78.5t-19.5 -96t19.5 -96t53 -78.5t79 -52.5
t96.5 -19q61 0 114 28.5t97 82.5zM294 807q0 23 16 38.5t37 15.5q23 0 38.5 -15.5t15.5 -38.5q0 -22 -15.5 -37.5t-38.5 -15.5q-21 0 -37 15.5t-16 37.5z" />
    <glyph glyph-name="cdotaccent" unicode="&#x10b;" horiz-adv-x="478" 
d="M416 316q-27 41 -63 65t-86 24q-33 0 -63 -12.5t-52 -34.5t-35 -51.5t-13 -62.5t13 -62.5t35 -51.5t52 -34.5t63 -12.5q46 0 84.5 23.5t64.5 66.5l61 -59q-35 -58 -91 -87t-119 -29q-52 0 -97 19.5t-78 52.5t-52 78t-19 96q0 52 19 97t52 78t78 52t97 19q63 0 117.5 -28
t92.5 -85zM202 624q0 23 16 38.5t37 15.5q23 0 38.5 -15.5t15.5 -38.5q0 -22 -15.5 -37.5t-38.5 -15.5q-21 0 -37 15.5t-16 37.5z" />
    <glyph glyph-name="Ccaron" unicode="&#x10c;" horiz-adv-x="640" 
d="M631 141q-49 -67 -118 -104t-152 -37q-70 0 -131 26t-106.5 71t-72 106t-26.5 131t26.5 131.5t72 107t106.5 71.5t131 26q88 0 157.5 -39t114.5 -106l-59 -60q-38 57 -93 86.5t-120 29.5q-51 0 -96.5 -19.5t-79 -53t-53 -78.5t-19.5 -96t19.5 -96t53 -78.5t79 -52.5
t96.5 -19q61 0 114 28.5t97 82.5zM475 842l-133 -119l-134 119l52 38l82 -75l81 75z" />
    <glyph glyph-name="ccaron" unicode="&#x10d;" horiz-adv-x="478" 
d="M416 316q-27 41 -63 65t-86 24q-33 0 -63 -12.5t-52 -34.5t-35 -51.5t-13 -62.5t13 -62.5t35 -51.5t52 -34.5t63 -12.5q46 0 84.5 23.5t64.5 66.5l61 -59q-35 -58 -91 -87t-119 -29q-52 0 -97 19.5t-78 52.5t-52 78t-19 96q0 52 19 97t52 78t78 52t97 19q63 0 117.5 -28
t92.5 -85zM389 662l-133 -119l-134 119l52 38l82 -75l81 75z" />
    <glyph glyph-name="Dcaron" unicode="&#x10e;" horiz-adv-x="561" 
d="M123 581v-493h75q51 0 96 19t78.5 52.5t53 78.5t19.5 96t-19.5 96t-53 78.5t-78.5 53t-96 19.5h-75zM198 670q70 0 131 -26t106.5 -71.5t72 -107t26.5 -131.5t-26.5 -131t-72 -106t-106.5 -71t-131 -26h-163v670h163zM355 842l-133 -119l-134 119l52 38l82 -75l81 75z
" />
    <glyph glyph-name="dcaron" unicode="&#x10f;" horiz-adv-x="685" 
d="M22 244q0 52 18 97t48.5 78.5t72 53t89.5 19.5q57 0 103 -27t76 -72v251h85v-644h-85v96q-30 -45 -76 -71.5t-103 -26.5q-48 0 -89.5 19.5t-72 52.5t-48.5 78t-18 96zM107 244q0 -33 12.5 -62.5t34 -51.5t51 -34.5t63.5 -12.5q33 0 62.5 12.5t51.5 34.5t34.5 51.5
t12.5 62.5t-12.5 63t-34.5 52t-51.5 35t-62.5 13q-34 0 -63.5 -13t-51 -35t-34 -52t-12.5 -63zM660 634v-194h-88v194h88z" />
    <glyph glyph-name="Dcroat" unicode="&#x110;" horiz-adv-x="561" 
d="M-32 378h67v292h163q70 0 131 -26t106.5 -71.5t72 -107t26.5 -131.5t-26.5 -131t-72 -106t-106.5 -71t-131 -26h-163v291h-67v87zM123 581v-203h158v-87h-158v-203h75q51 0 96 19t78.5 52.5t53 78.5t19.5 96t-19.5 96t-53 78.5t-78.5 53t-96 19.5h-75z" />
    <glyph glyph-name="dcroat" unicode="&#x111;" horiz-adv-x="547" 
d="M261 623h168v21h85v-21h81v-75h-81v-548h-85v96q-30 -45 -76 -71.5t-103 -26.5q-48 0 -89.5 19.5t-72 52.5t-48.5 78t-18 96q0 52 18 97t48.5 78.5t72 53t89.5 19.5q57 0 103 -27t76 -72v155h-168v75zM107 244q0 -33 12.5 -62.5t34 -51.5t51 -34.5t63.5 -12.5
q33 0 62.5 12.5t51.5 34.5t34.5 51.5t12.5 62.5t-12.5 63t-34.5 52t-51.5 35t-62.5 13q-34 0 -63.5 -13t-51 -35t-34 -52t-12.5 -63z" />
    <glyph glyph-name="Emacron" unicode="&#x112;" horiz-adv-x="460" 
d="M435 0h-410v670h410v-89h-322v-257h272v-87h-272v-149h322v-88zM60 849h340v-88h-340v88z" />
    <glyph glyph-name="emacron" unicode="&#x113;" horiz-adv-x="504" 
d="M484 115q-41 -61 -96.5 -89t-120.5 -28q-51 0 -96 19.5t-78 52.5t-52.5 78t-19.5 96q0 52 19.5 97t52.5 78.5t78 53t96 19.5q65 0 122.5 -30t99.5 -93l-290 -270q16 -11 40 -15.5t48 -1.5q42 5 78.5 28.5t61.5 59.5zM101 257q-3 -38 10 -70t37 -50l229 223
q-19 23 -51 37.5t-70 12.5q-31 -2 -58 -14t-47.5 -32.5t-33.5 -47.5t-16 -59zM90 669h340v-88h-340v88z" />
    <glyph glyph-name="Edotaccent" unicode="&#x116;" horiz-adv-x="460" 
d="M435 0h-410v670h410v-89h-322v-257h272v-87h-272v-149h322v-88zM176 816q0 23 16 38.5t37 15.5q23 0 38.5 -15.5t15.5 -38.5q0 -22 -15.5 -37.5t-38.5 -15.5q-21 0 -37 15.5t-16 37.5z" />
    <glyph glyph-name="edotaccent" unicode="&#x117;" horiz-adv-x="504" 
d="M484 115q-41 -61 -96.5 -89t-120.5 -28q-51 0 -96 19.5t-78 52.5t-52.5 78t-19.5 96q0 52 19.5 97t52.5 78.5t78 53t96 19.5q65 0 122.5 -30t99.5 -93l-290 -270q16 -11 40 -15.5t48 -1.5q42 5 78.5 28.5t61.5 59.5zM101 257q-3 -38 10 -70t37 -50l229 223
q-19 23 -51 37.5t-70 12.5q-31 -2 -58 -14t-47.5 -32.5t-33.5 -47.5t-16 -59zM198 636q0 23 16 38.5t37 15.5q23 0 38.5 -15.5t15.5 -38.5q0 -22 -15.5 -37.5t-38.5 -15.5q-21 0 -37 15.5t-16 37.5z" />
    <glyph glyph-name="Eogonek" unicode="&#x118;" horiz-adv-x="460" 
d="M435 0h-133q-38 0 -58.5 -20.5t-20.5 -49.5t22 -49t51 -20q30 0 51 20t21 52h64q1 -30 -9.5 -57t-29 -47t-45.5 -31.5t-59 -11.5q-30 0 -57 11t-46.5 30.5t-31 46t-9.5 56.5q0 37 22 70h-142v670h410v-89h-322v-257h272v-87h-272v-149h322v-88z" />
    <glyph glyph-name="eogonek" unicode="&#x119;" horiz-adv-x="504" 
d="M484 115q-41 -60 -96 -88t-119 -29q-31 -4 -47.5 -23.5t-16.5 -45.5q0 -29 22 -49t51 -20q30 0 51 20t21 52h64q1 -30 -9.5 -57t-29 -47t-45.5 -31.5t-59 -11.5q-30 0 -57 11t-46.5 30.5t-31 46t-9.5 56.5q1 24 10.5 48t27.5 42q-32 15 -58.5 37.5t-45.5 52t-29.5 63.5
t-10.5 72q0 52 19.5 97t52.5 78.5t78 53t96 19.5q65 0 122.5 -30t99.5 -93l-290 -270q16 -11 40 -15.5t48 -1.5q42 5 78.5 28.5t61.5 59.5zM101 257q-3 -38 10 -70t37 -50l229 223q-19 23 -51 37.5t-70 12.5q-31 -2 -58 -14t-47.5 -32.5t-33.5 -47.5t-16 -59z" />
    <glyph glyph-name="Ecaron" unicode="&#x11a;" horiz-adv-x="460" 
d="M435 0h-410v670h410v-89h-322v-257h272v-87h-272v-149h322v-88zM363 842l-133 -119l-134 119l52 38l82 -75l81 75z" />
    <glyph glyph-name="ecaron" unicode="&#x11b;" horiz-adv-x="504" 
d="M484 115q-41 -61 -96.5 -89t-120.5 -28q-51 0 -96 19.5t-78 52.5t-52.5 78t-19.5 96q0 52 19.5 97t52.5 78.5t78 53t96 19.5q65 0 122.5 -30t99.5 -93l-290 -270q16 -11 40 -15.5t48 -1.5q42 5 78.5 28.5t61.5 59.5zM101 257q-3 -38 10 -70t37 -50l229 223
q-19 23 -51 37.5t-70 12.5q-31 -2 -58 -14t-47.5 -32.5t-33.5 -47.5t-16 -59zM385 662l-133 -119l-134 119l52 38l82 -75l81 75z" />
    <glyph glyph-name="Gcircumflex" unicode="&#x11c;" horiz-adv-x="667" 
d="M576 463q-40 52 -93 85t-122 33q-51 0 -96.5 -19.5t-79 -53t-53 -78.5t-19.5 -96t19.5 -96t53 -78.5t79 -52.5t96.5 -19q71 0 123.5 28.5t79.5 66.5v69h-272v79h354v-180q-50 -69 -123.5 -110t-161.5 -41q-70 0 -131 26t-106.5 71t-72 106t-26.5 131t26.5 131.5t72 107
t106.5 71.5t131 26q81 0 155 -37.5t125 -110.5zM217 767l142 113l145 -113l-64 -44l-81 71l-80 -71z" />
    <glyph glyph-name="gcircumflex" unicode="&#x11d;" horiz-adv-x="542" 
d="M267 -2q-52 0 -96.5 19.5t-77.5 52.5t-52 78t-19 96q0 52 19 97t52 78.5t78 53t97 19.5h244v-77l-119 2q57 -22 89 -68t34 -102q1 -35 -9.5 -70t-31.5 -65.5t-51 -53.5t-67 -34q20 -7 35 -22t25 -34t13.5 -41t0.5 -43q-5 -26 -18.5 -49t-34.5 -39.5t-49 -26t-61 -9.5
q-34 0 -64.5 9.5t-53.5 29t-36.5 50t-13.5 72.5h85q0 -17 7 -31.5t18.5 -25t26.5 -16.5t31 -6q34 0 57.5 23.5t23.5 55.5t-23 54.5t-59 22.5zM429 244q0 33 -13 63t-34.5 52t-51 35t-62.5 13t-62.5 -13t-51.5 -35t-34.5 -52t-12.5 -63t12.5 -62.5t34.5 -51.5t51.5 -34.5
t62.5 -12.5t62.5 13t51 34.5t34.5 51t13 62.5zM127 587l142 113l145 -113l-64 -44l-81 71l-80 -71z" />
    <glyph glyph-name="Gbreve" unicode="&#x11e;" horiz-adv-x="667" 
d="M576 463q-40 52 -93 85t-122 33q-51 0 -96.5 -19.5t-79 -53t-53 -78.5t-19.5 -96t19.5 -96t53 -78.5t79 -52.5t96.5 -19q71 0 123.5 28.5t79.5 66.5v69h-272v79h354v-180q-50 -69 -123.5 -110t-161.5 -41q-70 0 -131 26t-106.5 71t-72 106t-26.5 131t26.5 131.5t72 107
t106.5 71.5t131 26q81 0 155 -37.5t125 -110.5zM495 874q0 -32 -10 -58t-28 -44.5t-42.5 -29t-52.5 -10.5t-52 10.5t-41.5 29t-27.5 44.5t-10 58h68q0 -28 18 -48t46 -20q29 -1 46 20t17 48h69z" />
    <glyph glyph-name="gbreve" unicode="&#x11f;" horiz-adv-x="542" 
d="M267 -2q-52 0 -96.5 19.5t-77.5 52.5t-52 78t-19 96q0 52 19 97t52 78.5t78 53t97 19.5h244v-77l-119 2q57 -22 89 -68t34 -102q1 -35 -9.5 -70t-31.5 -65.5t-51 -53.5t-67 -34q20 -7 35 -22t25 -34t13.5 -41t0.5 -43q-5 -26 -18.5 -49t-34.5 -39.5t-49 -26t-61 -9.5
q-34 0 -64.5 9.5t-53.5 29t-36.5 50t-13.5 72.5h85q0 -17 7 -31.5t18.5 -25t26.5 -16.5t31 -6q34 0 57.5 23.5t23.5 55.5t-23 54.5t-59 22.5zM429 244q0 33 -13 63t-34.5 52t-51 35t-62.5 13t-62.5 -13t-51.5 -35t-34.5 -52t-12.5 -63t12.5 -62.5t34.5 -51.5t51.5 -34.5
t62.5 -12.5t62.5 13t51 34.5t34.5 51t13 62.5zM402 694q0 -32 -10 -58t-28 -44.5t-42.5 -29t-52.5 -10.5t-52 10.5t-41.5 29t-27.5 44.5t-10 58h68q0 -28 18 -48t46 -20q29 -1 46 20t17 48h69z" />
    <glyph glyph-name="Gdotaccent" unicode="&#x120;" horiz-adv-x="667" 
d="M576 463q-40 52 -93 85t-122 33q-51 0 -96.5 -19.5t-79 -53t-53 -78.5t-19.5 -96t19.5 -96t53 -78.5t79 -52.5t96.5 -19q71 0 123.5 28.5t79.5 66.5v69h-272v79h354v-180q-50 -69 -123.5 -110t-161.5 -41q-70 0 -131 26t-106.5 71t-72 106t-26.5 131t26.5 131.5t72 107
t106.5 71.5t131 26q81 0 155 -37.5t125 -110.5zM304 816q0 23 16 38.5t37 15.5q23 0 38.5 -15.5t15.5 -38.5q0 -22 -15.5 -37.5t-38.5 -15.5q-21 0 -37 15.5t-16 37.5z" />
    <glyph glyph-name="gdotaccent" unicode="&#x121;" horiz-adv-x="542" 
d="M267 -2q-52 0 -96.5 19.5t-77.5 52.5t-52 78t-19 96q0 52 19 97t52 78.5t78 53t97 19.5h244v-77l-119 2q57 -22 89 -68t34 -102q1 -35 -9.5 -70t-31.5 -65.5t-51 -53.5t-67 -34q20 -7 35 -22t25 -34t13.5 -41t0.5 -43q-5 -26 -18.5 -49t-34.5 -39.5t-49 -26t-61 -9.5
q-34 0 -64.5 9.5t-53.5 29t-36.5 50t-13.5 72.5h85q0 -17 7 -31.5t18.5 -25t26.5 -16.5t31 -6q34 0 57.5 23.5t23.5 55.5t-23 54.5t-59 22.5zM429 244q0 33 -13 63t-34.5 52t-51 35t-62.5 13t-62.5 -13t-51.5 -35t-34.5 -52t-12.5 -63t12.5 -62.5t34.5 -51.5t51.5 -34.5
t62.5 -12.5t62.5 13t51 34.5t34.5 51t13 62.5zM217 636q0 23 16 38.5t37 15.5q23 0 38.5 -15.5t15.5 -38.5q0 -22 -15.5 -37.5t-38.5 -15.5q-21 0 -37 15.5t-16 37.5z" />
    <glyph glyph-name="uni0122" unicode="&#x122;" horiz-adv-x="667" 
d="M576 463q-40 52 -93 85t-122 33q-51 0 -96.5 -19.5t-79 -53t-53 -78.5t-19.5 -96t19.5 -96t53 -78.5t79 -52.5t96.5 -19q71 0 123.5 28.5t79.5 66.5v69h-272v79h354v-180q-50 -69 -123.5 -110t-161.5 -41q-70 0 -131 26t-106.5 71t-72 106t-26.5 131t26.5 131.5t72 107
t106.5 71.5t131 26q81 0 155 -37.5t125 -110.5zM400 -57v-165h-88v165h88z" />
    <glyph glyph-name="uni0123" unicode="&#x123;" horiz-adv-x="542" 
d="M267 -2q-52 0 -96.5 19.5t-77.5 52.5t-52 78t-19 96q0 52 19 97t52 78.5t78 53t97 19.5h244v-77l-119 2q57 -22 89 -68t34 -102q1 -35 -9.5 -70t-31.5 -65.5t-51 -53.5t-67 -34q20 -7 35 -22t25 -34t13.5 -41t0.5 -43q-5 -26 -18.5 -49t-34.5 -39.5t-49 -26t-61 -9.5
q-34 0 -64.5 9.5t-53.5 29t-36.5 50t-13.5 72.5h85q0 -17 7 -31.5t18.5 -25t26.5 -16.5t31 -6q34 0 57.5 23.5t23.5 55.5t-23 54.5t-59 22.5zM429 244q0 33 -13 63t-34.5 52t-51 35t-62.5 13t-62.5 -13t-51.5 -35t-34.5 -52t-12.5 -63t12.5 -62.5t34.5 -51.5t51.5 -34.5
t62.5 -12.5t62.5 13t51 34.5t34.5 51t13 62.5zM320 709v-165h-88v165h88z" />
    <glyph glyph-name="Hcircumflex" unicode="&#x124;" horiz-adv-x="542" 
d="M428 0v212h-315v-212h-88v670h88v-371h315v371h89v-670h-89zM127 767l142 113l145 -113l-64 -44l-81 71l-80 -71z" />
    <glyph glyph-name="hcircumflex" unicode="&#x125;" 
d="M434 0v251q0 33 -13 62t-34.5 50.5t-50.5 34t-61 12.5q-31 0 -59 -11t-50 -31t-36.5 -49.5t-18.5 -65.5v-253h-84v644h84v-251q29 42 72 65.5t91 28.5q52 7 96.5 -9t77.5 -48t51.5 -77t18.5 -96v-257h-84zM132 706l142 113l145 -113l-64 -44l-81 71l-80 -71z" />
    <glyph glyph-name="Hbar" unicode="&#x126;" horiz-adv-x="542" 
d="M113 670v-150h315v150h89v-150h49v-88h-49v-432h-89v212h-315v-212h-88v432h-49v88h49v150h88zM113 299h315v133h-315v-133z" />
    <glyph glyph-name="hbar" unicode="&#x127;" 
d="M434 0v251q0 33 -13 62t-34.5 50.5t-50.5 34t-61 12.5q-31 0 -59 -11t-50 -31t-36.5 -49.5t-18.5 -65.5v-253h-84v574h-48v76h333v-76h-201v-181q29 42 72 65.5t91 28.5q52 7 96.5 -9t77.5 -48t51.5 -77t18.5 -96v-257h-84z" />
    <glyph glyph-name="Itilde" unicode="&#x128;" horiz-adv-x="194" 
d="M51 0v670h88v-670h-88zM-55 729q-17 71 3.5 111.5t60.5 40.5q23 0 42 -10.5t36 -23t34 -23t36 -10.5t29 16t-2 50h64q12 -41 10.5 -69.5t-12 -46.5t-27 -26t-34.5 -8q-23 0 -42 9.5t-35.5 21.5t-32.5 21.5t-34 9.5q-19 0 -28.5 -16.5t-3.5 -46.5h-64z" />
    <glyph glyph-name="itilde" unicode="&#x129;" horiz-adv-x="214" 
d="M149 490v-490h-84v490h84zM-49 549q-17 71 3.5 111.5t60.5 40.5q23 0 42 -10.5t36 -23t34 -23t36 -10.5t29 16t-2 50h64q12 -41 10.5 -69.5t-12 -46.5t-27 -26t-34.5 -8q-23 0 -42 9.5t-35.5 21.5t-32.5 21.5t-34 9.5q-19 0 -28.5 -16.5t-3.5 -46.5h-64z" />
    <glyph glyph-name="Imacron" unicode="&#x12a;" horiz-adv-x="194" 
d="M51 0v670h88v-670h-88zM-75 849h340v-88h-340v88z" />
    <glyph glyph-name="imacron" unicode="&#x12b;" horiz-adv-x="214" 
d="M149 490v-490h-84v490h84zM-63 669h340v-88h-340v88z" />
    <glyph glyph-name="Iogonek" unicode="&#x12e;" horiz-adv-x="196" 
d="M102 0q-34 -2 -52.5 -22.5t-18.5 -47.5q0 -29 22 -49t51 -20q30 0 51 20t21 52h64q1 -30 -9.5 -57t-29 -47t-45.5 -31.5t-59 -11.5q-30 0 -57 11t-46.5 30.5t-31 46t-9.5 56.5q1 19 7.5 38.5t18.5 36.5t30 30t42 19v616h88v-670h-37z" />
    <glyph glyph-name="iogonek" unicode="&#x12f;" horiz-adv-x="184" 
d="M130 490v-490h-20q-38 0 -58.5 -20.5t-20.5 -49.5t22 -49t51 -20q30 0 51 20t21 52h64q1 -30 -9.5 -57t-29 -47t-45.5 -31.5t-59 -11.5q-30 0 -57 11t-46.5 30.5t-31 46t-9.5 56.5q2 38 25 73.5t68 49.5v437h84zM34 636q0 23 16 38.5t37 15.5q23 0 38.5 -15.5t15.5 -38.5
q0 -21 -15.5 -37t-38.5 -16q-21 0 -37 16t-16 37z" />
    <glyph glyph-name="Idotaccent" unicode="&#x130;" horiz-adv-x="193" 
d="M51 0v670h88v-670h-88zM43 816q0 23 16 38.5t37 15.5q23 0 38.5 -15.5t15.5 -38.5q0 -22 -15.5 -37.5t-38.5 -15.5q-21 0 -37 15.5t-16 37.5z" />
    <glyph glyph-name="dotlessi" unicode="&#x131;" horiz-adv-x="214" 
d="M149 490v-490h-84v490h84z" />
    <glyph glyph-name="Jcircumflex" unicode="&#x134;" horiz-adv-x="483" 
d="M113 230q-2 -31 7.5 -57t27 -45t42 -29.5t52.5 -10.5q26 0 49 10t40.5 27.5t27.5 41t10 50.5v453h88v-453q0 -46 -16.5 -85.5t-46 -69t-68.5 -46t-84 -16.5q-51 0 -92.5 17t-70.5 47t-43.5 72.5t-10.5 93.5h88zM250 765l142 113l145 -113l-64 -44l-81 71l-80 -71z" />
    <glyph glyph-name="jcircumflex" unicode="&#x135;" horiz-adv-x="157" 
d="M120 490v-637h-84v637h84zM-65 587l142 113l145 -113l-64 -44l-81 71l-80 -71z" />
    <glyph glyph-name="uni0136" unicode="&#x136;" horiz-adv-x="485" 
d="M107 670v-304h96l195 304h101l-225 -343l225 -327h-101l-195 282h-96v-282h-84v670h84zM260 -57v-165h-88v165h88z" />
    <glyph glyph-name="uni0137" unicode="&#x137;" horiz-adv-x="447" 
d="M107 644v-359h81l170 205h107l-207 -243l207 -247h-107l-165 202h-86v-202h-84v644h84zM255 -57v-165h-88v165h88z" />
    <glyph glyph-name="kgreenlandic" unicode="&#x138;" horiz-adv-x="447" 
d="M107 490v-205h81l170 205h107l-207 -243l207 -247h-107l-165 202h-86v-202h-84v490h84z" />
    <glyph glyph-name="Lacute" unicode="&#x139;" horiz-adv-x="365" 
d="M365 0h-340v670h88v-582h252v-88zM57 795l249 104v-92l-249 -69v57z" />
    <glyph glyph-name="lacute" unicode="&#x13a;" horiz-adv-x="157" 
d="M130 644v-644h-84v644h84zM-23 731l249 104v-92l-249 -69v57z" />
    <glyph glyph-name="uni013B" unicode="&#x13b;" horiz-adv-x="365" 
d="M365 0h-340v670h88v-582h252v-88zM245 -57v-165h-88v165h88z" />
    <glyph glyph-name="uni013C" unicode="&#x13c;" horiz-adv-x="157" 
d="M120 644v-644h-84v644h84zM122 -57v-165h-88v165h88z" />
    <glyph glyph-name="Lcaron" unicode="&#x13d;" horiz-adv-x="365" 
d="M365 0h-340v670h88v-582h252v-88zM347 669v-194h-88v194h88z" />
    <glyph glyph-name="lcaron" unicode="&#x13e;" horiz-adv-x="287" 
d="M130 644v-644h-84v644h84zM270 634v-194h-88v194h88z" />
    <glyph glyph-name="Lslash" unicode="&#x141;" horiz-adv-x="361" 
d="M-44 438l69 55v177h88v-106l62 50l26 -51l-88 -71v-406h250v-88h-338v423l-42 -34z" />
    <glyph glyph-name="lslash" unicode="&#x142;" horiz-adv-x="149" 
d="M119 644v-75l56 45l26 -51l-82 -66v-497h-84v429l-52 -42l-27 51l79 63v143h84z" />
    <glyph glyph-name="Nacute" unicode="&#x143;" horiz-adv-x="542" 
d="M517 670v-670h-69l-340 503v-503h-83v670h77l336 -504v504h79zM146 795l249 104v-92l-249 -69v57z" />
    <glyph glyph-name="nacute" unicode="&#x144;" 
d="M434 0v244q0 33 -12.5 63t-34.5 52.5t-51.5 35.5t-62.5 13t-62 -12.5t-51 -34.5t-35 -53t-14 -68v-240h-84v490h84v-103q30 51 78 78t106 27q47 0 87.5 -18t70.5 -49.5t47.5 -75t17.5 -95.5v-254h-84zM151 615l249 104v-92l-249 -69v57z" />
    <glyph glyph-name="uni0145" unicode="&#x145;" horiz-adv-x="542" 
d="M517 670v-670h-69l-340 503v-503h-83v670h77l336 -504v504h79zM315 -57v-165h-88v165h88z" />
    <glyph glyph-name="uni0146" unicode="&#x146;" 
d="M434 0v244q0 33 -12.5 63t-34.5 52.5t-51.5 35.5t-62.5 13t-62 -12.5t-51 -34.5t-35 -53t-14 -68v-240h-84v490h84v-103q30 51 78 78t106 27q47 0 87.5 -18t70.5 -49.5t47.5 -75t17.5 -95.5v-254h-84zM315 -57v-165h-88v165h88z" />
    <glyph glyph-name="Ncaron" unicode="&#x147;" horiz-adv-x="542" 
d="M517 670v-670h-69l-340 503v-503h-83v670h77l336 -504v504h79zM404 842l-133 -119l-134 119l52 38l82 -75l81 75z" />
    <glyph glyph-name="ncaron" unicode="&#x148;" 
d="M434 0v244q0 33 -12.5 63t-34.5 52.5t-51.5 35.5t-62.5 13t-62 -12.5t-51 -34.5t-35 -53t-14 -68v-240h-84v490h84v-103q30 51 78 78t106 27q47 0 87.5 -18t70.5 -49.5t47.5 -75t17.5 -95.5v-254h-84zM409 662l-133 -119l-134 119l52 38l82 -75l81 75z" />
    <glyph glyph-name="Eng" unicode="&#x14a;" horiz-adv-x="542" 
d="M517 670v-696q0 -45 -17 -85t-46 -69t-68.5 -46t-84.5 -17q-51 0 -92.5 17t-70.5 47t-43 72.5t-10 93.5h87q-1 -31 8.5 -57t27 -44.5t41.5 -29t52 -10.5q26 0 49 10t40.5 27.5t27.5 41t11 49.5l2 51l-323 478v-503h-83v670h77l335 -503l1 24v479h79z" />
    <glyph glyph-name="eng" unicode="&#x14b;" 
d="M111 490v-103q30 51 78 78t106 27q47 0 87.5 -18t70.5 -49.5t47.5 -75t17.5 -95.5v-431h-84v421q0 33 -12.5 63t-34.5 52.5t-51.5 35.5t-62.5 13t-62 -12.5t-51 -34.5t-35 -53t-14 -68v-240h-84v490h84z" />
    <glyph glyph-name="Omacron" unicode="&#x14c;" horiz-adv-x="724" 
d="M610 334q0 51 -20 96t-53.5 78.5t-79 53t-96.5 19.5t-96.5 -19.5t-79 -53t-53 -78.5t-19.5 -96t19.5 -96t53 -78.5t79 -52.5t96.5 -19t96.5 19t79 52.5t53.5 78.5t20 96zM698 334q0 -70 -26 -131t-72 -106t-107.5 -71t-131.5 -26t-131.5 26t-107 71t-71.5 106t-26 131
t26 131.5t71.5 107t107 71.5t131.5 26t131.5 -26t107.5 -71.5t72 -107t26 -131.5zM192 849h340v-88h-340v88z" />
    <glyph glyph-name="omacron" unicode="&#x14d;" horiz-adv-x="534" 
d="M426 244q0 33 -12.5 63t-34.5 52t-51.5 35t-62.5 13t-62.5 -13t-51.5 -35t-34.5 -52t-12.5 -63t12.5 -62.5t34.5 -51.5t51.5 -34.5t62.5 -12.5t62.5 12.5t51.5 34.5t34.5 51.5t12.5 62.5zM511 244q0 -51 -19.5 -96t-52.5 -78t-78 -52.5t-96 -19.5q-52 0 -97 19.5
t-78 52.5t-52 78t-19 96q0 52 19 97t52 78.5t78 53t97 19.5q51 0 96 -19.5t78 -53t52.5 -78.5t19.5 -97zM96 669h340v-88h-340v88z" />
    <glyph glyph-name="Ohungarumlaut" unicode="&#x150;" horiz-adv-x="724" 
d="M698 334q0 -70 -26 -131t-72 -106t-107.5 -71t-131.5 -26t-131.5 26t-107 71t-71.5 106t-26 131t26 131.5t71.5 107t107 71.5t131.5 26t131.5 -26t107.5 -71.5t72 -107t26 -131.5zM610 334q0 51 -20 96t-53.5 78.5t-79 53t-96.5 19.5t-96.5 -19.5t-79 -53t-53 -78.5
t-19.5 -96t19.5 -96t53 -78.5t79 -52.5t96.5 -19t96.5 19t79 52.5t53.5 78.5t20 96zM164 835l245 84v-67l194 67v-92l-244 -84v67l-195 -67v92z" />
    <glyph glyph-name="ohungarumlaut" unicode="&#x151;" horiz-adv-x="534" 
d="M511 244q0 -51 -19.5 -96t-52.5 -78t-78 -52.5t-96 -19.5q-52 0 -97 19.5t-78 52.5t-52 78t-19 96q0 52 19 97t52 78.5t78 53t97 19.5q51 0 96 -19.5t78 -53t52.5 -78.5t19.5 -97zM426 244q0 33 -12.5 63t-34.5 52t-51.5 35t-62.5 13t-62.5 -13t-51.5 -35t-34.5 -52
t-12.5 -63t12.5 -62.5t34.5 -51.5t51.5 -34.5t62.5 -12.5t62.5 12.5t51.5 34.5t34.5 51.5t12.5 62.5zM63 655l245 84v-67l194 67v-92l-244 -84v67l-195 -67v92z" />
    <glyph glyph-name="OE" unicode="&#x152;" horiz-adv-x="1039" 
d="M1022 0h-410v110q-47 -51 -111.5 -80.5t-139.5 -29.5q-70 0 -131.5 26t-107 71t-71.5 106t-26 131t26 131.5t71.5 107t107 71.5t131.5 26q75 0 139.5 -29.5t111.5 -80.5v110h410v-89h-322v-257h272v-87h-272v-149h322v-88zM610 334q0 51 -20 96t-53.5 78.5t-79 53
t-96.5 19.5t-96.5 -19.5t-79 -53t-53 -78.5t-19.5 -96t19.5 -96t53 -78.5t79 -52.5t96.5 -19t96.5 19t79 52.5t53.5 78.5t20 96z" />
    <glyph glyph-name="oe" unicode="&#x153;" horiz-adv-x="920" 
d="M893 115q-41 -61 -96.5 -89t-120.5 -28t-119 30t-87 81q-33 -51 -86.5 -81t-118.5 -30q-52 0 -97 19.5t-78 52.5t-52 78t-19 96q0 52 19 97t52 78.5t78 53t97 19.5q65 0 118.5 -30.5t86.5 -81.5q33 51 87 81.5t119 30.5t122.5 -30t99.5 -93l-290 -270q16 -11 40 -15.5
t48 -1.5q42 5 78.5 28.5t61.5 59.5zM426 244q0 33 -12.5 63t-34.5 52t-51.5 35t-62.5 13t-62.5 -13t-51.5 -35t-34.5 -52t-12.5 -63t12.5 -62.5t34.5 -51.5t51.5 -34.5t62.5 -12.5t62.5 12.5t51.5 34.5t34.5 51.5t12.5 62.5zM511 244q0 -5 -0.5 -9t-0.5 -9q6 -59 47 -89
l229 223q-19 23 -51 37.5t-70 12.5q-62 -4 -104.5 -45t-50.5 -104q1 -5 1 -9v-8z" />
    <glyph glyph-name="Racute" unicode="&#x154;" horiz-adv-x="526" 
d="M40 0v670h206q54 0 101 -20t82 -55.5t55 -82.5t20 -101q0 -73 -36.5 -132.5t-96.5 -92.5l130 -186h-100l-113 158q-21 -3 -42 -3h-118v-155h-88zM128 243h118q35 0 65.5 13.5t53.5 36t36.5 53t13.5 65.5q0 36 -13.5 67t-36.5 54t-53.5 36t-65.5 13h-118v-338zM138 795
l249 104v-92l-249 -69v57z" />
    <glyph glyph-name="racute" unicode="&#x155;" horiz-adv-x="258" 
d="M129 490v-84q20 35 55 60.5t82 25.5v-85q-26 0 -50 -10t-43 -26.5t-31 -38.5t-13 -47v-285h-84v490h84zM40 615l249 104v-92l-249 -69v57z" />
    <glyph glyph-name="uni0156" unicode="&#x156;" horiz-adv-x="526" 
d="M40 0v670h206q54 0 101 -20t82 -55.5t55 -82.5t20 -101q0 -73 -36.5 -132.5t-96.5 -92.5l130 -186h-100l-113 158q-21 -3 -42 -3h-118v-155h-88zM128 243h118q35 0 65.5 13.5t53.5 36t36.5 53t13.5 65.5q0 36 -13.5 67t-36.5 54t-53.5 36t-65.5 13h-118v-338zM280 -57
v-165h-88v165h88z" />
    <glyph glyph-name="uni0157" unicode="&#x157;" horiz-adv-x="258" 
d="M119 490v-84q20 35 55 60.5t82 25.5v-85q-26 0 -50 -10t-43 -26.5t-31 -38.5t-13 -47v-285h-84v490h84zM123 -57v-165h-88v165h88z" />
    <glyph glyph-name="Rcaron" unicode="&#x158;" horiz-adv-x="526" 
d="M40 0v670h206q54 0 101 -20t82 -55.5t55 -82.5t20 -101q0 -73 -36.5 -132.5t-96.5 -92.5l130 -186h-100l-113 158q-21 -3 -42 -3h-118v-155h-88zM128 243h118q35 0 65.5 13.5t53.5 36t36.5 53t13.5 65.5q0 36 -13.5 67t-36.5 54t-53.5 36t-65.5 13h-118v-338zM381 842
l-133 -119l-134 119l52 38l82 -75l81 75z" />
    <glyph glyph-name="rcaron" unicode="&#x159;" horiz-adv-x="267" 
d="M123 490v-84q20 35 55 60.5t82 25.5v-85q-26 0 -50 -10t-43 -26.5t-31 -38.5t-13 -47v-285h-84v490h84zM278 662l-133 -119l-134 119l52 38l82 -75l81 75z" />
    <glyph glyph-name="Sacute" unicode="&#x15a;" horiz-adv-x="544" 
d="M152 371q-23 -21 -36 -51t-13 -63q0 -35 13.5 -65.5t36.5 -53.5t54 -36.5t66 -13.5t66 13.5t54 36.5t36.5 53.5t13.5 65.5q0 38 -15.5 64.5t-39.5 44t-53 27.5t-56 15q-69 12 -104 49.5t-34 91.5q0 25 9.5 47t26.5 38.5t40.5 26t51.5 9.5t50.5 -8.5t38.5 -22.5t26 -32.5
t14 -39.5l-64 -25q-2 23 -19.5 37.5t-39.5 14.5q-23 0 -39.5 -15.5t-15.5 -37.5q2 -47 76 -61q48 -7 90.5 -24t75 -44.5t51 -66.5t18.5 -90q0 -54 -20 -100.5t-55 -81t-82 -54t-101 -19.5t-101 20t-82 55t-55 81.5t-20 100.5q0 53 21 98t56 77zM174 795l249 104v-92
l-249 -69v57z" />
    <glyph glyph-name="sacute" unicode="&#x15b;" horiz-adv-x="330" 
d="M243 349q0 31 -19 52.5t-46 21.5q-26 0 -45 -21.5t-19 -50.5q0 -27 23 -44.5t72 -31.5q56 -16 83.5 -45.5t27.5 -87.5q0 -30 -11 -56t-30.5 -45.5t-45.5 -31t-57 -11.5q-30 0 -56 10.5t-45.5 29t-31 44.5t-11.5 57h84q0 -30 19.5 -50t45.5 -20t45 19.5t19 49.5
q0 19 -7.5 31t-20 20t-30 14t-38.5 12q-50 14 -83.5 45.5t-33.5 87.5q0 31 10.5 57t30 45.5t45.5 30.5t58 11q65 0 104.5 -38.5t39.5 -104.5h-77zM65 615l249 104v-92l-249 -69v57z" />
    <glyph glyph-name="Scircumflex" unicode="&#x15c;" horiz-adv-x="544" 
d="M152 371q-23 -21 -36 -51t-13 -63q0 -35 13.5 -65.5t36.5 -53.5t54 -36.5t66 -13.5t66 13.5t54 36.5t36.5 53.5t13.5 65.5q0 38 -15.5 64.5t-39.5 44t-53 27.5t-56 15q-69 12 -104 49.5t-34 91.5q0 25 9.5 47t26.5 38.5t40.5 26t51.5 9.5t50.5 -8.5t38.5 -22.5t26 -32.5
t14 -39.5l-64 -25q-2 23 -19.5 37.5t-39.5 14.5q-23 0 -39.5 -15.5t-15.5 -37.5q2 -47 76 -61q48 -7 90.5 -24t75 -44.5t51 -66.5t18.5 -90q0 -54 -20 -100.5t-55 -81t-82 -54t-101 -19.5t-101 20t-82 55t-55 81.5t-20 100.5q0 53 21 98t56 77zM128 767l142 113l145 -113
l-64 -44l-81 71l-80 -71z" />
    <glyph glyph-name="scircumflex" unicode="&#x15d;" horiz-adv-x="330" 
d="M243 349q0 31 -19 52.5t-46 21.5q-26 0 -45 -21.5t-19 -50.5q0 -27 23 -44.5t72 -31.5q56 -16 83.5 -45.5t27.5 -87.5q0 -30 -11 -56t-30.5 -45.5t-45.5 -31t-57 -11.5q-30 0 -56 10.5t-45.5 29t-31 44.5t-11.5 57h84q0 -30 19.5 -50t45.5 -20t45 19.5t19 49.5
q0 19 -7.5 31t-20 20t-30 14t-38.5 12q-50 14 -83.5 45.5t-33.5 87.5q0 31 10.5 57t30 45.5t45.5 30.5t58 11q65 0 104.5 -38.5t39.5 -104.5h-77zM36 587l142 113l145 -113l-64 -44l-81 71l-80 -71z" />
    <glyph glyph-name="Scedilla" unicode="&#x15e;" horiz-adv-x="544" 
d="M207 -182q0 -14 6 -25.5t16 -19.5t22 -12t23 -4q21 0 40 16t19 39q0 12 -5.5 23.5t-17.5 19.5t-32 12t-49 2v135q-46 7 -85.5 29.5t-68 56.5t-44.5 76.5t-16 90.5q0 53 21 98t56 77l60 -61q-23 -21 -36 -51t-13 -63q0 -35 13.5 -65.5t36.5 -53.5t54 -36.5t66 -13.5
t66 13.5t54 36.5t36.5 53.5t13.5 65.5q0 38 -15.5 64.5t-39.5 44t-53 27.5t-56 15q-69 12 -104 49.5t-34 91.5q0 25 9.5 47t26.5 38.5t40.5 26t51.5 9.5t50.5 -8.5t38.5 -22.5t26 -32.5t14 -39.5l-64 -25q-2 23 -19.5 37.5t-39.5 14.5q-23 0 -39.5 -15.5t-15.5 -37.5
q2 -47 76 -61q48 -7 90.5 -24t75 -44.5t51 -66.5t18.5 -90q0 -48 -16.5 -90.5t-45 -75.5t-67.5 -55.5t-85 -29.5v-95q34 -11 57.5 -37t23.5 -74q0 -27 -11.5 -49t-29.5 -37.5t-40 -23.5t-44 -8q-24 0 -47 9.5t-40.5 27.5t-28 43.5t-8.5 57.5h58z" />
    <glyph glyph-name="scedilla" unicode="&#x15f;" horiz-adv-x="330" 
d="M101 -179q0 -14 6 -25.5t16 -19.5t22 -12t23 -4q21 0 40 16t19 39q0 12 -5.5 23.5t-17.5 19.5t-32 12t-49 2v135q-40 15 -65.5 49.5t-25.5 82.5h84q0 -30 19.5 -50t45.5 -20t45 19.5t19 49.5q0 19 -7.5 31t-20 20t-30 14t-38.5 12q-50 14 -83.5 45.5t-33.5 87.5
q0 31 10.5 57t30 45.5t45.5 30.5t58 11q65 0 104.5 -38.5t39.5 -104.5h-77q0 31 -19 52.5t-46 21.5q-26 0 -45 -21.5t-19 -50.5q0 -27 23 -44.5t72 -31.5q56 -16 83.5 -45.5t27.5 -87.5q0 -51 -30.5 -90t-78.5 -50v-90q34 -11 57.5 -37t23.5 -74q0 -27 -11.5 -49
t-29.5 -37.5t-40 -23.5t-44 -8q-24 0 -47 9.5t-40.5 27.5t-28 43.5t-8.5 57.5h58z" />
    <glyph glyph-name="Scaron" unicode="&#x160;" horiz-adv-x="566" 
d="M152 371q-23 -21 -36 -51t-13 -63q0 -35 13.5 -65.5t36.5 -53.5t54 -36.5t66 -13.5t66 13.5t54 36.5t36.5 53.5t13.5 65.5q0 38 -15.5 64.5t-39.5 44t-53 27.5t-56 15q-69 12 -104 49.5t-34 91.5q0 25 9.5 47t26.5 38.5t40.5 26t51.5 9.5t50.5 -8.5t38.5 -22.5t26 -32.5
t14 -39.5l-64 -25q-2 23 -19.5 37.5t-39.5 14.5q-23 0 -39.5 -15.5t-15.5 -37.5q2 -47 76 -61q48 -7 90.5 -24t75 -44.5t51 -66.5t18.5 -90q0 -54 -20 -100.5t-55 -81t-82 -54t-101 -19.5t-101 20t-82 55t-55 81.5t-20 100.5q0 53 21 98t56 77zM416 842l-133 -119l-134 119
l52 38l82 -75l81 75z" />
    <glyph glyph-name="scaron" unicode="&#x161;" horiz-adv-x="330" 
d="M243 349q0 31 -19 52.5t-46 21.5q-26 0 -45 -21.5t-19 -50.5q0 -27 23 -44.5t72 -31.5q56 -16 83.5 -45.5t27.5 -87.5q0 -30 -11 -56t-30.5 -45.5t-45.5 -31t-57 -11.5q-30 0 -56 10.5t-45.5 29t-31 44.5t-11.5 57h84q0 -30 19.5 -50t45.5 -20t45 19.5t19 49.5
q0 19 -7.5 31t-20 20t-30 14t-38.5 12q-50 14 -83.5 45.5t-33.5 87.5q0 31 10.5 57t30 45.5t45.5 30.5t58 11q65 0 104.5 -38.5t39.5 -104.5h-77zM298 662l-133 -119l-134 119l52 38l82 -75l81 75z" />
    <glyph glyph-name="uni0162" unicode="&#x162;" horiz-adv-x="401" 
d="M157 0v581h-167v89h420v-89h-166v-581h-87zM245 -57v-165h-88v165h88z" />
    <glyph glyph-name="uni0163" unicode="&#x163;" horiz-adv-x="189" 
d="M-9 492h51v152h85v-152h79v-70h-79v-271q0 -35 22 -56.5t57 -21.5v-75q-81 0 -122.5 39t-41.5 114v271h-51v70zM169 -57v-165h-88v165h88z" />
    <glyph glyph-name="Tcaron" unicode="&#x164;" horiz-adv-x="401" 
d="M157 0v581h-167v89h420v-89h-166v-581h-87zM333 842l-133 -119l-134 119l52 38l82 -75l81 75z" />
    <glyph glyph-name="tcaron" unicode="&#x165;" horiz-adv-x="318" 
d="M-9 492h46v152h85v-152h89v-70h-89v-271q0 -35 22 -56.5t57 -21.5v-75q-81 0 -122.5 39t-41.5 114v271h-46v70zM302 634v-194h-88v194h88z" />
    <glyph glyph-name="Tbar" unicode="&#x166;" horiz-adv-x="401" 
d="M157 0v312h-127v88h127v181h-167v89h420v-89h-166v-181h126v-88h-126v-312h-87z" />
    <glyph glyph-name="tbar" unicode="&#x167;" horiz-adv-x="189" 
d="M-8 651h220v-76h-90v-83h89v-70h-89v-271q0 -35 22 -56.5t57 -21.5v-75q-81 0 -122.5 39t-41.5 114v271h-46v70h46v83h-45v76z" />
    <glyph glyph-name="Utilde" unicode="&#x168;" horiz-adv-x="565" 
d="M113 670v-414q0 -35 13.5 -66t36 -54t53 -36.5t65.5 -13.5q40 0 71.5 16t53.5 43t33.5 62.5t11.5 74.5v388h88v-414q0 -54 -20 -101t-55 -82t-82 -55t-101 -20t-101 20t-81.5 55t-54 82t-19.5 101v414h88zM126 729q-17 71 3.5 111.5t60.5 40.5q23 0 42 -10.5t36 -23
t34 -23t36 -10.5t29 16t-2 50h64q12 -41 10.5 -69.5t-12 -46.5t-27 -26t-34.5 -8q-23 0 -42 9.5t-35.5 21.5t-32.5 21.5t-34 9.5q-19 0 -28.5 -16.5t-3.5 -46.5h-64z" />
    <glyph glyph-name="utilde" unicode="&#x169;" 
d="M111 490v-242q0 -38 11.5 -70t33 -55.5t51.5 -36.5t66 -13q32 0 60.5 13t50.5 36.5t35 56.5t15 73v238h84v-490h-84v117q-28 -54 -75 -86.5t-110 -32.5q-47 0 -87.5 17t-70.5 48t-47 73.5t-17 93.5v260h84zM119 549q-17 71 3.5 111.5t60.5 40.5q23 0 42 -10.5t36 -23
t34 -23t36 -10.5t29 16t-2 50h64q12 -41 10.5 -69.5t-12 -46.5t-27 -26t-34.5 -8q-23 0 -42 9.5t-35.5 21.5t-32.5 21.5t-34 9.5q-19 0 -28.5 -16.5t-3.5 -46.5h-64z" />
    <glyph glyph-name="Umacron" unicode="&#x16a;" horiz-adv-x="565" 
d="M113 670v-414q0 -35 13.5 -66t36 -54t53 -36.5t65.5 -13.5q40 0 71.5 16t53.5 43t33.5 62.5t11.5 74.5v388h88v-414q0 -54 -20 -101t-55 -82t-82 -55t-101 -20t-101 20t-81.5 55t-54 82t-19.5 101v414h88zM112 849h340v-88h-340v88z" />
    <glyph glyph-name="umacron" unicode="&#x16b;" 
d="M111 490v-242q0 -38 11.5 -70t33 -55.5t51.5 -36.5t66 -13q33 0 62.5 14t51 38.5t34.5 59t13 76.5v229h84v-490h-84v117q-28 -54 -75 -86.5t-110 -32.5q-47 0 -87.5 17t-70.5 48t-47 73.5t-17 93.5v260h84zM106 669h340v-88h-340v88z" />
    <glyph glyph-name="Ubreve" unicode="&#x16c;" horiz-adv-x="565" 
d="M113 670v-414q0 -35 13.5 -66t36 -54t53 -36.5t65.5 -13.5q40 0 71.5 16t53.5 43t33.5 62.5t11.5 74.5v388h88v-414q0 -54 -20 -101t-55 -82t-82 -55t-101 -20t-101 20t-81.5 55t-54 82t-19.5 101v414h88zM414 874q0 -32 -10 -58t-28 -44.5t-42.5 -29t-52.5 -10.5
t-52 10.5t-41.5 29t-27.5 44.5t-10 58h68q0 -28 18 -48t46 -20q29 -1 46 20t17 48h69z" />
    <glyph glyph-name="ubreve" unicode="&#x16d;" 
d="M111 490v-242q0 -38 11.5 -70t33 -55.5t51.5 -36.5t66 -13q33 0 62.5 14t51 38.5t34.5 59t13 76.5v229h84v-490h-84v117q-28 -54 -75 -86.5t-110 -32.5q-47 0 -87.5 17t-70.5 48t-47 73.5t-17 93.5v260h84zM407 694q0 -32 -10 -58t-28 -44.5t-42.5 -29t-52.5 -10.5
t-52 10.5t-41.5 29t-27.5 44.5t-10 58h68q0 -28 18 -48t46 -20q29 -1 46 20t17 48h69z" />
    <glyph glyph-name="Uring" unicode="&#x16e;" horiz-adv-x="565" 
d="M113 670v-414q0 -35 13.5 -66t36 -54t53 -36.5t65.5 -13.5q40 0 71.5 16t53.5 43t33.5 62.5t11.5 74.5v388h88v-414q0 -54 -20 -101t-55 -82t-82 -55t-101 -20t-101 20t-81.5 55t-54 82t-19.5 101v414h88zM229 817q0 -22 15.5 -37t35.5 -15q22 0 37 15t15 37t-15 36.5
t-37 14.5q-20 0 -35.5 -14.5t-15.5 -36.5zM392 817q0 -24 -8.5 -44.5t-23.5 -35.5t-35.5 -23.5t-44.5 -8.5q-46 0 -77.5 31.5t-31.5 80.5q0 23 8.5 43.5t23 35.5t34.5 23.5t43 8.5q24 0 44.5 -8.5t35.5 -23.5t23.5 -35.5t8.5 -43.5z" />
    <glyph glyph-name="uring" unicode="&#x16f;" 
d="M111 490v-242q0 -38 11.5 -70t33 -55.5t51.5 -36.5t66 -13q33 0 62.5 14t51 38.5t34.5 59t13 76.5v229h84v-490h-84v117q-28 -54 -75 -86.5t-110 -32.5q-47 0 -87.5 17t-70.5 48t-47 73.5t-17 93.5v260h84zM386 637q0 -24 -8.5 -44.5t-23.5 -35.5t-35.5 -23.5t-44.5 -8.5
q-46 0 -77.5 31.5t-31.5 80.5q0 23 8.5 43.5t23 35.5t34.5 23.5t43 8.5q24 0 44.5 -8.5t35.5 -23.5t23.5 -35.5t8.5 -43.5zM223 637q0 -22 15.5 -37t35.5 -15q22 0 37 15t15 37t-15 36.5t-37 14.5q-20 0 -35.5 -14.5t-15.5 -36.5z" />
    <glyph glyph-name="Uhungarumlaut" unicode="&#x170;" horiz-adv-x="565" 
d="M113 670v-414q0 -35 13.5 -66t36 -54t53 -36.5t65.5 -13.5q40 0 71.5 16t53.5 43t33.5 62.5t11.5 74.5v388h88v-414q0 -54 -20 -101t-55 -82t-82 -55t-101 -20t-101 20t-81.5 55t-54 82t-19.5 101v414h88zM86 825l245 84v-67l194 67v-92l-244 -84v67l-195 -67v92z" />
    <glyph glyph-name="uhungarumlaut" unicode="&#x171;" 
d="M111 490v-242q0 -38 11.5 -70t33 -55.5t51.5 -36.5t66 -13q33 0 62.5 14t51 38.5t34.5 59t13 76.5v229h84v-490h-84v117q-28 -54 -75 -86.5t-110 -32.5q-47 0 -87.5 17t-70.5 48t-47 73.5t-17 93.5v260h84zM56 655l245 84v-67l194 67v-92l-244 -84v67l-195 -67v92z" />
    <glyph glyph-name="Uogonek" unicode="&#x172;" horiz-adv-x="565" 
d="M113 670v-414q0 -35 13.5 -66t36 -54t53 -36.5t65.5 -13.5q40 0 71.5 16t53.5 43t33.5 62.5t11.5 74.5v388h88v-414q0 -54 -20 -101t-55 -81.5t-82 -55t-100 -20.5q-38 0 -58.5 -20.5t-20.5 -49.5t22 -49t51 -20q30 0 51 20t21 52h64q1 -30 -9.5 -57t-29 -47t-45.5 -31.5
t-59 -11.5q-30 0 -57 11t-46.5 30.5t-31 46t-9.5 56.5q1 26 11.5 51t31.5 44q-32 15 -58.5 39t-45.5 54t-29 65.5t-10 74.5v414h88z" />
    <glyph glyph-name="uogonek" unicode="&#x173;" 
d="M111 490v-242q0 -38 11.5 -70t33 -55.5t51.5 -36.5t66 -13q32 0 60.5 13t50.5 36.5t35 56.5t15 73v238h84v-490h-11q-34 -2 -52.5 -22.5t-18.5 -47.5q0 -29 22 -49t51 -20q30 0 51 20t21 52h64q1 -30 -9.5 -57t-29 -47t-45.5 -31.5t-59 -11.5q-30 0 -57 11t-46.5 30.5
t-31 46t-9.5 56.5q1 34 20 67t56 50v70q-28 -54 -75 -86.5t-110 -32.5q-47 0 -87.5 17t-70.5 48t-47 73.5t-17 93.5v260h84z" />
    <glyph glyph-name="Wcircumflex" unicode="&#x174;" horiz-adv-x="698" 
d="M276 670l73 -232l76 232h71l-113 -338l75 -235l187 573h91l-224 -670h-91l-74 226l-75 -226h-91l-217 670h92l184 -568l74 228l-110 340h72zM205 767l142 113l145 -113l-64 -44l-81 71l-80 -71z" />
    <glyph glyph-name="wcircumflex" unicode="&#x175;" horiz-adv-x="680" 
d="M305 490l29 -80l32 80h90l-78 -197l70 -190l160 387h90l-195 -492h-90l-75 196l-77 -196h-90l-187 492h91l143 -372l76 192l-68 180h79zM196 587l142 113l145 -113l-64 -44l-81 71l-80 -71z" />
    <glyph glyph-name="Ycircumflex" unicode="&#x176;" horiz-adv-x="486" 
d="M83 670l159 -363l158 363h99l-212 -458v-212h-89v212l-213 458h98zM99 767l142 113l145 -113l-64 -44l-81 71l-80 -71z" />
    <glyph glyph-name="ycircumflex" unicode="&#x177;" horiz-adv-x="461" 
d="M85 490l147 -376l144 376h90l-251 -637h-84l57 145l-194 492h91zM86 587l142 113l145 -113l-64 -44l-81 71l-80 -71z" />
    <glyph glyph-name="Ydieresis" unicode="&#x178;" horiz-adv-x="486" 
d="M83 670l159 -363l158 363h99l-212 -458v-212h-89v212l-213 458h98zM106 800q0 23 16 38.5t37 15.5q23 0 38.5 -15.5t15.5 -38.5q0 -21 -15.5 -37t-38.5 -16q-21 0 -37 16t-16 37zM273 800q0 23 15.5 38.5t37.5 15.5t37.5 -15.5t15.5 -38.5q0 -21 -15.5 -37t-37.5 -16
t-37.5 16t-15.5 37z" />
    <glyph glyph-name="Zacute" unicode="&#x179;" horiz-adv-x="502" 
d="M28 670h449l-317 -582h315v-88h-449l309 581h-307v89zM126 795l249 104v-92l-249 -69v57z" />
    <glyph glyph-name="zacute" unicode="&#x17a;" horiz-adv-x="450" 
d="M5 492h442l-296 -409h294v-85h-443l294 409h-291v85zM100 615l249 104v-92l-249 -69v57z" />
    <glyph glyph-name="Zdotaccent" unicode="&#x17b;" horiz-adv-x="502" 
d="M28 670h449l-317 -582h315v-88h-449l309 581h-307v89zM197 816q0 23 16 38.5t37 15.5q23 0 38.5 -15.5t15.5 -38.5q0 -22 -15.5 -37.5t-38.5 -15.5q-21 0 -37 15.5t-16 37.5z" />
    <glyph glyph-name="zdotaccent" unicode="&#x17c;" horiz-adv-x="450" 
d="M5 492h442l-296 -409h294v-85h-443l294 409h-291v85zM171 636q0 23 16 38.5t37 15.5q23 0 38.5 -15.5t15.5 -38.5q0 -22 -15.5 -37.5t-38.5 -15.5q-21 0 -37 15.5t-16 37.5z" />
    <glyph glyph-name="Zcaron" unicode="&#x17d;" horiz-adv-x="502" 
d="M28 670h449l-317 -582h315v-88h-449l309 581h-307v89zM384 842l-133 -119l-134 119l52 38l82 -75l81 75z" />
    <glyph glyph-name="zcaron" unicode="&#x17e;" horiz-adv-x="450" 
d="M5 492h442l-296 -409h294v-85h-443l294 409h-291v85zM358 662l-133 -119l-134 119l52 38l82 -75l81 75z" />
    <glyph glyph-name="florin" unicode="&#x192;" horiz-adv-x="348" 
d="M65 492h67v4q0 31 14.5 58t40.5 47.5t60.5 32.5t75.5 12v-83q-22 0 -41.5 -5.5t-34 -14.5t-23 -21.5t-8.5 -25.5v-4h107v-85h-107v-431q0 -32 -14.5 -59.5t-40.5 -48t-61 -32.5t-75 -12v83q22 0 41.5 5.5t34 14.5t23 21t8.5 26v433h-67v85z" />
    <glyph glyph-name="circumflex" unicode="&#x2c6;" horiz-adv-x="337" 
d="M25 587l142 113l145 -113l-64 -44l-81 71l-80 -71z" />
    <glyph glyph-name="caron" unicode="&#x2c7;" horiz-adv-x="337" 
d="M302 662l-133 -119l-134 119l52 38l82 -75l81 75z" />
    <glyph glyph-name="breve" unicode="&#x2d8;" horiz-adv-x="314" 
d="M289 694q0 -32 -10 -58t-28 -44.5t-42.5 -29t-52.5 -10.5t-52 10.5t-41.5 29t-27.5 44.5t-10 58h68q0 -28 18 -48t46 -20q29 -1 46 20t17 48h69z" />
    <glyph glyph-name="dotaccent" unicode="&#x2d9;" horiz-adv-x="138" 
d="M13 636q0 23 16 38.5t37 15.5q23 0 38.5 -15.5t15.5 -38.5q0 -22 -15.5 -37.5t-38.5 -15.5q-21 0 -37 15.5t-16 37.5z" />
    <glyph glyph-name="ring" unicode="&#x2da;" horiz-adv-x="271" 
d="M83 637q0 -22 15.5 -37t35.5 -15q22 0 37 15t15 37t-15 36.5t-37 14.5q-20 0 -35.5 -14.5t-15.5 -36.5zM246 637q0 -24 -8.5 -44.5t-23.5 -35.5t-35.5 -23.5t-44.5 -8.5q-46 0 -77.5 31.5t-31.5 80.5q0 23 8.5 43.5t23 35.5t34.5 23.5t43 8.5q24 0 44.5 -8.5t35.5 -23.5
t23.5 -35.5t8.5 -43.5z" />
    <glyph glyph-name="ogonek" unicode="&#x2db;" horiz-adv-x="337" 
d="M182 -2q-38 0 -58.5 -20.5t-20.5 -49.5t22 -49t51 -20q30 0 51 20t21 52h64q1 -30 -9.5 -57t-29 -47t-45.5 -31.5t-59 -11.5q-30 0 -57 11t-46.5 30.5t-31 46t-9.5 56.5q1 24 11 49t30 44t49 29t67 6v-58z" />
    <glyph glyph-name="tilde" unicode="&#x2dc;" horiz-adv-x="336" 
d="M13 549q-17 71 3.5 111.5t60.5 40.5q23 0 42 -10.5t36 -23t34 -23t36 -10.5t29 16t-2 50h64q12 -41 10.5 -69.5t-12 -46.5t-27 -26t-34.5 -8q-23 0 -42 9.5t-35.5 21.5t-32.5 21.5t-34 9.5q-19 0 -28.5 -16.5t-3.5 -46.5h-64z" />
    <glyph glyph-name="hungarumlaut" unicode="&#x2dd;" horiz-adv-x="458" 
d="M30 655l245 84v-67l194 67v-92l-244 -84v67l-195 -67v92z" />
    <glyph glyph-name="uni1E02" unicode="&#x1e02;" horiz-adv-x="518" 
d="M354 557q0 -29 -15 -51t-41 -32q46 -7 82 -28.5t60 -51.5t36.5 -66t12.5 -72q0 -54 -20 -101t-55 -81.5t-82 -54t-100 -19.5h-207v670h207q52 0 87 -31.5t35 -81.5zM113 426v-338h119q34 0 65 13t53.5 36t36 53.5t13.5 65.5t-12 66t-35 54t-55.5 36.5t-72.5 13.5h-112z
M282 545q0 22 -14.5 37.5t-38.5 15.5h-116v-106h120q21 0 35 15.5t14 37.5zM121 776q0 23 16 38.5t37 15.5q23 0 38.5 -15.5t15.5 -38.5q0 -22 -15.5 -37.5t-38.5 -15.5q-21 0 -37 15.5t-16 37.5z" />
    <glyph glyph-name="uni1E03" unicode="&#x1e03;" horiz-adv-x="547" 
d="M111 644v-251q29 45 75.5 72t103.5 27q48 0 89.5 -19.5t72 -53t48.5 -78.5t18 -97q0 -51 -18 -96t-48.5 -78t-72 -52.5t-89.5 -19.5q-57 0 -103.5 26.5t-75.5 71.5v-96h-84v644h84zM434 244q0 33 -12.5 63t-34.5 52t-51.5 35t-62.5 13t-62 -12.5t-51 -34t-35 -50
t-14 -60.5v-6q0 -33 12.5 -62.5t34.5 -51.5t51.5 -34.5t63.5 -12.5q33 0 62.5 12.5t51.5 34.5t34.5 51.5t12.5 62.5zM219 717q0 23 16 38.5t37 15.5q23 0 38.5 -15.5t15.5 -38.5q0 -22 -15.5 -37.5t-38.5 -15.5q-21 0 -37 15.5t-16 37.5z" />
    <glyph glyph-name="uni1E0A" unicode="&#x1e0a;" horiz-adv-x="561" 
d="M123 581v-493h75q51 0 96 19t78.5 52.5t53 78.5t19.5 96t-19.5 96t-53 78.5t-78.5 53t-96 19.5h-75zM198 670q70 0 131 -26t106.5 -71.5t72 -107t26.5 -131.5t-26.5 -131t-72 -106t-106.5 -71t-131 -26h-163v670h163zM178 800q0 23 16 38.5t37 15.5q23 0 38.5 -15.5
t15.5 -38.5q0 -22 -15.5 -37.5t-38.5 -15.5q-21 0 -37 15.5t-16 37.5z" />
    <glyph glyph-name="uni1E0B" unicode="&#x1e0b;" horiz-adv-x="547" 
d="M22 244q0 52 18 97t48.5 78.5t72 53t89.5 19.5q57 0 103 -27t76 -72v251h85v-644h-85v96q-30 -45 -76 -71.5t-103 -26.5q-48 0 -89.5 19.5t-72 52.5t-48.5 78t-18 96zM107 244q0 -33 12.5 -62.5t34 -51.5t51 -34.5t63.5 -12.5q33 0 61.5 12t50 33t34.5 49t15 60v7
q0 33 -12.5 63t-34.5 52t-51.5 35t-62.5 13q-34 0 -63.5 -13t-51 -35t-34 -52t-12.5 -63zM219 684q0 23 16 38.5t37 15.5q23 0 38.5 -15.5t15.5 -38.5q0 -22 -15.5 -37.5t-38.5 -15.5q-21 0 -37 15.5t-16 37.5z" />
    <glyph glyph-name="uni1E1E" unicode="&#x1e1e;" horiz-adv-x="373" 
d="M25 0v670h443v-89h-355v-282h223v-87h-223v-212h-88zM182 816q0 23 16 38.5t37 15.5q23 0 38.5 -15.5t15.5 -38.5q0 -22 -15.5 -37.5t-38.5 -15.5q-21 0 -37 15.5t-16 37.5z" />
    <glyph glyph-name="uni1E1F" unicode="&#x1e1f;" horiz-adv-x="184" 
d="M-3 492h48v19q0 32 9.5 61t29 50t50 32t73.5 7v-63q-35 2 -56.5 -20t-21.5 -55v-31h80v-70h-80v-422h-84v422h-48v70zM58 765q0 23 16 38.5t37 15.5q23 0 38.5 -15.5t15.5 -38.5q0 -22 -15.5 -37.5t-38.5 -15.5q-21 0 -37 15.5t-16 37.5z" />
    <glyph glyph-name="uni1E40" unicode="&#x1e40;" horiz-adv-x="670" 
d="M290 0l-187 501v-501h-78v670h96l212 -555l217 555h95v-670h-82v501l-185 -501h-88zM281 761q0 23 16 38.5t37 15.5q23 0 38.5 -15.5t15.5 -38.5q0 -22 -15.5 -37.5t-38.5 -15.5q-21 0 -37 15.5t-16 37.5z" />
    <glyph glyph-name="uni1E41" unicode="&#x1e41;" horiz-adv-x="680" 
d="M117 490v-61q21 30 51 46.5t67 16.5q47 0 80 -23t50 -60q19 39 52.5 61t79.5 22q34 0 62.5 -13.5t48.5 -37t31 -54.5t11 -66v-321h-84v321q0 26 -12 46t-31 31.5t-41.5 13t-43.5 -9.5q-23 -10 -38 -32t-17 -62v-308h-84v321q0 25 -12 45t-31 32t-41.5 13.5t-43.5 -9.5
q-22 -10 -37 -31.5t-17 -62.5v-308h-85v490h85zM286 636q0 23 16 38.5t37 15.5q23 0 38.5 -15.5t15.5 -38.5q0 -22 -15.5 -37.5t-38.5 -15.5q-21 0 -37 15.5t-16 37.5z" />
    <glyph glyph-name="uni1E56" unicode="&#x1e56;" horiz-adv-x="501" 
d="M25 0v670h206q54 0 101 -20t82 -55.5t55 -82.5t20 -101q0 -53 -20 -100t-55 -81.5t-82 -54.5t-101 -20h-118v-155h-88zM113 243h118q35 0 66 13.5t54 36t36.5 53t13.5 65.5q0 36 -13.5 67t-36.5 54t-54 36t-66 13h-118v-338zM175 811q0 23 16 38.5t37 15.5
q23 0 38.5 -15.5t15.5 -38.5q0 -22 -15.5 -37.5t-38.5 -15.5q-21 0 -37 15.5t-16 37.5z" />
    <glyph glyph-name="uni1E57" unicode="&#x1e57;" horiz-adv-x="547" 
d="M518 244q0 -51 -18 -96t-48.5 -78t-72 -52.5t-89.5 -19.5q-57 0 -103.5 26.5t-75.5 71.5v-243h-84v637h84v-97q29 45 75.5 72t103.5 27q48 0 89.5 -19.5t72 -53t48.5 -78.5t18 -97zM434 244q0 33 -12.5 63t-34.5 52t-51.5 35t-62.5 13t-62 -12.5t-51 -34t-35 -50
t-14 -60.5v-6q0 -33 12.5 -62.5t34.5 -51.5t51.5 -34.5t63.5 -12.5q33 0 62.5 12.5t51.5 34.5t34.5 51.5t12.5 62.5zM219 625q0 23 16 38.5t37 15.5q23 0 38.5 -15.5t15.5 -38.5q0 -22 -15.5 -37.5t-38.5 -15.5q-21 0 -37 15.5t-16 37.5z" />
    <glyph glyph-name="uni1E60" unicode="&#x1e60;" horiz-adv-x="544" 
d="M152 371q-23 -21 -36 -51t-13 -63q0 -35 13.5 -65.5t36.5 -53.5t54 -36.5t66 -13.5t66 13.5t54 36.5t36.5 53.5t13.5 65.5q0 38 -15.5 64.5t-39.5 44t-53 27.5t-56 15q-69 12 -104 49.5t-34 91.5q0 25 9.5 47t26.5 38.5t40.5 26t51.5 9.5t50.5 -8.5t38.5 -22.5t26 -32.5
t14 -39.5l-64 -25q-2 23 -19.5 37.5t-39.5 14.5q-23 0 -39.5 -15.5t-15.5 -37.5q2 -47 76 -61q48 -7 90.5 -24t75 -44.5t51 -66.5t18.5 -90q0 -54 -20 -100.5t-55 -81t-82 -54t-101 -19.5t-101 20t-82 55t-55 81.5t-20 100.5q0 53 21 98t56 77zM218 816q0 23 16 38.5
t37 15.5q23 0 38.5 -15.5t15.5 -38.5q0 -22 -15.5 -37.5t-38.5 -15.5q-21 0 -37 15.5t-16 37.5z" />
    <glyph glyph-name="uni1E61" unicode="&#x1e61;" horiz-adv-x="330" 
d="M243 349q0 31 -19 52.5t-46 21.5q-26 0 -45 -21.5t-19 -50.5q0 -27 23 -44.5t72 -31.5q56 -16 83.5 -45.5t27.5 -87.5q0 -30 -11 -56t-30.5 -45.5t-45.5 -31t-57 -11.5q-30 0 -56 10.5t-45.5 29t-31 44.5t-11.5 57h84q0 -30 19.5 -50t45.5 -20t45 19.5t19 49.5
q0 19 -7.5 31t-20 20t-30 14t-38.5 12q-50 14 -83.5 45.5t-33.5 87.5q0 31 10.5 57t30 45.5t45.5 30.5t58 11q65 0 104.5 -38.5t39.5 -104.5h-77zM125 636q0 23 16 38.5t37 15.5q23 0 38.5 -15.5t15.5 -38.5q0 -22 -15.5 -37.5t-38.5 -15.5q-21 0 -37 15.5t-16 37.5z" />
    <glyph glyph-name="uni1E6A" unicode="&#x1e6a;" horiz-adv-x="401" 
d="M157 0v581h-167v89h420v-89h-166v-581h-87zM146 816q0 23 16 38.5t37 15.5q23 0 38.5 -15.5t15.5 -38.5q0 -22 -15.5 -37.5t-38.5 -15.5q-21 0 -37 15.5t-16 37.5z" />
    <glyph glyph-name="uni1E6B" unicode="&#x1e6b;" horiz-adv-x="189" 
d="M-9 492h46v152h85v-152h89v-70h-89v-271q0 -35 22 -56.5t57 -21.5v-75q-81 0 -122.5 39t-41.5 114v271h-46v70zM30 738q0 23 16 38.5t37 15.5q23 0 38.5 -15.5t15.5 -38.5q0 -22 -15.5 -37.5t-38.5 -15.5q-21 0 -37 15.5t-16 37.5z" />
    <glyph glyph-name="Wgrave" unicode="&#x1e80;" horiz-adv-x="698" 
d="M276 670l73 -232l76 232h71l-113 -338l75 -235l187 573h91l-224 -670h-91l-74 226l-75 -226h-91l-217 670h92l184 -568l74 228l-110 340h72zM474 734l-250 78v92l250 -108v-62z" />
    <glyph glyph-name="wgrave" unicode="&#x1e81;" horiz-adv-x="680" 
d="M305 490l29 -80l32 80h90l-78 -197l70 -190l160 387h90l-195 -492h-90l-75 196l-77 -196h-90l-187 492h91l143 -372l76 192l-68 180h79zM451 554l-250 78v92l250 -108v-62z" />
    <glyph glyph-name="Wacute" unicode="&#x1e82;" horiz-adv-x="698" 
d="M276 670l73 -232l76 232h71l-113 -338l75 -235l187 573h91l-224 -670h-91l-74 226l-75 -226h-91l-217 670h92l184 -568l74 228l-110 340h72zM224 795l249 104v-92l-249 -69v57z" />
    <glyph glyph-name="wacute" unicode="&#x1e83;" horiz-adv-x="680" 
d="M305 490l29 -80l32 80h90l-78 -197l70 -190l160 387h90l-195 -492h-90l-75 196l-77 -196h-90l-187 492h91l143 -372l76 192l-68 180h79zM215 615l249 104v-92l-249 -69v57z" />
    <glyph glyph-name="Wdieresis" unicode="&#x1e84;" horiz-adv-x="698" 
d="M276 670l73 -232l76 232h71l-113 -338l75 -235l187 573h91l-224 -670h-91l-74 226l-75 -226h-91l-217 670h92l184 -568l74 228l-110 340h72zM212 800q0 23 16 38.5t37 15.5q23 0 38.5 -15.5t15.5 -38.5q0 -21 -15.5 -37t-38.5 -16q-21 0 -37 16t-16 37zM379 800
q0 23 15.5 38.5t37.5 15.5t37.5 -15.5t15.5 -38.5q0 -21 -15.5 -37t-37.5 -16t-37.5 16t-15.5 37z" />
    <glyph glyph-name="wdieresis" unicode="&#x1e85;" horiz-adv-x="680" 
d="M305 490l29 -80l32 80h90l-78 -197l70 -190l160 387h90l-195 -492h-90l-75 196l-77 -196h-90l-187 492h91l143 -372l76 192l-68 180h79zM203 620q0 23 16 38.5t37 15.5q23 0 38.5 -15.5t15.5 -38.5q0 -21 -15.5 -37t-38.5 -16q-21 0 -37 16t-16 37zM370 620
q0 23 15.5 38.5t37.5 15.5t37.5 -15.5t15.5 -38.5q0 -21 -15.5 -37t-37.5 -16t-37.5 16t-15.5 37z" />
    <glyph glyph-name="Ygrave" unicode="&#x1ef2;" horiz-adv-x="486" 
d="M83 670l159 -363l158 363h99l-212 -458v-212h-89v212l-213 458h98zM368 717l-250 78v92l250 -108v-62z" />
    <glyph glyph-name="ygrave" unicode="&#x1ef3;" horiz-adv-x="461" 
d="M85 490l147 -376l144 376h90l-251 -637h-84l57 145l-194 492h91zM355 554l-250 78v92l250 -108v-62z" />
    <glyph glyph-name="endash" unicode="&#x2013;" horiz-adv-x="564" 
d="M25 310h514v-89h-514v89z" />
    <glyph glyph-name="emdash" unicode="&#x2014;" horiz-adv-x="826" 
d="M25 310h776v-89h-776v89z" />
    <glyph glyph-name="quoteleft" unicode="&#x2018;" horiz-adv-x="138" 
d="M113 634v-194h-88v194h88z" />
    <glyph glyph-name="quoteright" unicode="&#x2019;" horiz-adv-x="138" 
d="M113 634v-194h-88v194h88z" />
    <glyph glyph-name="quotesinglbase" unicode="&#x201a;" horiz-adv-x="138" 
d="M113 137v-194h-88v194h88z" />
    <glyph glyph-name="quotedblleft" unicode="&#x201c;" horiz-adv-x="274" 
d="M113 634v-194h-88v194h88zM244 634v-194h-88v194h88z" />
    <glyph glyph-name="quotedblright" unicode="&#x201d;" horiz-adv-x="270" 
d="M113 634v-194h-88v194h88zM244 634v-194h-88v194h88z" />
    <glyph glyph-name="quotedblbase" unicode="&#x201e;" horiz-adv-x="262" 
d="M113 137v-194h-88v194h88zM235 137v-194h-89v194h89z" />
    <glyph glyph-name="dagger" unicode="&#x2020;" horiz-adv-x="390" 
d="M25 598h125v138h88v-138h127v-89h-127v-691h-88v691h-125v89z" />
    <glyph glyph-name="daggerdbl" unicode="&#x2021;" horiz-adv-x="390" 
d="M25 598h125v138h88v-138h127v-89h-127v-479h127v-87h-127v-125h-88v125h-125v87h125v479h-125v89z" />
    <glyph glyph-name="bullet" unicode="&#x2022;" horiz-adv-x="271" 
d="M246 258q0 -50 -31.5 -82t-79.5 -32q-47 0 -78.5 32t-31.5 82q0 23 8.5 43t23.5 34.5t35 23t43 8.5q24 0 44 -8.5t35 -23t23.5 -34.5t8.5 -43z" />
    <glyph glyph-name="ellipsis" unicode="&#x2026;" horiz-adv-x="608" 
d="M53 53q0 22 16 37.5t37 15.5q23 0 38.5 -15.5t15.5 -37.5t-15.5 -37.5t-38.5 -15.5q-21 0 -37 15.5t-16 37.5zM246 53q0 22 16 37.5t37 15.5q23 0 38.5 -15.5t15.5 -37.5t-15.5 -37.5t-38.5 -15.5q-21 0 -37 15.5t-16 37.5zM439 53q0 22 16 37.5t37 15.5q22 0 38 -15.5
t16 -37.5t-16 -37.5t-38 -15.5q-21 0 -37 15.5t-16 37.5z" />
    <glyph glyph-name="perthousand" unicode="&#x2030;" horiz-adv-x="756" 
d="M732 136q0 -30 -11 -55.5t-29.5 -44.5t-44.5 -29.5t-56 -10.5q-32 0 -59 12.5t-46 33.5q-20 -21 -47 -33.5t-59 -12.5q-30 0 -55.5 10.5t-44.5 29.5t-30 44.5t-11 55.5t11 56t30 44.5t44.5 29t55.5 10.5q32 0 59 -12.5t47 -33.5q19 21 46 33.5t59 12.5q30 0 56 -10.5
t44.5 -29t29.5 -44.5t11 -56zM4 39l447 595l64 -64l-447 -596zM298 491q0 -29 -11 -54.5t-30.5 -44.5t-45 -30t-55.5 -11q-29 0 -55 11t-45 30t-30 44.5t-11 54.5q0 30 11 56t30 44.5t45 29.5t55 11q30 0 55.5 -11t45 -29.5t30.5 -44.5t11 -56zM91 491q0 -28 20.5 -45
t44.5 -17q26 0 47 17t21 45q0 27 -21 45t-47 18q-24 0 -44.5 -18.5t-20.5 -44.5zM522 135q0 -28 20.5 -45t43.5 -17q27 0 48 17t21 45q0 26 -21 44.5t-48 18.5q-23 0 -43.5 -18.5t-20.5 -44.5zM310 135q0 -28 20.5 -45t44.5 -17q26 0 47 17t21 45q0 26 -21 44.5t-47 18.5
q-24 0 -44.5 -18.5t-20.5 -44.5z" />
    <glyph glyph-name="guilsinglleft" unicode="&#x2039;" horiz-adv-x="301" 
d="M212 74l-187 191l189 190l62 -63l-126 -127l126 -127z" />
    <glyph glyph-name="guilsinglright" unicode="&#x203a;" horiz-adv-x="304" 
d="M88 455l191 -189l-191 -190l-63 62l128 127l-128 127z" />
    <glyph glyph-name="fraction" unicode="&#x2044;" horiz-adv-x="475" 
d="M-18 39l447 595l64 -64l-447 -596z" />
    <glyph glyph-name="Euro" unicode="&#x20ac;" horiz-adv-x="705" 
d="M606 453q-47 67 -103 98.5t-119 31.5q-38 0 -73 -11t-64.5 -31t-52.5 -47.5t-37 -60.5h208v-68h-226q-2 -8 -2 -15.5v-15.5v-13.5t1 -13.5h227v-69h-209q14 -33 37 -61t53 -48.5t65 -31.5t73 -11q63 0 119 31.5t103 98.5l64 -65q-54 -78 -126 -115.5t-160 -37.5
q-57 0 -109 18t-94 50t-72.5 76t-45.5 96h-38v69h25q-1 7 -1 13.5v13.5v15.5t1 15.5h-25v68h38q16 52 46.5 96t72.5 75.5t93.5 49.5t108.5 18q88 0 160 -38t126 -115z" />
    <glyph glyph-name="trademark" unicode="&#x2122;" horiz-adv-x="920" 
d="M157 300v281h-167v89h515l128 -292l124 292h123v-370h-82v266l-130 -266h-81l-124 267v-267h-73v281h-146v-281h-87z" />
    <glyph glyph-name="minus" unicode="&#x2212;" horiz-adv-x="390" 
d="M25 310h340v-89h-340v89z" />
    </font>
</defs>
</svg>
